<?xml version="1.0" encoding="UTF-8"?>
<svg width="380px" height="400px" viewBox="0 0 380 400" version="1.1" xmlns="http://www.w3.org/2000/svg" xmlns:xlink="http://www.w3.org/1999/xlink">
    <!-- Generator: Sketch 52.4 (67378) - http://www.bohemiancoding.com/sketch -->
    <title>humaaans/sitting-8</title>
    <desc>Created with Sketch.</desc>
    <g id="humaaans/sitting-8" stroke="none" stroke-width="1" fill="none" fill-rule="evenodd">
        <g id="A-Human/Sitting" transform="translate(206.000000, 200.500000) scale(-1, 1) translate(-206.000000, -200.500000) translate(56.000000, 24.000000)">
            <g id="Head/Front/Short-2" transform="translate(82.000000, 0.000000)">
                <g id="Head" stroke-width="1" transform="translate(54.000000, 31.000000)" fill="#915B3C">
                    <path d="M8.26227388,34.4901268 C3.65436435,29.0813759 0.535634794,22.4528771 1.05677633,15.0254539 C2.55833022,-6.37502057 32.3485306,-1.66718886 38.1433414,9.13393292 C43.9381521,19.9350547 43.249578,47.3329958 35.7603014,49.2634576 C32.7735882,50.033323 26.4110012,48.1474609 19.935372,44.244306 L24,73 L0,73 L8.26227388,34.4901268 Z"></path>
                </g>
                <path d="M60.4181384,70.3075201 C57.4059021,56.9064588 48.8245327,47.7714043 50.1351137,41.781703 C51.0088343,37.7885688 53.3375617,35.3053788 57.1212959,34.3321331 C59.0782074,26.4155009 65.3896485,23.0482486 76.0556193,24.2303763 C92.0545754,26.0035679 101.819448,32.6477587 97.6024819,47.2678779 C93.7260987,47.2678779 89.0464758,45.8659867 82.57553,48.2678779 C80.5223249,49.0299883 79.0538125,51.3933595 78.1699927,55.3579915 L75.2457978,55.3579915 C72.4077436,50.6530572 69.6094038,48.9241222 66.8507787,50.1711866 C64.0921535,51.418251 63.4650732,54.4473753 64.9695377,59.2585597 L63.529076,70.3075201 L60.4181384,70.3075201 Z" id="Hair" fill="#191847"></path>
            </g>
            <g id="Bottom/Sitting/Baggy-Pants" transform="translate(0.000000, 187.000000)">
                <g id="Objects/Seat/Cube-2" transform="translate(10.000000, 42.000000)" fill="#C5CFD6">
                    <path d="M59,0 L174,0 C182.836556,-1.623249e-15 190,7.163444 190,16 L190,108 C190,116.836556 182.836556,124 174,124 L59,124 C50.163444,124 43,116.836556 43,108 L43,16 C43,7.163444 50.163444,1.623249e-15 59,0 Z M75,28 C72.790861,28 71,29.790861 71,32 L71,92 C71,94.209139 72.790861,96 75,96 L158,96 C160.209139,96 162,94.209139 162,92 L162,32 C162,29.790861 160.209139,28 158,28 L75,28 Z" id="Seat"></path>
                </g>
                <path d="M299.158964,161 C279.443095,136.924175 266.102867,119.075435 259.13828,107.453779 C247.213216,87.5546842 237.453121,69.8481647 234.373078,63.0843539 C227.028322,46.9551796 251.281896,39.4026181 256.77103,46.9258 C265.079054,58.3124345 282.822044,94.1429674 310,154.417399 L299.158964,161 Z" id="LegLower" fill="#B28B67"></path>
                <path d="M258.757567,154 L222.065197,61.6367769 C214.217429,44.7995771 252.115758,33.7320765 257.883274,41.5677718 C270.977322,59.3572261 302.098846,129.534043 306,134.834115 L258.757567,154 Z" id="LegLower" fill="#2F3676"></path>
                <g id="Lower-Leg" stroke-width="1" transform="translate(220.172961, 98.499284) rotate(39.000000) translate(-220.172961, -98.499284) translate(192.672961, 26.499284)" fill="#915B3C">
                    <path d="M4.8104618,137.955033 C3.80382537,125.354418 1.93361965,81.7337126 3.80483649,61.543304 C4.34254917,55.7413902 4.90906557,50.1318704 5.47997786,44.8696433 C7.17693121,29.2284421 36.1790278,29.7228704 33.8758977,44.5827954 C28.1401936,81.5898816 18.0447004,133.45317 17.3211185,137.93445 C16.3069876,144.215156 5.44310141,145.874127 4.8104618,137.955033 Z" id="LegLower"></path>
                </g>
                <g id="Accessories/Shoe/Flat-Sneaker" transform="translate(189.500000, 140.000000) rotate(30.000000) translate(-189.500000, -140.000000) translate(159.000000, 120.000000)" fill="#E4E4E4">
                    <path d="M2.67813181,25.4019242 C1.55937727,28.3884109 1,30.6229931 1,32.1056708 C1,33.908957 1.3004142,36.5404001 1.90124261,40 C3.99318117,40 22.7937852,40 58.3030548,40 C59.768738,35.1545073 58.9226607,32.5385816 55.7648228,32.1522232 C52.606985,31.7658647 49.9837155,31.4170139 47.8950143,31.1056708 L21.6799926,19.4188835 C21.1755635,19.1940064 20.584344,19.4206282 20.359467,19.9250573 C20.35562,19.9336867 20.3518954,19.9423702 20.3482945,19.9511052 L18.6632131,24.038695 C15.7398812,25.4026522 13.3643706,26.0846307 11.5366811,26.0846307 C10.0517269,26.0846307 8.00099246,25.4849054 5.38447792,24.2854549 L5.38448339,24.285443 C4.38038273,23.8251478 3.19325534,24.2659892 2.73296014,25.2700899 C2.71312074,25.3133681 2.69483298,25.3573409 2.67813181,25.4019242 Z" id="shoe"></path>
                </g>
                <g id="Accessories/Shoe/Flat-Sneaker" transform="translate(288.000000, 132.000000)" fill="#E4E4E4">
                    <path d="M2.67813181,25.4019242 C1.55937727,28.3884109 1,30.6229931 1,32.1056708 C1,33.908957 1.3004142,36.5404001 1.90124261,40 C3.99318117,40 22.7937852,40 58.3030548,40 C59.768738,35.1545073 58.9226607,32.5385816 55.7648228,32.1522232 C52.606985,31.7658647 49.9837155,31.4170139 47.8950143,31.1056708 L21.6799926,19.4188835 C21.1755635,19.1940064 20.584344,19.4206282 20.359467,19.9250573 C20.35562,19.9336867 20.3518954,19.9423702 20.3482945,19.9511052 L18.6632131,24.038695 C15.7398812,25.4026522 13.3643706,26.0846307 11.5366811,26.0846307 C10.0517269,26.0846307 8.00099246,25.4849054 5.38447792,24.2854549 L5.38448339,24.285443 C4.38038273,23.8251478 3.19325534,24.2659892 2.73296014,25.2700899 C2.71312074,25.3133681 2.69483298,25.3573409 2.67813181,25.4019242 Z" id="shoe"></path>
                </g>
                <path d="M208.862091,66.2500522 C178.365272,61.2817352 157.938089,57.8844191 147.580542,56.0581041 C118.057451,50.8523866 109.448266,34.9653306 114.538476,0.302228659 L168.93427,0.302228659 C176.132679,2.38099361 206.210425,15.2374805 259.167508,38.8716893 C268.695532,43.6015333 266.921101,57.5474982 265.179547,62.1420768 C265.10852,62.3294612 249.046098,89.8530148 216.99228,144.712738 L172.494227,116.36549 L208.945659,69.5903876 C209.908306,67.6514874 209.88045,66.5380423 208.862091,66.2500522 Z" id="Leg-and-Butt" fill="#5C63AB"></path>
            </g>
            <g id="Body/Hoodie" transform="translate(22.000000, 82.000000)">
                <path d="M190.781205,92.2114854 L222.679476,115.635084 C231.330944,117.969562 238.558965,120.874047 244.363541,124.34854 C245.734683,125.597945 247.391836,128.128197 241.70538,127.690906 C236.018925,127.253615 230.01796,127.049392 229.233339,128.988954 C228.448719,130.928516 231.889854,133.24802 230.303794,135.864997 C229.246421,137.609648 224.250967,133.234999 215.31743,122.74105 L183.729774,109.642447 L190.781205,92.2114854 Z M68.3079281,93.0198914 L89.2053198,93.1020711 C76.3021447,134.755739 69.3363474,156.856914 68.3079281,159.405597 C65.9939846,165.140133 70.8906002,173.873732 72.9845874,178.567103 C66.1645409,181.61887 66.8912241,170.316929 58.2879189,174.319492 C50.4352209,177.972846 44.4616931,184.59248 35.3890352,178.994371 C34.2736052,178.306117 33.0512757,175.714714 36.0045784,173.68967 C43.3623323,168.644547 53.9653015,159.814672 55.3979297,156.908251 C57.3515741,152.944826 61.6549068,131.648706 68.3079281,93.0198914 Z" id="Skin" fill="#915B3C"></path>
                <path d="M122.731734,9.58031077 L131.216685,7.34914009 C165.5935,32.1628362 183.361709,84.0563407 224.996623,108.72736 L216.58973,121.240539 C147.889238,118.771641 125.383314,55.5469019 122.731734,9.58031077 Z" id="Coat-Back" fill="#E87613" transform="translate(173.864178, 64.294840) rotate(5.000000) translate(-173.864178, -64.294840) "></path>
                <path d="M90,114 C124.671756,114 150.175573,114 166.511451,114 C170.007634,114 169.348845,108.951637 168.84345,106.404206 C163.010588,77.0037663 140.241304,45.3115155 140.241304,3.4607303 L118.1718,0 C99.917485,29.3584068 93.6048263,65.5045499 90,114 Z" id="Shirt" fill="#DDE3E9"></path>
                <path d="M90.6148413,28.8579585 C87.4095228,27.9365884 84.8712423,25.7876656 83,22.4111902 C74.933557,7.85607578 77.8467271,-0.157592785 86.4671964,-2.7917309 C95.0876658,-5.42586901 102.775319,-2.04281037e-14 116.510031,-7.10542736e-15 C117.257085,-6.21724894e-15 117.941303,0.0468325343 118.562683,0.140497603 L125.471587,0.534739944 C145.293986,67.7151944 150.760885,112.536948 141.872285,135 L81.6518141,135 C78.0838152,143.319871 74.6695413,150.319871 71.4089926,156 L55,156 C53.4556832,106.067091 65.327297,63.6864104 90.6148413,28.8579585 Z" id="Coat-Front" fill="#FF9B21"></path>
                <path d="M94.7652287,100.497634 C96.6591508,116.344024 99.7374079,127.844812 104,135 L81.6518141,135 C85.813785,125.295103 90.1849231,113.794314 94.7652283,100.497633 Z" id="Shade" fill-opacity="0.1" fill="#000000"></path>
            </g>
        </g>
    </g>
</svg>