<?xml version="1.0" encoding="UTF-8"?>
<svg width="380px" height="400px" viewBox="0 0 380 400" version="1.1" xmlns="http://www.w3.org/2000/svg" xmlns:xlink="http://www.w3.org/1999/xlink">
    <!-- Generator: Sketch 52.4 (67378) - http://www.bohemiancoding.com/sketch -->
    <title>humaaans/sitting-2</title>
    <desc>Created with Sketch.</desc>
    <g id="humaaans/sitting-2" stroke="none" stroke-width="1" fill="none" fill-rule="evenodd">
        <g id="A-Human/Sitting" transform="translate(190.000000, 200.500000) scale(-1, 1) translate(-190.000000, -200.500000) translate(40.000000, 24.000000)">
            <g id="Head/Front/Rad" transform="translate(82.000000, 0.000000)">
                <g id="Head" stroke-width="1" transform="translate(54.000000, 31.000000)" fill="#B28B67">
                    <path d="M8.26227388,34.4901268 C3.65436435,29.0813759 0.535634794,22.4528771 1.05677633,15.0254539 C2.55833022,-6.37502057 32.3485306,-1.66718886 38.1433414,9.13393292 C43.9381521,19.9350547 43.249578,47.3329958 35.7603014,49.2634576 C32.7735882,50.033323 26.4110012,48.1474609 19.935372,44.244306 L24,73 L0,73 L8.26227388,34.4901268 Z"></path>
                </g>
                <path d="M95.4066181,38.9017011 C96.181796,38.1335173 96.604637,37.0370644 96.970412,35.9959366 C97.3502694,34.9144095 97.7193579,33.8217377 97.9715531,32.6960301 C98.4754831,30.446804 98.4802693,27.8601542 96.8757008,26.1136308 C95.5888613,24.7130885 93.6580039,24.0849092 91.8759783,23.9483875 C90.6887283,23.8573398 89.4693557,24.0236137 88.3312561,24.397755 C87.2020846,24.7689112 86.2287403,25.5086363 85.1340846,25.9677555 C85.0922975,23.5438969 84.6770959,21.0076965 83.4474146,18.9380781 C82.2641224,16.9467707 80.3775371,15.8293221 78.2290003,15.5336907 C76.0237656,15.230298 73.8461434,15.7463343 71.8719342,16.8139306 C71.3776685,17.0813024 70.888005,17.3614108 70.4194191,17.6784359 C70.027044,17.943917 69.6191137,18.2636287 69.1587196,18.3715924 C68.6454933,18.4920937 68.3910891,18.1956663 68.0575289,17.8212265 C67.6664423,17.3822075 67.2258372,16.9955285 66.7595523,16.6527315 C64.6978111,15.1372602 61.9926962,14.5141557 59.6041137,15.4225429 C58.5035673,15.8410637 57.4333948,16.5518327 56.6867499,17.531267 C56.0211941,18.4043297 55.5464414,19.7892496 54.627862,20.3975277 C54.2380641,20.6557449 53.9627664,20.3136445 53.6078524,20.0608006 C53.074745,19.6808879 52.5663049,19.2616705 52.0267546,18.8921065 C51.2688806,18.3728859 50.448326,17.9845153 49.5696008,17.7812252 C48.2832216,17.4836038 46.505522,17.5533573 46.1377221,19.2381872 C45.9996591,19.8710433 46.1055074,20.5478808 46.1501478,21.1855131 C46.2113557,22.0610635 46.2752329,22.9363153 46.3512596,23.8105721 C46.40897,24.4743744 46.4819593,25.1154894 46.6072285,25.767351 C46.674051,26.1148248 46.8831704,26.7626067 46.7341544,27.110578 C46.5479534,27.5455173 45.6885571,27.2982457 45.3214015,27.3133706 C44.5962024,27.3433218 43.8679659,27.47049 43.1974398,27.7803507 C42.6777706,28.0205574 42.1314092,28.3738025 41.9120731,28.9694434 C41.7772315,29.3353257 41.8127597,29.7111587 41.8764528,30.0875886 C41.9528477,30.5393443 41.8654998,30.778954 41.8084337,31.2347894 C40.8344451,30.7551721 37.4592643,29.6895659 37.0345824,31.4350943 C36.8932059,32.0163069 37.2151688,32.6730443 37.460829,33.1632092 C37.8916777,34.0229382 38.4565395,34.8087345 39.0340112,35.5581116 C40.2385651,37.1214452 41.6766296,38.4698465 43.2238559,39.6230176 C41.4110883,40.428914 40.9379003,42.8060049 42.5074008,44.2222691 C43.2003852,44.8475627 44.1321265,44.9867711 45.0062496,44.9467698 C45.3261876,44.9321425 45.7874102,44.8091535 46.0391451,44.8648767 C46.174631,44.8948279 46.3196892,45.0096574 46.5073629,45.0224936 C47.741002,45.1069739 49.1335978,44.8097505 50.3395323,44.5360104 C52.4883453,44.0482337 54.522658,43.0301912 56.1839244,41.4796939 C56.6100789,41.0819697 56.9621396,40.8530072 57.5357455,40.858878 C58.038387,40.8639528 58.5315481,41.0017682 59.0337294,41.0145049 C60.3624479,41.0484363 61.5604668,40.3988633 62.7942901,39.9665112 C62.8698566,41.6333306 63.3445173,43.4691107 64.0263646,44.9686611 C64.5823904,46.1914862 65.7435005,46.3692033 66.8844533,46.4764704 C70.5329989,46.819765 74.1944304,46.4366682 77.8475782,46.441743 C74.3112318,47.241072 70.6569795,47.5705353 67.1520195,48.5111623 C65.5677002,48.9362505 66.7775005,50.0040458 67.4549298,50.7442685 C68.570387,51.9632129 69.3997776,53.4735099 69.9750402,55.0646055 C71.70497,52.8096081 74.7626979,51.3237895 77.4716786,52.016548 C80.464885,52.781846 82.5725552,56.8296371 80.6585414,59.7396803 C79.5473181,61.428988 77.540618,62.0811481 75.8708838,62.8069425 C77.1734624,64.1612146 77.4885222,66.161378 78.2725362,67.846208 C78.6592047,68.6770803 79.2019765,69.6165133 80.0667112,69.9060748 C80.3866493,70.0132424 80.7618126,70.0223969 81.0141918,70.2832012 C81.3268585,70.6060971 81.4013205,70.9671037 81.8005988,71.244625 C83.3938461,72.3523221 85.8825703,72.2669462 87.294771,70.8214274 C88.571854,69.5141219 88.2395823,67.4453991 87.1729994,66.1199836 C88.8708064,65.4122993 91.9639705,64.502121 91.2892105,61.8570614 C94.96813,61.612775 103.90044,55.6462162 98.9627536,51.2862759 C101.672563,49.7547841 104.162115,46.011978 102.421509,42.7126686 C101.081193,40.1720899 97.9640977,39.0364317 95.4066181,38.9017011" id="hair" fill="#191847" transform="translate(70.000000, 43.500000) scale(-1, 1) translate(-70.000000, -43.500000) "></path>
            </g>
            <g id="Bottom/Sitting/Skinny-Jeans-1" transform="translate(0.000000, 187.000000)">
                <g id="Objects/Seat/Cube" transform="translate(10.000000, 42.000000)" stroke-width="1">
                    <g id="Seat" transform="translate(55.000000, 0.000000)">
                        <polygon id="Seat-Stuff" fill="#C5CFD6" points="27.6226415 0 104.877193 0 115 124 0 124"></polygon>
                        <polygon id="Seat-Stuff" fill-opacity="0.1" fill="#000000" points="27.6226415 0 51.3828011 0 65.6037736 124 0 124"></polygon>
                    </g>
                </g>
                <path d="M257.953294,20.7561262 C266.190093,15.8101469 280.009488,22.164715 280,29.2384154 C279.971611,50.4029106 260.656682,150.1511 259.648224,156.456711 C258.639766,162.762321 247.83665,164.42787 247.20755,156.477375 C246.206544,143.826795 244.3468,100.033121 246.20755,79.7626522 C246.975628,71.3954284 247.802807,63.4267637 248.617148,56.3175946 C238.481902,74.6206031 222.807229,100.825998 201.593128,134.933778 L190.076573,129.672175 C199.120166,99.8760987 206.535776,78.8408618 212.323403,66.5664641 C222.233227,45.5497154 231.525307,27.551672 235.436043,21.2120072 C241.587634,11.2397104 252.295462,14.7191925 257.953294,20.7561262 Z" id="Skin" fill="#B28B67"></path>
                <path d="M208.819223,123.340112 L213.936922,21.8299349 C217.625361,4.27739957 248.84365,12.4235349 248.830812,21.8299349 C248.801666,43.1853748 235.973522,116.956762 235.964839,123.319261 L208.819223,123.340112 Z" id="LegLower" fill="#1F28CF" transform="translate(228.825019, 67.419630) rotate(20.000000) translate(-228.825019, -67.419630) "></path>
                <g id="Accessories/Shoe/Flat-Sneaker" transform="translate(215.500000, 133.000000) rotate(30.000000) translate(-215.500000, -133.000000) translate(185.000000, 113.000000)" fill="#E4E4E4">
                    <path d="M2.67813181,25.4019242 C1.55937727,28.3884109 1,30.6229931 1,32.1056708 C1,33.908957 1.3004142,36.5404001 1.90124261,40 C3.99318117,40 22.7937852,40 58.3030548,40 C59.768738,35.1545073 58.9226607,32.5385816 55.7648228,32.1522232 C52.606985,31.7658647 49.9837155,31.4170139 47.8950143,31.1056708 L21.6799926,19.4188835 C21.1755635,19.1940064 20.584344,19.4206282 20.359467,19.9250573 C20.35562,19.9336867 20.3518954,19.9423702 20.3482945,19.9511052 L18.6632131,24.038695 C15.7398812,25.4026522 13.3643706,26.0846307 11.5366811,26.0846307 C10.0517269,26.0846307 8.00099246,25.4849054 5.38447792,24.2854549 L5.38448339,24.285443 C4.38038273,23.8251478 3.19325534,24.2659892 2.73296014,25.2700899 C2.71312074,25.3133681 2.69483298,25.3573409 2.67813181,25.4019242 Z" id="shoe"></path>
                </g>
                <g id="Accessories/Shoe/Flat-Sneaker" transform="translate(242.000000, 126.000000)" fill="#E4E4E4">
                    <path d="M2.67813181,25.4019242 C1.55937727,28.3884109 1,30.6229931 1,32.1056708 C1,33.908957 1.3004142,36.5404001 1.90124261,40 C3.99318117,40 22.7937852,40 58.3030548,40 C59.768738,35.1545073 58.9226607,32.5385816 55.7648228,32.1522232 C52.606985,31.7658647 49.9837155,31.4170139 47.8950143,31.1056708 L21.6799926,19.4188835 C21.1755635,19.1940064 20.584344,19.4206282 20.359467,19.9250573 C20.35562,19.9336867 20.3518954,19.9423702 20.3482945,19.9511052 L18.6632131,24.038695 C15.7398812,25.4026522 13.3643706,26.0846307 11.5366811,26.0846307 C10.0517269,26.0846307 8.00099246,25.4849054 5.38447792,24.2854549 L5.38448339,24.285443 C4.38038273,23.8251478 3.19325534,24.2659892 2.73296014,25.2700899 C2.71312074,25.3133681 2.69483298,25.3573409 2.67813181,25.4019242 Z" id="shoe"></path>
                </g>
                <path d="M282.770373,36.4330278 C282.770373,63 270.1536,124.970293 270.145616,130.820112 L243,130.840963 C246.973277,75.5454811 248.382172,47.5998928 247.226683,47.0041979 C245.49345,46.1106556 176.175838,53.9250306 155.386358,53.9250306 C125.407825,53.9250306 113.006307,35.0203971 112,-4.40536496e-13 L171.386358,-4.40536496e-13 C183.477954,1.29386693 246.548825,14.0152568 269.972097,18.3884129 C280,20.2606358 282.770373,29.1145109 282.770373,36.4330278 Z" id="Leg-and-Butt" fill="#2B44FF"></path>
            </g>
            <g id="Body/Pointing-Forward" transform="translate(22.000000, 82.000000)">
                <path d="M158.638039,42.7002327 L193.347821,23.6898218 C199.119845,16.8355222 204.806897,11.5121983 210.408976,7.71984988 C212.120791,7.00519513 215.114322,6.57263502 212.314801,11.541507 C209.515281,16.510379 206.794075,21.8627914 208.22032,23.3935933 C209.646565,24.9243953 213.203036,22.7859324 214.904525,25.3293729 C216.038851,27.0249998 209.962902,29.703613 196.676679,33.3652124 L171.455792,56.4576422 L158.638039,42.7002327 Z M213,58.7398397 L228.246523,50.3642065 C230.385826,42.2239107 232.943102,38.1282526 235.918351,38.0772323 C238.203961,37.0137608 234.223587,47.2997848 238.556381,46.4077826 C242.889175,45.5157805 253.464286,37.6506887 255.286431,39.2475996 C257.982176,41.6101262 255.578484,48.864452 252.746364,52.4730906 C247.453134,59.2176317 243.070569,61.5240612 232.238377,64.5443446 C226.574749,66.1235046 220.451364,69.288795 213.868224,74.0402157 L213,58.7398397 Z" id="Skin" fill="#997659"></path>
                <path d="M142.857986,34.7503025 C154.885997,36.5253162 171.300289,36.5253162 190.103565,28.3861499 L194.443447,44.4123074 C180.805809,54.2415559 162.712714,61.226516 148.287694,58.5246963 C136.919984,56.3955135 133.271725,41.6595451 142.857986,34.7503025 Z" id="Sleeve" fill="#2026A2" transform="translate(165.898282, 43.748060) rotate(-9.000000) translate(-165.898282, -43.748060) "></path>
                <path d="M158.104267,62.7612342 C171.011057,65.9801048 192.654946,62.184167 223.035933,51.3734208 C230.571674,66.9635189 234.055257,78.0780631 233.486685,84.7170535 C207.424274,98.3310492 185.086537,104.400834 166.683227,104.801533 C167.268059,115.72137 165.938918,126.111847 161.473933,135.605966 C152.29468,155.124265 98.5450578,137.048144 80.4727876,140.605966 C69.1554006,103.85132 91.0379108,88.9143806 91.0555178,65.3966157 C91.0747993,39.6421572 111.75441,-1.42108547e-13 114.797001,-1.42108547e-13 L142.54375,1.15166749e-13 C144.0747,19.6690193 151.7804,41.3459827 158.104267,62.7612342 Z" id="Clothes" fill="#1F28CF"></path>
            </g>
        </g>
    </g>
</svg>