<?xml version="1.0" encoding="UTF-8"?>
<svg width="380px" height="480px" viewBox="0 0 380 480" version="1.1" xmlns="http://www.w3.org/2000/svg" xmlns:xlink="http://www.w3.org/1999/xlink">
    <!-- Generator: Sketch 52.4 (67378) - http://www.bohemiancoding.com/sketch -->
    <title>humaaans/standing-18</title>
    <desc>Created with Sketch.</desc>
    <g id="humaaans/standing-18" stroke="none" stroke-width="1" fill="none" fill-rule="evenodd">
        <g id="humaaan-2" transform="translate(28.000000, 9.000000)">
            <g id="Head/Front/Airy" transform="translate(88.812991, 0.000000)">
                <g id="Head" stroke-width="1" transform="translate(58.494090, 33.579940)" fill="#B28B67">
                    <path d="M8.94989243,37.3605292 C3.95849475,31.501641 0.580212404,24.3214928 1.14472537,16.2759306 C2.77124441,-6.90557456 35.0407011,-1.80593879 41.3177785,9.89409432 C47.5948559,21.5941274 46.8489759,51.2722317 38.7364127,53.363354 C35.5011336,54.1972907 28.6090274,52.1544798 21.5944711,47.9264891 L25.9973733,79.0753437 L0,79.0753437 L8.94989243,37.3605292 Z"></path>
                </g>
                <path d="M84.9940249,29.9893314 C81.5676464,29.4274427 72.3419711,29.0411286 70.6405918,29.041378 C69.5533301,29.041378 68.3750696,29.2897762 67.7311163,28.2914448 C67.2037707,27.4739254 67.3969567,26.091275 67.2395735,25.1425734 C67.05683,24.0404933 66.7972597,22.9526288 66.5347057,21.8675077 C65.7875707,18.7797383 64.6577932,15.8421051 63.0769997,13.0840369 C60.1108365,7.90957277 55.7655192,3.85639217 50.2797332,1.49785606 C44.2218482,-1.10633492 37.3668535,-1.70264029 30.8507422,-1.17441997 C23.8776479,-0.609289084 17.5654138,1.69263418 10.981675,3.85888613 C4.70773004,5.92313519 -1.86357718,6.73566672 -8.42543645,5.72760888 C-15.0367732,4.71206917 -20.0322596,1.12875027 -25.6087957,-2.2722603 C-31.3176033,-5.75407511 -37.8416707,-8.03130819 -44.5905002,-7.5078264 C-50.8903028,-7.01901063 -56.6965736,-4.4178124 -61.9058823,-0.942980669 C-66.7797883,2.30814302 -70.8013886,6.2196668 -73.0718834,11.7248298 C-75.5144305,17.6467331 -75.5121929,24.1469853 -71.4955652,29.3805563 C-65.6736307,36.9666778 -54.8654091,38.9284252 -45.8734342,38.7333977 C-40.6723303,38.6209202 -35.5642143,37.6714704 -30.6537596,35.9444044 C-24.1050777,33.6409848 -18.4459962,29.7369429 -12.3194892,26.5693668 C-9.44432472,25.0829678 -6.47244294,23.8621753 -3.35734994,22.9828057 C-0.334498886,22.1291239 2.64285276,21.7375725 5.3797786,23.5636486 C8.27508214,25.4954684 10.8695426,27.3931211 14.1817997,28.6024414 C17.359299,29.7626306 20.7250117,30.4115585 24.1103662,30.385372 C30.6970885,30.3344952 37.1900771,28.2822172 43.5873429,26.9075475 C48.8041105,25.7867627 54.3858679,24.6697189 59.7043254,25.7471088 C61.9236023,26.1967694 65.1652483,27.1250206 65.9668334,29.431433 C52.4758875,31.8765095 47.1773328,48.5610887 50.9806353,60.809166 C53.0333297,67.4199006 65.3723576,75.1477794 70.169934,71.6724164 C73.2093367,69.470674 71.3641069,66.5801849 70.169934,64.6720576 C67.8830296,61.0179103 67.100589,56.3240319 71.3322821,53.7799453 C74.9824282,51.585761 78.8203054,56.7963664 78.8929055,56.7906303 C79.8961301,56.7115718 88.5648619,51.8090231 94.5374603,44.6549613 C100.429451,45.0042323 101.323351,41.1192053 99.9164591,37.9419834 C98.5095672,34.7647615 89.7282005,30.7661994 84.9940249,29.9893314 Z" id="hair" fill="#191847"></path>
            </g>
            <g id="Bottom/Standing/Jogging" transform="translate(0.000000, 202.587623)">
                <polygon id="Leg" fill="#997659" points="140.819105 0 221.309587 134.565555 281.65429 248.32939 294.652004 248.32939 193.543607 5.51402013e-13"></polygon>
                <g id="Accessories/Shoe/Flat-Sneaker" transform="translate(270.805972, 215.561553)" fill="#E4E4E4">
                    <path d="M2.90101634,27.5159711 C1.68915471,30.7510048 1.08322389,33.1715576 1.08322389,34.7776295 C1.08322389,36.7309922 1.40863973,39.5814342 2.05947141,43.3289555 C4.32550923,43.3289555 24.6907726,43.3289555 63.1552616,43.3289555 C64.7429247,38.080202 63.8264335,35.2465689 60.4057881,34.8280561 C56.9851428,34.4095434 54.1435546,34.0316599 51.8810236,33.6944057 L23.4842859,21.0349984 C22.9378762,20.7914062 22.2974531,21.0368884 22.053861,21.5832981 C22.0496938,21.5926456 22.0456593,21.6020518 22.0417587,21.6115137 L20.2164382,26.0392887 C17.0498153,27.5167596 14.4766054,28.2554951 12.4968086,28.2554951 C10.8882707,28.2554951 8.66686616,27.6058583 5.8325951,26.3065849 L5.83260102,26.3065719 C4.74493521,25.8079692 3.45901046,26.2854991 2.96040771,27.373165 C2.9389172,27.420045 2.91910746,27.4676773 2.90101634,27.5159711 Z" id="shoe"></path>
                </g>
                <path d="M264.89488,230.11238 L289.960742,222.529813 C278.978705,189.699447 265.518659,153.570834 249.580605,114.143973 C233.64255,74.7171116 216.525672,36.6691207 198.229971,2.84217094e-14 L127.43487,2.84217094e-14 C147.775755,46.3847539 169.339822,88.531257 192.127069,126.439509 C214.914315,164.347762 239.170253,198.905385 264.89488,230.11238 Z" id="Pant" fill="#DB2721"></path>
                <path d="M135.52932,2.84217094e-14 C127.93253,47.2872601 113.280403,107.702209 111.897637,109.566632 C110.975793,110.809581 77.7891793,121.930063 12.3377948,142.928077 L15.1454578,154.389667 C93.1960803,143.128296 134.322102,134.391261 138.523523,128.178562 C144.825654,118.859514 176.293047,45.2388276 188.480956,2.84217094e-14 L135.52932,2.84217094e-14 Z" id="Leg" fill="#B28B67"></path>
                <path d="M35.3450622,133.02041 L40.2904549,151.480129 C98.667773,156.600183 134.436845,152.900622 147.597671,140.381446 C160.758498,127.862271 175.757955,81.0684551 192.596043,-1.13686838e-13 L125.088686,-1.13686838e-13 C114.42047,66.3841564 108.456243,100.969601 107.196005,103.756335 C105.935767,106.543068 81.9854524,116.29776 35.3450622,133.02041 Z" id="Pant" fill="#FF4133"></path>
                <g id="Accessories/Shoe/Flat-Sneaker" transform="translate(26.538985, 166.816479) rotate(80.000000) translate(-26.538985, -166.816479) translate(-6.499343, 145.152001)" fill="#E4E4E4">
                    <path d="M2.90101634,27.5159711 C1.68915471,30.7510048 1.08322389,33.1715576 1.08322389,34.7776295 C1.08322389,36.7309922 1.40863973,39.5814342 2.05947141,43.3289555 C4.32550923,43.3289555 24.6907726,43.3289555 63.1552616,43.3289555 C64.7429247,38.080202 63.8264335,35.2465689 60.4057881,34.8280561 C56.9851428,34.4095434 54.1435546,34.0316599 51.8810236,33.6944057 L23.4842859,21.0349984 C22.9378762,20.7914062 22.2974531,21.0368884 22.053861,21.5832981 C22.0496938,21.5926456 22.0456593,21.6020518 22.0417587,21.6115137 L20.2164382,26.0392887 C17.0498153,27.5167596 14.4766054,28.2554951 12.4968086,28.2554951 C10.8882707,28.2554951 8.66686616,27.6058583 5.8325951,26.3065849 L5.83260102,26.3065719 C4.74493521,25.8079692 3.45901046,26.2854991 2.96040771,27.373165 C2.9389172,27.420045 2.91910746,27.4676773 2.90101634,27.5159711 Z" id="shoe"></path>
                </g>
            </g>
            <g id="Body/Jacket" transform="translate(23.827876, 88.835214)">
                <path d="M210.19354,96.5396333 L240.879002,126.47455 C249.807341,130.282961 257.122842,134.488215 262.825507,139.090312 C264.107951,140.637234 265.5041,143.601216 259.470265,142.274876 C253.43643,140.948537 247.030091,139.824791 245.896043,141.787038 C244.761995,143.749286 248.10356,146.756146 246.007699,149.324223 C244.610458,151.036274 239.911426,145.590574 231.910604,132.987123 L200.001781,114.17447 L210.19354,96.5396333 Z M73.9927793,100.761368 L96.6293333,100.850387 C82.6523057,145.970635 75.1067877,169.911156 73.9927793,172.67195 C71.4862604,178.883737 76.7903914,188.344179 79.0586484,193.428151 C71.6710111,196.733899 72.4581718,184.491366 63.1388661,188.827038 C54.632636,192.784439 48.161968,199.954983 38.3342483,193.890979 C37.1259879,193.145445 35.8019313,190.338376 39.0010193,188.1448 C46.9711142,182.679802 58.4565037,173.115071 60.0083607,169.966765 C62.124595,165.673489 66.7860678,142.605023 73.9927793,100.761368 Z" id="Skin" fill="#B28B67"></path>
                <path d="M132.173885,10.0003227 L141.364987,7.58346535 C160.941262,46.3099933 192.179651,80.3211632 235.080154,109.616975 L208.045922,149.013749 C163.933825,105.815544 135.04614,59.7924322 132.173885,10.0003227 Z" id="Coat-Back" fill="#191847" transform="translate(183.627020, 78.298607) rotate(5.000000) translate(-183.627020, -78.298607) "></path>
                <path d="M97.4901498,123.487523 L180.898389,123.487523 C161.574617,76.502846 151.912731,36.5899202 151.912731,3.74874572 L126.752585,0 C106.979075,31.8017275 101.394984,70.9560932 97.4901498,123.487523 Z" id="Shirt" fill="#DDE3E9"></path>
                <path d="M126.219885,0.017786392 C126.223188,0.0118565639 126.226491,0.00592776645 126.229794,-1.5232346e-14 L127.872145,-4.26345402e-14 C129.83736,0.0676723928 132.830635,0.189597645 136.851969,0.365775757 L142.931563,17.7398277 C143.574649,38.9228588 147.330175,81.6123822 154.198141,145.808398 L99.5223662,145.808398 C99.6656983,150.242152 99.90203,154.717323 100.231361,159.233911 L59.5773138,159.233911 C65.6584422,90.6268035 87.8659627,37.548833 126.199875,1.42108547e-14 L126.219885,0.0177863852 Z" id="Coat-Front" fill="#2F3676"></path>
                <path d="M103.133996,89.0768596 C104.690061,116.715091 108.585973,135.767879 114.821732,146.235225 L99.5364474,146.235225 C98.8672632,126.350326 100.066446,107.29756 103.133994,89.0768671 Z" id="Shade" fill-opacity="0.1" fill="#000000"></path>
                <polygon id="Light" fill-opacity="0.2" fill="#FFFFFF" points="111.692189 112.655284 138.652658 100.121595 138.652658 112.655284"></polygon>
            </g>
        </g>
    </g>
</svg>