<?xml version="1.0" encoding="UTF-8"?>
<svg width="380px" height="480px" viewBox="0 0 380 480" version="1.1" xmlns="http://www.w3.org/2000/svg" xmlns:xlink="http://www.w3.org/1999/xlink">
    <!-- Generator: Sketch 52.4 (67378) - http://www.bohemiancoding.com/sketch -->
    <title>humaaans/standing-15</title>
    <desc>Created with Sketch.</desc>
    <g id="humaaans/standing-15" stroke="none" stroke-width="1" fill="none" fill-rule="evenodd">
        <g id="humaaan-6" transform="translate(26.000000, -1.000000)">
            <g id="Head/Front/Pony" transform="translate(204.118188, 79.110322) rotate(20.000000) translate(-204.118188, -79.110322) translate(130.369247, 22.827274)">
                <g id="Head" stroke-width="1" transform="translate(58.494090, 33.579940)" fill="#57331F">
                    <path d="M8.94989243,37.3605292 C3.95849475,31.501641 0.580212404,24.3214928 1.14472537,16.2759306 C2.77124441,-6.90557456 35.0407011,-1.80593879 41.3177785,9.89409432 C47.5948559,21.5941274 46.8489759,51.2722317 38.7364127,53.363354 C35.5011336,54.1972907 28.6090274,52.1544798 21.5944711,47.9264891 L25.9973733,79.0753437 L0,79.0753437 L8.94989243,37.3605292 Z"></path>
                </g>
                <path d="M76.441725,69.3104363 C73.2179445,75.4985146 68.7592705,80.1585676 64.3048692,80.1585676 C55.8441156,80.1585676 49.8282988,68.8467633 49.8282988,56.6846388 C49.8282988,56.2573253 49.8367656,55.8328545 49.8534714,55.4115541 C40.903503,61.5532286 34.0058724,73.6592243 22.1635683,73.6592243 C6.05222009,73.6592243 -0.346267951,41.1625077 22.1635683,41.1625077 C37.4719672,41.1625077 45.0020773,43.39447 51.491561,46.6950161 C52.7714983,43.0866772 54.7231918,40.0529492 57.1097253,37.9343935 C57.6838569,37.2880912 58.564065,36.6697311 59.6996313,36.0964799 C60.3938718,35.7166462 61.1122878,35.4072867 61.8506486,35.1744828 C65.7643689,33.7362357 71.4331497,32.7217992 77.765296,32.5006758 C78.9477098,32.459385 80.1089788,32.4473022 81.2418443,32.4625233 C81.2602817,26.4957678 86.1029519,21.6644777 92.0740304,21.6644777 C98.0565107,21.6644777 102.906269,26.5142363 102.906269,32.4967166 C102.906269,38.2823145 98.3704677,43.0085191 92.6608649,43.3133303 C89.3946849,44.3211376 85.1982274,45.0610898 80.5443991,45.3731238 C80.9962384,47.0723111 81.2417915,49.0026518 81.2417915,51.1840209 C81.2417915,53.1101476 81.0291978,55.1529099 80.6377403,57.2270548 C79.6283803,56.02732 78.2787444,55.2444182 76.908896,55.2444182 C73.0769198,55.2444182 70.4095526,58.3967613 70.4095526,61.7437615 C70.4095526,65.9916288 72.8618508,69.0646501 76.441725,69.3104363 Z" id="hair" fill="#191847"></path>
            </g>
            <g id="Bottom/Standing/Skirt" transform="translate(0.000000, 222.255541)">
                <path d="M105.514483,106.251345 C131.500318,113.519615 153.920111,117.15375 172.773862,117.15375 C191.627613,117.15375 209.139848,111.557246 225.310568,100.364239 C199.881065,92.9040216 178.938737,89.1739128 162.483583,89.1739128 C146.028429,89.1739128 127.038729,94.8663901 105.514483,106.251345 Z" id="Skirt-Shadow" fill="#1F28CF"></path>
                <path d="M195.269342,127.630126 C195.018777,127.253443 194.807173,126.843688 194.639335,126.399826 C191.165875,117.214019 135.529598,18.1174975 129.986866,0 L192.625465,0 C196.839683,13.7749892 215.807465,100.219614 218.476856,117.46659 C226.899277,144.671828 244.240199,232.779662 246.45391,238.883503 C248.782697,245.304641 235.679387,251.993806 232.187663,244.099814 C226.631741,231.539139 213.393642,196.783978 207.499265,175.562718 C201.973299,155.667833 197.473687,137.76929 195.269342,127.630126 Z" id="Leg" fill="#3D2216"></path>
                <path d="M144.022265,139.728944 C118.586274,146.157746 25.5467833,157.779883 19.1620059,159.602785 C12.594062,161.477983 6.83523189,147.93998 14.9535653,145.007418 C27.8712045,140.341219 63.4651473,129.559764 85.0458835,125.160066 C102.404121,121.621215 118.243726,118.733517 128.878019,117.042513 C127.977106,87.1707527 123.858804,15.4831099 126.558124,1.42108547e-14 L181.981613,1.42108547e-14 C179.393147,14.8472614 157.511707,123.181744 153.444729,134.02572 C152.15407,137.897092 148.303011,139.607952 144.022265,139.728944 Z" id="Leg" fill="#57331F"></path>
                <g id="Accessories/Shoe/Flat-Sneaker" transform="translate(26.538985, 170.066150) rotate(80.000000) translate(-26.538985, -170.066150) translate(-6.499343, 148.401672)" fill="#E4E4E4">
                    <path d="M2.90101634,27.5159711 C1.68915471,30.7510048 1.08322389,33.1715576 1.08322389,34.7776295 C1.08322389,36.7309922 1.40863973,39.5814342 2.05947141,43.3289555 C4.32550923,43.3289555 24.6907726,43.3289555 63.1552616,43.3289555 C64.7429247,38.080202 63.8264335,35.2465689 60.4057881,34.8280561 C56.9851428,34.4095434 54.1435546,34.0316599 51.8810236,33.6944057 L23.4842859,21.0349984 C22.9378762,20.7914062 22.2974531,21.0368884 22.053861,21.5832981 C22.0496938,21.5926456 22.0456593,21.6020518 22.0417587,21.6115137 L20.2164382,26.0392887 C17.0498153,27.5167596 14.4766054,28.2554951 12.4968086,28.2554951 C10.8882707,28.2554951 8.66686616,27.6058583 5.8325951,26.3065849 L5.83260102,26.3065719 C4.74493521,25.8079692 3.45901046,26.2854991 2.96040771,27.373165 C2.9389172,27.420045 2.91910746,27.4676773 2.90101634,27.5159711 Z" id="shoe"></path>
                </g>
                <g id="Accessories/Shoe/Flat-Sneaker" transform="translate(225.310568, 215.561553)" fill="#E4E4E4">
                    <path d="M2.90101634,27.5159711 C1.68915471,30.7510048 1.08322389,33.1715576 1.08322389,34.7776295 C1.08322389,36.7309922 1.40863973,39.5814342 2.05947141,43.3289555 C4.32550923,43.3289555 24.6907726,43.3289555 63.1552616,43.3289555 C64.7429247,38.080202 63.8264335,35.2465689 60.4057881,34.8280561 C56.9851428,34.4095434 54.1435546,34.0316599 51.8810236,33.6944057 L23.4842859,21.0349984 C22.9378762,20.7914062 22.2974531,21.0368884 22.053861,21.5832981 C22.0496938,21.5926456 22.0456593,21.6020518 22.0417587,21.6115137 L20.2164382,26.0392887 C17.0498153,27.5167596 14.4766054,28.2554951 12.4968086,28.2554951 C10.8882707,28.2554951 8.66686616,27.6058583 5.8325951,26.3065849 L5.83260102,26.3065719 C4.74493521,25.8079692 3.45901046,26.2854991 2.96040771,27.373165 C2.9389172,27.420045 2.91910746,27.4676773 2.90101634,27.5159711 Z" id="shoe"></path>
                </g>
                <path d="M126.737195,4.4408921e-15 C151.16047,-6.98759464 174.269246,-6.98759464 196.063524,4.4408921e-15 C203.646091,34.5954284 222.070581,48.3263808 225.310568,101.366928 C188.480956,119.666694 142.985553,88.3157386 105.072717,106.161694 C94.2404781,81.199662 109.405613,21.084431 126.737195,4.4408921e-15 Z" id="Skirt" fill="#2B44FF"></path>
            </g>
            <g id="Body/Jacket-2" transform="translate(167.600715, 210.103120) rotate(15.000000) translate(-167.600715, -210.103120) translate(28.779179, 108.901871)">
                <path d="M215.25262,83.6625125 L254.644465,66.5101768 C261.544998,59.6923727 268.208446,54.5105263 274.634809,50.9646376 C276.556414,50.3580662 279.839386,50.1748138 276.336712,55.2473211 C272.834037,60.3198284 269.379836,65.8115333 270.779413,67.5892745 C272.17899,69.3670157 276.233258,67.4048734 277.834976,70.2958293 C278.902787,72.2231333 272.068751,74.5285913 257.332867,77.2122035 L227.8307,99.6391803 L215.25262,83.6625125 Z M55.9964284,88.3868003 L78.2736798,92.7693246 C55.8701028,134.165837 43.8554669,156.106012 42.2297721,158.589851 C38.5719588,164.178489 41.9847726,174.420828 43.2454518,179.814515 C35.3366576,181.639854 38.4556431,169.837398 28.4472168,172.301643 C19.3119894,174.550893 11.5664182,180.323267 3.04819278,172.538299 C2.00092703,171.581183 1.23427898,168.589509 4.80493844,167.055094 C13.7007533,163.232306 26.8435705,156.074213 28.9746794,153.295152 C31.8808272,149.505407 40.8880768,127.86929 55.9964284,88.3868003 Z" id="Skin" fill="#57331F"></path>
                <path d="M134.062893,10.6877215 L143.288372,8.27580111 C165.402201,26.109437 177.849556,72.5134241 191.988823,77.5628866 C205.356927,82.3369491 223.076293,75.0351461 244.057869,65.4333992 L251.975193,79.5448177 C234.145322,102.372612 193.78706,123.871579 175.905172,115.178408 C147.315752,101.279834 135.958668,43.697936 134.062893,10.6877215 Z" id="Coat-Back" fill="#DB2721" transform="translate(193.019043, 62.713970) rotate(5.000000) translate(-193.019043, -62.713970) "></path>
                <path d="M97.8420998,122.87921 C135.53496,122.87921 163.261038,122.87921 181.020333,122.87921 C184.821154,122.87921 184.104962,117.437641 183.55553,114.691796 C177.214424,83.0014209 152.461152,48.8407301 152.461152,3.730279 L128.468634,0 C108.623739,31.6450688 101.761031,70.6065558 97.8420998,122.87921 Z" id="Shirt" fill="#DDE3E9"></path>
                <path d="M89.54591,90.7939066 C72.5894681,121.119916 58.3366611,142.953192 46.787489,156.293732 L29.3526299,152.907893 C40.5833731,83.8496172 73.1061064,32.8803196 126.92083,4.88979429e-14 L127.19473,3.95134451e-14 L136.420585,0 C157.959463,72.7972526 163.897351,121.302204 154.234248,145.514854 L79.3608143,145.514854 C80.5453866,127.798098 84.3435822,109.061981 89.5459117,90.7939029 Z" id="Coat-Front" fill="#FF4133"></path>
            </g>
        </g>
    </g>
</svg>