<?xml version="1.0" encoding="UTF-8"?>
<svg width="380px" height="480px" viewBox="0 0 380 480" version="1.1" xmlns="http://www.w3.org/2000/svg" xmlns:xlink="http://www.w3.org/1999/xlink">
    <!-- Generator: Sketch 52.4 (67378) - http://www.bohemiancoding.com/sketch -->
    <title>humaaans/standing-4</title>
    <desc>Created with Sketch.</desc>
    <g id="humaaans/standing-4" stroke="none" stroke-width="1" fill="none" fill-rule="evenodd">
        <g id="humaaan-9" transform="translate(33.000000, 20.000000)">
            <g id="Head/Front/Rad" transform="translate(174.354244, 59.765189) rotate(4.000000) translate(-174.354244, -59.765189) translate(103.501978, 5.532072)">
                <g id="Head" stroke-width="1" transform="translate(56.316359, 32.329762)" fill="#915B3C">
                    <path d="M8.61668863,35.9695996 C3.8111203,30.3288374 0.558611141,23.4160055 1.10210733,15.6699789 C2.66807119,-6.64848056 33.7361385,-1.73870383 39.7795208,9.52573796 C45.8229031,20.7901798 45.1047922,49.3633705 37.294259,51.3766405 C34.1794292,52.1795298 27.5439155,50.2127726 20.7905107,46.1421897 L25.0294931,76.1313749 L0,76.1313749 L8.61668863,35.9695996 Z"></path>
                </g>
                <path d="M99.4991371,40.5704108 C100.307567,39.7692754 100.748546,38.6257895 101.130011,37.5400019 C101.526162,36.4120821 101.911083,35.2725397 102.174096,34.0985442 C102.699643,31.7528363 102.704634,29.0552308 101.031237,27.2337892 C99.6891977,25.7731699 97.6755151,25.1180446 95.8170486,24.9756666 C94.5788709,24.8807134 93.3071925,25.0541198 92.1202736,25.4443101 C90.9426657,25.8313872 89.9275692,26.6028432 88.7859576,27.0816565 C88.742378,24.5538252 88.3093662,21.9088331 87.026937,19.7504373 C85.7928868,17.6737117 83.8253755,16.5083295 81.584676,16.2000169 C79.2848465,15.8836099 77.0138141,16.421782 74.95492,17.5351734 C74.4394526,17.8140142 73.9287847,18.106138 73.4400985,18.436762 C73.0308923,18.7136311 72.6054636,19.047057 72.1253206,19.1596518 C71.5900792,19.2853222 71.3247622,18.9761794 70.9768937,18.5856778 C70.5690313,18.1278268 70.1095262,17.724561 69.6232398,17.3670595 C67.473059,15.7865812 64.6519067,15.1367483 62.1608647,16.0841013 C61.0131098,16.5205748 59.8970316,17.2618326 59.118359,18.2832803 C58.4242538,19.1937935 57.9291363,20.6381203 56.971154,21.2724908 C56.5646354,21.5417844 56.2775287,21.1850093 55.9073905,20.9213196 C55.3514151,20.5251104 54.8211652,20.0879104 54.2584706,19.7024937 C53.4680872,19.1610009 52.6123345,18.7559709 51.6959159,18.5439606 C50.3543567,18.2335725 48.5004018,18.3063181 48.1168249,20.0634198 C47.9728396,20.7234225 48.0832283,21.4292934 48.1297836,22.0942773 C48.1936171,23.0073848 48.2602343,23.9201811 48.3395222,24.8319396 C48.3997081,25.5242161 48.4758283,26.1928321 48.606471,26.8726556 C48.6761599,27.2350345 48.8942496,27.9106034 48.7388415,28.2735011 C48.5446533,28.7270973 47.6483927,28.4692189 47.2654877,28.4849925 C46.5091808,28.5162285 45.7497063,28.6488517 45.0504176,28.972004 C44.5084569,29.2225145 43.938659,29.5909122 43.7099143,30.2121035 C43.5692886,30.5936806 43.6063409,30.985635 43.6727661,31.3782121 C43.752438,31.8493462 43.6613433,32.099234 43.6018293,32.5746228 C42.5860609,32.074432 39.0660999,30.9631161 38.623201,32.7835199 C38.4757601,33.3896639 38.8115338,34.0745724 39.0677317,34.5857632 C39.5170619,35.4823707 40.1061538,36.3018741 40.7083964,37.0833962 C41.9646203,38.7137898 43.4643713,40.1200315 45.0779668,41.3226686 C43.1874396,42.1631344 42.6939539,44.6421919 44.330779,46.1192074 C45.0534893,46.7713234 46.0251982,46.9165032 46.9368172,46.8747861 C47.2704792,46.8595313 47.7514862,46.7312666 48.0140194,46.78938 C48.155317,46.820616 48.3065976,46.9403712 48.5023216,46.9537581 C49.7888784,47.0418622 51.2412103,46.7318892 52.498874,46.4464069 C54.7398615,45.9377067 56.8614372,44.8759947 58.5939645,43.258988 C59.0383992,42.8442032 59.4055617,42.6054192 60.0037727,42.6115419 C60.5279753,42.6168344 61.0422908,42.7605614 61.5660134,42.7738445 C62.9517281,42.8092314 64.2011367,42.1317946 65.4878855,41.6808965 C65.5666934,43.4192151 66.0617149,45.3337419 66.7728104,46.8976163 C67.3526873,48.1728952 68.5636038,48.3582356 69.7534985,48.470104 C73.5585504,48.8281244 77.377041,48.4285944 81.1868925,48.4338869 C77.4988526,49.2675036 73.6878493,49.6110993 70.032542,50.5920751 C68.3802625,51.0353977 69.6419578,52.1489967 70.3484458,52.9209716 C71.5117512,54.1922033 72.376719,55.7672853 72.9766578,57.4266319 C74.7807938,55.0749051 77.9696846,53.5253515 80.7948685,54.2478262 C83.9164702,55.0459521 86.11455,59.2673754 84.1184336,62.3022465 C82.9595438,64.064018 80.8667652,64.7441529 79.1254068,65.5010806 C80.4838602,66.9134449 80.8124347,68.9994064 81.6300793,70.7565081 C82.0333342,71.6230211 82.5993885,72.6027516 83.5012165,72.904734 C83.8348785,73.0164986 84.2261346,73.0260458 84.4893398,73.2980375 C84.8154185,73.6347842 84.8930746,74.0112764 85.3094801,74.3007021 C86.9710707,75.4559144 89.56655,75.3668763 91.0393278,73.8593512 C92.371192,72.4959682 92.0246673,70.3385064 90.9123328,68.9562364 C92.6829682,68.2181956 95.9088152,67.2689747 95.205111,64.5104538 C99.0418397,64.2556886 108.357306,58.033191 103.207815,53.4862287 C106.033863,51.8890428 108.630206,47.9856869 106.814935,44.5448518 C105.417126,41.8952936 102.166321,40.7109208 99.4991371,40.5704108" id="hair" fill="#191847" transform="translate(73.002688, 45.365956) scale(-1, 1) translate(-73.002688, -45.365956) "></path>
            </g>
            <g id="Bottom/Standing/Jogging" transform="translate(0.000000, 203.717748)">
                <polygon id="Leg" fill="#784931" points="135.576421 0 213.070248 129.55569 271.168323 239.084106 283.682133 239.084106 186.337993 5.30873359e-13"></polygon>
                <g id="Accessories/Shoe/Flat-Sneaker" transform="translate(260.723886, 207.536214)" fill="#E4E4E4">
                    <path d="M2.79301173,26.4915537 C1.62626761,29.6061473 1.04289555,31.9365831 1.04289555,33.4828611 C1.04289555,35.3635003 1.35619618,38.1078205 1.98279745,41.7158218 C4.16447086,41.7158218 23.7715371,41.7158218 60.8039962,41.7158218 C62.3325506,36.662479 61.4501804,33.9343419 58.1568854,33.5314103 C54.8635904,33.1284788 52.1277943,32.7646639 49.9494971,32.4399656 L22.6099678,20.2518671 C22.0839009,20.0173438 21.4673207,20.2536867 21.2327974,20.7797536 C21.2287854,20.7887531 21.2249011,20.7978091 21.2211457,20.8069187 L19.4637818,25.069848 C16.415052,26.4923128 13.9376425,27.2035452 12.0315534,27.2035452 C10.4829012,27.2035452 8.34419941,26.5780944 5.61544804,25.3271928 L5.61545374,25.3271803 C4.56828164,24.8471405 3.33023177,25.3068921 2.85019196,26.3540642 C2.82950154,26.3991988 2.81042931,26.4450579 2.79301173,26.4915537 Z" id="shoe"></path>
                </g>
                <path d="M255.032865,221.545314 L279.165526,214.245045 C268.59235,182.636952 255.63342,147.853404 240.288738,109.894402 C224.944056,71.9353994 208.464438,35.3039322 190.849885,2.84217094e-14 L122.69048,2.84217094e-14 C142.274076,44.6578531 163.035313,85.2352452 184.974193,121.732176 C206.913072,158.229107 230.265963,191.500153 255.032865,221.545314 Z" id="Pant" fill="#5C63AB"></path>
                <path d="M130.483574,2.84217094e-14 C123.169612,45.5267591 109.062982,103.692464 107.731697,105.487475 C106.844173,106.684149 74.8930942,117.390616 11.8784597,137.606876 L14.5815936,148.641752 C89.7263975,137.799641 129.321301,129.387885 133.366303,123.406484 C139.433807,114.434384 169.729671,43.5545895 181.463825,2.84217094e-14 L130.483574,2.84217094e-14 Z" id="Leg" fill="#915B3C"></path>
                <path d="M34.0291683,128.068071 L38.7904444,145.840535 C94.9943795,150.76997 129.431772,147.208144 142.102622,135.155056 C154.773471,123.101968 169.2145,78.0502828 185.425707,-1.13686838e-13 L120.431644,-1.13686838e-13 C110.160605,63.9126794 104.418425,97.2105109 103.205106,99.8934944 C101.991786,102.576478 78.9331404,111.968003 34.0291683,128.068071 Z" id="Pant" fill="#8991DC"></path>
                <g id="Accessories/Shoe/Flat-Sneaker" transform="translate(25.550941, 160.605914) rotate(80.000000) translate(-25.550941, -160.605914) translate(-6.257373, 139.748003)" fill="#E4E4E4">
                    <path d="M2.79301173,26.4915537 C1.62626761,29.6061473 1.04289555,31.9365831 1.04289555,33.4828611 C1.04289555,35.3635003 1.35619618,38.1078205 1.98279745,41.7158218 C4.16447086,41.7158218 23.7715371,41.7158218 60.8039962,41.7158218 C62.3325506,36.662479 61.4501804,33.9343419 58.1568854,33.5314103 C54.8635904,33.1284788 52.1277943,32.7646639 49.9494971,32.4399656 L22.6099678,20.2518671 C22.0839009,20.0173438 21.4673207,20.2536867 21.2327974,20.7797536 C21.2287854,20.7887531 21.2249011,20.7978091 21.2211457,20.8069187 L19.4637818,25.069848 C16.415052,26.4923128 13.9376425,27.2035452 12.0315534,27.2035452 C10.4829012,27.2035452 8.34419941,26.5780944 5.61544804,25.3271928 L5.61545374,25.3271803 C4.56828164,24.8471405 3.33023177,25.3068921 2.85019196,26.3540642 C2.82950154,26.3991988 2.81042931,26.4450579 2.79301173,26.4915537 Z" id="shoe"></path>
                </g>
            </g>
            <g id="Body/Trench-Coat" transform="translate(157.291764, 189.723885) rotate(10.000000) translate(-157.291764, -189.723885) translate(23.922792, 92.208568)">
                <path d="M206.173124,94.1153146 L237.654616,120.804733 C246.485384,123.862803 253.793796,127.410328 259.579851,131.447309 C260.915433,132.846883 262.455388,135.5998 256.571267,134.73118 C250.687146,133.862559 244.458869,133.213532 243.501485,135.174285 C242.5441,137.135038 245.955361,139.798484 244.114915,142.405686 C242.88795,144.14382 238.009153,139.229219 229.478524,127.661882 L197.569051,111.736722 L206.173124,94.1153146 Z M56.7072446,73.4638943 L74.7971874,78.0625522 C50.5815452,118.773292 37.6318712,140.288454 35.9481654,142.60804 C32.1598272,147.827109 34.9113156,157.9002 35.846123,163.177813 C28.1748426,164.545256 31.7616574,153.29197 22.045982,155.171625 C13.1779641,156.887287 5.46312053,162.07869 -2.3052584,154.124844 C-3.26033494,153.146965 -3.84342212,150.216288 -0.344007547,148.912227 C8.37431034,145.663337 21.331407,139.403357 23.5143959,136.82375 C26.4912913,133.305996 37.5555742,112.186044 56.7072446,73.4638943 Z" id="Skin" fill="#915B3C" transform="translate(128.887550, 118.378653) rotate(-4.000000) translate(-128.887550, -118.378653) "></path>
                <path d="M212.041997,91.4388947 C216.322135,91.1316164 220.977876,91.840669 225.96947,93.5225255 C228.425683,94.3501164 229.745942,97.0121652 228.918351,99.468378 C228.437693,100.894926 227.338238,101.938296 226.019703,102.400243 C226.974814,103.097038 227.938387,103.789986 228.910523,104.479018 L220.518159,121.611657 C185.202658,104.00331 152.009465,90.7275746 136.884063,61.6576093 C131.807586,51.9009775 133.525829,18.7598762 133.041282,6.70328273 L144.195079,2.12901314 C159.743039,34.2677247 180.784924,65.1009176 212.041997,91.4388947 Z" id="Back-Arm" fill="#69A1AC"></path>
                <path d="M93.8605991,118.795966 C126.647489,122.397786 152.454369,122.397786 171.281237,118.795966 C173.613759,118.349724 173.511327,108.294692 172.429622,105.548568 C155.584668,62.7842666 144.503922,31.478793 144.503922,1.7756729 C141.413084,3.39017178 136.003828,3.63212462 128.276152,2.50153141 C107.508141,33.1115518 97.9618253,68.2330479 93.8605991,118.795966 Z" id="Shirt" fill="#191847"></path>
                <path d="M87.7686047,123.851994 C86.6551335,122.804333 86.0746685,121.23383 86.3599826,119.615734 L86.9032734,116.534579 C87.2714462,114.446567 88.9672349,112.926105 90.9694489,112.688237 C91.3194625,111.123614 91.6212422,109.569477 91.8704803,108.02672 C93.9758723,94.9945677 90.3786992,82.2161192 90.5476353,69.6676184 C73.7777663,83.9755631 58.7338752,108.681389 45.4159618,143.785095 L25.7190162,137.989136 C26.4705662,135.197044 27.2490397,132.439245 28.0544368,129.715738 C25.7810093,128.424203 23.124502,122.504744 25.0363804,121.514185 C27.0109281,120.491156 29.1027284,119.771114 31.3056195,119.347312 C49.3658661,64.9506232 78.8998655,25.168186 119.907618,-3.99680289e-13 L125.540937,-3.94351218e-13 L131.768209,-1.0658141e-14 C128.276152,46.1801869 176.509698,147.001238 159.761787,233.106043 C128.805794,240.019061 84.6121081,218.510359 41.593608,235.694393 C43.1943273,201.019067 75.2586187,160.283448 87.7686085,123.851985 Z" id="Coat-Front" fill="#89C5CC"></path>
                <polygon id="Shade-Lapel" fill-opacity="0.1" fill="#000000" points="124.214865 1.04289555 118.834405 17.5888976 129.669457 29.9926784 119.877301 39.740063 143.567348 80.302957 114.597103 39.8211017 124.214865 29.9926784 114.597103 19.0312358"></polygon>
                <path d="M136.619317,95.9463902 C134.315415,95.9463902 132.447734,94.0787093 132.447734,91.774808 C132.447734,89.4709068 134.315415,87.6032259 136.619317,87.6032259 C138.923218,87.6032259 140.790899,89.4709068 140.790899,91.774808 C140.790899,94.0787093 138.923218,95.9463902 136.619317,95.9463902 Z M141.833794,119.932988 C139.529893,119.932988 137.662212,118.065307 137.662212,115.761406 C137.662212,113.457504 139.529893,111.589823 141.833794,111.589823 C144.137695,111.589823 146.005376,113.457504 146.005376,115.761406 C146.005376,118.065307 144.137695,119.932988 141.833794,119.932988 Z M142.87669,143.919585 C140.572789,143.919585 138.705108,142.051904 138.705108,139.748003 C138.705108,137.444102 140.572789,135.576421 142.87669,135.576421 C145.180591,135.576421 147.048272,137.444102 147.048272,139.748003 C147.048272,142.051904 145.180591,143.919585 142.87669,143.919585 Z" id="Buttons" fill-opacity="0.4" fill="#000000"></path>
            </g>
        </g>
    </g>
</svg>