<?xml version="1.0" encoding="UTF-8"?>
<svg width="380px" height="480px" viewBox="0 0 380 480" version="1.1" xmlns="http://www.w3.org/2000/svg" xmlns:xlink="http://www.w3.org/1999/xlink">
    <!-- Generator: Sketch 52.4 (67378) - http://www.bohemiancoding.com/sketch -->
    <title>humaaans/standing-6</title>
    <desc>Created with Sketch.</desc>
    <g id="humaaans/standing-6" stroke="none" stroke-width="1" fill="none" fill-rule="evenodd">
        <g id="humaaan-3" transform="translate(28.000000, 5.000000)">
            <g id="Bottom/Standing/Sprint" transform="translate(0.000000, 215.435876)">
                <path d="M224.415352,-10.6253315 C203.783211,6.20583163 211.912551,154.119696 210.53675,155.979242 C209.925283,156.805708 177.192555,163.788128 112.338568,176.926503 L115.159749,188.378627 C191.043714,184.745179 231.192147,180.11221 235.605048,174.479719 C241.923059,166.415605 249.667877,121.265624 258.839503,39.0297766 L224.415352,-10.6253315 Z" id="Leg" fill="#B28B67" transform="translate(185.589035, 88.876648) rotate(-55.000000) translate(-185.589035, -88.876648) "></path>
                <path d="M123.3053,164.893516 L128.271367,183.338758 C184.853962,189.945996 222.132772,181.962745 235.236791,169.483347 C243.972804,161.163747 251.738,116.136551 258.532381,34.4017562 L221.707804,-18.1891904 C172.588894,18.8784614 202.128331,140.568418 200.876413,143.349326 C199.624495,146.130233 169.794519,148.276717 123.3053,164.893516 Z" id="Pant" fill="#2F3676" transform="translate(190.918840, 83.763603) rotate(-55.000000) translate(-190.918840, -83.763603) "></path>
                <g id="Accessories/Shoe/Flat-Sneaker" transform="translate(241.974793, 202.081954) rotate(20.000000) translate(-241.974793, -202.081954) translate(208.936464, 180.501123)" fill="#E4E4E4">
                    <path d="M2.90101634,27.5159711 C1.68915471,30.7510048 1.08322389,33.1715576 1.08322389,34.7776295 C1.08322389,36.7309922 1.40863973,39.5814342 2.05947141,43.3289555 C4.32550923,43.3289555 24.6907726,43.3289555 63.1552616,43.3289555 C64.7429247,38.080202 63.8264335,35.2465689 60.4057881,34.8280561 C56.9851428,34.4095434 54.1435546,34.0316599 51.8810236,33.6944057 L23.4842859,21.0349984 C22.9378762,20.7914062 22.2974531,21.0368884 22.053861,21.5832981 C22.0496938,21.5926456 22.0456593,21.6020518 22.0417587,21.6115137 L20.2164382,26.0392887 C17.0498153,27.5167596 14.4766054,28.2554951 12.4968086,28.2554951 C10.8882707,28.2554951 8.66686616,27.6058583 5.8325951,26.3065849 L5.83260102,26.3065719 C4.74493521,25.8079692 3.45901046,26.2854991 2.96040771,27.373165 C2.9389172,27.420045 2.91910746,27.4676773 2.90101634,27.5159711 Z" id="shoe"></path>
                </g>
                <polygon id="Leg" fill="#997659" points="140.819105 0 84.7666428 134.045997 29.6757965 247.370589 42.6735102 247.370589 184.877815 0"></polygon>
                <g id="Accessories/Shoe/Flat-Sneaker" transform="translate(25.997373, 214.729269)" fill="#E4E4E4">
                    <path d="M2.90101634,27.5159711 C1.68915471,30.7510048 1.08322389,33.1715576 1.08322389,34.7776295 C1.08322389,36.7309922 1.40863973,39.5814342 2.05947141,43.3289555 C4.32550923,43.3289555 24.6907726,43.3289555 63.1552616,43.3289555 C64.7429247,38.080202 63.8264335,35.2465689 60.4057881,34.8280561 C56.9851428,34.4095434 54.1435546,34.0316599 51.8810236,33.6944057 L23.4842859,21.0349984 C22.9378762,20.7914062 22.2974531,21.0368884 22.053861,21.5832981 C22.0496938,21.5926456 22.0456593,21.6020518 22.0417587,21.6115137 L20.2164382,26.0392887 C17.0498153,27.5167596 14.4766054,28.2554951 12.4968086,28.2554951 C10.8882707,28.2554951 8.66686616,27.6058583 5.8325951,26.3065849 L5.83260102,26.3065719 C4.74493521,25.8079692 3.45901046,26.2854991 2.96040771,27.373165 C2.9389172,27.420045 2.91910746,27.4676773 2.90101634,27.5159711 Z" id="shoe"></path>
                </g>
                <path d="M34.6507602,223.828707 L63.5318239,229.223915 C85.8625814,196.520308 179.317713,62.4245384 189.56418,2.84217094e-14 L125.268422,2.84217094e-14 C91.0502544,45.1266206 55.9365839,190.58412 34.6507602,223.828707 Z" id="Pant" fill="#5C63AB"></path>
            </g>
            <g id="Head/Front/Wavy" transform="translate(170.300496, 72.834695) rotate(14.000000) translate(-170.300496, -72.834695) translate(96.650698, 16.603678)">
                <g id="Head" stroke-width="1" transform="translate(58.494090, 33.282773)" fill="#B28B67">
                    <path d="M8.94989243,37.029905 C3.95849475,31.2228654 0.580212404,24.1062584 1.14472537,16.1318958 C2.77124441,-6.84446329 35.0407011,-1.78995704 41.3177785,9.80653596 C47.5948559,21.403029 46.8489759,50.8184952 38.7364127,52.8911119 C35.5011336,53.7176686 28.6090274,51.6929357 21.5944711,47.5023609 L25.9973733,78.3755619 L0,78.3755619 L8.94989243,37.029905 Z"></path>
                </g>
                <path d="M102.266188,48.2961301 C102.008671,46.7929837 101.379317,45.1237559 100.871502,43.7016383 C100.216799,41.8683411 99.226015,40.2153922 98.1356823,38.6575561 C96.082936,35.7246098 93.6204126,33.0760871 90.9015477,30.8778864 C85.9352043,26.8626675 79.6132895,24.5466734 73.3964629,25.2987953 C70.2575808,25.6785145 67.210525,26.8652282 64.6170609,28.8404628 C62.273895,30.6251062 60.0200372,33.2522285 56.9859076,33.4409906 C53.6845248,33.6462146 50.6582851,30.758081 48.0105982,28.9743522 C45.0253195,26.9634504 41.8495054,25.4981662 38.360441,24.9285875 C32.5154523,23.9747169 27.0245069,25.9320264 22.9962356,30.6851003 C18.7096084,35.7430836 15.5935569,43.1605934 18.4086128,49.8623801 C18.9318718,51.1081735 19.605041,52.1584371 20.5711479,53.0289011 C21.4571795,53.8271161 22.8104007,54.6763627 23.1696481,55.9517874 C23.5512225,57.3075091 22.4113675,59.0564852 21.9693589,60.2797807 C21.3361434,62.032415 20.8162419,63.872114 21.0010696,65.7771115 C21.3047512,68.9055875 23.288334,71.8921261 25.3828806,73.9483894 C27.5143592,76.0408686 30.1377046,77.2407518 32.9396664,77.7938687 C34.8106067,78.163162 36.7226758,78.3669227 38.6241689,78.2282777 C39.5681166,78.1595039 40.4011005,77.8995901 41.3156705,77.6929029 C42.2050596,77.4918859 42.7021304,77.7260095 43.4567178,78.209438 C46.9620659,80.4555609 50.7311418,81.3245616 54.7787185,80.9905698 C58.1947583,80.708524 62.1320426,79.8879942 64.918728,77.568159 C68.0134597,74.9917024 67.9518504,71.4388775 67.223619,67.6429665 C67.9951616,68.021954 70.1296619,68.2566263 68.8541657,66.7459806 C68.3488692,66.1476852 67.3941776,65.9042333 66.7458536,65.5523163 C65.9909304,65.1426001 65.2244241,64.6130785 64.6382129,63.9447289 C62.271209,61.2460891 64.6618829,55.7540627 67.6369214,54.8490289 C72.0570074,53.5044646 73.0466164,59.700142 76.2019501,61.3027909 C78.0161494,62.2242866 79.9139493,60.964775 81.2732139,59.6787417 C83.0939603,57.9559216 84.3348747,55.6735827 85.4062377,53.3510039 C86.288744,51.4383242 87.1099769,49.4987569 88.0094383,47.5955885 C88.4294556,46.7068336 89.8835682,44.1943952 89.1533223,43.189493 C92.319232,42.5637612 95.8453962,43.8677197 98.5719833,45.5777361 C99.6989121,46.2846795 100.558084,47.0640549 101.159236,48.3120432 C101.287994,48.5794562 101.568342,49.3743788 101.92037,49.4069366 C102.575745,49.4676624 102.330819,48.6738372 102.266188,48.2961301" id="hair" fill="#191847"></path>
            </g>
            <g id="Body/Hoodie" transform="translate(161.626398, 206.585639) rotate(1.000000) translate(-161.626398, -206.585639) translate(22.991486, 105.477944)">
                <path d="M206.658758,99.3936359 L241.211727,124.641647 C250.583204,127.157953 258.41277,130.288662 264.700425,134.033775 C266.185678,135.380493 267.980746,138.107822 261.821041,137.636471 C255.661337,137.165121 249.160948,136.944991 248.311029,139.035621 C247.461109,141.126251 251.188629,143.626416 249.470571,146.447224 C248.3252,148.327762 242.914004,143.612382 233.236983,132.301082 L199.02048,118.182257 L206.658758,99.3936359 Z M73.9927793,100.265007 L96.6293333,100.353587 C82.6523057,145.251568 75.1067877,169.074156 73.9927793,171.821349 C71.4862604,178.002536 76.7903914,187.416376 79.0586484,192.475303 C71.6710111,195.764766 72.4581718,183.582541 63.1388661,187.896855 C54.632636,191.834761 48.161968,198.969984 38.3342483,192.935851 C37.1259879,192.19399 35.8019313,189.400748 39.0010193,187.217978 C46.9711142,181.779901 58.4565037,172.262287 60.0083607,169.129491 C62.124595,164.857363 66.7860678,141.902535 73.9927793,100.265007 Z" id="Skin" fill="#B28B67"></path>
                <path d="M132.97336,10.3481797 L142.165152,7.93920655 C179.390049,34.6706661 198.612235,90.5999133 243.699051,117.174215 L234.587047,130.66642 C160.172962,128.036954 135.824211,59.8956426 132.97336,10.3481797 Z" id="Coat-Back" fill="#E87613" transform="translate(188.336205, 69.302813) rotate(5.000000) translate(-188.336205, -69.302813) "></path>
                <path d="M97.4901498,122.87921 C135.047424,122.87921 162.673768,122.87921 180.369181,122.87921 C184.15633,122.87921 183.442714,117.437641 182.895259,114.691796 C176.576962,83.0014209 151.912731,48.8407301 151.912731,3.730279 L128.006517,0 C108.233006,31.6450688 101.394984,70.6065558 97.4901498,122.87921 Z" id="Shirt" fill="#DDE3E9"></path>
                <path d="M98.1561606,31.1056416 C94.684083,30.112508 91.934557,27.7962104 89.9075826,24.1567487 C81.1698189,8.46796831 84.3254343,-0.169867342 93.6633326,-3.0091727 C103.001231,-5.84847805 111.328681,-2.26485497e-14 126.206449,-7.99360578e-15 C127.015676,-7.54951657e-15 127.756836,0.0504802177 128.42993,0.151440653 L135.91382,0.576389666 C157.385916,72.9893825 163.307792,121.302204 153.679448,145.514854 L88.4471954,145.514854 C84.5822537,154.482742 80.8838308,162.027956 77.3519265,168.150498 L59.5773138,168.150498 C57.9044729,114.328424 70.7640886,68.6468053 98.1561606,31.1056416 Z" id="Coat-Front" fill="#FF9B21"></path>
                <path d="M102.651959,108.325175 C104.703501,125.405805 108.037943,137.802365 112.655284,145.514854 L88.4471954,145.514854 C92.9555418,135.054064 97.6904629,122.657504 102.651959,108.325174 Z" id="Shade" fill-opacity="0.1" fill="#000000"></path>
            </g>
        </g>
    </g>
</svg>