<?xml version="1.0" encoding="UTF-8"?>
<svg width="380px" height="480px" viewBox="0 0 380 480" version="1.1" xmlns="http://www.w3.org/2000/svg" xmlns:xlink="http://www.w3.org/1999/xlink">
    <!-- Generator: Sketch 52.4 (67378) - http://www.bohemiancoding.com/sketch -->
    <title>humaaans/standing-17</title>
    <desc>Created with Sketch.</desc>
    <g id="humaaans/standing-17" stroke="none" stroke-width="1" fill="none" fill-rule="evenodd">
        <g id="humaaan-1" transform="translate(28.000000, 2.000000)">
            <g id="Head/Front/Chongo" transform="translate(133.219486, 73.532869) rotate(-15.000000) translate(-133.219486, -73.532869) translate(59.569689, 17.301852)">
                <g id="Head" stroke-width="1" transform="translate(58.494090, 33.282773)" fill="#784931">
                    <path d="M8.94989243,37.029905 C3.95849475,31.2228654 0.580212404,24.1062584 1.14472537,16.1318958 C2.77124441,-6.84446329 35.0407011,-1.78995704 41.3177785,9.80653596 C47.5948559,21.403029 46.8489759,50.8184952 38.7364127,52.8911119 C35.5011336,53.7176686 28.6090274,51.6929357 21.5944711,47.5023609 L25.9973733,78.3755619 L0,78.3755619 L8.94989243,37.029905 Z"></path>
                </g>
                <path d="M89.5430724,30.4590799 C85.9907029,29.3854421 80.8339106,29.0213371 78.6646013,29.2676511 C79.8986033,26.3372422 80.3882734,23.0724141 79.9890741,19.8935275 C79.6010696,16.8046503 78.2085157,14.174561 76.9206127,11.4185451 C76.326955,10.1482022 75.6541872,8.884783 74.6511305,7.91311518 C73.6293327,6.92318586 72.3358738,6.26975288 70.979558,5.95800909 C69.5915649,5.63890878 68.1402175,5.66547883 66.7500684,5.95506648 C66.1350991,6.08315665 65.5833183,6.36183933 64.9802072,6.5167592 C64.3625843,6.67548716 64.0629775,6.29234175 63.6146868,5.90729231 C62.5343442,4.97950403 60.9505661,4.52149511 59.5838017,4.35757431 C58.0503588,4.1737476 56.4592003,4.4030117 54.996741,4.90264992 C53.5732562,5.38904639 52.2057455,6.17887809 51.1765675,7.32952597 C50.7183258,7.84171356 50.3023757,8.42469695 50.0320412,9.06835007 C49.921171,9.33249277 49.9028446,9.4889705 49.6369052,9.58573051 C49.3909507,9.67530708 49.103285,9.6779035 48.8494526,9.76315271 C46.3950484,10.5870841 44.2965568,12.4667208 43.1539378,14.8800955 C42.4873064,16.2880488 42.1715293,18.766957 42.2580197,21.5454058 C42.3445102,24.3238546 44.8757026,31.5736204 47.2431189,34.2179901 C49.3562882,36.5783111 52.4623973,38.135905 55.4600411,38.8177255 C53.4703466,41.0718529 52.1458739,43.888625 51.1664507,46.7533444 C50.1026101,49.8651567 49.4441883,53.0984816 49.2010532,56.3929089 C48.970108,59.5229827 48.9487134,62.8330751 49.6890648,65.8963343 C50.3816516,68.7609671 51.8627691,71.1109891 54.3353338,72.6018548 C55.4679189,73.2848005 56.6864969,73.7978535 57.9121234,74.2667674 C59.1200041,74.7288441 60.3315334,75.1781117 61.596798,75.4374078 C63.9914135,75.9279585 66.7505659,75.8437479 68.5951422,73.9545909 C69.2599492,73.2735493 69.991096,72.4177685 70.4761223,71.5857882 C70.6505129,71.2865938 70.7556614,71.0909101 70.5437889,70.7984663 C70.2899565,70.448209 69.8793965,70.1798254 69.5533367,69.9058163 C67.6939169,68.3435489 66.5429226,66.2579294 66.2527692,63.7793845 C65.9583866,61.2645763 66.6399444,58.0186155 69.1067874,56.9211078 C72.151864,55.5662945 75.5053374,57.1213785 78.2118327,58.5709611 C79.3620807,54.5471987 81.7238581,50.9242374 85.4266932,49.0785273 C89.5232545,47.0366141 94.224005,46.7976567 98.4338415,45.0456774 C99.5308519,44.5891398 100.648179,44.0708939 101.455865,43.1406823 C101.793368,42.7519113 102.189334,42.2475995 102.324086,41.7334213 C102.50113,41.0580053 102.06163,40.4917256 101.722136,39.9651711 C99.9220075,37.1732381 93.0954419,31.5327178 89.5430724,30.4590799 Z" id="hair" fill="#191847"></path>
            </g>
            <g id="Bottom/Standing/Skinny-Jeans" transform="translate(0.000000, 218.435876)">
                <polygon id="Leg" fill="#191847" points="138.652658 9.9475983e-14 177.924899 137.283122 206.578332 238.468184 227.477016 238.468184 197.028648 9.9475983e-14"></polygon>
                <path d="M128.150089,0 C127.241726,70.757313 124.144225,109.350274 123.190481,115.778884 C122.236737,122.207493 107.815626,163.103927 79.9271491,238.468184 L101.576771,238.468184 C137.080936,166.169056 156.900269,125.272623 161.03477,115.778884 C165.169272,106.285145 177.928747,67.6921834 197.146747,0 L128.150089,0 Z" id="Leg" fill="#2F3676"></path>
                <g id="Accessories/Shoe/Flat-Pointy" transform="translate(77.992120, 214.729269)" fill="#191847">
                    <path d="M0,43.3289555 L1.08322389,20.5812538 L23.8309255,20.5812538 C34.6172392,28.1638211 48.6991498,34.3020897 66.0766571,38.9960599 L66.0766571,43.3289555 L24.9141494,43.3289555 L10.8322389,41.1625077 L10.8322389,43.3289555 L0,43.3289555 Z" id="Shoe"></path>
                </g>
                <g id="Accessories/Shoe/Flat-Pointy" transform="translate(203.646091, 214.729269)" fill="#191847">
                    <path d="M0,43.3289555 L1.08322389,20.5812538 L23.8309255,20.5812538 C34.6172392,28.1638211 48.6991498,34.3020897 66.0766571,38.9960599 L66.0766571,43.3289555 L24.9141494,43.3289555 L10.8322389,41.1625077 L10.8322389,43.3289555 L0,43.3289555 Z" id="Shoe"></path>
                </g>
            </g>
            <g id="Body/Lab-Coat" transform="translate(161.379703, 207.081536) rotate(-10.000000) translate(-161.379703, -207.081536) translate(22.744790, 105.973841)">
                <path d="M206.201278,95.511662 L238.900146,123.09659 C248.072397,126.257267 255.663422,129.923823 261.673222,134.096257 C263.060449,135.54279 264.659954,138.388076 258.548297,137.490311 C252.436639,136.592546 245.967517,135.921741 244.973111,137.948284 C243.978705,139.974826 247.521878,142.727638 245.610262,145.422319 C244.335851,147.218773 239.268394,142.139273 230.407888,130.183817 L197.26449,113.72432 L206.201278,95.511662 Z M58.1335286,83.5750219 L77.31935,86.3475815 C56.7250713,130.809941 45.6842344,154.324212 44.1968392,156.890395 C40.8502001,162.664304 44.7860724,172.721085 46.3247028,178.044905 C38.5488903,180.279259 41.0322217,168.324603 31.2002019,171.306323 C22.2259902,174.027899 14.8203472,180.197575 5.93221655,172.861149 C4.83947311,171.959179 3.91897071,169.009756 7.39221218,167.291262 C16.0453233,163.009867 28.7500911,155.175461 30.725005,152.288065 C33.4181528,148.350586 42.5543274,125.446238 58.1335286,83.5750219 Z" id="Skin" fill="#B28B67"></path>
                <path d="M133.240149,9.94773592 L144.742264,5.01440981 C164.301242,43.5432429 191.641011,80.0856087 234.527379,109.219854 L226.115022,127.080294 C189.129211,109.536089 154.423988,96.430095 138.202528,66.6679777 C132.758186,56.6790418 133.956532,22.3983855 133.240149,9.94773592 Z" id="Coat-Back" fill="#C5CFD6" transform="translate(183.883764, 66.047352) rotate(5.000000) translate(-183.883764, -66.047352) "></path>
                <path d="M97.4901498,118.567659 C131.544896,122.160618 158.349716,122.160618 177.904611,118.567659 C180.327332,118.122515 180.709548,114.08622 179.586014,111.346852 C162.089672,68.6877568 150.091829,31.4652984 150.091829,1.83525203 C146.88147,3.44577902 141.26304,3.68713662 133.236538,2.55932483 C111.665436,33.0940403 101.749969,68.1291327 97.4901498,118.567659 Z" id="Shirt" fill="#323337"></path>
                <path d="M127.873926,7.16093851e-14 L136.863632,6.61692923e-14 C138.956793,12.2500559 145.558765,178.134529 165.93971,232.399042 L55.6618043,232.399042 C58.0525979,182.688232 76.9120058,122.973409 96.0167585,73.0035192 C79.1234775,88.3862479 64.3995942,114.451148 51.8451085,151.198219 L31.188855,145.921916 C46.5474567,80.0666734 78.1247582,31.6628239 125.920759,0.710367798 C126.024257,0.472446517 126.127271,0.235654655 126.229794,7.26085858e-14 L127.025336,7.21644966e-14 C127.31815,-0.187006459 127.611566,-0.373364714 127.905584,-0.559074766 L127.873926,7.11652959e-14 Z" id="Coat-Front" fill="#DDE3E9"></path>
            </g>
        </g>
    </g>
</svg>