<?xml version="1.0" encoding="UTF-8"?>
<svg width="380px" height="480px" viewBox="0 0 380 480" version="1.1" xmlns="http://www.w3.org/2000/svg" xmlns:xlink="http://www.w3.org/1999/xlink">
    <!-- Generator: Sketch 52.4 (67378) - http://www.bohemiancoding.com/sketch -->
    <title>humaaans/standing-8</title>
    <desc>Created with Sketch.</desc>
    <g id="humaaans/standing-8" stroke="none" stroke-width="1" fill="none" fill-rule="evenodd">
        <g id="A-Human/Standing" transform="translate(40.000000, 27.000000)">
            <g id="Head/Front/Long" transform="translate(82.000000, 0.000000)">
                <path d="M95.7620125,45.2901669 C99.2090333,57.9923169 103.701116,86.5437798 99.1172687,91.0224659 L70.1172687,91.0224659 C70.1143073,90.9710129 70.1114038,90.9196907 70.108558,90.8684989 C59.3599056,89.678999 51,80.5657798 51,69.5 L51,48.5 C51,36.6258779 60.6258779,27 72.5,27 L74.5,27 C85.2832975,27 94.2124503,34.9385375 95.7620125,45.2901669 Z" id="Hair-Back" fill="#191847"></path>
                <g id="Head" stroke-width="1" transform="translate(54.000000, 31.000000)" fill="#D4A181">
                    <path d="M8.26227388,34.4901268 C3.65436435,29.0813759 0.535634794,22.4528771 1.05677633,15.0254539 C2.55833022,-6.37502057 32.3485306,-1.66718886 38.1433414,9.13393292 C43.9381521,19.9350547 43.249578,47.3329958 35.7603014,49.2634576 C32.7735882,50.033323 26.4110012,48.1474609 19.935372,44.244306 L24,73 L0,73 L8.26227388,34.4901268 Z"></path>
                </g>
                <path d="M68.7499646,61.874834 C69.855742,73.75284 69.4127345,87.3172649 66.1172687,90.5371269 L37.1172687,90.5371269 C35.5014749,62.4634848 51.1172687,73.3348557 51.1172687,46.9027926 C52.0908529,45.9515442 53.0108111,45.0100255 53.9211179,44.1980592 L53.888877,43.4207004 C58.9105508,33.1402335 65.2813979,28 73.0014183,28 C84.581449,28 88.2365853,33.3883223 91.3486809,37.9630857 C89.0215226,45.9481754 79.9904303,47.1321867 71.9657406,52.1095118 C71.0198539,51.3410043 69.8137154,50.8804131 68.5,50.8804131 C65.4624339,50.8804131 63,53.3428469 63,56.3804131 C63,59.4179792 65.4624339,61.8804131 68.5,61.8804131 C68.5837722,61.8804131 68.6671069,61.8785402 68.7499646,61.874834 Z" id="Hair-Front" fill="#191847"></path>
            </g>
            <g id="Bottom/Standing/Skirt" transform="translate(0.000000, 187.000000)">
                <path d="M97.4078252,98.0880741 C121.397173,104.797924 142.094458,108.152849 159.499678,108.152849 C176.904899,108.152849 193.071673,102.986324 208,92.6532736 C184.524241,85.7662231 165.190908,82.3226979 150,82.3226979 C134.809092,82.3226979 117.278368,87.5778233 97.4078252,98.0880741 Z" id="Skirt-Shadow" fill="#1F28CF"></path>
                <path d="M180.266835,117.824327 C180.035521,117.476585 179.840175,117.098311 179.685231,116.688552 C176.478637,108.208488 125.116885,16.7255336 120,0 L177.826087,0 C181.716527,12.7166594 199.227018,92.5197596 201.69132,108.441654 C209.466648,133.556719 225.475271,214.895245 227.518903,220.530129 C229.66877,226.457932 217.572184,232.63317 214.348729,225.345671 C209.219667,213.750031 196.998649,181.665102 191.557135,162.074268 C186.455728,143.707903 182.301821,127.184501 180.266835,117.824327 Z" id="Leg" fill="#BA8B72"></path>
                <path d="M132.957062,128.993595 C109.475313,134.928474 23.5840287,145.657684 17.6897926,147.340533 C11.6264626,149.07166 6.31008232,136.573779 13.8046857,133.866526 C25.7298651,129.558829 58.589132,119.605712 78.5118243,115.544042 C94.5364316,112.27708 109.159082,109.611243 118.976345,108.050159 C118.144649,80.4734403 114.342756,14.2935455 116.834687,1.42108547e-14 L168,1.42108547e-14 C165.610405,13.7065491 145.410112,113.717714 141.6556,123.728549 C140.464101,127.302484 136.908919,128.8819 132.957062,128.993595 Z" id="Leg" fill="#D4A181"></path>
                <g id="Accessories/Shoe/Flat-Sneaker" transform="translate(24.500000, 157.000000) rotate(80.000000) translate(-24.500000, -157.000000) translate(-6.000000, 137.000000)" fill="#E4E4E4">
                    <path d="M2.67813181,25.4019242 C1.55937727,28.3884109 1,30.6229931 1,32.1056708 C1,33.908957 1.3004142,36.5404001 1.90124261,40 C3.99318117,40 22.7937852,40 58.3030548,40 C59.768738,35.1545073 58.9226607,32.5385816 55.7648228,32.1522232 C52.606985,31.7658647 49.9837155,31.4170139 47.8950143,31.1056708 L21.6799926,19.4188835 C21.1755635,19.1940064 20.584344,19.4206282 20.359467,19.9250573 C20.35562,19.9336867 20.3518954,19.9423702 20.3482945,19.9511052 L18.6632131,24.038695 C15.7398812,25.4026522 13.3643706,26.0846307 11.5366811,26.0846307 C10.0517269,26.0846307 8.00099246,25.4849054 5.38447792,24.2854549 L5.38448339,24.285443 C4.38038273,23.8251478 3.19325534,24.2659892 2.73296014,25.2700899 C2.71312074,25.3133681 2.69483298,25.3573409 2.67813181,25.4019242 Z" id="shoe"></path>
                </g>
                <g id="Accessories/Shoe/Flat-Sneaker" transform="translate(208.000000, 199.000000)" fill="#E4E4E4">
                    <path d="M2.67813181,25.4019242 C1.55937727,28.3884109 1,30.6229931 1,32.1056708 C1,33.908957 1.3004142,36.5404001 1.90124261,40 C3.99318117,40 22.7937852,40 58.3030548,40 C59.768738,35.1545073 58.9226607,32.5385816 55.7648228,32.1522232 C52.606985,31.7658647 49.9837155,31.4170139 47.8950143,31.1056708 L21.6799926,19.4188835 C21.1755635,19.1940064 20.584344,19.4206282 20.359467,19.9250573 C20.35562,19.9336867 20.3518954,19.9423702 20.3482945,19.9511052 L18.6632131,24.038695 C15.7398812,25.4026522 13.3643706,26.0846307 11.5366811,26.0846307 C10.0517269,26.0846307 8.00099246,25.4849054 5.38447792,24.2854549 L5.38448339,24.285443 C4.38038273,23.8251478 3.19325534,24.2659892 2.73296014,25.2700899 C2.71312074,25.3133681 2.69483298,25.3573409 2.67813181,25.4019242 Z" id="shoe"></path>
                </g>
                <path d="M117,3.55271368e-15 C139.546839,-6.45073907 160.880173,-6.45073907 181,3.55271368e-15 C188,31.9374682 205.00894,44.6134741 208,93.5789257 C174,110.472724 132,81.5304571 97,98.005311 C87,74.9611073 101,19.4645181 117,3.55271368e-15 Z" id="Skirt" fill="#2B44FF"></path>
            </g>
            <g id="Body/Long-Sleeve" transform="translate(22.000000, 82.000000)">
                <path d="M192,65.3107899 L231.482876,59.9251648 C239.381053,55.5320264 246.646993,52.5579486 253.280695,51.0029313 C255.147488,50.9484265 258.117196,51.6270536 253.693154,55.3151968 C249.269111,59.00334 244.780296,63.0831966 245.568527,65.0514942 C246.356757,67.0197919 250.471061,66.2874533 251.152638,69.3148625 C251.607023,71.3331352 244.929759,71.6610844 231.120845,70.2987101 L199.083874,83 L192,65.3107899 Z M67.9697919,74.4496834 L89.8671837,74.5318631 C65.8560993,128.56567 53.3363474,156.856914 52.3079281,159.405597 C49.9939846,165.140133 54.8906002,173.873732 56.9845874,178.567103 C50.1645409,181.61887 50.8912241,170.316929 42.2879189,174.319492 C34.4352209,177.972846 28.4616931,184.59248 19.3890352,178.994371 C18.2736052,178.306117 17.0512757,175.714714 20.0045784,173.68967 C27.3623323,168.644547 37.9653015,159.814672 39.3979297,156.908251 C41.3515741,152.944826 50.8755281,125.458637 67.9697919,74.4496834 Z" id="Skin" fill="#D4A181"></path>
                <path d="M123.473568,9.66927317 L140.652814,9.31280705 C148.188654,47.0006412 173.203746,69.0336905 223.790464,56.4079457 L234.893349,104.819132 C187.489073,115.210412 143.760505,99.6935282 130.595778,48.4746485 C127.187846,35.2156986 124.201379,21.3681777 123.473568,9.66927317 Z" id="Clothes-Back" fill="#AFB9C5" transform="translate(179.183459, 58.591470) rotate(5.000000) translate(-179.183459, -58.591470) "></path>
                <path d="M119.490817,0.0159395536 L145.467604,5.96527657 C145.467604,50.6444246 159.700025,79.150459 167,112 L96.8436541,112 C95.8553795,123.350899 95.2484887,135.017565 94.9322404,147 L42.4016357,147 C54.3053653,83.6639633 79.4301113,34.6639633 117.775873,0 L119.477154,0 L119.490817,0.0159395536 Z" id="Clothes" fill="#C5CFD6"></path>
                <path d="M107.912453,48.2592493 C106.104463,76.1005287 107.167794,97.3474456 111.102445,112 L96.8436541,112 C98.8014235,89.5139021 102.255877,68.2669888 107.91245,48.25926 Z" id="Shade" fill-opacity="0.1" fill="#000000"></path>
            </g>
        </g>
    </g>
</svg>