<?xml version="1.0" encoding="UTF-8"?>
<svg width="380px" height="480px" viewBox="0 0 380 480" version="1.1" xmlns="http://www.w3.org/2000/svg" xmlns:xlink="http://www.w3.org/1999/xlink">
    <!-- Generator: Sketch 52.4 (67378) - http://www.bohemiancoding.com/sketch -->
    <title>humaaans/standing-22</title>
    <desc>Created with Sketch.</desc>
    <g id="humaaans/standing-22" stroke="none" stroke-width="1" fill="none" fill-rule="evenodd">
        <g id="humaaan-12" transform="translate(34.000000, 10.000000)">
            <g id="Head/Front/Pony" transform="translate(180.496667, 70.916479) rotate(15.000000) translate(-180.496667, -70.916479) translate(109.550000, 16.686230)">
                <g id="Head" stroke-width="1" transform="translate(56.316359, 32.329762)" fill="#D4A181">
                    <path d="M8.61668863,35.9695996 C3.8111203,30.3288374 0.558611141,23.4160055 1.10210733,15.6699789 C2.66807119,-6.64848056 33.7361385,-1.73870383 39.7795208,9.52573796 C45.8229031,20.7901798 45.1047922,49.3633705 37.294259,51.3766405 C34.1794292,52.1795298 27.5439155,50.2127726 20.7905107,46.1421897 L25.0294931,76.1313749 L0,76.1313749 L8.61668863,35.9695996 Z"></path>
                </g>
                <path d="M73.5958055,66.7300142 C70.4920461,72.6877108 66.1993682,77.1742704 61.910804,77.1742704 C53.7650435,77.1742704 47.9731951,66.2836037 47.9731951,54.5742741 C47.9731951,54.1628695 47.9813468,53.7542017 47.9974305,53.3485863 C39.3806687,59.2616067 32.7398364,70.9168971 21.3384204,70.9168971 C5.82689641,70.9168971 -0.333376422,39.6300307 21.3384204,39.6300307 C36.0768888,39.6300307 43.3266534,41.7788973 49.5745342,44.9565643 C50.8068196,41.4825635 52.6858517,38.5617811 54.9835347,36.522099 C55.5362914,35.8998584 56.3837294,35.3045199 57.4770187,34.7526108 C58.1454127,34.3869182 58.8370821,34.0890762 59.5479538,33.8649395 C63.3159666,32.4802383 68.7736991,31.5035692 74.8701001,31.2906782 C76.0084928,31.2509247 77.1265278,31.2392917 78.2172168,31.2539461 C78.2349678,25.5093324 82.8973457,20.8579109 88.6461214,20.8579109 C94.4058745,20.8579109 99.0750769,25.5271133 99.0750769,31.2868664 C99.0750769,36.8570669 94.7081429,41.4073153 89.2111081,41.7007783 C86.0665277,42.6710651 82.0263041,43.3834689 77.5457374,43.683886 C77.9807547,45.3198126 78.2171659,47.1782869 78.2171659,49.2784438 C78.2171659,51.1328609 78.0124871,53.0995714 77.6356035,55.096496 C76.6638219,53.9414273 75.3644328,53.1876728 74.0455838,53.1876728 C70.3562718,53.1876728 67.7882105,56.2226544 67.7882105,59.4450461 C67.7882105,63.5347656 70.1492098,66.4933786 73.5958055,66.7300142 Z" id="hair" fill="#191847"></path>
            </g>
            <g id="Bottom/Standing/Jogging" transform="translate(0.000000, 211.706546)">
                <polygon id="Leg" fill="#BA8B72" points="135.576421 0 213.070248 129.55569 271.168323 239.084106 283.682133 239.084106 186.337993 5.30873359e-13"></polygon>
                <g id="Accessories/Shoe/Flat-Sneaker" transform="translate(260.723886, 207.536214)" fill="#E4E4E4">
                    <path d="M2.79301173,26.4915537 C1.62626761,29.6061473 1.04289555,31.9365831 1.04289555,33.4828611 C1.04289555,35.3635003 1.35619618,38.1078205 1.98279745,41.7158218 C4.16447086,41.7158218 23.7715371,41.7158218 60.8039962,41.7158218 C62.3325506,36.662479 61.4501804,33.9343419 58.1568854,33.5314103 C54.8635904,33.1284788 52.1277943,32.7646639 49.9494971,32.4399656 L22.6099678,20.2518671 C22.0839009,20.0173438 21.4673207,20.2536867 21.2327974,20.7797536 C21.2287854,20.7887531 21.2249011,20.7978091 21.2211457,20.8069187 L19.4637818,25.069848 C16.415052,26.4923128 13.9376425,27.2035452 12.0315534,27.2035452 C10.4829012,27.2035452 8.34419941,26.5780944 5.61544804,25.3271928 L5.61545374,25.3271803 C4.56828164,24.8471405 3.33023177,25.3068921 2.85019196,26.3540642 C2.82950154,26.3991988 2.81042931,26.4450579 2.79301173,26.4915537 Z" id="shoe"></path>
                </g>
                <path d="M255.032865,221.545314 L279.165526,214.245045 C268.59235,182.636952 255.63342,147.853404 240.288738,109.894402 C224.944056,71.9353994 208.464438,35.3039322 190.849885,2.84217094e-14 L122.69048,2.84217094e-14 C142.274076,44.6578531 163.035313,85.2352452 184.974193,121.732176 C206.913072,158.229107 230.265963,191.500153 255.032865,221.545314 Z" id="Pant" fill="#DB2721"></path>
                <path d="M130.483574,2.84217094e-14 C123.169612,45.5267591 109.062982,103.692464 107.731697,105.487475 C106.844173,106.684149 74.8930942,117.390616 11.8784597,137.606876 L14.5815936,148.641752 C89.7263975,137.799641 129.321301,129.387885 133.366303,123.406484 C139.433807,114.434384 169.729671,43.5545895 181.463825,2.84217094e-14 L130.483574,2.84217094e-14 Z" id="Leg" fill="#D4A181"></path>
                <path d="M34.0291683,128.068071 L38.7904444,145.840535 C94.9943795,150.76997 129.431772,147.208144 142.102622,135.155056 C154.773471,123.101968 169.2145,78.0502828 185.425707,-1.13686838e-13 L120.431644,-1.13686838e-13 C110.160605,63.9126794 104.418425,97.2105109 103.205106,99.8934944 C101.991786,102.576478 78.9331404,111.968003 34.0291683,128.068071 Z" id="Pant" fill="#FF4133"></path>
                <g id="Accessories/Shoe/Flat-Sneaker" transform="translate(25.550941, 160.605914) rotate(80.000000) translate(-25.550941, -160.605914) translate(-6.257373, 139.748003)" fill="#E4E4E4">
                    <path d="M2.79301173,26.4915537 C1.62626761,29.6061473 1.04289555,31.9365831 1.04289555,33.4828611 C1.04289555,35.3635003 1.35619618,38.1078205 1.98279745,41.7158218 C4.16447086,41.7158218 23.7715371,41.7158218 60.8039962,41.7158218 C62.3325506,36.662479 61.4501804,33.9343419 58.1568854,33.5314103 C54.8635904,33.1284788 52.1277943,32.7646639 49.9494971,32.4399656 L22.6099678,20.2518671 C22.0839009,20.0173438 21.4673207,20.2536867 21.2327974,20.7797536 C21.2287854,20.7887531 21.2249011,20.7978091 21.2211457,20.8069187 L19.4637818,25.069848 C16.415052,26.4923128 13.9376425,27.2035452 12.0315534,27.2035452 C10.4829012,27.2035452 8.34419941,26.5780944 5.61544804,25.3271928 L5.61545374,25.3271803 C4.56828164,24.8471405 3.33023177,25.3068921 2.85019196,26.3540642 C2.82950154,26.3991988 2.81042931,26.4450579 2.79301173,26.4915537 Z" id="shoe"></path>
                </g>
            </g>
            <g id="Body/Trench-Coat" transform="translate(156.500000, 199.713318) rotate(10.000000) translate(-156.500000, -199.713318) translate(22.953333, 102.203160)">
                <path d="M206.173124,94.1153146 L237.654616,120.804733 C246.485384,123.862803 253.793796,127.410328 259.579851,131.447309 C260.915433,132.846883 262.455388,135.5998 256.571267,134.73118 C250.687146,133.862559 244.458869,133.213532 243.501485,135.174285 C242.5441,137.135038 245.955361,139.798484 244.114915,142.405686 C242.88795,144.14382 238.009153,139.229219 229.478524,127.661882 L197.569051,111.736722 L206.173124,94.1153146 Z M56.7072446,73.4638943 L74.7971874,78.0625522 C50.5815452,118.773292 37.6318712,140.288454 35.9481654,142.60804 C32.1598272,147.827109 34.9113156,157.9002 35.846123,163.177813 C28.1748426,164.545256 31.7616574,153.29197 22.045982,155.171625 C13.1779641,156.887287 5.46312053,162.07869 -2.3052584,154.124844 C-3.26033494,153.146965 -3.84342212,150.216288 -0.344007547,148.912227 C8.37431034,145.663337 21.331407,139.403357 23.5143959,136.82375 C26.4912913,133.305996 37.5555742,112.186044 56.7072446,73.4638943 Z" id="Skin" fill="#D4A181" transform="translate(128.887550, 118.378653) rotate(-4.000000) translate(-128.887550, -118.378653) "></path>
                <path d="M212.041997,91.4388947 C216.322135,91.1316164 220.977876,91.840669 225.96947,93.5225255 C228.425683,94.3501164 229.745942,97.0121652 228.918351,99.468378 C228.437693,100.894926 227.338238,101.938296 226.019703,102.400243 C226.974814,103.097038 227.938387,103.789986 228.910523,104.479018 L220.518159,121.611657 C185.202658,104.00331 152.009465,90.7275746 136.884063,61.6576093 C131.807586,51.9009775 133.525829,18.7598762 133.041282,6.70328273 L144.195079,2.12901314 C159.743039,34.2677247 180.784924,65.1009176 212.041997,91.4388947 Z" id="Back-Arm" fill="#69A1AC"></path>
                <path d="M93.8605991,118.795966 C126.647489,122.397786 152.454369,122.397786 171.281237,118.795966 C173.613759,118.349724 173.511327,108.294692 172.429622,105.548568 C155.584668,62.7842666 144.503922,31.478793 144.503922,1.7756729 C141.413084,3.39017178 136.003828,3.63212462 128.276152,2.50153141 C107.508141,33.1115518 97.9618253,68.2330479 93.8605991,118.795966 Z" id="Shirt" fill="#191847"></path>
                <path d="M87.7686047,123.851994 C86.6551335,122.804333 86.0746685,121.23383 86.3599826,119.615734 L86.9032734,116.534579 C87.2714462,114.446567 88.9672349,112.926105 90.9694489,112.688237 C91.3194625,111.123614 91.6212422,109.569477 91.8704803,108.02672 C93.9758723,94.9945677 90.3786992,82.2161192 90.5476353,69.6676184 C73.7777663,83.9755631 58.7338752,108.681389 45.4159618,143.785095 L25.7190162,137.989136 C26.4705662,135.197044 27.2490397,132.439245 28.0544368,129.715738 C25.7810093,128.424203 23.124502,122.504744 25.0363804,121.514185 C27.0109281,120.491156 29.1027284,119.771114 31.3056195,119.347312 C49.3658661,64.9506232 78.8998655,25.168186 119.907618,-3.99680289e-13 L125.540937,-3.94351218e-13 L131.768209,-1.0658141e-14 C128.276152,46.1801869 176.509698,147.001238 159.761787,233.106043 C128.805794,240.019061 84.6121081,218.510359 41.593608,235.694393 C43.1943273,201.019067 75.2586187,160.283448 87.7686085,123.851985 Z" id="Coat-Front" fill="#89C5CC"></path>
                <polygon id="Shade-Lapel" fill-opacity="0.1" fill="#000000" points="124.214865 1.04289555 118.834405 17.5888976 129.669457 29.9926784 119.877301 39.740063 143.567348 80.302957 114.597103 39.8211017 124.214865 29.9926784 114.597103 19.0312358"></polygon>
                <path d="M136.619317,95.9463902 C134.315415,95.9463902 132.447734,94.0787093 132.447734,91.774808 C132.447734,89.4709068 134.315415,87.6032259 136.619317,87.6032259 C138.923218,87.6032259 140.790899,89.4709068 140.790899,91.774808 C140.790899,94.0787093 138.923218,95.9463902 136.619317,95.9463902 Z M141.833794,119.932988 C139.529893,119.932988 137.662212,118.065307 137.662212,115.761406 C137.662212,113.457504 139.529893,111.589823 141.833794,111.589823 C144.137695,111.589823 146.005376,113.457504 146.005376,115.761406 C146.005376,118.065307 144.137695,119.932988 141.833794,119.932988 Z M142.87669,143.919585 C140.572789,143.919585 138.705108,142.051904 138.705108,139.748003 C138.705108,137.444102 140.572789,135.576421 142.87669,135.576421 C145.180591,135.576421 147.048272,137.444102 147.048272,139.748003 C147.048272,142.051904 145.180591,143.919585 142.87669,143.919585 Z" id="Buttons" fill-opacity="0.4" fill="#000000"></path>
            </g>
        </g>
    </g>
</svg>