<?xml version="1.0" encoding="UTF-8"?>
<svg width="300px" height="239px" viewBox="0 0 300 239" version="1.1" xmlns="http://www.w3.org/2000/svg" xmlns:xlink="http://www.w3.org/1999/xlink">
    <!-- Generator: Sketch 52.4 (67378) - http://www.bohemiancoding.com/sketch -->
    <title>Bottom/Standing/Baggy Pants</title>
    <desc>Created with Sketch.</desc>
    <g id="Bottom/Standing/Baggy-Pants" stroke="none" stroke-width="1" fill="none" fill-rule="evenodd">
        <polygon id="Leg" fill="#997659" points="134 0 183.081639 124.226909 216.000898 229.25029 229 229.25029 178.673688 5.090379e-13"></polygon>
        <path d="M124.116628,0 C123.593979,43.6541888 115.971833,102.427468 114.754071,105.148648 C113.942229,106.962768 85.9161573,130.032465 30.6758546,174.357739 L39.6290713,183.938736 C104.807511,145.935376 138.9048,124.399339 141.920937,119.330628 C146.445143,111.72756 161.1744,41.763137 173,0 L124.116628,0 Z" id="Leg" fill="#B28B67"></path>
        <g id="Accessories/Shoe/Flat-Sneaker" transform="translate(51.500000, 189.000000) rotate(50.000000) translate(-51.500000, -189.000000) translate(21.000000, 169.000000)" fill="#E4E4E4">
            <path d="M2.67813181,25.4019242 C1.55937727,28.3884109 1,30.6229931 1,32.1056708 C1,33.908957 1.3004142,36.5404001 1.90124261,40 C3.99318117,40 22.7937852,40 58.3030548,40 C59.768738,35.1545073 58.9226607,32.5385816 55.7648228,32.1522232 C52.606985,31.7658647 49.9837155,31.4170139 47.8950143,31.1056708 L21.6799926,19.4188835 C21.1755635,19.1940064 20.584344,19.4206282 20.359467,19.9250573 C20.35562,19.9336867 20.3518954,19.9423702 20.3482945,19.9511052 L18.6632131,24.038695 C15.7398812,25.4026522 13.3643706,26.0846307 11.5366811,26.0846307 C10.0517269,26.0846307 8.00099246,25.4849054 5.38447792,24.2854549 L5.38448339,24.285443 C4.38038273,23.8251478 3.19325534,24.2659892 2.73296014,25.2700899 C2.71312074,25.3133681 2.69483298,25.3573409 2.67813181,25.4019242 Z" id="shoe"></path>
        </g>
        <g id="Accessories/Shoe/Flat-Sneaker" transform="translate(208.000000, 199.000000)" fill="#E4E4E4">
            <path d="M2.67813181,25.4019242 C1.55937727,28.3884109 1,30.6229931 1,32.1056708 C1,33.908957 1.3004142,36.5404001 1.90124261,40 C3.99318117,40 22.7937852,40 58.3030548,40 C59.768738,35.1545073 58.9226607,32.5385816 55.7648228,32.1522232 C52.606985,31.7658647 49.9837155,31.4170139 47.8950143,31.1056708 L21.6799926,19.4188835 C21.1755635,19.1940064 20.584344,19.4206282 20.359467,19.9250573 C20.35562,19.9336867 20.3518954,19.9423702 20.3482945,19.9511052 L18.6632131,24.038695 C15.7398812,25.4026522 13.3643706,26.0846307 11.5366811,26.0846307 C10.0517269,26.0846307 8.00099246,25.4849054 5.38447792,24.2854549 L5.38448339,24.285443 C4.38038273,23.8251478 3.19325534,24.2659892 2.73296014,25.2700899 C2.71312074,25.3133681 2.69483298,25.3573409 2.67813181,25.4019242 Z" id="shoe"></path>
        </g>
        <polygon id="Pant" fill="#69A1AC" points="167 218.432889 228.804464 211.725327 183 2.84217094e-14 127.644073 2.84217094e-14"></polygon>
        <path d="M43.4599581,158.900479 L84,206.885961 C126.699953,160.249961 151.594137,129.819963 158.682552,115.595966 C165.770967,101.37197 172.143091,62.839981 177.798925,0 L115.478146,0 C112.388642,55.2838742 110.306102,84.2121259 109.230525,86.7847551 C108.154948,89.3573843 86.2314253,113.395959 43.4599581,158.900479 Z" id="Pant" fill="#89C5CC"></path>
    </g>
</svg>