<?xml version="1.0" encoding="UTF-8"?>
<svg width="136px" height="104px" viewBox="0 0 136 104" version="1.1" xmlns="http://www.w3.org/2000/svg" xmlns:xlink="http://www.w3.org/1999/xlink">
    <!-- Generator: Sketch 52.4 (67378) - http://www.bohemiancoding.com/sketch -->
    <title>Head/Front/Hijab2</title>
    <desc>Created with Sketch.</desc>
    <defs>
        <path d="M88.9653685,36.4430297 C89.4999691,36.6226829 88.9653685,34.3225512 87.6868166,33.4813564 C83.7660645,30.9017847 72.0947424,27.0839303 64.1137724,28.7406841 C58.7672704,29.8505539 52.0993486,32.636415 47.8289387,36.1877103 C43.9792789,39.3892113 40.4764093,45.033302 39.1133474,49.9918439 C37.6821783,55.1984097 37.1411992,62.44301 39.1133474,66.9855218 C41.4620202,72.3952949 49.7800176,78.2256509 50,79 C50.2511077,79.883589 49.2679536,83.3356439 48.5484461,86.9730456 C47.8289387,90.6104473 48.1563977,99.8717948 48.5484461,101.382347 C49.1749258,103.796156 52.5346705,104.983027 54,105.157641 C62.1002972,106.122903 67.9721652,116.178825 70.4158679,118.751689 C81.2934649,129.672643 88.8850592,134.42208 93.1906506,133 C94.3238577,132.625717 92.6252813,119.055865 91.4920742,113.239686 C90.358867,107.423506 79.2449088,97.0442856 78.533108,93.623838 C78.1138713,91.608903 78.0438912,88.1013333 78,87.9414083 C76.9516979,80.7151058 77.1322659,80.127698 75.6032923,77.1830656 C74.0743186,74.2384331 72.8888959,74.0655993 73.2563494,73.2078664 C75.0518381,69.0167239 80.8264476,56.1931961 82.1365375,52 C83.6979324,47.0023771 82.9600484,48.6438901 84.5697434,43.6632067 C85.2825313,41.457669 86.189586,35.5102244 88.9653685,36.4430297 Z" id="path-1"></path>
    </defs>
    <g id="Head/Front/Hijab2" stroke="none" stroke-width="1" fill="none" fill-rule="evenodd">
        <g id="Head" transform="translate(54.000000, 31.000000)" fill="#B28B67">
            <path d="M8.26227388,34.4901268 C3.65436435,29.0813759 0.535634794,22.4528771 1.05677633,15.0254539 C2.55833022,-6.37502057 32.3485306,-1.66718886 38.1433414,9.13393292 C43.9381521,19.9350547 43.249578,47.3329958 35.7603014,49.2634576 C32.7735882,50.033323 26.4110012,48.1474609 19.935372,44.244306 L24,73 L0,73 L8.26227388,34.4901268 Z"></path>
        </g>
        <mask id="mask-2" fill="white">
            <use xlink:href="#path-1"></use>
        </mask>
        <use id="Hijab" fill="#89C5CC" xlink:href="#path-1"></use>
        <path d="M68.3160356,37 C66.5618427,42.565951 66.1845546,45.5370354 66.5618427,53.1421085 L65.7013199,53.1421085 C64.0937737,45.9652054 65.5245027,39.2089071 67.2344582,37 L68.3160356,37 Z M44.7820904,51.3643083 C48.0510625,59.2963757 49.5415304,63.9803784 58.6701438,70.3991504 L57.9652448,70.892726 C48.9031248,65.7568562 46.2641419,59.6306096 44.0945029,51.6947526 L44.7820904,51.3643083 Z M58.2134556,43.2923054 C59.6982144,54.5510679 60.1316878,60.9820818 67.8664459,73.2976376 L67.0435239,73.5492301 C59.0831253,62.8261446 57.8212801,54.0740972 57.4451908,43.3541394 L58.2134556,43.2923054 Z M49.6694535,76.7363176 L50.373523,75.8804331 C59.9808594,78.889665 58.9106953,85.1023672 71.0112076,91.394114 L70,92.0068145 C59.4044272,87.6340646 56.9275677,78.2553327 49.6694535,76.7363176 Z" id="Shade" fill-opacity="0.2" fill="#000000" mask="url(#mask-2)"></path>
    </g>
</svg>