<?xml version="1.0" encoding="UTF-8"?>
<svg width="136px" height="104px" viewBox="0 0 136 104" version="1.1" xmlns="http://www.w3.org/2000/svg" xmlns:xlink="http://www.w3.org/1999/xlink">
    <!-- Generator: Sketch 52.4 (67378) - http://www.bohemiancoding.com/sketch -->
    <title>Head/Front/Hijab 1</title>
    <desc>Created with Sketch.</desc>
    <g id="Head/Front/Hijab-1" stroke="none" stroke-width="1" fill="none" fill-rule="evenodd">
        <g id="Head" transform="translate(54.000000, 31.000000)" fill="#B28B67">
            <path d="M8.26227388,34.4901268 C3.65436435,29.0813759 0.535634794,22.4528771 1.05677633,15.0254539 C2.55833022,-6.37502057 32.3485306,-1.66718886 38.1433414,9.13393292 C43.9381521,19.9350547 43.249578,47.3329958 35.7603014,49.2634576 C32.7735882,50.033323 26.4110012,48.1474609 19.935372,44.244306 L24,73 L0,73 L8.26227388,34.4901268 Z"></path>
        </g>
        <g id="Hijab" transform="translate(36.000000, 28.000000)">
            <path d="M50.7350002,5.01147183 C50.1852708,4.68336774 49.0351409,3.99129844 48.4524743,3.74047035 C48.3145899,3.68011316 47.3491609,2.99135428 47.3231986,3.00008224 C46.5922497,3.24668063 44.475629,4.157139 44.2939574,4.94386372 C44.2657992,5.00348239 44.2381578,5.05940846 44.2112267,5.10828502 C43.9113039,5.65351385 43.6361163,6.21230459 43.373587,6.77787628 C42.7975078,8.01939475 42.3002198,9.31697358 41.8252774,10.6043474 C40.9001924,13.1115541 40.0965233,15.677171 39.3576307,18.2486288 C38.6053695,20.8663449 37.9669033,23.5146088 37.2521648,26.1431341 C36.2236827,29.9254283 34.9073547,33.6149377 33.8859767,37.3956877 C33.2337544,39.8097738 32.8709924,42.2521922 33.0422662,44.7368405 C33.0439454,44.7667169 33.0449141,44.7961906 33.0476266,44.826537 C33.0486599,44.8389576 33.0502099,44.8512438 33.0513078,44.8636644 C33.0804347,45.2456133 33.1219615,45.6285021 33.177309,46.0125322 C33.2257461,46.3409049 33.2743124,46.670486 33.3261079,47 C34.2590719,45.1396022 34.9713564,43.0896733 35.7272342,41.1440101 C35.8011816,40.9535392 35.8717061,40.7616583 35.940616,40.5691733 C36.1843517,40.1746025 36.4328666,39.7828514 36.6841585,39.3925774 C38.2688928,36.9315618 39.8598917,34.4796098 41.3795265,31.9740815 C44.1128024,27.4677025 46.8205682,22.8660544 50.061078,18.727928 C51.0179377,17.5059467 51.9970785,16.302697 52.9419258,15.0707121 C53.4795781,14.3696557 54.0032806,13.6568501 54.5099977,12.9313553 C54.872243,12.4125789 56.4471311,10.6043474 55.8768295,9.51791803 C55.585039,8.96205474 52.1610544,5.8627163 50.7350002,5.01147183 Z" id="Front" fill="#2C2C2C"></path>
            <path d="M48.6260171,3.83116599 C49.1606177,4.01081921 48.9005286,2.8983607 48.3827244,2.5068843 C45.9838484,0.693257683 36.8126531,0.035129961 28.8316831,1.69188377 C23.4851811,2.80175357 17.2670643,5.56416284 12.9966544,9.11545816 C9.14699464,12.3169592 6.49948445,17.4491331 5.13642247,22.407675 C3.70525344,27.6142408 3.48849539,33.0422873 4.28584125,38.381368 C4.46101123,39.5541291 4.83740954,40.6717368 5.04712657,41.8196221 C5.28329677,43.1122936 5.40444175,44.3568809 5.8254551,45.6145396 C6.08327479,46.3844871 6.52139715,47.1392958 6.74137959,47.9136449 C6.99248728,48.7972339 6.8394274,49.6146653 6.65629515,50.5133931 C6.35787446,51.9781941 5.98785913,53.4399939 5.46202016,54.8389709 C4.67237336,56.9397371 3.71413697,58.9072548 3.11334736,61.0872499 C2.31396158,63.9879079 -1.02991389,73.427136 1.41378875,76 L47.9323913,76 C46.761016,72.8047679 43.2449088,69.0442856 42.533108,65.623838 C42.1138713,63.608903 41.9144197,59.2085647 41.8705285,59.0486397 C40.8222264,51.8223372 38.7753261,48.3714635 37.4933414,47.1190983 C36.2113566,45.8667332 34.5038477,45.4816245 34.4158679,44.3952949 C34.0522355,39.9023228 35.8388772,35.5973526 37.1489671,31.4041565 C38.710362,26.4065336 39.854626,21.2849322 41.464321,16.3042488 C42.1771089,14.098711 45.8502346,2.8983607 48.6260171,3.83116599 Z" id="Turban" fill="#8991DC"></path>
            <path d="M32.3160356,9 C30.5618427,14.565951 30.1845546,17.5370354 30.5618427,25.1421085 L29.7013199,25.1421085 C28.0937737,17.9652054 29.5245027,11.2089071 31.2344582,9 L32.3160356,9 Z M8.78209035,23.3643083 C12.0510625,31.2963757 13.5415304,35.9803784 22.6701438,42.3991504 L21.9652448,42.892726 C12.9031248,37.7568562 10.2641419,31.6306096 8.09450288,23.6947526 L8.78209035,23.3643083 Z M22.2134556,15.2923054 C23.6982144,26.5510679 24.1316878,32.9820818 31.8664459,45.2976376 L31.0435239,45.5492301 C23.0831253,34.8261446 21.8212801,26.0740972 21.4451908,15.3541394 L22.2134556,15.2923054 Z M13.6694535,48.7363176 L14.373523,47.8804331 C23.9808594,50.889665 22.9106953,57.1023672 35.0112076,63.394114 L34,64.0068145 C23.4044272,59.6340646 20.9275677,50.2553327 13.6694535,48.7363176 Z" id="Shade" fill-opacity="0.2" fill="#000000"></path>
        </g>
    </g>
</svg>