<?xml version="1.0" encoding="UTF-8"?>
<svg width="256px" height="187px" viewBox="0 0 256 187" version="1.1" xmlns="http://www.w3.org/2000/svg" xmlns:xlink="http://www.w3.org/1999/xlink">
    <!-- Generator: Sketch 52.4 (67378) - http://www.bohemiancoding.com/sketch -->
    <title>Body/Jacket</title>
    <desc>Created with Sketch.</desc>
    <g id="Body/Jacket" stroke="none" stroke-width="1" fill="none" fill-rule="evenodd">
        <path d="M194.04441,89.1225115 L222.372314,116.757535 C230.61469,120.273345 237.368143,124.155511 242.632673,128.40403 C243.816587,129.832102 245.10547,132.568362 239.535214,131.343925 C233.964957,130.119488 228.050816,129.082079 227.003896,130.893567 C225.956977,132.705055 229.041811,135.480899 227.106974,137.851671 C225.817082,139.432186 221.479076,134.404878 214.092956,122.769747 L184.635682,105.402467 L194.04441,89.1225115 Z M68.3079281,93.0198914 L89.2053198,93.1020711 C76.3021447,134.755739 69.3363474,156.856914 68.3079281,159.405597 C65.9939846,165.140133 70.8906002,173.873732 72.9845874,178.567103 C66.1645409,181.61887 66.8912241,170.316929 58.2879189,174.319492 C50.4352209,177.972846 44.4616931,184.59248 35.3890352,178.994371 C34.2736052,178.306117 33.0512757,175.714714 36.0045784,173.68967 C43.3623323,168.644547 53.9653015,159.814672 55.3979297,156.908251 C57.3515741,152.944826 61.6549068,131.648706 68.3079281,93.0198914 Z" id="Skin" fill="#B28B67"></path>
        <path d="M122.01899,9.23199981 L130.503942,7.00082913 C148.576175,42.7520052 177.414525,74.1501034 217.01899,101.195124 L192.061793,137.56505 C151.33882,97.6857553 124.670571,55.1985909 122.01899,9.23199981 Z" id="Coat-Back" fill="#191847" transform="translate(169.518990, 72.282940) rotate(5.000000) translate(-169.518990, -72.282940) "></path>
        <path d="M90,114 L167,114 C149.16087,70.6251468 140.241304,33.7787236 140.241304,3.4607303 L117.014208,0 C98.7598929,29.3584068 93.6048263,65.5045499 90,114 Z" id="Shirt" fill="#DDE3E9"></path>
        <path d="M116.522435,0.0164198669 C116.525484,0.0109456263 116.528534,0.00547233727 116.531583,-1.73374996e-14 L118.047752,-4.26343884e-14 C119.86198,0.0624731357 122.625282,0.175030894 126.337658,0.337673275 L131.950158,16.3768801 C132.543836,35.9324229 136.010826,75.3421183 142.351127,134.605966 L91.8760816,134.605966 C92.0084015,138.699076 92.2265759,142.83042 92.5306047,147 L55,147 C60.6139164,83.6639633 81.1152373,34.6639633 116.503963,1.42108547e-14 L116.522435,0.0164198605 Z" id="Coat-Front" fill="#2F3676"></path>
        <path d="M95.2102301,82.2331012 C96.6467433,107.747892 100.243333,125.336858 106,135 L91.889081,135 C91.27131,116.642855 92.3783599,99.0539088 95.2102289,82.2331082 Z" id="Shade" fill-opacity="0.1" fill="#000000"></path>
        <polygon id="Light" fill-opacity="0.2" fill="#FFFFFF" points="103.110899 104 128 92.4292718 128 104"></polygon>
    </g>
</svg>