<?xml version="1.0" encoding="UTF-8"?>
<svg width="300px" height="239px" viewBox="0 0 300 239" version="1.1" xmlns="http://www.w3.org/2000/svg" xmlns:xlink="http://www.w3.org/1999/xlink">
    <!-- Generator: Sketch 52.4 (67378) - http://www.bohemiancoding.com/sketch -->
    <title>Bottom/Standing/Jogging</title>
    <desc>Created with Sketch.</desc>
    <g id="Bottom/Standing/Jogging" stroke="none" stroke-width="1" fill="none" fill-rule="evenodd">
        <polygon id="Leg" fill="#997659" points="130 0 204.306413 124.226909 260.014844 229.25029 272.013946 229.25029 178.673688 5.090379e-13"></polygon>
        <g id="Accessories/Shoe/Flat-Sneaker" transform="translate(250.000000, 199.000000)" fill="#E4E4E4">
            <path d="M2.67813181,25.4019242 C1.55937727,28.3884109 1,30.6229931 1,32.1056708 C1,33.908957 1.3004142,36.5404001 1.90124261,40 C3.99318117,40 22.7937852,40 58.3030548,40 C59.768738,35.1545073 58.9226607,32.5385816 55.7648228,32.1522232 C52.606985,31.7658647 49.9837155,31.4170139 47.8950143,31.1056708 L21.6799926,19.4188835 C21.1755635,19.1940064 20.584344,19.4206282 20.359467,19.9250573 C20.35562,19.9336867 20.3518954,19.9423702 20.3482945,19.9511052 L18.6632131,24.038695 C15.7398812,25.4026522 13.3643706,26.0846307 11.5366811,26.0846307 C10.0517269,26.0846307 8.00099246,25.4849054 5.38447792,24.2854549 L5.38448339,24.285443 C4.38038273,23.8251478 3.19325534,24.2659892 2.73296014,25.2700899 C2.71312074,25.3133681 2.69483298,25.3573409 2.67813181,25.4019242 Z" id="shoe"></path>
        </g>
        <path d="M244.543057,212.432889 L267.683113,205.432889 C257.544824,175.124875 245.118911,141.772016 230.405374,105.374313 C215.691837,68.97661 199.890046,33.851839 183,2.84217094e-14 L117.644073,2.84217094e-14 C136.422172,42.821022 156.329475,81.7294172 177.365982,116.725186 C198.402489,151.720954 220.794847,183.623522 244.543057,212.432889 Z" id="Pant" fill="#DB2721"></path>
        <path d="M125.116628,2.84217094e-14 C118.103498,43.6541888 104.577091,99.4274685 103.300563,101.148648 C102.449544,102.296102 71.8126514,112.562199 11.3898843,131.94694 L13.9818352,142.527938 C86.0358431,132.131776 124.00216,124.066006 127.880787,118.330628 C133.698727,109.72756 162.748486,41.763137 174,2.84217094e-14 L125.116628,2.84217094e-14 Z" id="Leg" fill="#B28B67"></path>
        <path d="M32.6295078,122.800477 L37.1949469,139.841939 C91.0871466,144.568621 124.108088,141.153296 136.25777,129.595966 C148.407453,118.038636 162.254504,74.839981 177.798925,-1.13686838e-13 L115.478146,-1.13686838e-13 C105.629567,61.2838742 100.12357,93.2121259 98.9601559,95.7847551 C97.7967416,98.3573843 75.6865256,107.362625 32.6295078,122.800477 Z" id="Pant" fill="#FF4133"></path>
        <g id="Accessories/Shoe/Flat-Sneaker" transform="translate(24.500000, 154.000000) rotate(80.000000) translate(-24.500000, -154.000000) translate(-6.000000, 134.000000)" fill="#E4E4E4">
            <path d="M2.67813181,25.4019242 C1.55937727,28.3884109 1,30.6229931 1,32.1056708 C1,33.908957 1.3004142,36.5404001 1.90124261,40 C3.99318117,40 22.7937852,40 58.3030548,40 C59.768738,35.1545073 58.9226607,32.5385816 55.7648228,32.1522232 C52.606985,31.7658647 49.9837155,31.4170139 47.8950143,31.1056708 L21.6799926,19.4188835 C21.1755635,19.1940064 20.584344,19.4206282 20.359467,19.9250573 C20.35562,19.9336867 20.3518954,19.9423702 20.3482945,19.9511052 L18.6632131,24.038695 C15.7398812,25.4026522 13.3643706,26.0846307 11.5366811,26.0846307 C10.0517269,26.0846307 8.00099246,25.4849054 5.38447792,24.2854549 L5.38448339,24.285443 C4.38038273,23.8251478 3.19325534,24.2659892 2.73296014,25.2700899 C2.71312074,25.3133681 2.69483298,25.3573409 2.67813181,25.4019242 Z" id="shoe"></path>
        </g>
    </g>
</svg>