<?xml version="1.0" encoding="UTF-8"?>
<svg width="740px" height="680px" viewBox="0 0 740 680" version="1.1" xmlns="http://www.w3.org/2000/svg" xmlns:xlink="http://www.w3.org/1999/xlink">
    <!-- Generator: Sketch 52.4 (67378) - http://www.bohemiancoding.com/sketch -->
    <title>Scene/Plants</title>
    <desc>Created with Sketch.</desc>
    <g id="Scene/Plants" stroke="none" stroke-width="1" fill="none" fill-rule="evenodd">
        <g id="Background-Shape-2" opacity="0.504510789" transform="translate(55.000000, 337.000000)" fill="#F2F2F2">
            <path d="M630.159963,153.795486 C639.349631,222.535529 416.484537,267.372306 224.659384,236.0818 C32.8342312,204.791294 -55.1660535,82.5983388 36.3697112,17.4891288 C127.905476,-47.6200812 620.970294,85.0554431 630.159963,153.795486 Z" id="Background-Shape"></path>
        </g>
        <path d="M582.663291,177.553408 C587.699839,175.376482 594.096049,178.542571 591.028861,184.834517 C587.743478,191.572193 576.927275,191.090703 570.828432,190.634117 C571.441247,190.634117 573.740391,184.418162 574.464173,183.498604 C576.598736,180.785909 579.566802,178.894429 582.663291,177.553408 Z M519.628132,298.136439 C518.334132,299.130439 519.522132,298.230439 519.628132,298.136439 Z M585.75877,208.969059 C588.516388,211.315587 588.45021,215.199928 585.966044,217.701304 C583.008019,220.679131 577.9117,220.297969 574.11896,219.793933 C572.40333,219.565737 563.242692,218.347022 565.502104,216.955906 C565.33104,217.010448 564.972681,217.14586 564.586852,217.335188 C564.346489,218.061777 564.096137,218.785233 563.837044,219.504927 C563.889487,219.539407 563.933814,219.575768 563.990002,219.610248 C563.928819,219.579529 563.886365,219.547557 563.832674,219.516838 C561.237378,226.710016 557.723709,233.504479 553.259201,239.799293 C554.833735,239.272688 556.455716,238.896541 558.087063,238.776801 C562.918046,238.421343 572.818502,242.67995 567.115345,248.788572 C561.646932,254.644548 553.977793,247.652609 548.183485,246.440163 C542.102614,254.05149 535.457983,261.302971 528.52679,268.285507 C528.92136,268.432204 529.259741,268.712434 529.440169,269.130583 C532.136604,267.935691 534.973512,266.172817 537.431457,265.784132 C540.978215,265.2243 548.194723,265.150325 550.681387,268.42907 C553.739927,272.460735 550.080167,275.413486 546.188785,275.952003 C540.546186,276.733134 533.376503,273.620521 528.097883,271.494665 C527.477309,271.571148 526.815531,271.356118 526.440315,270.843304 C526.323567,270.798167 526.206819,270.753656 526.093193,270.710399 C519.080838,277.652813 511.827496,284.341327 504.624099,290.877503 C504.697144,290.877503 504.77019,290.876876 504.846357,290.876876 C506.692469,289.799843 508.657202,288.93972 510.758661,288.545393 C515.620236,287.626969 521.268453,287.917228 524.981905,291.594689 C528.680997,295.256477 529.738594,301.37701 525.520692,305.050082 C517.078022,312.402496 506.168041,294.057823 502.153667,293.105545 C494.837269,299.674319 487.145654,305.766642 479.345408,311.722297 C480.206969,311.50852 481.086635,311.364331 481.990025,311.326089 C489.349502,311.008872 506.066901,320.887111 496.617203,329.248851 C488.382431,336.535439 480.094592,321.245704 474.054926,315.733901 C466.707936,321.280811 459.324735,326.78509 452.128206,332.52885 C455.930935,331.729538 459.563225,331.772795 463.520161,333.198391 C467.614448,334.675393 474.162933,338.168542 471.238622,343.647745 C468.264364,349.219731 460.339254,346.19802 456.235603,344.16432 C453.997418,343.055314 449.580983,339.476279 445.623423,337.858848 C434.107228,347.643677 424.004492,358.556318 416.104355,371.621146 C411.172232,379.778513 407.293336,388.566553 404.410853,397.656764 C402.570984,403.458826 399.035464,413.180337 399.238368,420.868148 C397.161881,405.39222 403.333278,387.259443 409.660131,373.855457 C415.477538,361.529758 423.775367,350.876657 433.337442,341.397134 C431.426401,334.454721 412.846657,323.612293 424.594474,317.871041 C430.832049,314.836791 436.749347,320.724114 437.765739,326.684158 C438.463728,330.779768 436.810531,335.793176 435.132985,339.644918 C438.135961,336.759873 441.24632,333.978268 444.441586,331.29885 C448.857397,327.595686 453.368104,324.011636 457.917519,320.477738 C451.098703,313.364177 445.320628,293.746875 455.101839,291.100683 C469.544843,287.206311 461.330673,313.121563 460.082035,317.993916 C459.799842,317.995797 459.585076,317.899252 459.433367,317.708671 C459.489556,318.163809 459.556982,318.650919 459.643762,319.143044 C468.349272,312.416915 477.170904,305.838109 485.730322,298.932684 C485.022344,298.349656 483.960377,296.208128 483.098192,295.052731 C481.152189,292.447915 479.301706,289.736524 478.002497,286.740516 C475.95036,282.006084 474.123601,274.530169 480.346817,272.134741 C487.115063,269.524283 489.821487,278.013287 489.607346,282.981557 C489.458758,286.417657 488.352464,289.631203 487.688812,292.972013 C487.481538,294.013939 487.819919,298.77721 486.496362,296.6664 C486.524457,297.420574 486.505727,297.964733 486.452036,298.348402 C487.98911,297.102103 489.515571,295.840758 491.033291,294.569382 C490.975229,294.395728 490.935273,294.207655 490.935273,293.991997 C490.935273,292.507472 492.454866,292.015346 493.476877,292.50371 C495.481566,290.789108 497.468775,289.050684 499.424143,287.274018 C503.568375,283.510043 507.775663,279.635733 511.959852,275.673028 C511.138247,274.888762 511.534066,273.883196 510.770523,273.056301 C510.008229,272.231286 508.448679,271.715338 507.542168,270.938595 C505.262153,268.983886 503.431649,266.214193 502.144303,263.51534 C500.01912,259.056122 497.455664,249.801033 504.436179,248.094581 C511.63146,246.332334 514.76804,255.276475 514.936606,260.774485 C514.969695,261.839607 513.674857,271.35361 512.885093,274.791591 C520.62915,267.425385 528.267697,259.762024 535.235101,251.923127 C533.253512,251.80088 527.845658,247.444474 526.767458,246.276539 C524.136576,243.427855 520.04229,237.223316 525.068685,234.316956 C529.537563,231.739724 534.651987,236.07983 536.293323,240.123406 C536.563029,240.789186 537.317206,246.894046 537.25852,249.612333 C540.146622,246.284689 542.911108,242.930087 545.496414,239.554798 C547.22016,237.311083 548.842142,235.000289 550.370476,232.633699 C550.043332,232.424938 549.743659,232.075121 549.465837,231.64506 C542.32175,230.04393 533.721127,218.315676 542.392923,214.84635 C546.521547,213.196947 550.692,217.266854 552.501902,220.514881 C552.872748,221.179406 553.358468,224.448121 553.758032,227.027233 C558.210678,219.15511 561.738082,210.75889 564.541276,202.107517 C563.921951,201.918816 563.415628,201.411645 563.388783,200.583496 C559.993734,198.40498 557.317277,196.598849 555.075346,192.634263 C553.68249,190.171756 551.234534,184.584097 555.763346,183.495153 C561.656921,182.078334 564.837828,191.133438 565.08381,195.524323 C565.112529,196.034002 565.03324,197.50787 564.943338,198.85761 C565.146242,198.840683 565.34977,198.854475 565.547679,198.900239 C567.165291,193.537015 568.517566,188.089784 569.652579,182.621866 C566.538474,181.436377 566.862496,164.772453 569.095686,162.514319 C574.087744,157.457654 577.012055,165.293416 576.548186,169.329469 C576.000658,174.088352 573.609515,178.318121 570.831294,182.037584 C570.533493,182.431285 570.613406,182.415612 570.571577,181.843242 C570.517261,182.122217 570.412376,182.32471 570.265036,182.467646 C570.266285,184.987828 570.390524,187.574463 570.149537,189.791848 C569.45904,196.141831 568.381465,202.50874 566.974873,208.738982 C566.632746,210.254227 566.25316,211.755052 565.837988,213.240831 C568.497588,211.205251 572.031236,209.458049 573.405987,208.925802 C576.973972,207.545971 582.434893,206.140436 585.75877,208.969059 Z M398.828432,420.868148 C398.873761,423.097495 399.167933,425.151967 399.828432,426.868148 C399.367285,424.929454 399.040736,422.92262 398.828432,420.868148 Z" id="Leaf-Bottom" fill="#F2F2F2" transform="translate(495.328432, 293.868148) scale(-1, 1) rotate(-3.000000) translate(-495.328432, -293.868148) "></path>
        <path d="M236.702387,42.658046 C240.299921,41.1030993 244.868643,43.3645911 242.677794,47.8588384 C240.331092,52.6714644 232.605232,52.3275425 228.248916,52.0014097 C228.686641,52.0014097 230.328887,47.5614418 230.845874,46.9046148 C232.370562,44.9669752 234.490609,43.6159186 236.702387,42.658046 Z M191.628711,130.226253 C190.334711,131.220253 191.522711,130.320253 191.628711,130.226253 Z M239.580064,65.7242363 C241.593564,67.4209568 241.545243,70.2296343 239.731407,72.038321 C237.571579,74.1915196 233.850458,73.9159102 231.081155,73.551453 C229.828473,73.38645 223.139754,72.5052251 224.789483,71.4993415 C224.664579,71.538779 224.40292,71.6366929 224.121204,71.773591 C223.9457,72.2989714 223.762904,72.8220853 223.573725,73.3424794 C223.612017,73.3674112 223.644382,73.3937029 223.685409,73.4186346 C223.640735,73.3964227 223.609737,73.3733041 223.570534,73.3510922 C221.675556,78.5523133 219.11002,83.4652324 215.850221,88.0168674 C216.99988,87.6360912 218.184184,87.3641083 219.375326,87.277527 C222.902711,87.0205031 230.131615,90.0998037 225.967405,94.5168072 C221.974595,98.7511287 216.374907,93.6954186 212.144142,92.8187268 C207.704141,98.3223023 202.852506,103.565681 197.791635,108.614591 C198.079733,108.720665 198.326805,108.923292 198.458547,109.225646 C200.427372,108.361647 202.498765,107.086954 204.293455,106.805904 C206.883152,106.401103 212.152347,106.347613 213.968007,108.718398 C216.201227,111.633602 213.529021,113.768669 210.687694,114.158058 C206.567702,114.722876 201.332695,112.472216 197.478464,110.935059 C197.025347,110.990363 196.542144,110.834879 196.268177,110.464075 C196.182932,110.431438 196.097688,110.399253 196.014723,110.367975 C190.894591,115.387874 185.598499,120.224184 180.338876,124.950342 C180.392211,124.950342 180.445546,124.949889 180.50116,124.949889 C181.849115,124.171111 183.283682,123.549176 184.81808,123.264047 C188.367802,122.599956 192.491897,122.809836 195.203306,125.468923 C197.90423,128.116677 198.676444,132.542293 195.596706,135.198207 C189.432217,140.514568 181.466199,127.249958 178.535069,126.561388 C173.192937,131.311117 167.576837,135.716335 161.88142,140.022732 C162.510496,139.868155 163.152792,139.763895 163.81241,139.736243 C169.185996,139.506871 181.392351,146.649597 174.492572,152.695778 C168.479881,157.964542 162.428442,146.908887 158.018528,142.92343 C152.654059,146.934272 147.26315,150.91429 142.008542,155.06747 C144.785138,154.489506 147.437286,154.520784 150.326477,155.5516 C153.315956,156.619586 158.09739,159.145401 155.962178,163.107287 C153.790498,167.136261 148.00391,164.951331 145.007594,163.48081 C143.373363,162.678913 140.148665,160.090995 137.259017,158.921469 C128.850367,165.996652 121.473766,173.887332 115.705412,183.334207 C112.10418,189.232611 109.27197,195.58704 107.1673,202.159962 C105.823904,206.355299 103.242412,213.384699 103.390564,218.943578 C101.8744,207.753292 106.380499,194.641899 111.000106,184.949786 C115.247737,176.037357 121.306469,168.334346 128.288301,161.479922 C126.892938,156.460023 113.326775,148.620113 121.904547,144.468747 C126.458966,142.274751 130.779534,146.531738 131.521661,150.841308 C132.031304,153.802749 130.824207,157.427829 129.599332,160.212934 C131.791982,158.126825 134.063037,156.115511 136.396089,154.178086 C139.620332,151.500413 142.913864,148.908869 146.235659,146.353589 C141.256841,141.209937 137.037929,127.025119 144.179766,125.111718 C154.725451,122.295788 148.727804,141.034508 147.816099,144.557594 C147.610054,144.558954 147.453241,144.489145 147.342469,144.351341 C147.383495,144.68044 147.432727,145.032658 147.496091,145.388502 C153.852494,140.524994 160.293686,135.768011 166.54342,130.774857 C166.026484,130.353284 165.251079,128.804794 164.621547,127.969353 C163.200656,126.085871 161.84951,124.125327 160.900882,121.958983 C159.402495,118.535624 158.068672,113.129962 162.612607,111.397884 C167.554501,109.510322 169.53062,115.648524 169.374263,119.240966 C169.26577,121.72553 168.458,124.049172 167.973429,126.464834 C167.822086,127.218227 168.069158,130.662438 167.102751,129.13616 C167.123264,129.681486 167.109589,130.074954 167.070386,130.352377 C168.192694,129.451207 169.307252,128.539157 170.415429,127.619855 C170.373035,127.494289 170.34386,127.358298 170.34386,127.202361 C170.34386,126.128935 171.453405,125.77309 172.199635,126.126215 C173.663376,124.886426 175.114354,123.629411 176.542083,122.344745 C179.56803,119.623102 182.640018,116.821677 185.69514,113.956337 C185.095239,113.389252 185.384249,112.662151 184.826742,112.064242 C184.270146,111.467693 183.131427,111.094623 182.46953,110.532978 C180.804757,109.119573 179.468199,107.116872 178.528231,105.165394 C176.97651,101.941036 175.104781,95.2488947 180.201665,94.0149986 C185.455362,92.7407583 187.745563,99.2080601 187.868643,103.183545 C187.892804,103.95371 186.947366,110.833066 186.370713,113.31899 C192.025104,107.992657 197.602456,102.451457 202.689767,96.7833319 C201.242892,96.6949375 197.2943,93.5449213 196.507043,92.7004142 C194.586082,90.6405965 191.596603,86.1542373 195.266669,84.0527156 C198.52966,82.1891789 202.264001,85.3274091 203.462436,88.2512261 C203.659365,88.7326359 204.210034,93.1469196 204.167184,95.1124499 C206.275956,92.7063072 208.29447,90.2806724 210.182154,87.8400785 C211.440762,86.2177 212.625066,84.546818 213.740993,82.8355918 C213.502126,82.6846412 213.283317,82.4316971 213.080463,82.1207299 C207.864146,80.962989 201.584325,72.4825599 207.916113,69.9739703 C210.930664,68.7813249 213.975756,71.7241807 215.297272,74.0727537 C215.568048,74.5532569 215.922701,76.916789 216.214447,78.7816856 C219.465585,73.0895352 222.04115,67.018422 224.087926,60.7628136 C223.635721,60.6263688 223.266025,60.2596451 223.246423,59.6608292 C220.767499,58.0855945 218.81326,56.779623 217.176295,53.9129224 C216.159289,52.1323406 214.371892,48.0920335 217.678644,47.3046428 C221.981889,46.2801736 224.304456,52.8277104 224.484062,56.0026583 C224.505031,56.3711952 224.447138,57.4369151 224.381495,58.4128807 C224.529647,58.4006415 224.678255,58.4106142 224.82276,58.4437054 C226.003873,54.5656815 226.991249,50.6269148 227.819989,46.673189 C225.546198,45.8159893 225.782785,33.7666903 227.413368,32.1338858 C231.058363,28.4775281 233.193575,34.1433867 232.854876,37.061764 C232.455094,40.5028019 230.70918,43.5612505 228.680638,46.2507088 C228.463196,46.5353843 228.521545,46.5240516 228.491003,46.1101842 C228.451344,46.3119049 228.374761,46.4583224 228.26718,46.561676 C228.268091,48.3839619 228.358806,50.2542981 228.182847,51.8576377 C227.678674,56.4491636 226.891873,61.0529288 225.864838,65.5578734 C225.615031,66.6535115 225.337873,67.7387235 225.034731,68.8130563 C226.976662,67.3411751 229.556786,66.0778142 230.560572,65.6929583 C233.165768,64.6952341 237.153107,63.6789244 239.580064,65.7242363 Z M102.997012,218.484568 C103.04234,219.9708 103.336512,221.340448 103.997012,222.484568 C103.535864,221.192106 103.209315,219.854217 102.997012,218.484568 Z" id="Leaf-Top" fill="#C1DEE2" opacity="0.2" transform="translate(173.122964, 126.714073) rotate(-3.000000) translate(-173.122964, -126.714073) "></path>
        <g id="Plant-Right" opacity="0.7" transform="translate(482.000000, 208.000000)">
            <path d="M79.9047528,113.040378 C66.2530447,113.763024 50.2943362,123.453253 50.3969417,138.364313 C50.4717916,149.198479 51.9215094,159.856965 51.4184788,170.735674 C51.0157194,179.430065 49.1251777,187.934396 46.1884145,196.124248 C43.3645394,203.999655 36.5431303,211.167853 35.436189,219.380461 C34.7305556,224.613392 36.1801359,231.717944 38.4174204,236.528898 C41.1381257,242.378219 39.9806746,242.014971 36.3655703,247.542924 C29.2817053,258.37603 23.0341453,269.378157 19.1082064,281.839931 C13.4530146,299.789359 10.6714461,320.367962 15.4148106,338.86673 C16.0178728,341.21586 17.3353725,349.734582 20.6839214,349.987756 C24.4238591,350.27121 22.1932685,345.554422 21.8310908,343.993101 C19.5216852,334.030746 17.4849615,325.324509 17.9135797,314.914948 C19.5678962,274.751412 45.2035015,245.709474 60.1509621,210.198324 C60.9846805,208.360426 62.6955789,204.012856 63.9005736,201.136619 C65.8029769,196.595678 67.3104972,188.177093 70.1621387,184.658557 C75.5325909,178.03009 71.2830113,190.667575 70.3556501,193.092328 C69.1832784,196.159421 67.8821244,199.424932 66.6353083,202.135537 C60.9464558,214.690583 54.5660296,228.413437 48.6881887,241.356913 C80.3924105,245.15732 98.2859955,205.641673 104.022858,180.295993 C108.749645,159.413931 111.985935,111.412785 79.9047528,113.040378" id="Leaf-Me-Alone!" fill="#69A1AC" transform="translate(60.000000, 231.500000) scale(-1, 1) rotate(6.000000) translate(-60.000000, -231.500000) "></path>
            <path d="M210.80537,78.1211996 C187.982635,79.932006 173.33094,94.991753 166.510526,116.055531 C162.834567,127.406956 162.413232,139.068178 160.370472,150.73361 C157.297501,168.284374 150.685653,181.584667 137.763871,194.088576 C133.761608,197.961058 130.812263,201.937087 128.715679,206.190925 C124.553629,210.438027 120.930652,215.244115 118.268925,221.120186 C114.86881,228.624383 113.90672,237.627904 117.832452,245.109372 C118.887892,247.120537 121.521026,251.158021 124.250033,252.992399 C114.032868,274.752382 108.415067,298.584143 109.048331,322.385598 C109.430981,336.75335 110.132365,351.126994 110.950647,365.477066 C111.170985,369.330186 112.42574,375.692843 114.310394,369.230849 C116.035261,363.320262 113.872239,354.041458 113.672084,347.866532 C112.69822,317.785763 111.865642,290.435094 124.248351,262.330974 C125.546836,259.385362 126.923534,256.463322 128.357419,253.564853 C128.441517,253.516026 128.519729,253.457097 128.598782,253.399851 C128.653446,253.441944 128.703065,253.487403 128.757729,253.528654 C128.849397,253.365336 128.974704,253.17087 129.121036,252.953674 C129.532279,252.529385 129.891381,251.99313 130.232822,251.394579 C131.331152,249.872525 132.574133,248.084448 132.580861,247.105384 C132.580861,247.097807 132.576656,247.086022 132.576656,247.078445 C140.242263,234.565276 149.022178,222.741577 157.990476,211.149386 C157.923197,211.23357 167.718185,197.897078 166.203566,205.272473 C165.473588,208.826738 158.268843,215.595164 155.359024,219.35989 C148.922101,227.735396 141.3633,238.347681 135.081959,248.609759 C134.236766,249.095503 133.042563,251.480447 132.178869,253.256738 C131.702028,254.156669 131.257146,255.064177 130.819832,255.854668 C153.076582,263.208176 170.390004,248.395931 182.195796,231.167594 C182.210092,231.147389 182.222707,231.126343 182.236163,231.106139 C185.828864,226.345511 189.509028,221.618557 194.10671,217.855515 C201.777363,211.576201 209.992135,210.468334 219.036121,207.377925 C243.699779,198.951066 254.18606,166.987092 257.516373,143.269822 C261.273908,116.512653 242.894113,75.4828606 210.80537,78.1211996" id="Leaf-Me-Alone!" fill="#89C5CC"></path>
            <path d="M187.087285,8.28187838 C160.498481,29.1635113 144.586107,61.0733802 131.288496,91.3053591 C116.436639,125.071454 104.873047,159.852852 99.4843227,196.372108 C95.9443747,220.365462 91.8946121,244.44009 89.9250364,268.625714 C89.2249833,277.215152 88.8748455,285.868946 89.0407006,294.486685 C89.0545865,295.194866 89.4310473,314.437622 92.9380414,310.458848 C94.9325477,308.196212 92.5847722,290.502543 92.6250129,287.616161 C92.8548439,271.35938 94.6480975,255.202131 97.0075499,239.126854 C100.892071,212.659438 103.8149,186.195152 110.209077,160.179766 C111.163144,156.295431 112.0616,152.201098 113.539379,148.477679 C115.109085,144.518959 113.591965,146.130097 117.057176,144.962594 C120.424285,143.827288 124.27953,144.598829 127.821221,143.078763 C141.869801,137.048323 151.32577,117.815648 158.339102,105.310098 C166.360518,91.0095004 172.210631,75.380055 177.309925,59.8610252 C181.055021,48.4585852 184.191433,37.0431561 186.706808,25.3142977 C187.499429,21.6177491 188.064185,17.7150456 189.314089,14.1464607 C189.650899,13.1838012 190.889167,11.5711488 190.976475,10.6889811 C191.161137,8.82194319 190.19407,7.57272465 190.321563,6 C189.227765,6.73737876 188.148642,7.49851591 187.087285,8.28187838" id="Leaf-Me-Alone!" fill="#89C5CC" transform="translate(140.000000, 158.500000) rotate(-8.000000) translate(-140.000000, -158.500000) "></path>
            <path d="M38,328 C38,368.316787 70.6832133,401 111,401 C151.316787,401 184,368.316787 184,328" id="Base" fill="#89C5CC"></path>
            <path d="M116.857294,328.232365 L113,328.232365 C113.267642,323.392844 113.62115,318.561789 114.430188,313.776147 C117.524558,295.473303 127.199937,268.591213 148.420279,265.620466 C149.203131,265.50975 152.082849,265.491157 155.57117,265.695686 C157.224419,264.771923 159.076327,264.213271 161.027565,264.084806 C179.094613,262.752829 199.271153,277.328505 207.986064,292.49664 C215.01153,304.726145 213.827993,320.785081 209.488635,333.777767 C206.582823,342.476182 200.240879,354.878099 189.6648,354.998958 C176.432916,355.150242 175.794849,338.796344 175.538949,329.235863 C175.198872,316.525461 173.592762,305.452985 163.577306,296.789222 C161.24306,294.770973 158.691635,292.995286 156.33382,291.004928 C152.641788,287.889659 148.561698,284.700014 148.086094,279.546212 C147.429508,272.435859 151.443098,271.156282 157.571231,272.477271 C158.615876,272.702085 169.138923,277.424009 167.580795,273.69177 C167.105191,272.551646 165.367764,271.648167 163.174937,270.971192 C157.500522,270.354223 150.733481,269.63837 148.787294,270.066022 C127.791706,274.672159 119.617215,303.755053 117.446273,322.232845 C117.211978,324.227323 117.022514,326.228307 116.857293,328.232365 Z" id="Leaf-Me-Alone!" fill="#69A1AC"></path>
        </g>
        <g id="Plant-Left" opacity="0.5" transform="translate(22.000000, 79.000000)">
            <path d="M178.22298,111.444518 C182.425309,105.452509 190.223629,90.2347729 196.138329,88.0936482 C199.947942,86.7145659 198.837195,100.980115 198.884241,103.700243 C199.067454,114.223987 198.04293,124.681002 196.777726,135.11639 C194.498335,153.936569 187.044926,170.697369 176.822023,186.715278 C171.561534,194.957467 165.391397,203.299596 156.84547,208.442327 C152.911771,210.810658 148.178543,211.207195 144.293769,213.247706 C139.769382,215.623126 142.233354,213.702848 140.194367,218.417487 C137.362802,224.963133 136.457106,233.407714 135.146985,240.392151 C129.131553,272.454512 114.568305,441.944513 117.093014,474.558062 C117.317249,477.448784 113.286509,478.140055 113.085292,474.611088 C112.015789,455.899518 121.270437,326.322179 125.939564,283.946664 C130.608691,241.571148 135.333634,204.134499 140.071325,189.473898 C145.818851,171.687472 156.199212,150.297922 164.840137,133.71131 C168.853782,126.005544 173.228734,118.565238 178.22298,111.444518 Z" id="Leaf" fill="#69A1AC"></path>
            <path d="M209.414132,319.277765 C220.349167,311.249697 232.185522,326.401056 222.290441,334.430358 C216.820206,338.868469 211.101395,337.289712 207.88186,333.591199 C205.791868,336.13879 203.835706,338.802543 201.956089,341.052489 C196.229376,347.9085 190.816767,354.92815 185.643881,362.111477 C174.898009,377.034662 165.688992,392.800688 156.060308,408.278421 C146.558057,423.5541 137.131786,438.908021 128.519073,454.570722 C121.222883,467.840829 111.497988,483.452044 109,498 C112.790111,467.146303 127.171863,437.490438 144.298022,410.29054 C161.284824,383.314089 180.779154,353.852808 207.081026,332.563583 C204.404139,328.627042 204.329828,323.00793 209.414132,319.277765 Z" id="Leaf" fill="#C1DEE2"></path>
            <path d="M1.9131966,244.030768 C8.03244063,245.227492 18.0312164,259.070175 23.0752982,264.344345 C29.0698505,270.611956 34.5083971,277.292338 39.6348672,284.291716 C50.6711078,299.357587 60.5410853,315.375735 68.9339235,332.079859 C82.6164473,359.310923 93.5779281,387.264554 101.533144,416.917658 C106.40282,435.069395 109.555733,453.882964 111.42432,472.565152 C111.77721,476.088501 115.4712,503.252852 110.148387,503.985007 C105.361077,504.644266 106.839698,483.358557 106.608745,480.463176 C103.998072,447.797866 96.1772343,416.014794 85.2985211,385.226103 C82.9289815,378.519078 80.7275953,370.304171 76.9381423,364.268497 C74.2092052,359.921096 76.9185722,361.437175 72.1228242,359.791894 C68.0049102,358.378312 63.3131333,358.72373 59.0962962,356.993389 C49.9356343,353.236662 42.6005721,345.943735 36.1708879,338.607909 C23.6757579,324.351374 13.774003,308.928035 8.61263648,290.66039 C5.74946717,280.531578 3.11836073,270.343849 1.65825821,259.901833 C1.28055511,257.202878 -2.02816228,243.259967 1.9131966,244.030768 Z" id="Leaf" fill="#69A1AC"></path>
            <path d="M26.061363,13.7160319 C49.111288,53.6904115 68.0527721,97.6012194 80.2834249,142.076227 C87.6937407,169.023152 92.875997,196.674657 98.0249813,224.126418 C105.997255,266.632047 113.538111,309.134396 115.683127,352.395051 C117.841152,395.906414 122.108499,446.091658 107.860834,488 C114.977614,445.451647 108.201957,400.162237 107.002263,357.34982 C106.428958,336.911865 104.767627,316.673726 102.588271,296.3552 C100.473423,276.645138 97.0183596,257.028931 93.8009172,237.47379 C92.2336415,227.950082 90.5876488,218.440705 88.9117997,208.936528 C88.4115013,206.100946 88.2001646,197.686783 86.4014385,195.749671 C84.5910631,193.799805 75.3542884,193.004911 72.454369,191.574216 C66.6149274,188.69262 61.1221445,184.599523 56.2608889,180.274642 C46.9417982,171.983953 38.8346584,161.151161 32.435855,150.472492 C17.6306837,125.76373 11.7115834,95.6100441 12.0107586,66.9941546 C12.0682413,61.4382419 21.003398,1.60995132 17.4148953,0.786066265 C17.6309536,0.533029377 17.8353283,0.27176118 18.0280364,0 C20.7448404,4.54878452 23.4108122,9.12839556 26.061363,13.7160319 Z" id="Leaf" fill="#89C5CC"></path>
            <path d="M274.846162,157.887288 C275.201814,157.374304 277.516546,153.806661 276.35092,154.034666 C278.724178,153.570439 273.086653,157.969398 279,155.270217 C276.192302,157.921907 277.812715,161.366495 277.85019,164.93538 C277.91133,170.729664 276.941861,176.476433 275.850557,182.146394 C274.126127,191.108872 271.55719,199.823019 267.828427,208.1592 C259.70147,226.325634 245.90148,243.814146 229.518328,255.171668 C221.430419,260.779333 213.503908,262.688536 204.279644,265.270093 C198.453207,266.901031 197.991162,269.91496 194.898475,275.568863 C188.459734,287.344734 182.135661,299.078246 176.457263,311.251437 C169.676879,325.787507 163.094762,340.339599 156.885915,355.131559 C135.969422,404.957486 118.945337,456.577892 110.004808,510 C109.785907,478.518515 117.068634,446.095278 126.255091,416.088186 C132.946871,394.2257 141.658313,373.150925 150.949917,352.289498 C153.201461,347.235572 156.613471,340.734509 157.569628,335.154756 C158.23913,331.245304 156.192265,327.485558 155.255097,323.367253 C151.601499,307.329812 151.862999,289.362708 155.071402,273.239515 C158.608912,255.460636 168.839228,247.208854 186.145128,244.690591 C192.474243,243.769436 200.51871,244.107045 206.322196,241.408429 C212.645007,238.469723 215.253262,228.810237 218.848644,222.609606 C228.505717,205.953401 239.979718,189.979083 253.15504,175.944848 C256.803162,172.05859 260.726377,168.473254 264.88847,165.150086 C267.513083,163.053353 273.057504,160.47018 274.846162,157.887288 Z" id="Leaf" fill="#89C5CC"></path>
            <path d="M80.7914533,476 L142.208547,476 C144.96997,476 147.208547,478.238576 147.208547,481 C147.208547,481.244141 147.190665,481.487955 147.155046,481.729484 L142.408062,513.917935 C140.96096,523.730477 132.540739,531 122.622066,531 L100.377934,531 C90.4592609,531 82.03904,523.730477 80.5919379,513.917935 L75.8449542,481.729484 C75.4420714,478.997608 77.3300935,476.456384 80.0619696,476.053501 C80.3034985,476.017881 80.547312,476 80.7914533,476 Z" id="Base" fill="#C1DEE2"></path>
        </g>
        <g id="Maceta" transform="translate(32.000000, 523.000000)" fill="#F2F2F2">
            <path d="M15.4177215,48.4556962 C15.4177215,69.7431274 17.0976047,87 39.6455696,87 C62.1935345,87 63.8734177,69.7431274 63.8734177,48.4556962" id="Base"></path>
            <path d="M46.353417,35.1741665 C45.5269187,36.603205 44.7899627,38.0608242 44.1390143,39.5403256 C44.1160396,36.4933476 44.2845204,33.4240409 44.7446025,30.3127562 C45.5310424,24.9833358 46.7322042,19.6816031 47.8609075,14.3883552 C48.6720893,10.5844334 48.6208382,3.75184321 51.6994412,0.720495335 C52.5436123,0.0653705071 52.7468496,1.35061199 52.7468496,1.90838357 C52.7574533,2.02627925 52.7444932,-0.368253357 51.9250641,0.0488472497 C47.0544384,2.56440155 45.4762567,10.4741295 43.916926,14.4343524 C41.6418466,20.2148131 39.7060851,26.1238872 38.9090415,32.1379063 C38.7075715,33.6571528 38.5980001,35.1759528 38.5726691,36.6920733 C38.4071338,36.2865836 38.2516131,35.877968 38.0795978,35.473818 C35.2684432,28.8805917 31.4746806,22.4472391 26.743081,16.51405 C25.578443,15.0541979 10.9341658,0.649489986 9.78778975,2.85422841 C9.90089571,3.17442235 10.1377113,3.44013419 10.4988257,3.65136394 C10.5200331,3.67547897 10.5206222,3.66208173 10.5082512,3.62635577 C11.3683278,5.01564911 13.8136552,7.16143971 14.5753532,8.37880186 C16.4922637,11.4423031 17.9820814,14.6933656 19.4960519,17.8823543 C22.69483,24.6216105 25.6620943,31.428746 28.5386382,38.2501718 C29.2084376,39.839084 29.9065135,41.4190647 30.6187276,42.994133 C23.2768544,32.4045113 13.4825846,22.7906549 -1.42108547e-14,17.2870705 C4.60494447,19.6298004 7.62404905,24.037491 10.733874,27.4122547 C14.4846328,31.4827815 18.4350943,35.4438975 22.1929222,39.5099586 C26.6252623,44.3066155 31.8405077,49.35782 36.1037779,54.6658048 C40.2333239,63.3356026 44.2462293,72.0147785 46.7233678,81.1284714 C45.7083596,77.9796744 46.6438402,73.6282523 46.4700576,70.3236008 C46.3322097,67.6932768 46.0247028,65.0843884 45.6035009,62.4804124 C46.1242596,63.6549034 46.5731489,64.8302875 46.7763862,65.923502 C46.5908217,64.089867 46.3769808,62.2678429 46.1472343,60.4551969 C46.7369169,58.7582137 47.3159959,57.1746605 47.7071541,55.8702163 C49.7118395,49.1787436 52.0988467,42.6024871 55.349465,36.192803 C58.3573768,30.263633 61.8076979,24.4099342 65.5672931,18.7348651 C67.3210246,16.088911 69.0989091,13.4527816 70.8656007,10.8121864 C72.0219914,9.08349646 73.1230073,6.31562756 74.733,4.65928264 C64.3260729,14.1739995 52.9559778,23.7574888 46.353417,35.1741665" id="Fill-27"></path>
        </g>
        <g id="Top-Leaves" transform="translate(495.000000, 0.000000)" fill="#F2F2F2">
            <path d="M211.459988,136.913619 C211.697988,126.527619 207.442988,116.955619 202.732988,107.921619 C193.563988,90.3346193 188.977988,79.8126193 190.459988,58.9256193 C191.331988,46.6416193 192.373988,33.6626193 186.103988,22.5076193 C181.538988,14.3846193 171.962988,5.69461932 161.850988,7.16361932 C145.843988,10.8096193 136.907988,26.0616193 133.481988,41.2056193 C129.235988,59.9756193 134.097988,73.9796193 148.271988,86.0066193 C156.258988,92.7816193 160.763988,99.7606193 162.941988,110.078619 C164.684988,118.329619 164.189988,127.791619 167.170988,135.726619 C171.627988,147.588619 179.674988,154.832619 191.778988,157.035619 C187.410988,133.523619 181.274988,109.229619 171.435988,87.4316193 C170.552988,85.2746193 164.205988,76.0546193 166.846988,73.7256193 C169.755988,71.1616193 174.556988,85.9036193 174.518988,85.8116193 C177.307988,92.3626193 179.660988,99.1256193 181.922988,105.916619 C181.910988,105.918619 181.897988,105.917619 181.884988,105.919619 C184.219988,112.892619 186.494988,119.937619 188.667988,127.028619 C189.511988,130.003619 190.301988,132.995619 191.003988,136.027619 C192.033988,140.476619 192.155988,152.193619 195.076988,155.672619 C195.701988,156.416619 196.337988,156.925619 196.978988,157.258619 C198.148988,162.164619 199.240988,167.081619 200.197988,172.008619 C202.696988,184.876619 204.141988,198.075619 202.521988,211.160619 C202.048988,214.979619 197.189988,228.261619 198.799988,231.652619 C201.742988,237.854619 203.397988,228.290619 204.025988,225.445619 C209.218988,201.883619 207.341988,179.762619 201.675988,156.694619 C206.884988,153.106619 211.362988,141.121619 211.459988,136.913619" id="Leaf" transform="translate(171.734760, 120.352443) rotate(-18.000000) translate(-171.734760, -120.352443) "></path>
            <path d="M115.85853,100.65925 C108.257019,101.771171 101.081536,111.378886 97.541036,117.784796 C93.1599315,125.711405 90.104439,134.755685 87.8025125,143.463054 C84.0100599,157.806497 83.4975663,173.726407 83.4506116,188.416535 C83.4448854,190.186755 83.0755464,211.810007 85.6036573,211.455273 C88.1082908,211.103988 86.5221374,188.659157 86.7357241,184.011394 C87.1903832,174.09264 86.510685,164.31072 88.8372342,154.517877 C91.2456677,144.377773 95.6617019,134.821802 101.24187,126.063265 C101.958215,124.939269 103.473937,120.760077 105.195801,121.725391 C106.879872,122.669432 102.214748,128.236513 101.552229,129.318538 C98.8168301,133.786922 96.4416084,138.518625 94.4746637,143.379689 C90.7892908,152.487211 88.8744544,162.017885 88.9397329,171.831426 C94.724898,172.719698 99.7650864,169.33219 101.705691,163.687492 C103.382318,158.808606 103.546087,153.133437 105.450616,148.52017 C106.762485,145.343087 108.849107,142.644924 111.400695,140.363587 C118.131826,134.346332 125.159001,132.841156 127.165456,122.85456 C128.738439,115.02569 126.785237,99.0684087 115.85853,100.65925" id="Leaf" transform="translate(105.535828, 156.004078) scale(-1, 1) rotate(58.000000) translate(-105.535828, -156.004078) "></path>
            <path d="M2.35176464,80 L3.05533376e-13,80 C0.164757456,77.0154001 0.379352103,74.0356557 0.883673399,71.0844844 C2.77417712,60.0223263 8.68534409,43.7749092 21.6499002,41.9794028 C22.1281833,41.9124864 23.8875448,41.9012485 26.0187329,42.0248651 C27.0287844,41.4665469 28.1602067,41.1288998 29.3523143,41.0512563 C40.3903669,40.2462156 52.7172123,49.0556901 58.0415826,58.2232442 C62.3337871,65.6147029 61.6107055,75.3206535 58.9595774,83.1733759 C57.1842731,88.4306594 53.3096661,95.9263239 46.8482165,95.9993701 C38.7642046,96.0908055 38.3743782,86.2065813 38.2180362,80.4282689 C38.0102659,72.7461579 37.0290143,66.0540017 30.910077,60.8176615 C29.4839707,59.597841 27.9251794,58.5246237 26.4846732,57.3216599 C24.2290287,55.4388046 21.7362997,53.5109978 21.4457299,50.3960624 C21.0445893,46.0985958 23.4966899,45.3252255 27.240669,46.1236256 C27.878894,46.2595018 34.3079438,49.1134119 33.3560062,46.8576634 C33.0654364,46.1685771 32.0039566,45.6225184 30.6642498,45.2133575 C27.1974692,44.8404643 23.0631495,44.407806 21.8741275,44.6662772 C9.04688492,47.450206 4.05268426,65.0277791 2.72634882,76.1956755 C2.5761854,77.4602545 2.45616417,78.7291607 2.35176454,80 Z" id="Leaf-Me-Alone!" transform="translate(30.552422, 68.500000) scale(-1, 1) translate(-30.552422, -68.500000) "></path>
        </g>
    </g>
</svg>