<?xml version="1.0" encoding="UTF-8"?>
<svg width="256px" height="187px" viewBox="0 0 256 187" version="1.1" xmlns="http://www.w3.org/2000/svg" xmlns:xlink="http://www.w3.org/1999/xlink">
    <!-- Generator: Sketch 52.4 (67378) - http://www.bohemiancoding.com/sketch -->
    <title>Body/Pointing Forward</title>
    <desc>Created with Sketch.</desc>
    <g id="Body/Pointing-Forward" stroke="none" stroke-width="1" fill="none" fill-rule="evenodd">
        <path d="M158.638039,42.7002327 L193.347821,23.6898218 C199.119845,16.8355222 204.806897,11.5121983 210.408976,7.71984988 C212.120791,7.00519513 215.114322,6.57263502 212.314801,11.541507 C209.515281,16.510379 206.794075,21.8627914 208.22032,23.3935933 C209.646565,24.9243953 213.203036,22.7859324 214.904525,25.3293729 C216.038851,27.0249998 209.962902,29.703613 196.676679,33.3652124 L171.455792,56.4576422 L158.638039,42.7002327 Z M213,58.7398397 L228.246523,50.3642065 C230.385826,42.2239107 232.943102,38.1282526 235.918351,38.0772323 C238.203961,37.0137608 234.223587,47.2997848 238.556381,46.4077826 C242.889175,45.5157805 253.464286,37.6506887 255.286431,39.2475996 C257.982176,41.6101262 255.578484,48.864452 252.746364,52.4730906 C247.453134,59.2176317 243.070569,61.5240612 232.238377,64.5443446 C226.574749,66.1235046 220.451364,69.288795 213.868224,74.0402157 L213,58.7398397 Z" id="Skin" fill="#997659"></path>
        <path d="M142.857986,34.7503025 C154.885997,36.5253162 171.300289,36.5253162 190.103565,28.3861499 L194.443447,44.4123074 C180.805809,54.2415559 162.712714,61.226516 148.287694,58.5246963 C136.919984,56.3955135 133.271725,41.6595451 142.857986,34.7503025 Z" id="Sleeve" fill="#2026A2" transform="translate(165.898282, 43.748060) rotate(-9.000000) translate(-165.898282, -43.748060) "></path>
        <path d="M158.104267,62.7612342 C171.011057,65.9801048 192.654946,62.184167 223.035933,51.3734208 C230.571674,66.9635189 234.055257,78.0780631 233.486685,84.7170535 C207.424274,98.3310492 185.086537,104.400834 166.683227,104.801533 C167.268059,115.72137 165.938918,126.111847 161.473933,135.605966 C152.29468,155.124265 98.5450578,137.048144 80.4727876,140.605966 C69.1554006,103.85132 91.0379108,88.9143806 91.0555178,65.3966157 C91.0747993,39.6421572 111.75441,-1.42108547e-13 114.797001,-1.42108547e-13 L142.54375,1.15166749e-13 C144.0747,19.6690193 151.7804,41.3459827 158.104267,62.7612342 Z" id="Clothes" fill="#1F28CF"></path>
    </g>
</svg>