<?xml version="1.0" encoding="UTF-8"?>
<svg width="256px" height="187px" viewBox="0 0 256 187" version="1.1" xmlns="http://www.w3.org/2000/svg" xmlns:xlink="http://www.w3.org/1999/xlink">
    <!-- Generator: Sketch 52.4 (67378) - http://www.bohemiancoding.com/sketch -->
    <title>Body/Pointing Up</title>
    <desc>Created with Sketch.</desc>
    <g id="Body/Pointing-Up" stroke="none" stroke-width="1" fill="none" fill-rule="evenodd">
        <path d="M191.456243,2.34082269 L229.360019,-9.03759567 C236.431,-14.5420411 243.100557,-18.5666331 249.36869,-21.1113719 C251.191683,-21.4545034 254.209733,-21.2552209 250.438302,-16.9769837 C246.666871,-12.6987465 242.892301,-8.02906778 243.969107,-6.23518449 C245.045914,-4.44130119 248.969279,-5.79360164 250.104775,-2.95198204 C250.861773,-1.05756897 244.361683,0.299249329 230.604506,1.11847287 L201.133571,18.4625605 L191.456243,2.34082269 Z M188.106855,69.1681252 L220.005126,92.5917238 C228.656594,94.9262021 235.884616,97.8306872 241.689192,101.305179 C243.060333,102.554584 244.717486,105.084837 239.031031,104.647546 C233.344575,104.210255 227.34361,104.006032 226.55899,105.945594 C225.774369,107.885156 229.215504,110.204659 227.629445,112.821636 C226.572072,114.566288 221.576617,110.191639 212.64308,99.6976902 L181.055424,86.5990869 L188.106855,69.1681252 Z" id="Skin" fill="#B28B67"></path>
        <path d="M126.984936,15.649923 C152.146796,42.4399518 182.83581,59.9216266 224.690767,75.4277614 L215.396057,94.0136202 C172.211363,89.9419212 149.124049,86.6900124 131.024869,59.8586619 C126.482342,53.1245369 118.360034,29.953677 113.494175,17.9210142 L126.984936,15.649923 Z" id="Coat-Back" fill="#2026A2" transform="translate(169.092471, 54.831772) rotate(15.000000) translate(-169.092471, -54.831772) "></path>
        <path d="M90,114 L167,114 C149.558211,60.8053811 140.648283,24.2959016 140.270216,4.47156148 C140.250941,3.46089747 138.384379,1.67996472 137.55857,1.91319372 C131.519523,3.61877223 125.057267,2.98104099 118.1718,0 C99.917485,29.3584068 93.6048263,65.5045499 90,114 Z" id="Shirt" fill="#F2F2F2"></path>
        <path d="M124.742502,0.0473953679 C146.814238,0.228130238 182.624,4.25865631 223.922675,-9 L228,11.3734803 C196.78685,31.4482286 165.18092,46.9990656 137.486251,44.790754 C149.512444,96.3770989 148.957979,138.605966 122.407472,138.605966 C109.728284,138.605966 96.0428359,138.605966 81.3511268,138.605966 C74.8304314,94.783947 91.9680949,34.0236152 107.855955,3.37659428 C108.462665,2.20627687 109.75441,-3.65929509e-13 112.797001,-3.65929509e-13 C115.448059,-3.65929509e-13 119.424647,-3.65929509e-13 124.726763,-3.65929509e-13 C124.73201,0.0157984696 124.737257,0.0315969258 124.742502,0.0473953679 Z" id="Coat-Front" fill="#1F28CF"></path>
    </g>
</svg>