<?xml version="1.0" encoding="UTF-8"?>
<svg width="136px" height="104px" viewBox="0 0 136 104" version="1.1" xmlns="http://www.w3.org/2000/svg" xmlns:xlink="http://www.w3.org/1999/xlink">
    <!-- Generator: Sketch 52.4 (67378) - http://www.bohemiancoding.com/sketch -->
    <title>Head/Front/Pony</title>
    <desc>Created with Sketch.</desc>
    <g id="Head/Front/Pony" stroke="none" stroke-width="1" fill="none" fill-rule="evenodd">
        <g id="Head" transform="translate(54.000000, 31.000000)" fill="#B28B67">
            <path d="M8.26227388,34.4901268 C3.65436435,29.0813759 0.535634794,22.4528771 1.05677633,15.0254539 C2.55833022,-6.37502057 32.3485306,-1.66718886 38.1433414,9.13393292 C43.9381521,19.9350547 43.249578,47.3329958 35.7603014,49.2634576 C32.7735882,50.033323 26.4110012,48.1474609 19.935372,44.244306 L24,73 L0,73 L8.26227388,34.4901268 Z"></path>
        </g>
        <path d="M70.5687217,63.9853286 C67.5926236,69.6979779 63.4765087,74 59.3643383,74 C51.5536227,74 46,63.5572795 46,52.3295687 C46,51.9350856 46.0078163,51.5432268 46.0232386,51.1542949 C37.7608945,56.8241057 31.3932077,68 20.4607455,68 C5.58722916,68 -0.31966425,38 20.4607455,38 C34.593003,38 41.5445762,40.0604811 47.5354741,43.1074469 C48.7170741,39.7763359 50.5188193,36.9756887 52.7219959,35.0199012 C53.2520171,34.4232542 54.0645989,33.8524026 55.1129199,33.3231942 C55.7538221,32.972543 56.4170423,32.6869516 57.098675,32.4720339 C60.7117049,31.1442871 65.9449543,30.2077896 71.790603,30.003655 C72.8821722,29.9655366 73.9542211,29.9543821 75.0000488,29.9684338 C75.0170696,24.4601029 79.4876784,20 85,20 C90.5228475,20 95,24.4771525 95,30 C95,35.3410915 90.8126832,39.7041827 85.5417481,39.9855753 C82.5265081,40.9159529 78.6524637,41.5990548 74.3561881,41.8871153 C74.7733127,43.4557543 75,45.2377873 75,47.2515622 C75,49.0297049 74.8037398,50.9155223 74.4423579,52.830311 C73.5105469,51.7227516 72.2646032,51 71,51 C67.4624339,51 65,53.9101491 65,57 C65,60.9215044 67.2638886,63.7584261 70.5687217,63.9853286 Z" id="hair" fill="#191847"></path>
    </g>
</svg>