<?xml version="1.0" encoding="UTF-8"?>
<svg width="256px" height="187px" viewBox="0 0 256 187" version="1.1" xmlns="http://www.w3.org/2000/svg" xmlns:xlink="http://www.w3.org/1999/xlink">
    <!-- Generator: Sketch 52.4 (67378) - http://www.bohemiancoding.com/sketch -->
    <title>Body/Pregnant</title>
    <desc>Created with Sketch.</desc>
    <g id="Body/Pregnant" stroke="none" stroke-width="1" fill="none" fill-rule="evenodd">
        <path d="M111.093239,2.28693343 C111.326698,1.52679592 111.563732,0.764490814 111.80423,9.9475983e-14 L112.692183,0.417788314 C112.830751,0.274814904 112.970357,0.135528873 113.111009,-8.52651283e-14 L141.101479,4.32798224 C141.101479,20.0687681 153.625725,34.7964415 161.54868,47.4680378 C173.864991,67.1661596 195.780651,88.999709 181.72922,118.263682 C169.06816,144.632022 136.088855,148.914077 82.7913029,131.10985 C82.7913029,116.907461 94.4646183,102.629645 94.8366189,85.3605479 C95.1907472,68.9211259 98.2646207,19.1125342 111.093239,2.28693343 Z" id="Shirt" fill="#C1DEE2"></path>
        <path d="M145.863007,110.787221 C147.734877,101.126929 148.949202,94.6776016 149.505985,91.4392393 C164.417959,108.29011 173.032716,116.813278 175.350255,117.008742 C179.708836,117.37635 182.929474,113.51125 183.84651,114.597847 C185.362212,119.097853 181.081226,130.362106 172.89821,132 C168.990655,132.782127 162.94394,124.724092 160.45259,121.868948 C159.4727,120.745971 154.609505,117.052062 145.863007,110.787221 Z M171.62123,59.2823205 C175.486784,59.2823205 177.563178,60.8804131 179.848781,64.1046411 C182.134384,67.328869 184.297191,82.5350373 180.6276,82.5350373 C176.958008,82.5350373 161.583419,76.656821 161.583419,72.7050102 C161.583419,68.7531993 172.074145,67.079644 172.074145,64.1046411 C172.074145,61.1296381 167.755676,59.2823205 171.62123,59.2823205 Z" id="Skin" fill="#B28B67"></path>
        <path d="M138.059083,125.487626 C137.829455,126.309648 137.595361,127.147106 137.356799,128 C93.560817,97.3905148 93.5398055,60.2964284 106.564993,18.7185807 C96.7475495,59.6508736 100.747151,94.1732973 138.059083,125.487626 Z" id="Shade" fill-opacity="0.2" fill="#000000"></path>
    </g>
</svg>