<?xml version="1.0" encoding="UTF-8"?>
<svg width="136px" height="104px" viewBox="0 0 136 104" version="1.1" xmlns="http://www.w3.org/2000/svg" xmlns:xlink="http://www.w3.org/1999/xlink">
    <!-- Generator: Sketch 52.4 (67378) - http://www.bohemiancoding.com/sketch -->
    <title>Head/Front/Short 2</title>
    <desc>Created with Sketch.</desc>
    <g id="Head/Front/Short-2" stroke="none" stroke-width="1" fill="none" fill-rule="evenodd">
        <g id="Head" transform="translate(54.000000, 31.000000)" fill="#B28B67">
            <path d="M8.26227388,34.4901268 C3.65436435,29.0813759 0.535634794,22.4528771 1.05677633,15.0254539 C2.55833022,-6.37502057 32.3485306,-1.66718886 38.1433414,9.13393292 C43.9381521,19.9350547 43.249578,47.3329958 35.7603014,49.2634576 C32.7735882,50.033323 26.4110012,48.1474609 19.935372,44.244306 L24,73 L0,73 L8.26227388,34.4901268 Z"></path>
        </g>
        <path d="M60.4181384,70.3075201 C57.4059021,56.9064588 48.8245327,47.7714043 50.1351137,41.781703 C51.0088343,37.7885688 53.3375617,35.3053788 57.1212959,34.3321331 C59.0782074,26.4155009 65.3896485,23.0482486 76.0556193,24.2303763 C92.0545754,26.0035679 101.819448,32.6477587 97.6024819,47.2678779 C93.7260987,47.2678779 89.0464758,45.8659867 82.57553,48.2678779 C80.5223249,49.0299883 79.0538125,51.3933595 78.1699927,55.3579915 L75.2457978,55.3579915 C72.4077436,50.6530572 69.6094038,48.9241222 66.8507787,50.1711866 C64.0921535,51.418251 63.4650732,54.4473753 64.9695377,59.2585597 L63.529076,70.3075201 L60.4181384,70.3075201 Z" id="Hair" fill="#191847"></path>
    </g>
</svg>