<?xml version="1.0" encoding="UTF-8"?>
<svg width="300px" height="239px" viewBox="0 0 300 239" version="1.1" xmlns="http://www.w3.org/2000/svg" xmlns:xlink="http://www.w3.org/1999/xlink">
    <!-- Generator: Sketch 52.4 (67378) - http://www.bohemiancoding.com/sketch -->
    <title>Bottom/Standing/Shorts</title>
    <desc>Created with Sketch.</desc>
    <g id="Bottom/Standing/Shorts" stroke="none" stroke-width="1" fill="none" fill-rule="evenodd">
        <polygon id="Leg" fill="#997659" points="128 9.9475983e-14 165.630838 123.024171 183.860154 227.648304 198.153197 227.648304 178.890974 9.9475983e-14"></polygon>
        <path d="M114.537727,0 C117.093705,67.5468821 114.085665,102.388787 113.513606,108.525715 C112.941548,114.662643 105.108196,154.454812 86.5636874,229.708469 L101.793992,224.477699 C131.10186,155.458959 141.088936,119.5887 144.450326,110.525715 C147.811717,101.46273 156.739403,64.6208249 171.233385,0 L114.537727,0 Z" id="Leg" fill="#B28B67"></path>
        <g id="Accessories/Shoe/Flat-Sneaker" transform="translate(84.000000, 199.000000)" fill="#E4E4E4">
            <path d="M2.67813181,25.4019242 C1.55937727,28.3884109 1,30.6229931 1,32.1056708 C1,33.908957 1.3004142,36.5404001 1.90124261,40 C3.99318117,40 22.7937852,40 58.3030548,40 C59.768738,35.1545073 58.9226607,32.5385816 55.7648228,32.1522232 C52.606985,31.7658647 49.9837155,31.4170139 47.8950143,31.1056708 L21.6799926,19.4188835 C21.1755635,19.1940064 20.584344,19.4206282 20.359467,19.9250573 C20.35562,19.9336867 20.3518954,19.9423702 20.3482945,19.9511052 L18.6632131,24.038695 C15.7398812,25.4026522 13.3643706,26.0846307 11.5366811,26.0846307 C10.0517269,26.0846307 8.00099246,25.4849054 5.38447792,24.2854549 L5.38448339,24.285443 C4.38038273,23.8251478 3.19325534,24.2659892 2.73296014,25.2700899 C2.71312074,25.3133681 2.69483298,25.3573409 2.67813181,25.4019242 Z" id="shoe"></path>
        </g>
        <g id="Accessories/Shoe/Flat-Sneaker" transform="translate(178.000000, 199.000000)" fill="#E4E4E4">
            <path d="M2.67813181,25.4019242 C1.55937727,28.3884109 1,30.6229931 1,32.1056708 C1,33.908957 1.3004142,36.5404001 1.90124261,40 C3.99318117,40 22.7937852,40 58.3030548,40 C59.768738,35.1545073 58.9226607,32.5385816 55.7648228,32.1522232 C52.606985,31.7658647 49.9837155,31.4170139 47.8950143,31.1056708 L21.6799926,19.4188835 C21.1755635,19.1940064 20.584344,19.4206282 20.359467,19.9250573 C20.35562,19.9336867 20.3518954,19.9423702 20.3482945,19.9511052 L18.6632131,24.038695 C15.7398812,25.4026522 13.3643706,26.0846307 11.5366811,26.0846307 C10.0517269,26.0846307 8.00099246,25.4849054 5.38447792,24.2854549 L5.38448339,24.285443 C4.38038273,23.8251478 3.19325534,24.2659892 2.73296014,25.2700899 C2.71312074,25.3133681 2.69483298,25.3573409 2.67813181,25.4019242 Z" id="shoe"></path>
        </g>
        <polygon id="Bottom" fill="#69A1AC" points="123 0 139 62.6795201 187.870318 62.6795201 180.583554 0"></polygon>
        <path d="M114,-3.55271368e-15 C108.735439,15.7805461 107.735439,36.6737195 111,62.6795201 L160.870318,62.6795201 L174.583554,-3.55271368e-15 L114,-3.55271368e-15 Z" id="Bottom" fill="#89C5CC"></path>
    </g>
</svg>