<?xml version="1.0" encoding="UTF-8"?>
<svg width="380px" height="400px" viewBox="0 0 380 400" version="1.1" xmlns="http://www.w3.org/2000/svg" xmlns:xlink="http://www.w3.org/1999/xlink">
    <!-- Generator: Sketch 52.4 (67378) - http://www.bohemiancoding.com/sketch -->
    <title>humaaans/sitting-6</title>
    <desc>Created with Sketch.</desc>
    <g id="humaaans/sitting-6" stroke="none" stroke-width="1" fill="none" fill-rule="evenodd">
        <g id="A-Human/Sitting" transform="translate(190.000000, 200.500000) scale(-1, 1) translate(-190.000000, -200.500000) translate(40.000000, 24.000000)">
            <g id="Head/Front/Caesar" transform="translate(82.000000, 0.000000)">
                <g id="Head" stroke-width="1" transform="translate(54.000000, 31.000000)" fill="#B28B67">
                    <path d="M8.26227388,34.4901268 C3.65436435,29.0813759 0.535634794,22.4528771 1.05677633,15.0254539 C2.55833022,-6.37502057 32.3485306,-1.66718886 38.1433414,9.13393292 C43.9381521,19.9350547 43.249578,47.3329958 35.7603014,49.2634576 C32.7735882,50.033323 26.4110012,48.1474609 19.935372,44.244306 L24,73 L0,73 L8.26227388,34.4901268 Z"></path>
                </g>
                <path d="M69.729818,53.8670262 C68.9449555,53.3276287 68.0072604,53 67,53 C64.2385763,53 62,55.4624339 62,58 C62,60.6398741 63.246606,62.6810346 65.026826,63.5469713 C64.0760216,65.4058954 63.1199761,66.7549721 62,67 C57.6781395,66.5628085 52,55.8205201 52,47 C52,37.3455086 59.6819829,29 74,29 C86.8690713,29 91.7485692,34.3062174 92,39 C86.4853531,40.5156046 76.8492499,41.0992165 63,41 L63,42 L75,43 L77,49 C73.8180725,48.7624609 71.5442799,50.9449742 69.729818,53.8670262 Z" id="Combined-Shape" fill="#191847"></path>
            </g>
            <g id="Bottom/Sitting/Sweat-Pants" transform="translate(0.000000, 187.000000)">
                <g id="Objects/Seat/Ball" transform="translate(10.000000, 42.000000)" fill="#C5CFD6">
                    <ellipse id="Ballsy-Ball" cx="116" cy="58.5" rx="77" ry="73.5"></ellipse>
                </g>
                <path d="M271.509253,162.659849 C258.696468,134.301545 249.430392,109.608281 245.711023,96.5800564 C239.34256,74.2725728 234.497817,54.6432898 233.273327,47.3127766 C230.353374,29.8322277 255.735275,28.8143004 259.090229,37.5018287 C264.168086,50.6507477 273.032873,93.8526085 283.684593,159.107411 L271.509253,162.659849 Z M122.888346,73.6635414 C134.644063,69.0168268 175.811956,54.4748802 195.66723,50.3612296 C201.37284,49.1791314 206.902884,48.0808288 212.102095,47.0882686 C227.555991,44.1380286 235.56256,72.0174283 220.678573,74.1595557 C183.611563,79.4942994 131.062816,85.0032894 126.565792,85.6215241 C120.26302,86.4880065 115.500245,76.5838567 122.888346,73.6635414 Z" id="Skin" fill="#B28B67"></path>
                <path d="M221.587121,39.4162575 L158,7.04671741 L158,0 L165.562186,0 C227.079876,15.6757222 258.515366,25.7216696 259.868655,30.1378423 C259.883215,30.1853551 259.896564,30.2329302 259.908703,30.2805675 C259.939662,30.3212022 259.970097,30.3620825 260,30.4032083 C272.191506,47.1700257 279.49295,129.026966 281.889416,135.156136 L258.52773,138.641377 C249.591265,105.503295 221,82.4181007 221.759487,42.7290106 C221.554409,41.5647756 221.502591,40.4606967 221.587121,39.4162575 Z" id="Leg-Back" fill="#1F28CF"></path>
                <path d="M163.283174,58.6404762 C157.4651,57.4758245 152.107279,56.4363908 147.522705,55.6322592 C117.90929,50.4380832 109.273766,34.5862504 114.379549,4.7745025e-14 L168.941763,-4.97379915e-14 C177.854593,2.56031807 224.174037,21.9848377 248.206622,32.316337 C264.112618,39.1542526 259.098531,63.8044803 250.090957,70.2194819 C250.042044,70.6130299 249.879937,70.8803556 249.591265,71 C201.136867,91.0826527 162.804991,80.5453361 150,83.9121674 L144.07712,65.2284164 L163.283174,58.6404762 Z" id="Leg-Front" fill="#2B44FF"></path>
                <g id="Accessories/Shoe/Flat-Sneaker" transform="translate(143.959294, 93.331820) rotate(64.000000) translate(-143.959294, -93.331820) translate(113.459294, 73.331820)" fill="#E4E4E4">
                    <path d="M2.67813181,25.4019242 C1.55937727,28.3884109 1,30.6229931 1,32.1056708 C1,33.908957 1.3004142,36.5404001 1.90124261,40 C3.99318117,40 22.7937852,40 58.3030548,40 C59.768738,35.1545073 58.9226607,32.5385816 55.7648228,32.1522232 C52.606985,31.7658647 49.9837155,31.4170139 47.8950143,31.1056708 L21.6799926,19.4188835 C21.1755635,19.1940064 20.584344,19.4206282 20.359467,19.9250573 C20.35562,19.9336867 20.3518954,19.9423702 20.3482945,19.9511052 L18.6632131,24.038695 C15.7398812,25.4026522 13.3643706,26.0846307 11.5366811,26.0846307 C10.0517269,26.0846307 8.00099246,25.4849054 5.38447792,24.2854549 L5.38448339,24.285443 C4.38038273,23.8251478 3.19325534,24.2659892 2.73296014,25.2700899 C2.71312074,25.3133681 2.69483298,25.3573409 2.67813181,25.4019242 Z" id="shoe"></path>
                </g>
                <g id="Accessories/Shoe/Flat-Sneaker" transform="translate(263.000000, 132.000000)" fill="#E4E4E4">
                    <path d="M2.67813181,25.4019242 C1.55937727,28.3884109 1,30.6229931 1,32.1056708 C1,33.908957 1.3004142,36.5404001 1.90124261,40 C3.99318117,40 22.7937852,40 58.3030548,40 C59.768738,35.1545073 58.9226607,32.5385816 55.7648228,32.1522232 C52.606985,31.7658647 49.9837155,31.4170139 47.8950143,31.1056708 L21.6799926,19.4188835 C21.1755635,19.1940064 20.584344,19.4206282 20.359467,19.9250573 C20.35562,19.9336867 20.3518954,19.9423702 20.3482945,19.9511052 L18.6632131,24.038695 C15.7398812,25.4026522 13.3643706,26.0846307 11.5366811,26.0846307 C10.0517269,26.0846307 8.00099246,25.4849054 5.38447792,24.2854549 L5.38448339,24.285443 C4.38038273,23.8251478 3.19325534,24.2659892 2.73296014,25.2700899 C2.71312074,25.3133681 2.69483298,25.3573409 2.67813181,25.4019242 Z" id="shoe"></path>
                </g>
            </g>
            <g id="Body/Trench-Coat" transform="translate(22.000000, 82.000000)">
                <path d="M197.692975,90.2442388 L227.879596,115.83589 C236.347145,118.768177 243.354953,122.169788 248.90302,126.040723 C250.183668,127.382731 251.660283,130.022417 246.018183,129.189525 C240.376083,128.356632 234.403982,127.734299 233.485976,129.614404 C232.56797,131.49451 235.838922,134.048404 234.074175,136.548369 C232.897677,138.215012 228.219551,133.502554 220.039797,122.410996 L189.442799,107.140857 L197.692975,90.2442388 Z M54.3748075,70.4422362 L71.7206892,74.8517457 C48.5010655,113.888004 36.0840272,134.518222 34.4695742,136.742401 C30.8370549,141.746803 33.4753713,151.405575 34.3717289,156.466114 C27.0159775,157.777312 30.4552622,146.986888 21.1392043,148.78923 C12.6359386,150.434324 5.23841582,155.412199 -2.21044035,147.785504 C-3.12623345,146.847846 -3.68533756,144.037711 -0.329858103,142.787288 C8.0298649,139.672029 20.4540206,133.669529 22.5472206,131.196025 C25.4016727,127.82296 36.0108683,107.571697 54.3748075,70.4422362 Z" id="Skin" fill="#B28B67" transform="translate(123.586250, 113.509597) rotate(-4.000000) translate(-123.586250, -113.509597) "></path>
                <path d="M203.320455,87.6779032 C207.424546,87.3832636 211.888791,88.063152 216.675075,89.6758318 C219.030261,90.4693828 220.296216,93.0219384 219.502665,95.3771242 C219.041777,96.7449968 217.987543,97.7454511 216.723241,98.1883982 C217.639067,98.8565328 218.563007,99.520979 219.495159,100.181671 L211.447983,116.609623 C177.58505,99.7255288 145.757134,86.9958405 131.253857,59.1215578 C126.386182,49.766228 128.033751,17.9882599 127.569134,6.42756866 L138.264162,2.04144427 C153.172616,32.858252 173.349023,62.4232387 203.320455,87.6779032 Z" id="Back-Arm" fill="#69A1AC"></path>
                <path d="M90,113.909745 C121.438326,117.363418 146.183737,117.363418 164.236234,113.909745 C166.472817,113.481858 166.374598,103.840401 165.337385,101.207228 C149.185283,60.2018743 138.560302,30.1840325 138.560302,1.70263734 C135.596594,3.25072994 130.409827,3.48273097 123,2.39864042 C103.086202,31.7496339 93.9325378,65.4265407 90,113.909745 Z" id="Shirt" fill="#191847"></path>
                <path d="M84.1585766,118.757813 C83.0909039,117.753244 82.5343141,116.247337 82.8078928,114.695795 L83.3288374,111.741372 C83.6818668,109.739242 85.3079057,108.281318 87.2277662,108.053234 C87.5633833,106.552966 87.8527505,105.062753 88.0917371,103.583451 C90.1105318,91.0873271 86.6613147,78.8344715 86.8233023,66.8021056 C70.7431982,80.5215474 56.3180804,104.211193 43.5479488,137.871041 L24.6611622,132.313477 C25.3818,129.636227 26.1282539,126.991859 26.9005241,124.380374 C24.7206054,123.141961 22.1733635,117.465977 24.0066041,116.516161 C25.8999362,115.53521 27.9056982,114.844785 30.0179817,114.438414 C47.3353888,62.2791261 75.6546193,24.1329883 114.975674,-4.19220214e-13 L120.377288,-4.12114787e-13 L126.348425,-1.0658141e-14 C123,44.2807404 169.249642,140.9549 153.190593,223.518112 C123.507857,230.146789 81.1319105,209.522766 39.8828129,226 C41.4176928,192.750911 72.1631413,153.690797 84.1585803,118.757804 Z" id="Coat-Front" fill="#89C5CC"></path>
                <polygon id="Shade-Lapel" fill-opacity="0.1" fill="#000000" points="119.105759 1 113.946604 16.8654451 124.335997 28.7590435 114.946604 38.1055065 137.662251 77 109.883587 38.1832119 119.105759 28.7590435 109.883587 18.2484583"></polygon>
                <path d="M131,92 C128.790861,92 127,90.209139 127,88 C127,85.790861 128.790861,84 131,84 C133.209139,84 135,85.790861 135,88 C135,90.209139 133.209139,92 131,92 Z M136,115 C133.790861,115 132,113.209139 132,111 C132,108.790861 133.790861,107 136,107 C138.209139,107 140,108.790861 140,111 C140,113.209139 138.209139,115 136,115 Z M137,138 C134.790861,138 133,136.209139 133,134 C133,131.790861 134.790861,130 137,130 C139.209139,130 141,131.790861 141,134 C141,136.209139 139.209139,138 137,138 Z" id="Buttons" fill-opacity="0.4" fill="#000000"></path>
            </g>
        </g>
    </g>
</svg>