<?xml version="1.0" encoding="UTF-8"?>
<svg width="300px" height="239px" viewBox="0 0 300 239" version="1.1" xmlns="http://www.w3.org/2000/svg" xmlns:xlink="http://www.w3.org/1999/xlink">
    <!-- Generator: Sketch 52.4 (67378) - http://www.bohemiancoding.com/sketch -->
    <title>Bottom/Standing/Skinny Jeans Walk</title>
    <desc>Created with Sketch.</desc>
    <g id="Bottom/Standing/Skinny-Jeans-Walk" stroke="none" stroke-width="1" fill="none" fill-rule="evenodd">
        <polygon id="Leg" fill="#1F28CF" points="128 0 176.081639 127.226909 209.783329 221 229 221 182.673688 9.81437154e-14"></polygon>
        <path d="M116.116628,0 C115.593979,43.6541888 115.971833,102.427468 114.754071,105.148648 C113.942229,106.962768 88.6908725,127.632305 39,167.157257 L48.9049803,184 C107.899481,145.955797 138.9048,124.399339 141.920937,119.330628 C146.445143,111.72756 169.1744,41.763137 181,0 L116.116628,0 Z" id="Leg" fill="#2B44FF"></path>
        <g id="Accessories/Shoe/Flat-Pointy" transform="translate(56.500000, 189.000000) rotate(50.000000) translate(-56.500000, -189.000000) translate(26.000000, 169.000000)" fill="#191847">
            <path d="M0,40 L1,19 L22,19 C31.9576033,26 44.9576033,31.6666667 61,36 L61,40 L23,40 L10,38 L10,40 L0,40 Z" id="Shoe"></path>
        </g>
        <g id="Accessories/Shoe/Flat-Pointy" transform="translate(208.000000, 199.000000)" fill="#191847">
            <path d="M0,40 L1,19 L22,19 C31.9576033,26 44.9576033,31.6666667 61,36 L61,40 L23,40 L10,38 L10,40 L0,40 Z" id="Shoe"></path>
        </g>
    </g>
</svg>