<?xml version="1.0" encoding="UTF-8"?>
<svg width="300px" height="239px" viewBox="0 0 300 239" version="1.1" xmlns="http://www.w3.org/2000/svg" xmlns:xlink="http://www.w3.org/1999/xlink">
    <!-- Generator: Sketch 52.4 (67378) - http://www.bohemiancoding.com/sketch -->
    <title>Bottom/Standing/Skinny Jeans</title>
    <desc>Created with Sketch.</desc>
    <g id="Bottom/Standing/Skinny-Jeans" stroke="none" stroke-width="1" fill="none" fill-rule="evenodd">
        <polygon id="Leg" fill="#191847" points="128 9.9475983e-14 164.254962 127.226909 190.706957 221 210 221 181.890974 9.9475983e-14"></polygon>
        <path d="M118.304342,0 C117.465768,65.5742244 114.606247,101.340188 113.725779,107.297892 C112.845311,113.255595 99.5321718,151.156298 73.7863613,221 L93.7726468,221 C126.549033,153.996902 144.845651,116.096199 148.662499,107.297892 C152.479348,98.4995844 164.258515,62.7336205 182,0 L118.304342,0 Z" id="Leg" fill="#2F3676"></path>
        <g id="Accessories/Shoe/Flat-Pointy" transform="translate(72.000000, 199.000000)" fill="#191847">
            <path d="M0,40 L1,19 L22,19 C31.9576033,26 44.9576033,31.6666667 61,36 L61,40 L23,40 L10,38 L10,40 L0,40 Z" id="Shoe"></path>
        </g>
        <g id="Accessories/Shoe/Flat-Pointy" transform="translate(188.000000, 199.000000)" fill="#191847">
            <path d="M0,40 L1,19 L22,19 C31.9576033,26 44.9576033,31.6666667 61,36 L61,40 L23,40 L10,38 L10,40 L0,40 Z" id="Shoe"></path>
        </g>
    </g>
</svg>