<?xml version="1.0" encoding="UTF-8"?>
<svg width="300px" height="239px" viewBox="0 0 300 239" version="1.1" xmlns="http://www.w3.org/2000/svg" xmlns:xlink="http://www.w3.org/1999/xlink">
    <!-- Generator: Sketch 52.4 (67378) - http://www.bohemiancoding.com/sketch -->
    <title>Bottom/Sitting/Skinny Jeans 1</title>
    <desc>Created with Sketch.</desc>
    <g id="Bottom/Sitting/Skinny-Jeans-1" stroke="none" stroke-width="1" fill="none" fill-rule="evenodd">
        <g id="Objects/Seat/Cube" transform="translate(10.000000, 42.000000)">
            <g id="Seat" transform="translate(55.000000, 0.000000)">
                <polygon id="Seat-Stuff" fill="#C5CFD6" points="27.6226415 0 104.877193 0 115 124 0 124"></polygon>
                <polygon id="Seat-Stuff" fill-opacity="0.1" fill="#000000" points="27.6226415 0 51.3828011 0 65.6037736 124 0 124"></polygon>
            </g>
        </g>
        <path d="M257.953294,20.7561262 C266.190093,15.8101469 280.009488,22.164715 280,29.2384154 C279.971611,50.4029106 260.656682,150.1511 259.648224,156.456711 C258.639766,162.762321 247.83665,164.42787 247.20755,156.477375 C246.206544,143.826795 244.3468,100.033121 246.20755,79.7626522 C246.975628,71.3954284 247.802807,63.4267637 248.617148,56.3175946 C238.481902,74.6206031 222.807229,100.825998 201.593128,134.933778 L190.076573,129.672175 C199.120166,99.8760987 206.535776,78.8408618 212.323403,66.5664641 C222.233227,45.5497154 231.525307,27.551672 235.436043,21.2120072 C241.587634,11.2397104 252.295462,14.7191925 257.953294,20.7561262 Z" id="Skin" fill="#B28B67"></path>
        <path d="M208.819223,123.340112 L213.936922,21.8299349 C217.625361,4.27739957 248.84365,12.4235349 248.830812,21.8299349 C248.801666,43.1853748 235.973522,116.956762 235.964839,123.319261 L208.819223,123.340112 Z" id="LegLower" fill="#1F28CF" transform="translate(228.825019, 67.419630) rotate(20.000000) translate(-228.825019, -67.419630) "></path>
        <g id="Accessories/Shoe/Flat-Sneaker" transform="translate(215.500000, 133.000000) rotate(30.000000) translate(-215.500000, -133.000000) translate(185.000000, 113.000000)" fill="#E4E4E4">
            <path d="M2.67813181,25.4019242 C1.55937727,28.3884109 1,30.6229931 1,32.1056708 C1,33.908957 1.3004142,36.5404001 1.90124261,40 C3.99318117,40 22.7937852,40 58.3030548,40 C59.768738,35.1545073 58.9226607,32.5385816 55.7648228,32.1522232 C52.606985,31.7658647 49.9837155,31.4170139 47.8950143,31.1056708 L21.6799926,19.4188835 C21.1755635,19.1940064 20.584344,19.4206282 20.359467,19.9250573 C20.35562,19.9336867 20.3518954,19.9423702 20.3482945,19.9511052 L18.6632131,24.038695 C15.7398812,25.4026522 13.3643706,26.0846307 11.5366811,26.0846307 C10.0517269,26.0846307 8.00099246,25.4849054 5.38447792,24.2854549 L5.38448339,24.285443 C4.38038273,23.8251478 3.19325534,24.2659892 2.73296014,25.2700899 C2.71312074,25.3133681 2.69483298,25.3573409 2.67813181,25.4019242 Z" id="shoe"></path>
        </g>
        <g id="Accessories/Shoe/Flat-Sneaker" transform="translate(242.000000, 126.000000)" fill="#E4E4E4">
            <path d="M2.67813181,25.4019242 C1.55937727,28.3884109 1,30.6229931 1,32.1056708 C1,33.908957 1.3004142,36.5404001 1.90124261,40 C3.99318117,40 22.7937852,40 58.3030548,40 C59.768738,35.1545073 58.9226607,32.5385816 55.7648228,32.1522232 C52.606985,31.7658647 49.9837155,31.4170139 47.8950143,31.1056708 L21.6799926,19.4188835 C21.1755635,19.1940064 20.584344,19.4206282 20.359467,19.9250573 C20.35562,19.9336867 20.3518954,19.9423702 20.3482945,19.9511052 L18.6632131,24.038695 C15.7398812,25.4026522 13.3643706,26.0846307 11.5366811,26.0846307 C10.0517269,26.0846307 8.00099246,25.4849054 5.38447792,24.2854549 L5.38448339,24.285443 C4.38038273,23.8251478 3.19325534,24.2659892 2.73296014,25.2700899 C2.71312074,25.3133681 2.69483298,25.3573409 2.67813181,25.4019242 Z" id="shoe"></path>
        </g>
        <path d="M282.770373,36.4330278 C282.770373,63 270.1536,124.970293 270.145616,130.820112 L243,130.840963 C246.973277,75.5454811 248.382172,47.5998928 247.226683,47.0041979 C245.49345,46.1106556 176.175838,53.9250306 155.386358,53.9250306 C125.407825,53.9250306 113.006307,35.0203971 112,-4.40536496e-13 L171.386358,-4.40536496e-13 C183.477954,1.29386693 246.548825,14.0152568 269.972097,18.3884129 C280,20.2606358 282.770373,29.1145109 282.770373,36.4330278 Z" id="Leg-and-Butt" fill="#2B44FF"></path>
    </g>
</svg>