<?xml version="1.0" encoding="UTF-8"?>
<svg width="380px" height="480px" viewBox="0 0 380 480" version="1.1" xmlns="http://www.w3.org/2000/svg" xmlns:xlink="http://www.w3.org/1999/xlink">
    <!-- Generator: Sketch 52.4 (67378) - http://www.bohemiancoding.com/sketch -->
    <title>humaaans/standing-19</title>
    <desc>Created with Sketch.</desc>
    <g id="humaaans/standing-19" stroke="none" stroke-width="1" fill="none" fill-rule="evenodd">
        <g id="humaaan-3" transform="translate(28.000000, 2.000000)">
            <g id="Head/Front/Short-Beard" transform="translate(133.219486, 73.532869) rotate(-15.000000) translate(-133.219486, -73.532869) translate(59.569689, 17.301852)">
                <g id="Head" stroke-width="1" transform="translate(58.494090, 33.282773)" fill="#B28B67">
                    <path d="M8.94989243,37.029905 C3.95849475,31.2228654 0.580212404,24.1062584 1.14472537,16.1318958 C2.77124441,-6.84446329 35.0407011,-1.78995704 41.3177785,9.80653596 C47.5948559,21.403029 46.8489759,50.8184952 38.7364127,52.8911119 C35.5011336,53.7176686 28.6090274,51.6929357 21.5944711,47.5023609 L25.9973733,78.3755619 L0,78.3755619 L8.94989243,37.029905 Z"></path>
                </g>
                <path d="M81.3883575,51.952185 C82.3834979,65.6917178 85.0159075,72.5614842 89.2855862,72.5614842 C95.6904793,72.5614842 101.124576,68.5314242 103.934889,68.5314242 C105.983512,68.5314242 105.526118,71.0723988 104.168183,72.9563509 C103.047844,74.510672 97.5918834,76.0088517 97.5918834,78.4185713 C97.5918834,80.8282909 101.902545,78.9640237 101.902545,80.3931813 C101.902545,82.7571824 102.660137,87.2019272 98.5205385,87.2019272 C94.3311269,87.2019272 82.319342,85.6887359 80.2608474,79.5259349 C78.9323552,75.5486435 78.0733895,67.3069515 77.6839504,54.800859 C77.4298072,54.7709268 77.1711657,54.7555296 76.908896,54.7555296 C73.3194078,54.7555296 70.4095526,57.6396338 70.4095526,61.1973566 C70.4095526,63.0034497 71.1594597,64.6359427 72.3674961,65.8056399 C70.8636361,67.909543 69.1782406,70.1073515 67.2469573,72.3752043 C59.9915444,68.0607734 54.6076154,55.430817 61.7009592,43.2979654 C63.6615817,37.3542701 68.1001568,34.179519 73.3422208,32.7053802 C77.5885628,30.944841 81.9966676,30.7463386 85.7177359,31.801766 C93.0120601,32.4218911 99.5255418,34.6264448 101.371515,35.935675 C101.371515,42.780357 100.033419,44.811154 88.6042537,44.6321468 C85.7959226,46.1021548 83.6370193,48.6335067 81.3883575,51.952185 Z" id="Hair" fill="#191847"></path>
            </g>
            <g id="Bottom/Standing/Baggy-Pants" transform="translate(0.000000, 218.435876)">
                <polygon id="Leg" fill="#997659" points="145.152001 0 198.318405 134.045997 233.977332 247.370589 248.05827 247.370589 193.543607 5.49273047e-13"></polygon>
                <path d="M134.446096,0 C133.87995,47.1046838 125.623459,110.523495 124.304351,113.459761 C123.424945,115.417272 93.0664339,140.310433 33.2288184,188.139245 L42.9271567,198.47754 C113.529999,157.470335 150.464997,134.232057 153.732149,128.762706 C158.632877,120.55868 174.58796,45.0641603 187.397732,0 L134.446096,0 Z" id="Leg" fill="#B28B67"></path>
                <g id="Accessories/Shoe/Flat-Sneaker" transform="translate(55.786030, 203.938854) rotate(50.000000) translate(-55.786030, -203.938854) translate(22.747702, 182.358023)" fill="#E4E4E4">
                    <path d="M2.90101634,27.5159711 C1.68915471,30.7510048 1.08322389,33.1715576 1.08322389,34.7776295 C1.08322389,36.7309922 1.40863973,39.5814342 2.05947141,43.3289555 C4.32550923,43.3289555 24.6907726,43.3289555 63.1552616,43.3289555 C64.7429247,38.080202 63.8264335,35.2465689 60.4057881,34.8280561 C56.9851428,34.4095434 54.1435546,34.0316599 51.8810236,33.6944057 L23.4842859,21.0349984 C22.9378762,20.7914062 22.2974531,21.0368884 22.053861,21.5832981 C22.0496938,21.5926456 22.0456593,21.6020518 22.0417587,21.6115137 L20.2164382,26.0392887 C17.0498153,27.5167596 14.4766054,28.2554951 12.4968086,28.2554951 C10.8882707,28.2554951 8.66686616,27.6058583 5.8325951,26.3065849 L5.83260102,26.3065719 C4.74493521,25.8079692 3.45901046,26.2854991 2.96040771,27.373165 C2.9389172,27.420045 2.91910746,27.4676773 2.90101634,27.5159711 Z" id="shoe"></path>
                </g>
                <g id="Accessories/Shoe/Flat-Sneaker" transform="translate(225.310568, 214.729269)" fill="#E4E4E4">
                    <path d="M2.90101634,27.5159711 C1.68915471,30.7510048 1.08322389,33.1715576 1.08322389,34.7776295 C1.08322389,36.7309922 1.40863973,39.5814342 2.05947141,43.3289555 C4.32550923,43.3289555 24.6907726,43.3289555 63.1552616,43.3289555 C64.7429247,38.080202 63.8264335,35.2465689 60.4057881,34.8280561 C56.9851428,34.4095434 54.1435546,34.0316599 51.8810236,33.6944057 L23.4842859,21.0349984 C22.9378762,20.7914062 22.2974531,21.0368884 22.053861,21.5832981 C22.0496938,21.5926456 22.0456593,21.6020518 22.0417587,21.6115137 L20.2164382,26.0392887 C17.0498153,27.5167596 14.4766054,28.2554951 12.4968086,28.2554951 C10.8882707,28.2554951 8.66686616,27.6058583 5.8325951,26.3065849 L5.83260102,26.3065719 C4.74493521,25.8079692 3.45901046,26.2854991 2.96040771,27.373165 C2.9389172,27.420045 2.91910746,27.4676773 2.90101634,27.5159711 Z" id="shoe"></path>
                </g>
                <polygon id="Pant" fill="#69A1AC" points="180.898389 235.698164 247.846461 228.460426 198.229971 2.84217094e-14 138.267109 2.84217094e-14"></polygon>
                <path d="M47.0768647,171.46022 L90.9908065,223.238549 C137.244415,172.916367 164.21039,140.081135 171.888731,124.732851 C179.567071,109.384568 186.469509,67.8069508 192.596043,0 L125.088686,0 C121.742062,59.6535976 119.486205,90.8683833 118.321114,93.6443571 C117.156023,96.4203309 93.4079397,122.358952 47.0768647,171.46022 Z" id="Pant" fill="#89C5CC"></path>
            </g>
            <g id="Body/Hoodie" transform="translate(161.379703, 207.081536) rotate(-10.000000) translate(-161.379703, -207.081536) translate(22.744790, 105.973841)">
                <path d="M206.658758,99.3936359 L241.211727,124.641647 C250.583204,127.157953 258.41277,130.288662 264.700425,134.033775 C266.185678,135.380493 267.980746,138.107822 261.821041,137.636471 C255.661337,137.165121 249.160948,136.944991 248.311029,139.035621 C247.461109,141.126251 251.188629,143.626416 249.470571,146.447224 C248.3252,148.327762 242.914004,143.612382 233.236983,132.301082 L199.02048,118.182257 L206.658758,99.3936359 Z M73.9927793,100.265007 L96.6293333,100.353587 C82.6523057,145.251568 75.1067877,169.074156 73.9927793,171.821349 C71.4862604,178.002536 76.7903914,187.416376 79.0586484,192.475303 C71.6710111,195.764766 72.4581718,183.582541 63.1388661,187.896855 C54.632636,191.834761 48.161968,198.969984 38.3342483,192.935851 C37.1259879,192.19399 35.8019313,189.400748 39.0010193,187.217978 C46.9711142,181.779901 58.4565037,172.262287 60.0083607,169.129491 C62.124595,164.857363 66.7860678,141.902535 73.9927793,100.265007 Z" id="Skin" fill="#B28B67"></path>
                <path d="M132.97336,10.3481797 L142.165152,7.93920655 C179.390049,34.6706661 198.612235,90.5999133 243.699051,117.174215 L234.587047,130.66642 C160.172962,128.036954 135.824211,59.8956426 132.97336,10.3481797 Z" id="Coat-Back" fill="#E87613" transform="translate(188.336205, 69.302813) rotate(5.000000) translate(-188.336205, -69.302813) "></path>
                <path d="M97.4901498,122.87921 C135.047424,122.87921 162.673768,122.87921 180.369181,122.87921 C184.15633,122.87921 183.442714,117.437641 182.895259,114.691796 C176.576962,83.0014209 151.912731,48.8407301 151.912731,3.730279 L128.006517,0 C108.233006,31.6450688 101.394984,70.6065558 97.4901498,122.87921 Z" id="Shirt" fill="#DDE3E9"></path>
                <path d="M98.1561606,31.1056416 C94.684083,30.112508 91.934557,27.7962104 89.9075826,24.1567487 C81.1698189,8.46796831 84.3254343,-0.169867342 93.6633326,-3.0091727 C103.001231,-5.84847805 111.328681,-2.26485497e-14 126.206449,-7.99360578e-15 C127.015676,-7.54951657e-15 127.756836,0.0504802177 128.42993,0.151440653 L135.91382,0.576389666 C157.385916,72.9893825 163.307792,121.302204 153.679448,145.514854 L88.4471954,145.514854 C84.5822537,154.482742 80.8838308,162.027956 77.3519265,168.150498 L59.5773138,168.150498 C57.9044729,114.328424 70.7640886,68.6468053 98.1561606,31.1056416 Z" id="Coat-Front" fill="#FF9B21"></path>
                <path d="M102.651959,108.325175 C104.703501,125.405805 108.037943,137.802365 112.655284,145.514854 L88.4471954,145.514854 C92.9555418,135.054064 97.6904629,122.657504 102.651959,108.325174 Z" id="Shade" fill-opacity="0.1" fill="#000000"></path>
            </g>
        </g>
    </g>
</svg>