<?xml version="1.0" encoding="UTF-8"?>
<svg width="380px" height="480px" viewBox="0 0 380 480" version="1.1" xmlns="http://www.w3.org/2000/svg" xmlns:xlink="http://www.w3.org/1999/xlink">
    <!-- Generator: Sketch 52.4 (67378) - http://www.bohemiancoding.com/sketch -->
    <title>humaaans/standing-16</title>
    <desc>Created with Sketch.</desc>
    <g id="humaaans/standing-16" stroke="none" stroke-width="1" fill="none" fill-rule="evenodd">
        <g id="humaaan-4" transform="translate(28.000000, 9.000000)">
            <g id="Head/Front/Curly" transform="translate(88.812991, 0.000000)">
                <g id="Head" stroke-width="1" transform="translate(58.494090, 33.579940)" fill="#B28B67">
                    <path d="M8.94989243,37.3605292 C3.95849475,31.501641 0.580212404,24.3214928 1.14472537,16.2759306 C2.77124441,-6.90557456 35.0407011,-1.80593879 41.3177785,9.89409432 C47.5948559,21.5941274 46.8489759,51.2722317 38.7364127,53.363354 C35.5011336,54.1972907 28.6090274,52.1544798 21.5944711,47.9264891 L25.9973733,79.0753437 L0,79.0753437 L8.94989243,37.3605292 Z"></path>
                </g>
                <path d="M111.329093,27.2543872 C110.790741,25.3620614 109.342712,23.7418361 107.391249,23.2611607 C106.918022,23.1445665 106.4293,23.0974736 105.942363,23.1171075 C105.767696,23.124079 105.71871,23.1744443 105.637089,23.0523013 C105.576535,22.9617434 105.575178,22.7405062 105.550256,22.6340846 C105.472706,22.3031535 105.375733,21.9763483 105.256052,21.6580084 C104.847736,20.5722384 104.161567,19.6113145 103.334367,18.8018421 C101.78715,17.2874692 99.696583,16.2423186 97.5246099,16.0532354 C96.335866,15.9498017 95.1557625,16.1429397 94.0319292,16.5296426 C93.4500895,16.7298232 92.8858877,16.9790886 92.3363962,17.2546749 C92.1709418,17.3376211 91.6341611,17.7438867 91.4681354,17.7175659 C91.2847574,17.6885418 90.916216,17.2328357 90.7671142,17.1184468 C88.9241219,15.7044488 86.6482489,15.14851 84.3526669,15.1655119 C81.761595,15.1846478 79.266568,15.3141179 77.1055918,16.8936526 C76.6481464,17.2280695 76.2124807,17.5942137 75.7976664,17.9797072 C75.5792266,18.1826622 75.367642,18.3932289 75.1658404,18.6125454 C75.0440883,18.744861 74.9255495,18.8801643 74.8114381,19.0190957 C74.6177771,19.2549161 74.64884,19.3323847 74.3777718,19.1678439 C73.3377726,18.5360016 72.1326046,18.2404969 70.9187247,18.389672 C70.1979232,18.4783092 69.4966164,18.6947091 68.8307284,18.9795433 C68.6040051,19.0765035 68.0792211,19.4632775 67.8375734,19.4670478 C67.5978537,19.470747 67.0804248,19.1122145 66.8334929,19.0210875 C65.4997888,18.5287456 64.0622562,18.4073852 62.6604281,18.6348826 C61.2143979,18.869636 59.793932,19.4465603 58.5687695,20.243797 C57.9795033,20.6272987 57.4653592,21.0522024 57.0524015,21.6224397 C56.8740935,21.8686462 56.7129236,22.1290802 56.5108364,22.3573601 C56.3925119,22.4910273 56.1582193,22.6281802 56.0947367,22.7973449 C56.1327263,22.6960453 54.5133152,22.0717435 54.3605002,22.0318354 C53.5463673,21.8192058 52.7173814,21.862315 51.9201724,22.1246697 C50.4210854,22.6180076 49.1318691,23.7243363 48.0723038,24.8586221 C47.5280966,25.4412373 47.0518706,26.0852441 46.6476248,26.7713643 C46.4538925,27.1000191 46.276727,27.438064 46.1146288,27.7832937 C46.036079,27.9505378 45.9840219,28.1597528 45.8805504,28.3104218 C45.7471586,28.5045558 45.6575404,28.5082549 45.4159641,28.5929084 C44.1890878,29.0227206 43.0706816,29.7502427 42.2189876,30.7332903 C41.3575106,31.7278622 40.7985218,32.9526348 40.5641578,34.2424268 C40.5503758,34.3184016 40.5421638,34.6332557 40.4976761,34.6743731 C40.4366929,34.7309985 40.1899751,34.7059581 40.0966437,34.7169133 C39.773447,34.7548295 39.4525354,34.8112415 39.1359083,34.8862203 C38.552212,35.0243691 37.9840828,35.2276798 37.4466594,35.4935913 C35.3516651,36.5301343 33.8535063,38.4733945 33.1202797,40.6600157 C32.3509202,42.9547658 32.3645593,45.5837904 33.2840917,47.8357158 C33.4326223,48.1994413 33.6093593,48.5524962 33.816945,48.8864862 C33.9444098,49.0915042 33.9855414,49.0920022 33.9027785,49.3071217 C33.8105182,49.5464278 33.6419932,49.778976 33.5324519,50.0128046 C33.1750504,50.7758954 32.9251906,51.5852256 32.7673769,52.4118421 C32.5084483,53.7677919 32.3801265,55.1927451 32.6355561,56.5590099 C32.7541663,57.1934132 32.9608236,57.813589 33.2760939,58.3786333 C33.4368354,58.6667397 33.6249264,58.9399785 33.8372965,59.1927296 C33.9475518,59.3239781 34.0646624,59.4493222 34.1871287,59.5694021 C34.2571808,59.6379786 34.3490127,59.6980185 34.4085677,59.7746335 C34.5539562,59.9614403 34.5845192,59.8078547 34.5095399,60.0821605 C34.4047116,60.4656622 34.1670628,60.8440419 34.0215315,61.2172287 C33.8715728,61.6017975 33.7360387,61.9916304 33.6120728,62.3853047 C33.3609991,63.1824704 33.1487005,63.9940769 33.0159513,64.8196264 C32.7610215,66.4046386 32.8057949,68.0935115 33.555517,69.5482001 C33.8760715,70.1704389 34.3359448,70.7162761 34.8937198,71.1408952 C35.166716,71.3486164 35.4624203,71.5276692 35.7726205,71.6747102 C35.9320052,71.7504004 36.1355206,71.782839 36.2082148,71.9369938 C36.286479,72.1027439 36.1702967,72.4318966 36.143804,72.6172095 C35.9132961,74.2293252 35.797685,75.9219683 36.2769102,77.5017876 C36.7182886,78.956903 37.6900923,80.2416443 38.9518162,81.0922341 C41.3994991,82.742266 44.6988759,82.6492183 47.2707389,81.328268 C47.9411256,80.9838919 48.56831,80.5563561 49.1277988,80.0520631 C50.5524777,81.9699273 53.4841702,81.9092471 55.5663823,81.3627696 C58.1605248,80.6819848 60.2420943,78.8781539 61.4414068,76.5081404 C63.0813122,78.5044691 66.5229356,77.8567632 67.6601223,75.6910563 C67.9384742,75.1610116 68.1035716,74.5768313 68.1848349,73.9856796 C68.2276088,73.6748092 68.2003306,73.3612355 68.2324646,73.0528549 C68.2734533,72.659892 68.5359525,72.2780264 68.6868395,71.8978682 C68.9806871,71.1580393 69.1631368,70.3938103 69.1709918,69.595791 C69.1750621,69.1791393 69.1222909,68.773087 69.082659,68.3597788 C69.047026,67.9877302 69.1502118,67.6410777 69.2088385,67.2738664 C68.5435218,67.383418 67.7329594,67.2040095 67.106132,67.0110849 C66.4910158,66.8217883 65.9148888,66.3231863 65.4807227,65.8678359 C64.4726432,64.8104496 63.8568128,63.4243375 63.4356431,62.04477 C62.5111121,59.016878 62.8900791,55.3841047 65.9355973,53.7223352 C67.3543494,52.948218 71.6047514,52.9507572 73.2945479,53.3333523 C75.0712951,53.7356342 77.0855259,57.6560908 77.1846415,58.0245825 C77.2459817,58.252649 77.2151331,58.5349221 77.4246468,58.6868716 C77.8850914,59.021004 78.6444536,58.4411631 78.9840744,58.1549773 C79.5701272,57.6610704 79.9881549,57.0039031 80.350198,56.3377726 C81.1390522,54.8865697 81.7750198,53.330297 82.2242532,51.7415856 C82.5705864,50.5167419 82.7920254,49.2536975 83.2446864,48.0600831 C83.6951338,46.8723732 84.4052239,45.8107899 85.5092769,45.1379724 C86.7103032,44.4060398 88.0869954,44.0205462 89.4054893,43.5605718 C90.712415,43.1047234 91.9967755,42.5475753 93.0098536,41.5803202 C93.2325779,41.3676194 93.4489469,41.1416159 93.6282547,40.8912122 C93.7697871,40.6935214 93.9096771,40.3150705 94.125332,40.1897264 C94.4605968,39.9947388 94.9498906,40.5018062 95.2398107,40.6859097 C96.670131,41.5943343 97.8634452,42.8612912 98.8258943,44.2453404 C99.7829878,45.621849 100.568329,46.9463561 101.20651,48.4834218 C101.67988,49.6233985 101.975312,51.0833512 102.807869,52.0175986 C103.179552,52.4347483 105.942363,52.6871125 106.837259,52.3229203 C107.732155,51.9587282 108.735093,51.0130675 109.035439,50.4204219 C109.342926,49.8138333 109.416406,49.1474893 109.285013,48.4834218 C109.207749,48.0927352 109.049935,47.7278004 108.963602,47.3440853 C108.890907,47.0217617 108.824926,46.7170803 108.66804,46.421789 C108.370694,45.8622222 107.862691,45.4600114 107.250074,45.2918426 C107.887612,44.7040343 108.415895,44.0008412 108.781438,43.214773 C109.161262,42.3981157 109.483173,41.4049665 109.574505,40.5086353 C109.64877,39.7806153 109.534159,39.0263455 109.135626,38.4006921 C108.717527,37.7443785 107.976874,37.3162025 107.33605,36.9068068 C108.314923,36.1409416 109.152692,35.2095397 109.841431,34.1783321 C111.180848,32.1729689 112.009334,29.6451728 111.329093,27.2543872 Z" id="hair" fill="#191847"></path>
            </g>
            <g id="Bottom/Standing/Skinny-Jeans-Walk" transform="translate(0.000000, 202.587623)">
                <polygon id="Leg" fill="#1F28CF" points="138.652658 0 190.735838 137.815227 227.242313 239.392479 248.05827 239.392479 197.876502 1.06311617e-13"></polygon>
                <path d="M125.780305,0 C125.214159,47.2872601 125.623459,110.951881 124.304351,113.899528 C123.424945,115.864626 96.0720716,138.254361 42.2457316,181.068734 L52.9750428,199.313195 C116.879295,158.102805 150.464997,134.752336 153.732149,129.261786 C158.632877,121.025962 183.253751,45.2388276 196.063524,0 L125.780305,0 Z" id="Leg" fill="#2B44FF"></path>
                <g id="Accessories/Shoe/Flat-Pointy" transform="translate(61.202150, 204.729315) rotate(50.000000) translate(-61.202150, -204.729315) translate(28.163821, 183.064837)" fill="#191847">
                    <path d="M0,43.3289555 L1.08322389,20.5812538 L23.8309255,20.5812538 C34.6172392,28.1638211 48.6991498,34.3020897 66.0766571,38.9960599 L66.0766571,43.3289555 L24.9141494,43.3289555 L10.8322389,41.1625077 L10.8322389,43.3289555 L0,43.3289555 Z" id="Shoe"></path>
                </g>
                <g id="Accessories/Shoe/Flat-Pointy" transform="translate(225.310568, 215.561553)" fill="#191847">
                    <path d="M0,43.3289555 L1.08322389,20.5812538 L23.8309255,20.5812538 C34.6172392,28.1638211 48.6991498,34.3020897 66.0766571,38.9960599 L66.0766571,43.3289555 L24.9141494,43.3289555 L10.8322389,41.1625077 L10.8322389,43.3289555 L0,43.3289555 Z" id="Shoe"></path>
                </g>
            </g>
            <g id="Body/Long-Sleeve" transform="translate(23.827876, 88.835214)">
                <path d="M207.978986,70.7462077 L250.747781,64.9123699 C259.303275,60.1536175 267.173914,56.9320254 274.359699,55.2475935 C276.381854,55.1885525 279.598713,55.9236576 274.806484,59.9187425 C270.014256,63.9138273 265.151864,68.3332254 266.005694,70.4653324 C266.859524,72.5974395 271.316236,71.8041528 272.054537,75.0835147 C272.546737,77.269756 265.313765,77.6249984 250.35562,76.149242 L215.652408,89.9075826 L207.978986,70.7462077 Z M73.6265022,80.6456754 L97.34628,80.7346944 C71.3368998,139.265404 57.7752055,169.911156 56.6611971,172.67195 C54.1546783,178.883737 59.4588093,188.344179 61.7270662,193.428151 C54.3394289,196.733899 55.1265896,184.491366 45.8072839,188.827038 C37.3010538,192.784439 30.8303858,199.954983 21.0026661,193.890979 C19.7944057,193.145445 18.4703491,190.338376 21.6694371,188.1448 C29.639532,182.679802 41.1249215,173.115071 42.6767785,169.966765 C44.7930128,165.673489 55.1095873,135.899792 73.6265022,80.6456754 Z" id="Skin" fill="#997659"></path>
                <path d="M133.749518,10.4739877 L152.358488,10.087855 C160.521489,50.9122173 187.618435,74.7789425 242.415176,61.1024342 L254.442087,113.542588 C203.092642,124.79867 155.724813,107.990411 141.464466,52.5088972 C137.772913,38.146486 134.537901,23.1465205 133.749518,10.4739877 Z" id="Clothes-Back" fill="#AFB9C5" transform="translate(194.095802, 63.467680) rotate(5.000000) translate(-194.095802, -63.467680) "></path>
                <path d="M129.435307,0.0172661052 L157.573984,6.46173007 C157.573984,54.8592504 172.990882,85.7376678 180.898389,121.321075 L104.903359,121.321075 C103.832837,133.61664 103.175438,146.254252 102.83287,159.233911 L45.9304646,159.233911 C58.8248689,90.6268035 86.0405938,37.548833 127.577639,0 L129.420507,0 L129.435307,0.0172661052 Z" id="Clothes" fill="#C5CFD6"></path>
                <path d="M116.893347,52.2755716 C114.934889,82.4339105 116.086714,105.449078 120.348823,121.321075 L104.903359,121.321075 C107.024062,96.963597 110.766008,73.9484329 116.893344,52.2755831 Z" id="Shade" fill-opacity="0.1" fill="#000000"></path>
            </g>
        </g>
    </g>
</svg>