<?xml version="1.0" encoding="UTF-8"?>
<svg width="380px" height="480px" viewBox="0 0 380 480" version="1.1" xmlns="http://www.w3.org/2000/svg" xmlns:xlink="http://www.w3.org/1999/xlink">
    <!-- Generator: Sketch 52.4 (67378) - http://www.bohemiancoding.com/sketch -->
    <title>humaaans/standing-14</title>
    <desc>Created with Sketch.</desc>
    <g id="humaaans/standing-14" stroke="none" stroke-width="1" fill="none" fill-rule="evenodd">
        <g id="humaaan-7" transform="translate(26.000000, -1.000000)">
            <g id="Head/Front/Hijab-1" transform="translate(207.705688, 79.110322) rotate(20.000000) translate(-207.705688, -79.110322) translate(133.956747, 22.827274)">
                <g id="Head" transform="translate(58.494090, 33.579940)" fill="#B28B67">
                    <path d="M8.94989243,37.3605292 C3.95849475,31.501641 0.580212404,24.3214928 1.14472537,16.2759306 C2.77124441,-6.90557456 35.0407011,-1.80593879 41.3177785,9.89409432 C47.5948559,21.5941274 46.8489759,51.2722317 38.7364127,53.363354 C35.5011336,54.1972907 28.6090274,52.1544798 21.5944711,47.9264891 L25.9973733,79.0753437 L0,79.0753437 L8.94989243,37.3605292 Z"></path>
                </g>
                <g id="Hijab" transform="translate(38.996060, 30.330269)">
                    <path d="M54.9573641,5.42854599 C54.3618841,5.0731358 53.116036,4.32346981 52.4848776,4.05176683 C52.3355179,3.98638648 51.2897421,3.24030641 51.2616191,3.24976074 C50.4698378,3.51688201 48.1770637,4.50311226 47.9802727,5.35531127 C47.9497711,5.41989164 47.9198292,5.48047209 47.8906568,5.53341636 C47.5657733,6.12402125 47.2676835,6.72931672 46.9833055,7.34195748 C46.3592828,8.68679995 45.8206085,10.0923683 45.3061395,11.4868824 C44.3040654,14.2027486 43.4335118,16.9818861 42.6331257,19.7673507 C41.8182584,22.6029232 41.1266566,25.471586 40.3524347,28.3188673 C39.2383583,32.4159388 37.8124805,36.4125034 36.7060994,40.5079022 C35.9995966,43.1228979 35.6066442,45.7685838 35.792172,48.4600142 C35.7939909,48.4923771 35.7950403,48.5243037 35.7979785,48.5571756 C35.7990978,48.5706299 35.8007768,48.5839387 35.8019661,48.5973929 C35.833517,49.0111291 35.8784998,49.4258834 35.9384536,49.841874 C35.9909218,50.1975751 36.04353,50.5545853 36.0996361,50.9115227 C37.1102451,48.8962953 37.8818086,46.6757634 38.7005935,44.5681745 C38.7806951,44.3618519 38.8570889,44.154002 38.9317337,43.9454976 C39.1957541,43.518089 39.4649513,43.0937349 39.7371567,42.6709808 C41.4537788,40.0051499 43.1771868,37.3491369 44.8232915,34.6350889 C47.7840413,29.7536714 50.7171578,24.7690563 54.2273555,20.286539 C55.2638488,18.9628597 56.3244775,17.6594708 57.3479586,16.3249554 C57.9303565,15.5655543 58.4976435,14.7934262 59.0465316,14.007553 C59.4389244,13.445602 61.1448808,11.4868824 60.5271164,10.3100362 C60.211042,9.70791177 56.5021001,6.35063433 54.9573641,5.42854599 Z" id="Front" fill="#2C2C2C"></path>
                    <path d="M52.6728632,4.15001051 C53.2519553,4.34461517 52.9702206,3.13957354 52.4093228,2.71551695 C49.810803,0.750953282 39.8763452,0.0380536129 31.2311678,1.83268892 C25.4397091,3.0349264 18.7040965,6.0272341 14.0782865,9.87408202 C9.90824309,13.3420244 7.04039681,18.9013178 5.56389551,24.2725288 C4.01361903,29.9124052 3.77882154,35.7921949 4.64252562,41.5756147 C4.83227393,42.8459775 5.23999757,44.0565968 5.46716806,45.3000136 C5.72299326,46.7002663 5.8542204,48.048433 6.31027212,49.4107589 C6.58954856,50.2447845 7.06413317,51.0624112 7.3024234,51.9012047 C7.57442924,52.8583293 7.40863113,53.7437906 7.2102579,54.7173141 C6.88700149,56.3040214 6.48619204,57.887478 5.91659071,59.4028832 C5.06122643,61.6784834 4.02324188,63.8097455 3.37245223,66.1711683 C2.50653845,69.3132303 -1.11562733,79.5380277 1.53144974,82.3250154 L51.9215112,82.3250154 C50.6526495,78.8638636 46.8439182,74.7904194 46.0728785,71.0853088 C45.6187514,68.9026832 45.4027006,64.1361316 45.3551566,63.962897 C44.2196108,56.1351936 42.0023595,52.3971247 40.613683,51.0405328 C39.2250065,49.683941 37.375392,49.2667821 37.2800902,48.0900439 C36.8861949,43.2231492 38.8215279,38.5599026 40.2406485,34.0177324 C41.9319888,28.604188 43.1714829,23.056347 44.915143,17.6611518 C45.6872518,15.2720606 49.6660693,3.13957354 52.6728632,4.15001051 Z" id="Turban" fill="#8991DC"></path>
                    <path d="M35.0055017,9.74901498 C33.105318,15.7781861 32.6966305,18.9965357 33.105318,27.2345325 L32.1731792,27.2345325 C30.4318467,19.4603397 31.9816466,12.1417559 33.8339112,9.74901498 L35.0055017,9.74901498 Z M9.51297004,25.3087768 C13.0539988,33.9009817 14.6685092,38.9748053 24.5568412,45.9277725 L23.7932778,46.4624253 C13.976973,40.8991285 11.1183637,34.2630319 8.76815887,25.666722 L9.51297004,25.3087768 Z M24.0621457,16.5649905 C25.6704719,28.7607509 26.1400207,35.7269788 34.5184954,49.067483 L33.6270866,49.340014 C25.0041927,37.7245117 23.6373319,28.2440849 23.229943,16.6319705 L24.0621457,16.5649905 Z M14.8070785,52.7923434 L15.5697434,51.8652288 C25.9766397,55.1249007 24.8174124,61.8546482 37.9249764,68.6700185 L36.8296121,69.3337104 C25.3522346,64.5970433 22.6692413,54.4377768 14.8070785,52.7923434 Z" id="Shade" fill-opacity="0.2" fill="#000000"></path>
                </g>
            </g>
            <g id="Bottom/Standing/Jogging" transform="translate(0.000000, 222.255541)">
                <polygon id="Leg" fill="#997659" points="140.819105 0 221.309587 134.565555 281.65429 248.32939 294.652004 248.32939 193.543607 5.51402013e-13"></polygon>
                <g id="Accessories/Shoe/Flat-Sneaker" transform="translate(270.805972, 215.561553)" fill="#E4E4E4">
                    <path d="M2.90101634,27.5159711 C1.68915471,30.7510048 1.08322389,33.1715576 1.08322389,34.7776295 C1.08322389,36.7309922 1.40863973,39.5814342 2.05947141,43.3289555 C4.32550923,43.3289555 24.6907726,43.3289555 63.1552616,43.3289555 C64.7429247,38.080202 63.8264335,35.2465689 60.4057881,34.8280561 C56.9851428,34.4095434 54.1435546,34.0316599 51.8810236,33.6944057 L23.4842859,21.0349984 C22.9378762,20.7914062 22.2974531,21.0368884 22.053861,21.5832981 C22.0496938,21.5926456 22.0456593,21.6020518 22.0417587,21.6115137 L20.2164382,26.0392887 C17.0498153,27.5167596 14.4766054,28.2554951 12.4968086,28.2554951 C10.8882707,28.2554951 8.66686616,27.6058583 5.8325951,26.3065849 L5.83260102,26.3065719 C4.74493521,25.8079692 3.45901046,26.2854991 2.96040771,27.373165 C2.9389172,27.420045 2.91910746,27.4676773 2.90101634,27.5159711 Z" id="shoe"></path>
                </g>
                <path d="M264.89488,230.11238 L289.960742,222.529813 C278.978705,189.699447 265.518659,153.570834 249.580605,114.143973 C233.64255,74.7171116 216.525672,36.6691207 198.229971,2.84217094e-14 L127.43487,2.84217094e-14 C147.775755,46.3847539 169.339822,88.531257 192.127069,126.439509 C214.914315,164.347762 239.170253,198.905385 264.89488,230.11238 Z" id="Pant" fill="#DB2721"></path>
                <path d="M135.52932,2.84217094e-14 C127.93253,47.2872601 113.280403,107.702209 111.897637,109.566632 C110.975793,110.809581 77.7891793,121.930063 12.3377948,142.928077 L15.1454578,154.389667 C93.1960803,143.128296 134.322102,134.391261 138.523523,128.178562 C144.825654,118.859514 176.293047,45.2388276 188.480956,2.84217094e-14 L135.52932,2.84217094e-14 Z" id="Leg" fill="#B28B67"></path>
                <path d="M35.3450622,133.02041 L40.2904549,151.480129 C98.667773,156.600183 134.436845,152.900622 147.597671,140.381446 C160.758498,127.862271 175.757955,81.0684551 192.596043,-1.13686838e-13 L125.088686,-1.13686838e-13 C114.42047,66.3841564 108.456243,100.969601 107.196005,103.756335 C105.935767,106.543068 81.9854524,116.29776 35.3450622,133.02041 Z" id="Pant" fill="#FF4133"></path>
                <g id="Accessories/Shoe/Flat-Sneaker" transform="translate(26.538985, 166.816479) rotate(80.000000) translate(-26.538985, -166.816479) translate(-6.499343, 145.152001)" fill="#E4E4E4">
                    <path d="M2.90101634,27.5159711 C1.68915471,30.7510048 1.08322389,33.1715576 1.08322389,34.7776295 C1.08322389,36.7309922 1.40863973,39.5814342 2.05947141,43.3289555 C4.32550923,43.3289555 24.6907726,43.3289555 63.1552616,43.3289555 C64.7429247,38.080202 63.8264335,35.2465689 60.4057881,34.8280561 C56.9851428,34.4095434 54.1435546,34.0316599 51.8810236,33.6944057 L23.4842859,21.0349984 C22.9378762,20.7914062 22.2974531,21.0368884 22.053861,21.5832981 C22.0496938,21.5926456 22.0456593,21.6020518 22.0417587,21.6115137 L20.2164382,26.0392887 C17.0498153,27.5167596 14.4766054,28.2554951 12.4968086,28.2554951 C10.8882707,28.2554951 8.66686616,27.6058583 5.8325951,26.3065849 L5.83260102,26.3065719 C4.74493521,25.8079692 3.45901046,26.2854991 2.96040771,27.373165 C2.9389172,27.420045 2.91910746,27.4676773 2.90101634,27.5159711 Z" id="shoe"></path>
                </g>
            </g>
            <g id="Body/Lab-Coat" transform="translate(167.600715, 210.103120) rotate(15.000000) translate(-167.600715, -210.103120) translate(28.779179, 108.901871)">
                <path d="M206.945687,95.511662 L239.762602,123.09659 C248.967965,126.257267 256.586395,129.923823 262.61789,134.096257 C264.010126,135.54279 265.615405,138.388076 259.481684,137.490311 C253.347963,136.592546 246.855487,135.921741 245.857491,137.948284 C244.859494,139.974826 248.415459,142.727638 246.496942,145.422319 C245.21793,147.218773 240.132178,142.139273 231.239686,130.183817 L197.976636,113.72432 L206.945687,95.511662 Z M58.3433969,83.5750219 L77.5984812,86.3475815 C56.929855,130.809941 45.8491595,154.324212 44.3563946,156.890395 C40.9976737,162.664304 44.947755,172.721085 46.49194,178.044905 C38.688056,180.279259 41.1803524,168.324603 31.312838,171.306323 C22.3062284,174.027899 14.8738503,180.197575 5.9536325,172.861149 C4.85694413,171.959179 3.93311862,169.009756 7.41889887,167.291262 C16.1032487,163.009867 28.8538821,155.175461 30.8359256,152.288065 C33.538796,148.350586 42.7079531,125.446238 58.3433969,83.5750219 Z" id="Skin" fill="#B28B67"></path>
                <path d="M133.740168,9.96224988 L145.285037,5.02518322 C164.902013,43.5489422 192.328278,80.0837406 235.359162,109.205342 L226.911067,127.068909 C189.798247,109.535816 154.972794,96.4403406 138.702546,66.6824917 C133.24183,56.6949883 134.455215,22.4130163 133.740168,9.96224988 Z" id="Coat-Back" fill="#C5CFD6" transform="translate(184.549665, 66.047046) rotate(5.000000) translate(-184.549665, -66.047046) "></path>
                <path d="M97.8420998,118.567659 C132.019787,122.160618 158.921376,122.160618 178.546866,118.567659 C180.978333,118.122515 181.361929,114.08622 180.234339,111.346852 C162.674833,68.6877568 150.633676,31.4652984 150.633676,1.83525203 C147.411728,3.44577902 141.773015,3.68713662 133.717536,2.55932483 C112.06856,33.0940403 102.117297,68.1291327 97.8420998,118.567659 Z" id="Shirt" fill="#323337"></path>
                <path d="M128.335565,7.16093851e-14 L137.357724,6.61692923e-14 C139.458442,12.2500559 146.084248,178.134529 166.53877,232.399042 L55.8627494,232.399042 C58.2621741,182.688232 77.1896665,122.973409 96.3633894,73.0035192 C79.4091218,88.3862479 64.6320837,114.451148 52.032275,151.198219 L31.3014502,145.921916 C46.7154981,80.0666734 78.406797,31.6628239 126.375347,0.710367798 C126.479218,0.472446517 126.582604,0.235654655 126.685497,7.26085858e-14 L127.483912,7.21644966e-14 C127.777782,-0.187006459 128.072257,-0.373364714 128.367337,-0.559074766 L128.335565,7.26085858e-14 Z" id="Coat-Front" fill="#DDE3E9"></path>
            </g>
        </g>
    </g>
</svg>