<?xml version="1.0" encoding="UTF-8"?>
<svg width="380px" height="480px" viewBox="0 0 380 480" version="1.1" xmlns="http://www.w3.org/2000/svg" xmlns:xlink="http://www.w3.org/1999/xlink">
    <!-- Generator: Sketch 52.4 (67378) - http://www.bohemiancoding.com/sketch -->
    <title>humaaans/standing-20</title>
    <desc>Created with Sketch.</desc>
    <defs>
        <path d="M92.7815866,38.0062733 C93.3391191,38.1936329 92.7815866,35.7948357 91.4481904,34.9175574 C87.3592556,32.2273336 75.1872857,28.2457103 66.8639677,29.9735315 C61.2881245,31.1310097 54.3341786,34.0363718 49.8805871,37.7400019 C45.8657941,41.0788331 42.212667,46.9650301 40.7911357,52.1362714 C39.2985759,57.5661756 38.7343912,65.121537 40.7911357,69.8589023 C43.2405562,75.5007306 51.9153586,81.5811829 52.1447773,82.3887481 C52.4066564,83.3102391 51.3813294,86.9103718 50.6309583,90.7038019 C49.8805871,94.4972319 50.2220926,104.15585 50.6309583,105.731198 C51.2843111,108.248548 54.7881739,109.486332 56.3163595,109.668436 C64.7641234,110.675103 70.8878684,121.162379 73.436395,123.845608 C84.7805925,135.235022 92.6978323,140.188188 97.1881144,138.705108 C98.3699311,138.314769 96.5984933,124.162831 95.4166766,118.097164 C94.23486,112.031496 82.6441624,101.207053 81.9018285,97.6398836 C81.4646085,95.5385169 81.3916265,91.880488 81.3458526,91.713703 C80.252583,84.1774244 80.4408966,83.5648194 78.8463368,80.4938753 C77.251777,77.4229312 76.0155049,77.2426836 76.3987205,76.3481578 C78.2712277,71.977234 84.2935422,58.6036339 85.6598291,54.2305684 C87.288201,49.0185698 86.518665,50.7304963 88.1974087,45.5361638 C88.940772,43.2360183 89.8867353,37.0334549 92.7815866,38.0062733 Z" id="path-1"></path>
    </defs>
    <g id="humaaans/standing-20" stroke="none" stroke-width="1" fill="none" fill-rule="evenodd">
        <g id="humaaan-10" transform="translate(34.000000, 18.000000)">
            <g id="Head/Front/Hijab2" transform="translate(85.439497, 0.000000)">
                <g id="Head" stroke-width="1" fill-rule="evenodd" transform="translate(56.316359, 32.329762)" fill="#B28B67">
                    <path d="M8.61668863,35.9695996 C3.8111203,30.3288374 0.558611141,23.4160055 1.10210733,15.6699789 C2.66807119,-6.64848056 33.7361385,-1.73870383 39.7795208,9.52573796 C45.8229031,20.7901798 45.1047922,49.3633705 37.294259,51.3766405 C34.1794292,52.1795298 27.5439155,50.2127726 20.7905107,46.1421897 L25.0294931,76.1313749 L0,76.1313749 L8.61668863,35.9695996 Z"></path>
                </g>
                <mask id="mask-2" fill="white">
                    <use xlink:href="#path-1"></use>
                </mask>
                <use id="Hijab" fill="#89C5CC" fill-rule="evenodd" xlink:href="#path-1"></use>
                <path d="M71.2464893,38.5871352 C69.4170493,44.3918407 69.0235772,47.4903714 69.4170493,55.4216682 L68.5196139,55.4216682 C66.8431111,47.936908 68.335212,40.8907946 70.118517,38.5871352 L71.2464893,38.5871352 Z M46.7030426,53.5676083 C50.1122391,61.8399261 51.6666414,66.7248516 61.1868316,73.4189604 L60.4516956,73.9337082 C51.000851,68.5775325 48.2486675,62.1884972 45.9859607,53.9122272 L46.7030426,53.5676083 Z M60.7105536,45.1493525 C62.2590019,56.8910657 62.7110694,63.5979415 70.7776142,76.4417797 L69.9193925,76.7041644 C61.6175283,65.5211064 60.3015555,56.3936351 59.9093337,45.2138389 L60.7105536,45.1493525 Z M51.8000518,80.0279639 L52.5343228,79.1353657 C62.5537711,82.2736802 61.4377018,88.7528797 74.0572721,95.3145144 L73.0026882,95.953497 C61.9526125,91.3931757 59.3695068,81.6121379 51.8000518,80.0279639 Z" id="Shade" fill-opacity="0.2" fill="#000000" fill-rule="evenodd" mask="url(#mask-2)"></path>
            </g>
            <g id="Bottom/Standing/Sprint" transform="translate(0.000000, 194.763541)">
                <path d="M216.369041,-10.0727044 C196.423859,6.18867371 204.011561,148.763054 202.680276,150.558065 C202.088594,151.355848 170.480298,158.144276 107.855391,170.923349 L110.558525,181.958225 C183.813718,178.322541 222.576083,173.785976 226.845617,168.348531 C232.958368,160.563665 240.513402,117.025606 249.510719,37.7343524 L216.369041,-10.0727044 Z" id="Leg" fill="#B28B67" transform="translate(178.683055, 85.942760) rotate(-55.000000) translate(-178.683055, -85.942760) "></path>
                <path d="M118.410452,159.31044 L123.171728,177.082905 C177.777854,183.353061 213.77612,175.591864 226.44697,163.538776 C234.894203,155.503384 242.468693,112.083653 249.170439,33.2795813 L213.716837,-17.3534084 C166.238637,18.4658455 194.538929,135.722899 193.325609,138.405883 C192.11229,141.088866 163.314424,143.210373 118.410452,159.31044 Z" id="Pant" fill="#2F3676" transform="translate(183.790445, 80.977311) rotate(-55.000000) translate(-183.790445, -80.977311) "></path>
                <g id="Accessories/Shoe/Flat-Sneaker" transform="translate(232.966090, 195.312561) rotate(20.000000) translate(-232.966090, -195.312561) translate(201.157776, 174.454650)" fill="#E4E4E4">
                    <path d="M2.79301173,26.4915537 C1.62626761,29.6061473 1.04289555,31.9365831 1.04289555,33.4828611 C1.04289555,35.3635003 1.35619618,38.1078205 1.98279745,41.7158218 C4.16447086,41.7158218 23.7715371,41.7158218 60.8039962,41.7158218 C62.3325506,36.662479 61.4501804,33.9343419 58.1568854,33.5314103 C54.8635904,33.1284788 52.1277943,32.7646639 49.9494971,32.4399656 L22.6099678,20.2518671 C22.0839009,20.0173438 21.4673207,20.2536867 21.2327974,20.7797536 C21.2287854,20.7887531 21.2249011,20.7978091 21.2211457,20.8069187 L19.4637818,25.069848 C16.415052,26.4923128 13.9376425,27.2035452 12.0315534,27.2035452 C10.4829012,27.2035452 8.34419941,26.5780944 5.61544804,25.3271928 L5.61545374,25.3271803 C4.56828164,24.8471405 3.33023177,25.3068921 2.85019196,26.3540642 C2.82950154,26.3991988 2.81042931,26.4450579 2.79301173,26.4915537 Z" id="shoe"></path>
                </g>
                <polygon id="Leg" fill="#997659" points="135.576421 0 81.6107873 129.55569 28.5709689 239.084106 41.0847787 239.084106 177.994829 0"></polygon>
                <g id="Accessories/Shoe/Flat-Sneaker" transform="translate(25.029493, 207.536214)" fill="#E4E4E4">
                    <path d="M2.79301173,26.4915537 C1.62626761,29.6061473 1.04289555,31.9365831 1.04289555,33.4828611 C1.04289555,35.3635003 1.35619618,38.1078205 1.98279745,41.7158218 C4.16447086,41.7158218 23.7715371,41.7158218 60.8039962,41.7158218 C62.3325506,36.662479 61.4501804,33.9343419 58.1568854,33.5314103 C54.8635904,33.1284788 52.1277943,32.7646639 49.9494971,32.4399656 L22.6099678,20.2518671 C22.0839009,20.0173438 21.4673207,20.2536867 21.2327974,20.7797536 C21.2287854,20.7887531 21.2249011,20.7978091 21.2211457,20.8069187 L19.4637818,25.069848 C16.415052,26.4923128 13.9376425,27.2035452 12.0315534,27.2035452 C10.4829012,27.2035452 8.34419941,26.5780944 5.61544804,25.3271928 L5.61545374,25.3271803 C4.56828164,24.8471405 3.33023177,25.3068921 2.85019196,26.3540642 C2.82950154,26.3991988 2.81042931,26.4450579 2.79301173,26.4915537 Z" id="shoe"></path>
                </g>
                <path d="M33.3607151,216.330836 L61.1665391,221.545314 C82.6659242,189.93722 172.641729,60.3334253 182.506721,2.84217094e-14 L120.604689,2.84217094e-14 C87.6604606,43.6149576 53.8540692,184.199884 33.3607151,216.330836 Z" id="Pant" fill="#5C63AB"></path>
            </g>
            <g id="Body/Pointing-Up" transform="translate(22.922792, 85.404334)">
                <path d="M199.668863,2.44123356 L239.198542,-9.42526828 C246.572836,-15.1658299 253.528488,-19.363059 260.065496,-22.0169557 C261.966688,-22.374806 265.114198,-22.1669752 261.18099,-17.7052207 C257.247782,-13.2434662 253.311298,-8.37347903 254.434295,-6.50264613 C255.557292,-4.63181323 259.648952,-6.04212135 260.833156,-3.07860892 C261.622626,-1.10293397 254.843711,0.312085792 240.496413,1.16645037 L209.761305,19.2545221 L199.668863,2.44123356 Z M196.175801,72.1351297 L229.442366,96.5634964 C238.464943,98.9981133 246.003015,102.027188 252.056581,105.65072 C253.486539,106.953719 255.214777,109.592509 249.284397,109.13646 C243.354018,108.680411 237.095639,108.467427 236.277361,110.490188 C235.459084,112.512948 239.047829,114.931948 237.393734,117.661182 C236.291005,119.480671 231.081267,114.91837 221.764521,103.974277 L188.821895,90.313802 L196.175801,72.1351297 Z" id="Skin" fill="#B28B67"></path>
                <path d="M132.432024,16.321235 C158.673216,44.2604367 190.678651,62.4919975 234.329,78.6632764 L224.635589,98.0463857 C179.598464,93.8000291 155.520806,90.4086278 136.645253,62.4263319 C131.907872,55.403343 123.437153,31.2385563 118.362569,18.6897459 L132.432024,16.321235 Z" id="Coat-Back" fill="#2026A2" transform="translate(176.345785, 57.183810) rotate(15.000000) translate(-176.345785, -57.183810) "></path>
                <path d="M93.8605991,118.890092 L174.163556,118.890092 C155.973592,63.4136611 146.681467,25.3380875 146.287183,4.66337155 C146.267082,3.60935455 144.320452,1.75202773 143.45922,1.99526121 C137.161125,3.77400144 130.421666,3.10891437 123.240844,0 C104.2035,30.6177517 97.6200564,68.3144034 93.8605991,118.890092 Z" id="Shirt" fill="#F2F2F2"></path>
                <path d="M130.0934,0.0494284181 C153.111914,0.237916009 190.457756,4.44133369 233.527961,-9.38605991 L237.780184,11.861352 C205.228129,32.7972175 172.266446,49.0151162 143.383798,46.7120779 C155.925862,100.511247 155.347613,144.551545 127.658208,144.551545 C114.435139,144.551545 100.162646,144.551545 84.8407278,144.551545 C78.0403237,98.8497562 95.9131166,35.4830767 112.482495,3.52143514 C113.11523,2.30091632 114.462385,-3.7658765e-13 117.63549,-3.7658765e-13 C120.400266,-3.7658765e-13 124.547432,-3.7658765e-13 130.076986,-3.7658765e-13 C130.082458,0.0164761536 130.087929,0.0329522932 130.0934,0.0494284181 Z" id="Coat-Front" fill="#1F28CF"></path>
            </g>
        </g>
    </g>
</svg>