<?xml version="1.0" encoding="UTF-8"?>
<svg width="380px" height="480px" viewBox="0 0 380 480" version="1.1" xmlns="http://www.w3.org/2000/svg" xmlns:xlink="http://www.w3.org/1999/xlink">
    <!-- Generator: Sketch 52.4 (67378) - http://www.bohemiancoding.com/sketch -->
    <title>humaaans/standing-3</title>
    <desc>Created with Sketch.</desc>
    <g id="humaaans/standing-3" stroke="none" stroke-width="1" fill="none" fill-rule="evenodd">
        <g id="humaaan-12" transform="translate(24.000000, 10.000000)">
            <g id="Head/Front/Pony" transform="translate(192.496667, 70.916479) rotate(15.000000) translate(-192.496667, -70.916479) translate(121.550000, 16.686230)">
                <g id="Head" stroke-width="1" transform="translate(56.316359, 32.329762)" fill="#D4A181">
                    <path d="M8.61668863,35.9695996 C3.8111203,30.3288374 0.558611141,23.4160055 1.10210733,15.6699789 C2.66807119,-6.64848056 33.7361385,-1.73870383 39.7795208,9.52573796 C45.8229031,20.7901798 45.1047922,49.3633705 37.294259,51.3766405 C34.1794292,52.1795298 27.5439155,50.2127726 20.7905107,46.1421897 L25.0294931,76.1313749 L0,76.1313749 L8.61668863,35.9695996 Z"></path>
                </g>
                <path d="M73.5958055,66.7300142 C70.4920461,72.6877108 66.1993682,77.1742704 61.910804,77.1742704 C53.7650435,77.1742704 47.9731951,66.2836037 47.9731951,54.5742741 C47.9731951,54.1628695 47.9813468,53.7542017 47.9974305,53.3485863 C39.3806687,59.2616067 32.7398364,70.9168971 21.3384204,70.9168971 C5.82689641,70.9168971 -0.333376422,39.6300307 21.3384204,39.6300307 C36.0768888,39.6300307 43.3266534,41.7788973 49.5745342,44.9565643 C50.8068196,41.4825635 52.6858517,38.5617811 54.9835347,36.522099 C55.5362914,35.8998584 56.3837294,35.3045199 57.4770187,34.7526108 C58.1454127,34.3869182 58.8370821,34.0890762 59.5479538,33.8649395 C63.3159666,32.4802383 68.7736991,31.5035692 74.8701001,31.2906782 C76.0084928,31.2509247 77.1265278,31.2392917 78.2172168,31.2539461 C78.2349678,25.5093324 82.8973457,20.8579109 88.6461214,20.8579109 C94.4058745,20.8579109 99.0750769,25.5271133 99.0750769,31.2868664 C99.0750769,36.8570669 94.7081429,41.4073153 89.2111081,41.7007783 C86.0665277,42.6710651 82.0263041,43.3834689 77.5457374,43.683886 C77.9807547,45.3198126 78.2171659,47.1782869 78.2171659,49.2784438 C78.2171659,51.1328609 78.0124871,53.0995714 77.6356035,55.096496 C76.6638219,53.9414273 75.3644328,53.1876728 74.0455838,53.1876728 C70.3562718,53.1876728 67.7882105,56.2226544 67.7882105,59.4450461 C67.7882105,63.5347656 70.1492098,66.4933786 73.5958055,66.7300142 Z" id="hair" fill="#191847"></path>
            </g>
            <g id="Bottom/Standing/Sweatpants" transform="translate(0.000000, 211.706546)">
                <polygon id="Leg" fill="#BA8B72" points="133.49063 9.9475983e-14 171.692767 131.641481 189.661145 230.479916 207.695982 230.479916 189.693287 9.9475983e-14"></polygon>
                <path d="M116.322199,0 C118.987817,68.3870665 117.936536,105.687231 117.339939,111.900493 C116.743342,118.113756 113.356416,159.726021 90.276884,232.565707 L109.034701,232.565707 C139.599745,162.688474 150.269709,121.076209 153.775289,111.900493 C157.280868,102.724778 167.634408,65.4246134 182.750117,0 L116.322199,0 Z" id="Leg" fill="#D4A181"></path>
                <path d="M132.670537,1.13686838e-13 C142.607509,45.2981944 159.794211,117.605619 184.230644,216.922274 L210.608646,216.922274 C212.556962,114.983226 204.268916,47.8902794 189.91609,1.13686838e-13 L132.670537,1.13686838e-13 Z" id="Pant" fill="#69A1AC"></path>
                <path d="M116.188908,0 C118.799532,68.3870665 112.033935,135.76128 91.0765976,217.987026 L119.220475,217.987026 C149.841711,149.152689 171.788937,82.1109421 186.788408,0 L116.188908,0 Z" id="Pant" fill="#89C5CC"></path>
                <g id="Accessories/Shoe/Flat-Simple" transform="translate(87.603226, 207.536214)" fill="#191847">
                    <path d="M0,38.5871352 L1.03499318,21.9008065 C7.09473278,23.6731293 14.6846828,22.9778656 23.8048432,19.8150154 C33.6112156,26.7613376 45.956156,31.504481 60.8396644,34.0444457 L60.8396664,34.0444341 C61.9752066,34.2382212 62.7386484,35.315854 62.5448613,36.4513942 C62.532312,36.5249296 62.5158268,36.5977389 62.4954767,36.6695081 L61.0645978,41.7158218 L23.8048432,41.7158218 L2.06998637,41.7158218 L0,38.5871352 Z" id="Shoe"></path>
                </g>
                <g id="Accessories/Shoe/Flat-Simple" transform="translate(185.635407, 207.536214)" fill="#191847">
                    <path d="M0,38.5871352 L1.03499318,21.9008065 C7.09473278,23.6731293 14.6846828,22.9778656 23.8048432,19.8150154 C33.6112156,26.7613376 45.956156,31.504481 60.8396644,34.0444457 L60.8396664,34.0444341 C61.9752066,34.2382212 62.7386484,35.315854 62.5448613,36.4513942 C62.532312,36.5249296 62.5158268,36.5977389 62.4954767,36.6695081 L61.0645978,41.7158218 L23.8048432,41.7158218 L2.06998637,41.7158218 L0,38.5871352 Z" id="Shoe"></path>
                </g>
            </g>
            <g id="Body/Pointing-Forward" transform="translate(167.500000, 199.713318) rotate(10.000000) translate(-167.500000, -199.713318) translate(33.953333, 102.203160)">
                <path d="M165.442905,44.5318824 L201.641581,24.7060096 C207.6612,17.5576911 213.5922,12.0060203 219.434584,8.05099706 C221.219828,7.3056868 224.341768,6.85457179 221.422161,12.0365862 C218.502554,17.2186007 215.664619,22.8006078 217.152044,24.3970743 C218.639469,25.9935408 222.348496,23.7633475 224.122972,26.4158901 C225.305955,28.1842519 218.969376,30.9777657 205.113232,34.7964314 L178.810482,58.8794236 L165.442905,44.5318824 Z M222.136751,61.2595172 L238.037282,52.5246066 C240.268352,44.0351284 242.935323,39.7637848 246.038198,39.710576 C248.42185,38.6014863 244.270736,49.3287349 248.789387,48.3984698 C253.308038,47.4682047 264.336775,39.2657356 266.237082,40.9311468 C269.048462,43.3950152 266.541662,50.9605193 263.588057,54.7239524 C258.067772,61.7578043 253.497213,64.1631694 242.200369,67.3130095 C236.293796,68.9599085 229.907746,72.2609757 223.042218,77.2162112 L222.136751,61.2595172 Z" id="Skin" fill="#D4A181"></path>
                <path d="M148.985958,36.2409357 C161.529917,38.0920896 178.648308,38.0920896 198.258161,29.6037893 L202.784205,46.3173975 C188.561573,56.568277 169.692364,63.8528608 154.648576,61.0351451 C142.793241,58.8146299 138.988488,43.446554 148.985958,36.2409357 Z" id="Sleeve" fill="#2026A2" transform="translate(173.014579, 45.624657) rotate(-9.000000) translate(-173.014579, -45.624657) "></path>
                <path d="M164.886236,65.4534116 C178.34667,68.8103574 200.918985,64.8515908 232.603182,53.5771118 C240.462171,69.8359556 244.095185,81.4272642 243.502224,88.3510378 C216.321851,102.549013 193.025925,108.879165 173.833195,109.297052 C174.443114,120.685301 173.056959,131.521483 168.400445,141.422858 C158.827444,161.778405 102.772202,142.926899 83.9247117,146.637336 C72.1218592,108.306079 94.9430317,92.7284115 94.9613939,68.2018393 C94.9815025,41.3426291 116.548177,-1.42108547e-13 119.721281,-1.42108547e-13 L148.658242,1.26202713e-13 C150.254863,20.5127326 158.291104,43.1195412 164.886236,65.4534116 Z" id="Clothes" fill="#1F28CF"></path>
            </g>
        </g>
    </g>
</svg>