<?xml version="1.0" encoding="UTF-8"?>
<svg width="380px" height="480px" viewBox="0 0 380 480" version="1.1" xmlns="http://www.w3.org/2000/svg" xmlns:xlink="http://www.w3.org/1999/xlink">
    <!-- Generator: Sketch 52.4 (67378) - http://www.bohemiancoding.com/sketch -->
    <title>humaaans/standing-7</title>
    <desc>Created with Sketch.</desc>
    <defs>
        <path d="M64.5343215,14.0230865 C64.3065515,12.6093624 64.7574964,11.9155004 59.0732802,7.93268952 C53.389064,3.94987864 44.211645,-0.747515329 34.9682446,1.29681455 C22.9724635,3.94987864 18.2079576,11.8626339 13.5821476,15.7094818 C9.41210415,19.1774243 5.22806492,19.5818551 2.74846744,23.8850047 C0.268869963,28.1881542 -1.05036881,40.5681125 1.10575813,45.4899954 C4.08002328,52.2794771 9.94531203,54.1079419 14.2269314,56.0640047 C21.5699769,59.4186837 31.9492069,55.8756958 32.2006365,55.2887931 C34.1455528,50.7488475 44.6146274,37.9419323 50.9115227,32.5613058 C55.5419392,28.6046667 65.6033492,20.6583313 64.5343215,14.0230865 Z" id="path-1"></path>
    </defs>
    <g id="humaaans/standing-7" stroke="none" stroke-width="1" fill="none" fill-rule="evenodd">
        <g id="humaaan-2" transform="translate(28.000000, 9.000000)">
            <g id="Head/Front/Turban-1" transform="translate(88.812991, 0.000000)">
                <g id="Head" transform="translate(58.494090, 33.579940)" fill="#B28B67">
                    <path d="M8.94989243,37.3605292 C3.95849475,31.501641 0.580212404,24.3214928 1.14472537,16.2759306 C2.77124441,-6.90557456 35.0407011,-1.80593879 41.3177785,9.89409432 C47.5948559,21.5941274 46.8489759,51.2722317 38.7364127,53.363354 C35.5011336,54.1972907 28.6090274,52.1544798 21.5944711,47.9264891 L25.9973733,79.0753437 L0,79.0753437 L8.94989243,37.3605292 Z"></path>
                </g>
                <g id="Turban" transform="translate(33.579940, 24.914149)">
                    <mask id="mask-2" fill="white">
                        <use xlink:href="#path-1"></use>
                    </mask>
                    <use fill="#5C63AB" xlink:href="#path-1"></use>
                    <path d="M13.4937455,12.9986866 C15.4436421,25.3254377 20.5624303,36.5992821 28.8501101,46.8202196 C19.186377,39.3220837 12.8193453,28.8377305 9.74901498,15.3671601 L13.4937455,12.9986866 Z M8.66406766,17.7021994 C11.8626445,30.9456549 20.1679354,43.4597279 33.5799405,55.2444182 C18.0609623,45.8769554 8.31194732,33.7885482 4.33289555,18.9791964 L8.66406766,17.7021994 Z" id="SHade" fill-opacity="0.2" fill="#000000" mask="url(#mask-2)"></path>
                </g>
            </g>
            <g id="Bottom/Standing/Jogging" transform="translate(0.000000, 202.587623)">
                <polygon id="Leg" fill="#997659" points="140.819105 0 221.309587 134.565555 281.65429 248.32939 294.652004 248.32939 193.543607 5.51402013e-13"></polygon>
                <g id="Accessories/Shoe/Flat-Sneaker" transform="translate(270.805972, 215.561553)" fill="#E4E4E4">
                    <path d="M2.90101634,27.5159711 C1.68915471,30.7510048 1.08322389,33.1715576 1.08322389,34.7776295 C1.08322389,36.7309922 1.40863973,39.5814342 2.05947141,43.3289555 C4.32550923,43.3289555 24.6907726,43.3289555 63.1552616,43.3289555 C64.7429247,38.080202 63.8264335,35.2465689 60.4057881,34.8280561 C56.9851428,34.4095434 54.1435546,34.0316599 51.8810236,33.6944057 L23.4842859,21.0349984 C22.9378762,20.7914062 22.2974531,21.0368884 22.053861,21.5832981 C22.0496938,21.5926456 22.0456593,21.6020518 22.0417587,21.6115137 L20.2164382,26.0392887 C17.0498153,27.5167596 14.4766054,28.2554951 12.4968086,28.2554951 C10.8882707,28.2554951 8.66686616,27.6058583 5.8325951,26.3065849 L5.83260102,26.3065719 C4.74493521,25.8079692 3.45901046,26.2854991 2.96040771,27.373165 C2.9389172,27.420045 2.91910746,27.4676773 2.90101634,27.5159711 Z" id="shoe"></path>
                </g>
                <path d="M264.89488,230.11238 L289.960742,222.529813 C278.978705,189.699447 265.518659,153.570834 249.580605,114.143973 C233.64255,74.7171116 216.525672,36.6691207 198.229971,2.84217094e-14 L127.43487,2.84217094e-14 C147.775755,46.3847539 169.339822,88.531257 192.127069,126.439509 C214.914315,164.347762 239.170253,198.905385 264.89488,230.11238 Z" id="Pant" fill="#DB2721"></path>
                <path d="M135.52932,2.84217094e-14 C127.93253,47.2872601 113.280403,107.702209 111.897637,109.566632 C110.975793,110.809581 77.7891793,121.930063 12.3377948,142.928077 L15.1454578,154.389667 C93.1960803,143.128296 134.322102,134.391261 138.523523,128.178562 C144.825654,118.859514 176.293047,45.2388276 188.480956,2.84217094e-14 L135.52932,2.84217094e-14 Z" id="Leg" fill="#B28B67"></path>
                <path d="M35.3450622,133.02041 L40.2904549,151.480129 C98.667773,156.600183 134.436845,152.900622 147.597671,140.381446 C160.758498,127.862271 175.757955,81.0684551 192.596043,-1.13686838e-13 L125.088686,-1.13686838e-13 C114.42047,66.3841564 108.456243,100.969601 107.196005,103.756335 C105.935767,106.543068 81.9854524,116.29776 35.3450622,133.02041 Z" id="Pant" fill="#FF4133"></path>
                <g id="Accessories/Shoe/Flat-Sneaker" transform="translate(26.538985, 166.816479) rotate(80.000000) translate(-26.538985, -166.816479) translate(-6.499343, 145.152001)" fill="#E4E4E4">
                    <path d="M2.90101634,27.5159711 C1.68915471,30.7510048 1.08322389,33.1715576 1.08322389,34.7776295 C1.08322389,36.7309922 1.40863973,39.5814342 2.05947141,43.3289555 C4.32550923,43.3289555 24.6907726,43.3289555 63.1552616,43.3289555 C64.7429247,38.080202 63.8264335,35.2465689 60.4057881,34.8280561 C56.9851428,34.4095434 54.1435546,34.0316599 51.8810236,33.6944057 L23.4842859,21.0349984 C22.9378762,20.7914062 22.2974531,21.0368884 22.053861,21.5832981 C22.0496938,21.5926456 22.0456593,21.6020518 22.0417587,21.6115137 L20.2164382,26.0392887 C17.0498153,27.5167596 14.4766054,28.2554951 12.4968086,28.2554951 C10.8882707,28.2554951 8.66686616,27.6058583 5.8325951,26.3065849 L5.83260102,26.3065719 C4.74493521,25.8079692 3.45901046,26.2854991 2.96040771,27.373165 C2.9389172,27.420045 2.91910746,27.4676773 2.90101634,27.5159711 Z" id="shoe"></path>
                </g>
            </g>
            <g id="Body/Pregnant" transform="translate(23.827876, 88.835214)">
                <path d="M120.33885,2.47726092 C120.591739,1.65386181 120.848499,0.828114711 121.109013,9.9475983e-14 L122.070864,0.452558281 C122.220965,0.297686068 122.372189,0.146808113 122.524547,-8.52651283e-14 L152.844493,4.68817374 C152.844493,21.738969 166.411055,37.6923366 174.993389,51.4185123 C188.334712,72.7559884 212.074277,96.4066107 196.853431,128.106046 C183.138669,156.668861 147.414698,161.307286 89.681517,142.021321 C89.681517,126.636955 102.326331,111.170882 102.729291,92.4645844 C103.112891,74.6570098 106.442584,20.7031536 120.33885,2.47726092 Z" id="Shirt" fill="#C1DEE2"></path>
                <path d="M158.002294,120.007365 C160.029947,109.543105 161.345334,102.55704 161.948454,99.0491682 C178.10146,117.302434 187.433171,126.534933 189.943585,126.746664 C194.664903,127.144866 198.153576,122.958098 199.146931,124.135125 C200.788776,129.009639 196.151509,141.211347 187.287471,142.985553 C183.054714,143.832772 176.504768,135.104115 173.806079,132.011356 C172.744638,130.79492 167.476709,126.79359 158.002294,120.007365 Z M185.904216,64.2160256 C190.091476,64.2160256 192.340676,65.9471177 194.816496,69.4396784 C197.292315,72.9322392 199.63512,89.4039239 195.66013,89.4039239 C191.685141,89.4039239 175.031019,83.0364996 175.031019,78.7558037 C175.031019,74.4751078 186.394824,72.6622727 186.394824,69.4396784 C186.394824,66.2170842 181.716955,64.2160256 185.904216,64.2160256 Z" id="Skin" fill="#B28B67"></path>
                <path d="M149.548896,135.931193 C149.300158,136.821628 149.046582,137.728782 148.788166,138.652658 C101.347312,105.495732 101.324552,65.3145315 115.433746,20.2764138 C104.799257,64.6152512 109.131721,102.010765 149.548896,135.931193 Z" id="Shade" fill-opacity="0.2" fill="#000000"></path>
            </g>
        </g>
    </g>
</svg>