<?xml version="1.0" encoding="UTF-8"?>
<svg width="380px" height="480px" viewBox="0 0 380 480" version="1.1" xmlns="http://www.w3.org/2000/svg" xmlns:xlink="http://www.w3.org/1999/xlink">
    <!-- Generator: Sketch 52.4 (67378) - http://www.bohemiancoding.com/sketch -->
    <title>humaaans/standing-12</title>
    <desc>Created with Sketch.</desc>
    <g id="humaaans/standing-12" stroke="none" stroke-width="1" fill="none" fill-rule="evenodd">
        <g id="A-Human/Standing" transform="translate(43.000000, 35.000000)">
            <g id="Head/Front/Afro" transform="translate(82.000000, 0.000000)">
                <path d="M61,77.7068588 C72.4289379,77.7068588 76.5854974,64.0240838 83.0786187,56.5153483 C87.7243138,51.143002 95.6530795,52.7449442 98,45.2237762 C103.901542,26.3111237 88.1061086,13 67.5,13 C46.8938914,13 33,24.6742524 30,42.2237762 C27,59.7733 40.3938914,77.7068588 61,77.7068588 Z" id="Hair-Back" fill="#191847"></path>
                <g id="Head" stroke-width="1" transform="translate(54.000000, 31.000000)" fill="#B28B67">
                    <path d="M8.26227388,34.4901268 C3.65436435,29.0813759 0.535634794,22.4528771 1.05677633,15.0254539 C2.55833022,-6.37502057 32.3485306,-1.66718886 38.1433414,9.13393292 C43.9381521,19.9350547 43.249578,47.3329958 35.7603014,49.2634576 C32.7735882,50.033323 26.4110012,48.1474609 19.935372,44.244306 L24,73 L0,73 L8.26227388,34.4901268 Z"></path>
                </g>
                <path d="M72.379769,51.7233675 C71.5077737,51.2620302 70.5086201,51 69.4466684,51 C66.0464589,51 63.2900445,53.6862915 63.2900445,57 C63.2900445,58.3524891 63.749225,59.6004592 64.5239446,60.6039231 C63.0651901,63.0083834 62.0695832,65.5346814 61.7432388,68.1317726 C56.6870351,68.1317726 38.2335803,49 56.6167901,31 C75,13 101.566014,38.6959598 93.5831606,40.1945268 C88.9934286,41.0561261 79.7498479,45.4379083 72.3797716,51.7233656 Z" id="Hair" fill="#191847"></path>
            </g>
            <g id="Bottom/Standing/Shorts" transform="translate(0.000000, 187.000000)">
                <polygon id="Leg" fill="#997659" points="128 9.9475983e-14 165.630838 123.024171 183.860154 227.648304 198.153197 227.648304 178.890974 9.9475983e-14"></polygon>
                <path d="M114.537727,0 C117.093705,67.5468821 114.085665,102.388787 113.513606,108.525715 C112.941548,114.662643 105.108196,154.454812 86.5636874,229.708469 L101.793992,224.477699 C131.10186,155.458959 141.088936,119.5887 144.450326,110.525715 C147.811717,101.46273 156.739403,64.6208249 171.233385,0 L114.537727,0 Z" id="Leg" fill="#B28B67"></path>
                <g id="Accessories/Shoe/Flat-Sneaker" transform="translate(84.000000, 199.000000)" fill="#E4E4E4">
                    <path d="M2.67813181,25.4019242 C1.55937727,28.3884109 1,30.6229931 1,32.1056708 C1,33.908957 1.3004142,36.5404001 1.90124261,40 C3.99318117,40 22.7937852,40 58.3030548,40 C59.768738,35.1545073 58.9226607,32.5385816 55.7648228,32.1522232 C52.606985,31.7658647 49.9837155,31.4170139 47.8950143,31.1056708 L21.6799926,19.4188835 C21.1755635,19.1940064 20.584344,19.4206282 20.359467,19.9250573 C20.35562,19.9336867 20.3518954,19.9423702 20.3482945,19.9511052 L18.6632131,24.038695 C15.7398812,25.4026522 13.3643706,26.0846307 11.5366811,26.0846307 C10.0517269,26.0846307 8.00099246,25.4849054 5.38447792,24.2854549 L5.38448339,24.285443 C4.38038273,23.8251478 3.19325534,24.2659892 2.73296014,25.2700899 C2.71312074,25.3133681 2.69483298,25.3573409 2.67813181,25.4019242 Z" id="shoe"></path>
                </g>
                <g id="Accessories/Shoe/Flat-Sneaker" transform="translate(178.000000, 199.000000)" fill="#E4E4E4">
                    <path d="M2.67813181,25.4019242 C1.55937727,28.3884109 1,30.6229931 1,32.1056708 C1,33.908957 1.3004142,36.5404001 1.90124261,40 C3.99318117,40 22.7937852,40 58.3030548,40 C59.768738,35.1545073 58.9226607,32.5385816 55.7648228,32.1522232 C52.606985,31.7658647 49.9837155,31.4170139 47.8950143,31.1056708 L21.6799926,19.4188835 C21.1755635,19.1940064 20.584344,19.4206282 20.359467,19.9250573 C20.35562,19.9336867 20.3518954,19.9423702 20.3482945,19.9511052 L18.6632131,24.038695 C15.7398812,25.4026522 13.3643706,26.0846307 11.5366811,26.0846307 C10.0517269,26.0846307 8.00099246,25.4849054 5.38447792,24.2854549 L5.38448339,24.285443 C4.38038273,23.8251478 3.19325534,24.2659892 2.73296014,25.2700899 C2.71312074,25.3133681 2.69483298,25.3573409 2.67813181,25.4019242 Z" id="shoe"></path>
                </g>
                <polygon id="Bottom" fill="#69A1AC" points="123 0 139 62.6795201 187.870318 62.6795201 180.583554 0"></polygon>
                <path d="M114,-3.55271368e-15 C108.735439,15.7805461 107.735439,36.6737195 111,62.6795201 L160.870318,62.6795201 L174.583554,-3.55271368e-15 L114,-3.55271368e-15 Z" id="Bottom" fill="#89C5CC"></path>
            </g>
            <g id="Body/Jacket" transform="translate(22.000000, 82.000000)">
                <path d="M194.04441,89.1225115 L222.372314,116.757535 C230.61469,120.273345 237.368143,124.155511 242.632673,128.40403 C243.816587,129.832102 245.10547,132.568362 239.535214,131.343925 C233.964957,130.119488 228.050816,129.082079 227.003896,130.893567 C225.956977,132.705055 229.041811,135.480899 227.106974,137.851671 C225.817082,139.432186 221.479076,134.404878 214.092956,122.769747 L184.635682,105.402467 L194.04441,89.1225115 Z M68.3079281,93.0198914 L89.2053198,93.1020711 C76.3021447,134.755739 69.3363474,156.856914 68.3079281,159.405597 C65.9939846,165.140133 70.8906002,173.873732 72.9845874,178.567103 C66.1645409,181.61887 66.8912241,170.316929 58.2879189,174.319492 C50.4352209,177.972846 44.4616931,184.59248 35.3890352,178.994371 C34.2736052,178.306117 33.0512757,175.714714 36.0045784,173.68967 C43.3623323,168.644547 53.9653015,159.814672 55.3979297,156.908251 C57.3515741,152.944826 61.6549068,131.648706 68.3079281,93.0198914 Z" id="Skin" fill="#B28B67"></path>
                <path d="M122.01899,9.23199981 L130.503942,7.00082913 C148.576175,42.7520052 177.414525,74.1501034 217.01899,101.195124 L192.061793,137.56505 C151.33882,97.6857553 124.670571,55.1985909 122.01899,9.23199981 Z" id="Coat-Back" fill="#191847" transform="translate(169.518990, 72.282940) rotate(5.000000) translate(-169.518990, -72.282940) "></path>
                <path d="M90,114 L167,114 C149.16087,70.6251468 140.241304,33.7787236 140.241304,3.4607303 L117.014208,0 C98.7598929,29.3584068 93.6048263,65.5045499 90,114 Z" id="Shirt" fill="#DDE3E9"></path>
                <path d="M116.522435,0.0164198669 C116.525484,0.0109456263 116.528534,0.00547233727 116.531583,-1.73374996e-14 L118.047752,-4.26343884e-14 C119.86198,0.0624731357 122.625282,0.175030894 126.337658,0.337673275 L131.950158,16.3768801 C132.543836,35.9324229 136.010826,75.3421183 142.351127,134.605966 L91.8760816,134.605966 C92.0084015,138.699076 92.2265759,142.83042 92.5306047,147 L55,147 C60.6139164,83.6639633 81.1152373,34.6639633 116.503963,1.42108547e-14 L116.522435,0.0164198605 Z" id="Coat-Front" fill="#2F3676"></path>
                <path d="M95.2102301,82.2331012 C96.6467433,107.747892 100.243333,125.336858 106,135 L91.889081,135 C91.27131,116.642855 92.3783599,99.0539088 95.2102289,82.2331082 Z" id="Shade" fill-opacity="0.1" fill="#000000"></path>
                <polygon id="Light" fill-opacity="0.2" fill="#FFFFFF" points="103.110899 104 128 92.4292718 128 104"></polygon>
            </g>
        </g>
    </g>
</svg>