<?xml version="1.0" encoding="UTF-8"?>
<svg width="380px" height="480px" viewBox="0 0 380 480" version="1.1" xmlns="http://www.w3.org/2000/svg" xmlns:xlink="http://www.w3.org/1999/xlink">
    <!-- Generator: Sketch 52.4 (67378) - http://www.bohemiancoding.com/sketch -->
    <title>humaaans/standing-1</title>
    <desc>Created with Sketch.</desc>
    <g id="humaaans/standing-1" stroke="none" stroke-width="1" fill="none" fill-rule="evenodd">
        <g id="humaaan-11" transform="translate(34.000000, 17.000000)">
            <g id="Head/Front/Airy" transform="translate(132.804269, 62.826718) rotate(-7.000000) translate(-132.804269, -62.826718) translate(61.952002, 8.590719)">
                <g id="Head" stroke-width="1" transform="translate(56.316359, 32.329762)" fill="#915B3C">
                    <path d="M8.61668863,35.9695996 C3.8111203,30.3288374 0.558611141,23.4160055 1.10210733,15.6699789 C2.66807119,-6.64848056 33.7361385,-1.73870383 39.7795208,9.52573796 C45.8229031,20.7901798 45.1047922,49.3633705 37.294259,51.3766405 C34.1794292,52.1795298 27.5439155,50.2127726 20.7905107,46.1421897 L25.0294931,76.1313749 L0,76.1313749 L8.61668863,35.9695996 Z"></path>
                </g>
                <path d="M81.829704,28.872831 C78.5308893,28.3318613 69.6486851,27.9599296 68.010648,27.9601697 C66.963865,27.9601697 65.8294711,28.1993201 65.2094921,27.2381565 C64.7017796,26.4510733 64.8877733,25.1198989 64.7362495,24.2065173 C64.5603095,23.1454676 64.3104029,22.0981043 64.0576238,21.0533821 C63.3383046,18.0805701 62.2505886,15.2523048 60.728648,12.5969192 C57.8729147,7.61509999 53.6893732,3.71281899 48.4078227,1.44209099 C42.5754723,-1.06514616 35.9756884,-1.63925112 29.7021715,-1.13069641 C22.988685,-0.586605299 16.9114548,1.62961754 10.5728281,3.7152201 C4.53246162,5.70261733 -1.79419635,6.48489838 -8.11175811,5.51437045 C-14.4769553,4.53663921 -19.2864601,1.08672699 -24.6553822,-2.18766423 C-30.1516514,-5.53985134 -36.4328283,-7.73230322 -42.9303994,-7.22831061 C-48.9956608,-6.75769341 -54.5857646,-4.25333759 -59.6011311,-0.907873572 C-64.293582,2.22221104 -68.1654584,5.98810909 -70.3514228,11.2883153 C-72.7030342,16.9897466 -72.7008798,23.247995 -68.8337909,28.2867205 C-63.2286065,35.5904113 -52.8227742,37.479123 -44.1655698,37.2913563 C-39.1581026,37.1830663 -34.2401613,36.2689645 -29.5125225,34.6061971 C-23.2076476,32.3885335 -17.7592532,28.6298388 -11.8608356,25.5801913 C-9.09271325,24.1491309 -6.2314744,22.9737884 -3.23235606,22.1271577 C-0.322045518,21.3052583 2.54445956,20.9282844 5.17948986,22.6863758 C7.96700148,24.5462741 10.4648704,26.3732774 13.6538124,27.5375747 C16.7130137,28.6545702 19.9534211,29.2793386 23.2127391,29.2541269 C29.5542383,29.2051443 35.8054934,27.2292724 41.9645895,25.9057816 C46.9871373,24.8267236 52.3610863,23.7512672 57.481538,24.788546 C59.6181914,25.2214658 62.7391512,26.1151582 63.5108934,28.3357031 C50.5222143,30.6897495 45.4209244,46.7531632 49.0826303,58.5452455 C51.058903,64.9098629 62.9385498,72.3500334 67.5575128,69.0040579 C70.4837588,66.8842862 68.7072267,64.1014098 67.5575128,62.264322 C65.3557497,58.7462183 64.6024393,54.2270926 68.6765868,51.7777221 C72.1908383,49.6652272 75.8858316,54.6818421 75.9557288,54.6763195 C76.9216034,54.6002044 85.267599,49.8801773 91.017838,42.9924605 C96.6904702,43.3287282 97.5510906,39.5883405 96.1965772,36.5294063 C94.8420637,33.4704722 86.3876266,29.6207762 81.829704,28.872831 Z" id="hair" fill="#191847"></path>
            </g>
            <g id="Bottom/Standing/Sweatpants" transform="translate(0.000000, 203.685999)">
                <polygon id="Leg" fill="#784931" points="133.49063 9.9475983e-14 171.692767 131.641481 189.661145 230.479916 207.695982 230.479916 189.693287 9.9475983e-14"></polygon>
                <path d="M116.322199,0 C118.987817,68.3870665 117.936536,105.687231 117.339939,111.900493 C116.743342,118.113756 113.356416,159.726021 90.276884,232.565707 L109.034701,232.565707 C139.599745,162.688474 150.269709,121.076209 153.775289,111.900493 C157.280868,102.724778 167.634408,65.4246134 182.750117,0 L116.322199,0 Z" id="Leg" fill="#915B3C"></path>
                <path d="M132.670537,1.13686838e-13 C142.607509,45.2981944 159.794211,117.605619 184.230644,216.922274 L210.608646,216.922274 C212.556962,114.983226 204.268916,47.8902794 189.91609,1.13686838e-13 L132.670537,1.13686838e-13 Z" id="Pant" fill="#69A1AC"></path>
                <path d="M116.188908,0 C118.799532,68.3870665 112.033935,135.76128 91.0765976,217.987026 L119.220475,217.987026 C149.841711,149.152689 171.788937,82.1109421 186.788408,0 L116.188908,0 Z" id="Pant" fill="#C5CFD6"></path>
                <g id="Accessories/Shoe/Flat-Simple" transform="translate(87.603226, 207.536214)" fill="#191847">
                    <path d="M0,38.5871352 L1.03499318,21.9008065 C7.09473278,23.6731293 14.6846828,22.9778656 23.8048432,19.8150154 C33.6112156,26.7613376 45.956156,31.504481 60.8396644,34.0444457 L60.8396664,34.0444341 C61.9752066,34.2382212 62.7386484,35.315854 62.5448613,36.4513942 C62.532312,36.5249296 62.5158268,36.5977389 62.4954767,36.6695081 L61.0645978,41.7158218 L23.8048432,41.7158218 L2.06998637,41.7158218 L0,38.5871352 Z" id="Shoe"></path>
                </g>
                <g id="Accessories/Shoe/Flat-Simple" transform="translate(185.635407, 207.536214)" fill="#191847">
                    <path d="M0,38.5871352 L1.03499318,21.9008065 C7.09473278,23.6731293 14.6846828,22.9778656 23.8048432,19.8150154 C33.6112156,26.7613376 45.956156,31.504481 60.8396644,34.0444457 L60.8396664,34.0444341 C61.9752066,34.2382212 62.7386484,35.315854 62.5448613,36.4513942 C62.532312,36.5249296 62.5158268,36.5977389 62.4954767,36.6695081 L61.0645978,41.7158218 L23.8048432,41.7158218 L2.06998637,41.7158218 L0,38.5871352 Z" id="Shoe"></path>
                </g>
            </g>
            <g id="Body/Hoodie" transform="translate(155.249818, 192.734499) rotate(-10.000000) translate(-155.249818, -192.734499) translate(21.880847, 95.214000)">
                <path d="M198.964869,96.1669474 L232.231433,120.595314 C241.254011,123.029931 248.792082,126.059006 254.845649,129.682538 C256.275606,130.985537 258.003844,133.624326 252.073465,133.168278 C246.143085,132.712229 239.884706,132.499245 239.066429,134.522006 C238.248152,136.544766 241.836896,138.963766 240.182801,141.693 C239.080072,143.512489 233.870334,138.950187 224.553589,128.006095 L191.610963,114.34562 L198.964869,96.1669474 Z M71.2380339,97.0100305 L93.0318307,97.0957353 C79.5751668,140.53616 72.3105679,163.585377 71.2380339,166.243387 C68.8248325,172.223909 73.9314912,181.33214 76.1153011,186.226836 C69.002705,189.409511 69.7605597,177.622767 60.788211,181.797022 C52.5986673,185.607089 46.3689017,192.510675 36.9070672,186.672433 C35.7437902,185.954655 34.4690282,183.252093 37.5490144,181.140184 C45.2223833,175.878647 56.2801726,166.67001 57.7742541,163.638916 C59.8117011,159.505478 64.2996277,137.295849 71.2380339,97.0100305 Z" id="Skin" fill="#915B3C"></path>
                <path d="M127.996379,9.99126343 L136.845297,7.66438547 C172.696724,33.5424787 191.22711,87.6619834 234.647976,113.391279 L225.880465,126.441219 C154.233028,123.866416 130.7617,57.9296166 127.996379,9.99126343 Z" id="Coat-Back" fill="#1F28CF" transform="translate(181.322177, 67.052802) rotate(5.000000) translate(-181.322177, -67.052802) "></path>
                <path d="M93.8605991,118.890092 C130.019619,118.890092 156.617436,118.890092 173.65405,118.890092 C177.300204,118.890092 176.613156,113.625177 176.086082,110.968472 C170.003016,80.3068849 146.257032,47.2551777 146.257032,3.60918021 L123.240844,0 C104.2035,30.6177517 97.6200564,68.3144034 93.8605991,118.890092 Z" id="Shirt" fill="#DDE3E9"></path>
                <path d="M94.5018144,30.0958364 C91.159002,29.1349436 88.5118406,26.8938416 86.5603303,23.3725304 C78.1478728,8.19306644 81.186005,-0.164352814 90.176254,-2.91148372 C99.1665031,-5.65861462 107.183923,-2.17603713e-14 121.507793,-7.54951657e-15 C122.286892,-6.66133815e-15 123.000459,0.0488414414 123.648494,0.146524324 L130.853759,0.557677906 C151.526451,70.6198746 157.227856,117.364282 147.957974,140.790899 L85.1543132,140.790899 C81.433263,149.467655 77.8725321,156.767924 74.4721203,162.691705 L57.359255,162.691705 C55.7486939,110.616897 68.1295471,66.4182737 94.5018144,30.0958364 Z" id="Coat-Front" fill="#2B44FF"></path>
                <path d="M98.8302349,104.808535 C100.805398,121.334664 104.015698,133.328785 108.461137,140.790899 L85.1543132,140.790899 C89.4948142,130.669705 94.0534546,118.675583 98.8302345,104.808534 Z" id="Shade" fill-opacity="0.1" fill="#000000"></path>
            </g>
        </g>
    </g>
</svg>