<?xml version="1.0" encoding="UTF-8"?>
<svg width="300px" height="239px" viewBox="0 0 300 239" version="1.1" xmlns="http://www.w3.org/2000/svg" xmlns:xlink="http://www.w3.org/1999/xlink">
    <!-- Generator: Sketch 52.4 (67378) - http://www.bohemiancoding.com/sketch -->
    <title>Bottom/Sitting/Sweat Pants</title>
    <desc>Created with Sketch.</desc>
    <g id="Bottom/Sitting/Sweat-Pants" stroke="none" stroke-width="1" fill="none" fill-rule="evenodd">
        <g id="Objects/Seat/Ball" transform="translate(10.000000, 42.000000)" fill="#C5CFD6">
            <ellipse id="Ballsy-Ball" cx="116" cy="58.5" rx="77" ry="73.5"></ellipse>
        </g>
        <path d="M271.509253,162.659849 C258.696468,134.301545 249.430392,109.608281 245.711023,96.5800564 C239.34256,74.2725728 234.497817,54.6432898 233.273327,47.3127766 C230.353374,29.8322277 255.735275,28.8143004 259.090229,37.5018287 C264.168086,50.6507477 273.032873,93.8526085 283.684593,159.107411 L271.509253,162.659849 Z M122.888346,73.6635414 C134.644063,69.0168268 175.811956,54.4748802 195.66723,50.3612296 C201.37284,49.1791314 206.902884,48.0808288 212.102095,47.0882686 C227.555991,44.1380286 235.56256,72.0174283 220.678573,74.1595557 C183.611563,79.4942994 131.062816,85.0032894 126.565792,85.6215241 C120.26302,86.4880065 115.500245,76.5838567 122.888346,73.6635414 Z" id="Skin" fill="#B28B67"></path>
        <path d="M221.587121,39.4162575 L158,7.04671741 L158,0 L165.562186,0 C227.079876,15.6757222 258.515366,25.7216696 259.868655,30.1378423 C259.883215,30.1853551 259.896564,30.2329302 259.908703,30.2805675 C259.939662,30.3212022 259.970097,30.3620825 260,30.4032083 C272.191506,47.1700257 279.49295,129.026966 281.889416,135.156136 L258.52773,138.641377 C249.591265,105.503295 221,82.4181007 221.759487,42.7290106 C221.554409,41.5647756 221.502591,40.4606967 221.587121,39.4162575 Z" id="Leg-Back" fill="#1F28CF"></path>
        <path d="M163.283174,58.6404762 C157.4651,57.4758245 152.107279,56.4363908 147.522705,55.6322592 C117.90929,50.4380832 109.273766,34.5862504 114.379549,4.7745025e-14 L168.941763,-4.97379915e-14 C177.854593,2.56031807 224.174037,21.9848377 248.206622,32.316337 C264.112618,39.1542526 259.098531,63.8044803 250.090957,70.2194819 C250.042044,70.6130299 249.879937,70.8803556 249.591265,71 C201.136867,91.0826527 162.804991,80.5453361 150,83.9121674 L144.07712,65.2284164 L163.283174,58.6404762 Z" id="Leg-Front" fill="#2B44FF"></path>
        <g id="Accessories/Shoe/Flat-Sneaker" transform="translate(143.959294, 93.331820) rotate(64.000000) translate(-143.959294, -93.331820) translate(113.459294, 73.331820)" fill="#E4E4E4">
            <path d="M2.67813181,25.4019242 C1.55937727,28.3884109 1,30.6229931 1,32.1056708 C1,33.908957 1.3004142,36.5404001 1.90124261,40 C3.99318117,40 22.7937852,40 58.3030548,40 C59.768738,35.1545073 58.9226607,32.5385816 55.7648228,32.1522232 C52.606985,31.7658647 49.9837155,31.4170139 47.8950143,31.1056708 L21.6799926,19.4188835 C21.1755635,19.1940064 20.584344,19.4206282 20.359467,19.9250573 C20.35562,19.9336867 20.3518954,19.9423702 20.3482945,19.9511052 L18.6632131,24.038695 C15.7398812,25.4026522 13.3643706,26.0846307 11.5366811,26.0846307 C10.0517269,26.0846307 8.00099246,25.4849054 5.38447792,24.2854549 L5.38448339,24.285443 C4.38038273,23.8251478 3.19325534,24.2659892 2.73296014,25.2700899 C2.71312074,25.3133681 2.69483298,25.3573409 2.67813181,25.4019242 Z" id="shoe"></path>
        </g>
        <g id="Accessories/Shoe/Flat-Sneaker" transform="translate(263.000000, 132.000000)" fill="#E4E4E4">
            <path d="M2.67813181,25.4019242 C1.55937727,28.3884109 1,30.6229931 1,32.1056708 C1,33.908957 1.3004142,36.5404001 1.90124261,40 C3.99318117,40 22.7937852,40 58.3030548,40 C59.768738,35.1545073 58.9226607,32.5385816 55.7648228,32.1522232 C52.606985,31.7658647 49.9837155,31.4170139 47.8950143,31.1056708 L21.6799926,19.4188835 C21.1755635,19.1940064 20.584344,19.4206282 20.359467,19.9250573 C20.35562,19.9336867 20.3518954,19.9423702 20.3482945,19.9511052 L18.6632131,24.038695 C15.7398812,25.4026522 13.3643706,26.0846307 11.5366811,26.0846307 C10.0517269,26.0846307 8.00099246,25.4849054 5.38447792,24.2854549 L5.38448339,24.285443 C4.38038273,23.8251478 3.19325534,24.2659892 2.73296014,25.2700899 C2.71312074,25.3133681 2.69483298,25.3573409 2.67813181,25.4019242 Z" id="shoe"></path>
        </g>
    </g>
</svg>