<?xml version="1.0" encoding="UTF-8"?>
<svg width="136px" height="104px" viewBox="0 0 136 104" version="1.1" xmlns="http://www.w3.org/2000/svg" xmlns:xlink="http://www.w3.org/1999/xlink">
    <!-- Generator: Sketch 52.4 (67378) - http://www.bohemiancoding.com/sketch -->
    <title>Head/Front/Top</title>
    <desc>Created with Sketch.</desc>
    <g id="Head/Front/Top" stroke="none" stroke-width="1" fill="none" fill-rule="evenodd">
        <g id="Head" transform="translate(54.000000, 31.000000)" fill="#B28B67">
            <path d="M8.26227388,34.4901268 C3.65436435,29.0813759 0.535634794,22.4528771 1.05677633,15.0254539 C2.55833022,-6.37502057 32.3485306,-1.66718886 38.1433414,9.13393292 C43.9381521,19.9350547 43.249578,47.3329958 35.7603014,49.2634576 C32.7735882,50.033323 26.4110012,48.1474609 19.935372,44.244306 L24,73 L0,73 L8.26227388,34.4901268 Z"></path>
        </g>
        <path d="M66.9985085,30.7865552 C79.0550637,26.609742 94.700908,31.4906831 92.6071441,41.2806601 C91.262667,47.5671373 83.9819788,50.7071224 76.8190787,54.0674377 C75.7647673,52.2369093 73.7539364,51 71.4466684,51 C68.0464589,51 65.2900445,53.6862915 65.2900445,57 C65.2900445,58.1936082 65.6476791,59.3058114 66.264215,60.240388 C63.8546189,62.336481 62.1544254,64.859497 61.7432388,68.1317726 C57.859479,68.1317726 51.5822399,56.7286072 53.6546048,45.9097779 C53.1112722,45.9693991 52.5592097,46 52,46 C43.7157288,46 37,39.2842712 37,31 C37,22.7157288 43.7157288,16 52,16 C60.2130054,16 66.8843391,22.6006809 66.9985123,30.7865539 Z" id="Hair" fill="#191847"></path>
    </g>
</svg>