<?xml version="1.0" encoding="UTF-8"?>
<svg width="256px" height="187px" viewBox="0 0 256 187" version="1.1" xmlns="http://www.w3.org/2000/svg" xmlns:xlink="http://www.w3.org/1999/xlink">
    <!-- Generator: Sketch 52.4 (67378) - http://www.bohemiancoding.com/sketch -->
    <title>Body/Trench Coat</title>
    <desc>Created with Sketch.</desc>
    <g id="Body/Trench-Coat" stroke="none" stroke-width="1" fill="none" fill-rule="evenodd">
        <path d="M197.692975,90.2442388 L227.879596,115.83589 C236.347145,118.768177 243.354953,122.169788 248.90302,126.040723 C250.183668,127.382731 251.660283,130.022417 246.018183,129.189525 C240.376083,128.356632 234.403982,127.734299 233.485976,129.614404 C232.56797,131.49451 235.838922,134.048404 234.074175,136.548369 C232.897677,138.215012 228.219551,133.502554 220.039797,122.410996 L189.442799,107.140857 L197.692975,90.2442388 Z M54.3748075,70.4422362 L71.7206892,74.8517457 C48.5010655,113.888004 36.0840272,134.518222 34.4695742,136.742401 C30.8370549,141.746803 33.4753713,151.405575 34.3717289,156.466114 C27.0159775,157.777312 30.4552622,146.986888 21.1392043,148.78923 C12.6359386,150.434324 5.23841582,155.412199 -2.21044035,147.785504 C-3.12623345,146.847846 -3.68533756,144.037711 -0.329858103,142.787288 C8.0298649,139.672029 20.4540206,133.669529 22.5472206,131.196025 C25.4016727,127.82296 36.0108683,107.571697 54.3748075,70.4422362 Z" id="Skin" fill="#B28B67" transform="translate(123.586250, 113.509597) rotate(-4.000000) translate(-123.586250, -113.509597) "></path>
        <path d="M203.320455,87.6779032 C207.424546,87.3832636 211.888791,88.063152 216.675075,89.6758318 C219.030261,90.4693828 220.296216,93.0219384 219.502665,95.3771242 C219.041777,96.7449968 217.987543,97.7454511 216.723241,98.1883982 C217.639067,98.8565328 218.563007,99.520979 219.495159,100.181671 L211.447983,116.609623 C177.58505,99.7255288 145.757134,86.9958405 131.253857,59.1215578 C126.386182,49.766228 128.033751,17.9882599 127.569134,6.42756866 L138.264162,2.04144427 C153.172616,32.858252 173.349023,62.4232387 203.320455,87.6779032 Z" id="Back-Arm" fill="#69A1AC"></path>
        <path d="M90,113.909745 C121.438326,117.363418 146.183737,117.363418 164.236234,113.909745 C166.472817,113.481858 166.374598,103.840401 165.337385,101.207228 C149.185283,60.2018743 138.560302,30.1840325 138.560302,1.70263734 C135.596594,3.25072994 130.409827,3.48273097 123,2.39864042 C103.086202,31.7496339 93.9325378,65.4265407 90,113.909745 Z" id="Shirt" fill="#191847"></path>
        <path d="M84.1585766,118.757813 C83.0909039,117.753244 82.5343141,116.247337 82.8078928,114.695795 L83.3288374,111.741372 C83.6818668,109.739242 85.3079057,108.281318 87.2277662,108.053234 C87.5633833,106.552966 87.8527505,105.062753 88.0917371,103.583451 C90.1105318,91.0873271 86.6613147,78.8344715 86.8233023,66.8021056 C70.7431982,80.5215474 56.3180804,104.211193 43.5479488,137.871041 L24.6611622,132.313477 C25.3818,129.636227 26.1282539,126.991859 26.9005241,124.380374 C24.7206054,123.141961 22.1733635,117.465977 24.0066041,116.516161 C25.8999362,115.53521 27.9056982,114.844785 30.0179817,114.438414 C47.3353888,62.2791261 75.6546193,24.1329883 114.975674,-4.19220214e-13 L120.377288,-4.12114787e-13 L126.348425,-1.0658141e-14 C123,44.2807404 169.249642,140.9549 153.190593,223.518112 C123.507857,230.146789 81.1319105,209.522766 39.8828129,226 C41.4176928,192.750911 72.1631413,153.690797 84.1585803,118.757804 Z" id="Coat-Front" fill="#89C5CC"></path>
        <polygon id="Shade-Lapel" fill-opacity="0.1" fill="#000000" points="119.105759 1 113.946604 16.8654451 124.335997 28.7590435 114.946604 38.1055065 137.662251 77 109.883587 38.1832119 119.105759 28.7590435 109.883587 18.2484583"></polygon>
        <path d="M131,92 C128.790861,92 127,90.209139 127,88 C127,85.790861 128.790861,84 131,84 C133.209139,84 135,85.790861 135,88 C135,90.209139 133.209139,92 131,92 Z M136,115 C133.790861,115 132,113.209139 132,111 C132,108.790861 133.790861,107 136,107 C138.209139,107 140,108.790861 140,111 C140,113.209139 138.209139,115 136,115 Z M137,138 C134.790861,138 133,136.209139 133,134 C133,131.790861 134.790861,130 137,130 C139.209139,130 141,131.790861 141,134 C141,136.209139 139.209139,138 137,138 Z" id="Buttons" fill-opacity="0.4" fill="#000000"></path>
    </g>
</svg>