<?xml version="1.0" encoding="UTF-8"?>
<svg width="136px" height="104px" viewBox="0 0 136 104" version="1.1" xmlns="http://www.w3.org/2000/svg" xmlns:xlink="http://www.w3.org/1999/xlink">
    <!-- Generator: Sketch 52.4 (67378) - http://www.bohemiancoding.com/sketch -->
    <title>Head/Front/Turban2</title>
    <desc>Created with Sketch.</desc>
    <defs>
        <path d="M51.4175453,12.0507955 C51.8498576,10.8051312 54.7962768,6.94578045 49.5487779,3.26896817 C48.605788,2.60823496 47.0479654,3.26680115 45.6982041,2.84976736 C44.6826295,2.53598679 44.3402497,1.11914512 43.1760935,0.871968648 C41.9683844,0.615544926 40.6526543,1.77773804 39.2876744,1.67560585 C38.4512965,1.61302535 37.1608106,0.309613766 36.2900993,0.239406864 C34.7357321,0.114075645 33.3236788,1.58124561 31.8056285,1.67560585 C30.9255704,1.73030923 29.9045174,0.314316544 29.0310773,0.239406864 C26.9052532,0.0570877616 24.9691519,1.0481315 23.0958488,1.34868149 C21.3693306,1.62568151 20.5665115,5.16380349 19.2947513,6 C15.3039208,8.62401555 12.1771246,9.35770789 8.938704,12.0507955 C5.08904423,15.2522965 4.352246,17.6341562 2.75742877,19.767516 C1.16261154,21.9008757 0.177496659,29.4172796 1.10754484,34.2343867 C1.65615994,37.0758928 3.08584831,44.8361111 6.27968827,47.8406111 C10.6511987,51.952966 19.5447273,53.1714059 20.3342266,52.6227265 C23.990621,50.0816371 32.186894,36.0268608 38,31.0596268 C42.2746625,27.4069756 48.7394296,19.767516 51.4175453,12.0507955 Z" id="path-1"></path>
    </defs>
    <g id="Head/Front/Turban2" stroke="none" stroke-width="1" fill="none" fill-rule="evenodd">
        <g id="Head" transform="translate(54.000000, 31.000000)" fill="#B28B67">
            <path d="M8.26227388,34.4901268 C3.65436435,29.0813759 0.535634794,22.4528771 1.05677633,15.0254539 C2.55833022,-6.37502057 32.3485306,-1.66718886 38.1433414,9.13393292 C43.9381521,19.9350547 43.249578,47.3329958 35.7603014,49.2634576 C32.7735882,50.033323 26.4110012,48.1474609 19.935372,44.244306 L24,73 L0,73 L8.26227388,34.4901268 Z"></path>
        </g>
        <g id="Turban" transform="translate(40.000000, 22.000000)">
            <mask id="mask-2" fill="white">
                <use xlink:href="#path-1"></use>
            </mask>
            <use id="Path" fill="#FF9B21" xlink:href="#path-1"></use>
            <path d="M21.9555572,41.8421056 C24.5811812,36.027333 27.9574,28.565671 31.0112076,20.9117197 C33.2010503,15.4231782 35.5306478,8.39485486 38,-0.173250307 L40.9719724,-0.173250307 C36.290024,13.1700568 32.768261,22.4881471 30.4066836,27.7810206 C26.607923,36.2949736 23.8784274,42.7607173 21.703886,47.1002718 C25.3468741,41.7601131 30.9497299,33.0492503 36.922643,21.335361 C39.1872587,16.894068 41.853295,10.0938106 44.9207521,0.934588622 L47.6868166,2.11790169 C43.0427818,13.7106968 39.4547239,21.7949743 36.922643,26.3707343 C28.6691874,41.2856732 20.7882084,50.2847641 18.0335245,52.8387957 C17.5568888,53.2807131 17.3975435,53.3836196 17.511811,53.1576166 C17.4739444,53.1516955 17.4461564,53.1289205 17.4280597,53.0898167 C17.2342615,53.3828239 17.0414485,53.6396836 16.848515,53.8603451 C14.0706214,57.0374698 21.1787066,39.3265874 26.4178167,20.7516317 C28.0219544,15.0642561 29.6041303,7.83092542 31.1643443,-0.948360367 L34.1200359,-1.25901608 C30.8584911,12.5005919 28.3300264,22.1357612 26.5346419,27.6464918 C24.7142011,33.2341297 23.2312229,37.9679873 21.9555572,41.8421056 Z" id="Shade" fill-opacity="0.2" fill="#000000" mask="url(#mask-2)"></path>
        </g>
    </g>
</svg>