<?xml version="1.0" encoding="UTF-8"?>
<svg width="136px" height="104px" viewBox="0 0 136 104" version="1.1" xmlns="http://www.w3.org/2000/svg" xmlns:xlink="http://www.w3.org/1999/xlink">
    <!-- Generator: Sketch 52.4 (67378) - http://www.bohemiancoding.com/sketch -->
    <title>Head/Front/Turban 1</title>
    <desc>Created with Sketch.</desc>
    <defs>
        <path d="M59.5761618,12.9456954 C59.3658913,11.6405875 59.7821901,11.0000348 54.5346912,7.32322248 C49.2871923,3.64641021 40.8148726,-0.690083867 32.2816409,1.19718054 C21.2074934,3.64641021 16.8090436,10.95123 12.5386337,14.5025253 C8.68897397,17.7040264 4.82639368,18.0773849 2.53730321,22.0499243 C0.248212735,26.0224636 -0.969669172,37.4512721 1.02080294,41.9950076 C3.76655586,48.2628548 9.18121558,49.9508389 13.133879,51.7566178 C19.9127597,54.8535575 29.4945554,51.5827766 29.7266676,51.0409656 C31.5221564,46.8498232 41.186894,35.0268608 47,30.0596268 C51.2746625,26.4069756 60.5630562,19.0711556 59.5761618,12.9456954 Z" id="path-1"></path>
    </defs>
    <g id="Head/Front/Turban-1" stroke="none" stroke-width="1" fill="none" fill-rule="evenodd">
        <g id="Head" transform="translate(54.000000, 31.000000)" fill="#B28B67">
            <path d="M8.26227388,34.4901268 C3.65436435,29.0813759 0.535634794,22.4528771 1.05677633,15.0254539 C2.55833022,-6.37502057 32.3485306,-1.66718886 38.1433414,9.13393292 C43.9381521,19.9350547 43.249578,47.3329958 35.7603014,49.2634576 C32.7735882,50.033323 26.4110012,48.1474609 19.935372,44.244306 L24,73 L0,73 L8.26227388,34.4901268 Z"></path>
        </g>
        <g id="Turban" transform="translate(31.000000, 23.000000)">
            <mask id="mask-2" fill="white">
                <use xlink:href="#path-1"></use>
            </mask>
            <use fill="#5C63AB" xlink:href="#path-1"></use>
            <path d="M12.4570236,12 C14.25711,23.3796891 18.9826226,33.7873661 26.6335616,43.223031 C17.7122912,36.3009755 11.8344374,26.6221332 9,14.1865041 L12.4570236,12 Z M7.99840897,16.3421428 C10.9512397,28.5681061 18.6184367,40.1207252 31,51 C16.673342,42.3522376 7.67334197,31.1925804 4,17.5210284 L7.99840897,16.3421428 Z" id="SHade" fill-opacity="0.2" fill="#000000" mask="url(#mask-2)"></path>
        </g>
    </g>
</svg>