<?xml version="1.0" encoding="UTF-8"?>
<svg width="256px" height="187px" viewBox="0 0 256 187" version="1.1" xmlns="http://www.w3.org/2000/svg" xmlns:xlink="http://www.w3.org/1999/xlink">
    <!-- Generator: Sketch 52.4 (67378) - http://www.bohemiancoding.com/sketch -->
    <title>Body/Turtle Neck</title>
    <desc>Created with Sketch.</desc>
    <g id="Body/Turtle-Neck" stroke="none" stroke-width="1" fill="none" fill-rule="evenodd">
        <path d="M199.493124,92.4603344 L227.821028,120.095357 C236.063404,123.611168 242.816857,127.493333 248.081387,131.741853 C249.265301,133.169925 250.554184,135.906184 244.983927,134.681747 C239.413671,133.45731 233.49953,132.419902 232.45261,134.23139 C231.405691,136.042878 234.490525,138.818722 232.555688,141.189494 C231.265796,142.770009 226.92779,137.742701 219.54167,126.10757 L190.084396,108.74029 L199.493124,92.4603344 Z M60.9697919,67.4496834 L82.8671837,67.5318631 C66.1894326,121.56567 57.3363474,149.856914 56.3079281,152.405597 C53.9939846,158.140133 58.8906002,166.873732 60.9845874,171.567103 C54.1645409,174.61887 54.8912241,163.316929 46.2879189,167.319492 C38.4352209,170.972846 32.4616931,177.59248 23.3890352,171.994371 C22.2736052,171.306117 21.0512757,168.714714 24.0045784,166.68967 C31.3623323,161.644547 41.9653015,152.814672 43.3979297,149.908251 C45.3515741,145.944826 51.2088615,118.458637 60.9697919,67.4496834 Z" id="Skin" fill="#B28B67"></path>
        <path d="M122.768272,9.7139848 L131.253224,7.48281413 C149.019938,54.2642227 221.602897,80.8616426 227.451896,98.4190631 C229.596879,104.857833 225.154909,108.596168 227.774893,110.385298 L217.29519,119.561394 C215.205566,117.515062 211.513381,121.915723 202.815928,119.824345 C194.118475,117.732967 127.737533,66.5128914 122.768272,9.7139848 Z" id="Clothes-Back" fill="#DB2721" transform="translate(175.413267, 63.943241) rotate(5.000000) translate(-175.413267, -63.943241) "></path>
        <path d="M142.240708,11.7336597 C141.243756,75.4830742 178.095832,91.7445602 169.887262,117.318245 C163.108761,138.436573 98.2273311,161.138686 87,140.43774 C82.4553197,132.058262 80.3933796,121.923875 80.1594269,110.905608 C77.2899563,119.370535 75.0205237,126.657823 73.3511268,132.767479 C70.4711839,143.30749 59.3062598,144.982871 59.3062598,149.043262 L44.5966299,144.982871 C45.5943495,139.466662 38.6598745,136.780597 40.5191881,124.456905 C48.8500046,69.239525 71.2334081,29.2141817 107.669398,4.38087468 L108.046347,-1.0097438 C108.200449,-3.21350145 110.111872,-4.87507585 112.315629,-4.72097411 L139.249859,-2.83754931 C141.453616,-2.68344757 143.115191,-0.772024866 142.961089,1.43173278 L142.240708,11.7336597 Z" id="Clothes-Front" fill="#FF4133"></path>
    </g>
</svg>