<?xml version="1.0" encoding="UTF-8"?>
<svg width="136px" height="104px" viewBox="0 0 136 104" version="1.1" xmlns="http://www.w3.org/2000/svg" xmlns:xlink="http://www.w3.org/1999/xlink">
    <!-- Generator: Sketch 52.4 (67378) - http://www.bohemiancoding.com/sketch -->
    <title>Head/Front/Wavy</title>
    <desc>Created with Sketch.</desc>
    <g id="Head/Front/Wavy" stroke="none" stroke-width="1" fill="none" fill-rule="evenodd">
        <g id="Head" transform="translate(54.000000, 31.000000)" fill="#B28B67">
            <path d="M8.26227388,34.4901268 C3.65436435,29.0813759 0.535634794,22.4528771 1.05677633,15.0254539 C2.55833022,-6.37502057 32.3485306,-1.66718886 38.1433414,9.13393292 C43.9381521,19.9350547 43.249578,47.3329958 35.7603014,49.2634576 C32.7735882,50.033323 26.4110012,48.1474609 19.935372,44.244306 L24,73 L0,73 L8.26227388,34.4901268 Z"></path>
        </g>
        <path d="M94.4090961,44.9836328 C94.1713645,43.583583 93.5903632,42.028843 93.1215639,40.7042644 C92.5171614,38.996708 91.602499,37.4571303 90.5959364,36.0061417 C88.7009022,33.2743581 86.427574,30.8074902 83.917599,28.760058 C79.3328188,25.0202318 73.4966155,22.8630853 67.7574266,23.5636213 C64.8597041,23.9172965 62.046753,25.0226169 59.6525443,26.8623756 C57.4894034,28.5246153 55.4087091,30.9715506 52.6076911,31.147366 C49.5599529,31.3385142 46.7662186,28.6484698 44.321953,26.9870819 C41.5660327,25.1141023 38.6342158,23.7493178 35.4132155,23.2188049 C30.0172962,22.3303577 24.9482191,24.1534208 21.2294392,28.5804946 C17.2721527,33.2915649 14.3955069,40.2003282 16.9942826,46.442458 C17.4773396,47.6028059 18.0987894,48.5810349 18.9906704,49.3917962 C19.8086285,50.1352639 21.0578819,50.926263 21.3895284,52.1142098 C21.7417865,53.3769463 20.6895063,55.005965 20.2814572,56.1453581 C19.6968915,57.7777841 19.2169339,59.4913033 19.3875614,61.2656423 C19.6679112,64.1795448 21.4990957,66.961245 23.4327187,68.8764749 C25.4004362,70.8254368 27.8222304,71.9430234 30.408918,72.4582035 C32.1361143,72.802168 33.9012795,72.9919533 35.6566813,72.8628175 C36.5281056,72.7987608 37.2970916,72.5566738 38.1413953,72.3641627 C38.9624528,72.1769329 39.4213338,72.3949985 40.1179464,72.8452701 C43.3539792,74.9373376 46.8334778,75.746736 50.5700799,75.4356517 C53.723666,75.1729507 57.3584495,74.4086987 59.9310344,72.2479746 C62.7879984,69.84823 62.7311226,66.5390835 62.0588411,63.0035235 C62.7711061,63.3565173 64.7416132,63.575094 63.5641132,62.1680594 C63.0976384,61.6107994 62.2162957,61.3840451 61.6177822,61.0562652 C60.9208597,60.6746502 60.2132439,60.181447 59.6720712,59.5589377 C57.4869238,57.0453901 59.6939227,51.9300465 62.4403895,51.0870864 C66.5208811,49.8347421 67.4344587,55.6054753 70.3473686,57.0982029 C72.0221834,57.9564958 73.7741757,56.7833706 75.0290082,55.5855427 C76.709867,53.980886 77.8554422,51.8550865 78.8444926,49.6918069 C79.6591961,47.9103126 80.4173338,46.1037748 81.2476898,44.3311394 C81.6354372,43.5033417 82.9778306,41.1632245 82.3036894,40.2272457 C85.2263628,39.6444311 88.4816125,40.8589547 90.9987164,42.4516859 C92.0390635,43.110142 92.8322255,43.8360622 93.387191,44.9984544 C93.5060568,45.2475263 93.7648651,45.9879274 94.0898476,46.0182522 C94.69487,46.0748129 94.4687615,45.335434 94.4090961,44.9836328" id="hair" fill="#191847"></path>
    </g>
</svg>