<?xml version="1.0" encoding="UTF-8"?>
<svg width="740px" height="680px" viewBox="0 0 740 680" version="1.1" xmlns="http://www.w3.org/2000/svg" xmlns:xlink="http://www.w3.org/1999/xlink">
    <!-- Generator: Sketch 52.4 (67378) - http://www.bohemiancoding.com/sketch -->
    <title>Scene/Whiteboard</title>
    <desc>Created with Sketch.</desc>
    <g id="Scene/Whiteboard" stroke="none" stroke-width="1" fill="none" fill-rule="evenodd">
        <path d="M53.8112777,519.87459 C70.1175596,435.901252 235.117775,483.739664 343.290069,457.779141 C451.462363,431.818618 579.439199,310.915231 664.13652,370.139775 C748.833842,429.364318 658.716864,572.527201 464.457517,604.834305 C270.19817,637.141408 37.5049959,603.847928 53.8112777,519.87459 Z" id="Background-Shape" fill="#F2F2F2"></path>
        <g id="Cells" opacity="0.5" transform="translate(95.000000, 125.000000)">
            <path d="M1.90802857,2.67231771 C0.335028571,4.24279688 0.946028571,9.82430208 0.913064286,11.8898437 C0.862457143,15.1054323 1.06256429,18.2922812 1.33138571,21.4962813 C1.51152857,23.6415521 2.52692143,44.1138698 5.35256429,42.5415365 C6.94552857,41.6557083 5.94685,35.7335 5.94406429,33.8603281 C5.93756429,29.6958698 5.76438571,25.5416094 5.48674286,21.3864219 C5.2286,17.5288281 5.06656429,13.7161979 5.21513571,9.8511875 C5.25135,8.90788021 6.13395714,-1.56120833 1.90802857,2.67231771" id="Fill-5" fill="#89C5CC"></path>
            <path d="M70.4094393,0.148657812 C56.8959393,0.256199479 43.3880107,0.922772396 29.8810107,1.3311526 C23.381475,1.52769427 16.8861179,1.77754323 10.3935464,2.1377151 C8.181225,2.26055365 3.436225,1.55226198 1.59301071,2.73104844 C-2.49873929,5.34820469 4.10015357,5.96007969 5.85933214,5.89611094 C32.5896536,4.92684531 59.3292607,3.65025156 86.0823321,3.58999115 C99.2058321,3.56078802 112.322832,3.9344026 125.447725,3.85050156 C130.464796,3.81851719 136.020439,1.6570224 137.287475,7.49672031 C138.717475,14.0864286 137.074368,21.4233661 136.627261,28.0450589 C136.328725,32.4653922 136.435046,36.7939443 136.634225,41.2105693 C136.761904,44.0400276 136.429475,47.2282672 136.929511,50.0048818 C137.410975,52.6785901 139.333118,54.2819807 141.095082,51.287038 C142.147618,49.4973036 141.623904,45.0783609 141.694011,43.0049391 C141.788261,40.2125641 141.699582,37.4211161 141.699582,34.6282776 C141.698654,27.8114339 142.661118,21.0214755 142.533904,14.2060224 C142.452189,9.81118385 142.218654,1.84382969 136.675546,0.787881771 C130.571582,-0.375144271 123.068725,0.794371354 116.822225,0.722985937 C101.344332,0.546376562 85.8924393,0.0276734375 70.4094393,0.148657812" id="Fill-7" fill="#89C5CC"></path>
            <path d="M33.1736321,42.786101 C28.0780964,42.786101 22.9820964,42.8166948 17.887025,42.9010594 C13.5171679,42.9733719 6.64666786,42.0625125 2.579525,43.6260385 C-0.204796429,44.6963562 -0.944403571,47.8048667 2.579525,48.6327521 C6.42288214,49.5361948 12.2153107,48.059351 16.2364893,47.9884292 C36.4004179,47.6324292 56.7584179,47.168424 76.894025,48.4436271 C95.7616679,49.638174 114.992846,50.7965646 133.888346,49.5357312 C135.478061,49.4295802 143.586346,49.1069552 139.886454,46.0675125 C137.727989,44.2935385 128.979454,45.4602729 126.174239,45.3754448 C116.279846,45.076924 106.375704,45.0106375 96.4845607,44.6356323 C86.7224893,44.2652625 77.0035964,43.1675958 67.238275,42.8959604 C55.8929893,42.5802885 44.5226321,42.786101 33.1736321,42.786101" id="Fill-9" fill="#89C5CC"></path>
            <path d="M28.0753107,13.8039 C36.0173821,14.1506292 43.8749536,25.6687125 35.8390964,31.2353844 C28.3004893,36.4585719 14.1718107,30.7342958 18.3638464,20.6059104 C17.7612036,22.0702385 19.1257393,19.0150354 19.1429179,18.9946396 C19.9400964,18.0555042 21.3714893,17.0157802 22.3539179,16.2755042 C23.4784179,15.42815 24.6493464,14.4955042 26.0050607,14.0709 C26.8950964,13.7923115 26.7553464,14.8408427 28.0753107,13.8039 M24.2073464,9.64963958 C20.490275,11.1009885 18.793775,12.7382177 16.239275,15.7007125 C14.4717393,17.7509573 12.2185607,18.8296188 12.238525,21.6002073 C12.2427036,22.2134729 13.0305964,22.8874625 13.1666321,23.4780146 C13.3546679,24.2943115 13.1369179,25.3400615 13.2859536,26.2073479 C14.8236679,35.1564833 25.5013107,38.173676 33.3170964,36.4840667 C40.1253821,35.0123219 45.2172036,28.4768479 43.640025,21.3702906 C42.0521679,14.2164521 31.4437036,6.81925417 24.2073464,9.64963958" id="face" fill="#89C5CC"></path>
            <path d="M20.8963393,22.1426901 C20.8963393,25.361987 25.9816607,25.361987 25.9816607,22.1426901 C25.9816607,18.960013 20.8963393,18.8232682 20.8963393,22.1426901" id="Fill-13" fill="#89C5CC"></path>
            <path d="M27.2584929,21.4910432 C27.2584929,24.0493297 31.2991714,24.0493297 31.2991714,21.4910432 C31.2991714,18.9619599 27.2584929,18.8539547 27.2584929,21.4910432" id="Fill-15" fill="#89C5CC"></path>
            <path d="M28.5096964,26.76675 C27.2157321,27.2641302 25.5744821,26.23275 24.5121964,26.9123021 C22.6309107,28.1165833 24.5168393,29.2063698 25.5252679,29.6903073 C30.0655179,31.8689531 30.873375,25.8614531 28.5096964,26.76675" id="Fill-17" fill="#89C5CC"></path>
            <path d="M97.8496071,19.6317776 C97.7145,19.6892568 97.2325714,19.8932151 97.8496071,19.6317776 M78.0775357,16.7420589 C74.6794286,17.5092203 71.8101429,20.6826266 68.1181429,20.2580224 C65.2887857,19.9326161 63.3731429,17.2023557 60.58,16.8055641 C57.0068571,16.2975224 47.2823929,24.4484391 52.3951071,25.8469443 C55.3781429,26.6632411 57.0328571,21.2119911 59.6681429,20.9222776 C61.7527857,20.693288 64.5877143,23.2497203 66.7480357,23.6136005 C70.7780357,24.2926891 73.5456429,22.072788 77.0835,20.6413714 C80.9277857,19.0857255 83.1150357,20.4865484 86.4583571,22.2155589 C89.0973571,23.5802255 91.5826786,24.4688349 94.6023929,23.9056318 C97.4363929,23.3776578 100.996536,20.4633714 103.849107,20.7623557 C106.643179,21.0553141 108.637286,23.9709911 111.511214,24.2416995 C112.696071,24.3529495 114.459893,24.7566943 114.260714,22.9284859 C114.101464,21.4646214 112.468107,21.7126161 111.446214,21.1804703 C108.818357,19.8120953 106.360429,17.3882359 103.188893,17.5949755 C100.803393,17.7507255 98.6314643,19.4268922 96.4330714,20.2288193 C89.2329286,22.8547828 85.1852857,15.1479391 78.0775357,16.7420589" id="Fill-19" fill="#89C5CC"></path>
            <path d="M84.0924964,63.1111052 C70.2038536,63.2385792 56.2683179,63.4448552 42.418675,64.5582823 C39.1352464,64.8220375 5.60824643,67.9875635 5.67185357,68.215626 C5.78931786,68.637449 10.1016036,69.2817719 10.074675,69.3814333 C9.78403214,68.660626 9.11963929,68.3621052 8.08196071,68.4867979 C39.8794964,68.4867979 71.5762821,65.639725 103.415604,66.1519385 C111.415711,66.2803396 119.445996,66.2265688 127.440532,66.4787354 C129.436496,66.5417771 134.381604,67.9722667 135.949032,67.0711417 C140.062604,64.7056885 132.589461,64.4326625 131.351675,64.3334646 C115.682961,63.0800479 99.8053179,62.9544281 84.0924964,63.1111052" id="Fill-21" fill="#69A1AC"></path>
            <path d="M1.55572857,69.8591594 C-0.520557143,71.940925 1.39137143,79.4299042 1.47308571,82.2445292 C1.59147857,86.3139615 1.49397857,90.4121333 1.85101429,94.4709042 C2.25865714,99.1072479 2.89101429,104.046748 4.10744286,108.544956 C4.77740714,111.02305 7.12901429,114.9613 8.06083571,110.458456 C8.72615714,107.242404 7.71587143,102.975967 7.36440714,99.6996542 C6.89408571,95.3168677 6.78033571,90.9915604 6.76269286,86.587451 C6.74690714,82.7497896 6.67308571,78.8963677 6.3583,75.0707583 C6.19487143,73.0844823 5.19572857,66.2384354 1.55572857,69.8591594" id="Fill-23" fill="#69A1AC"></path>
            <path d="M53.794,107.998162 C43.9381429,108.167355 34.0609286,108.39959 24.2217857,109.015173 C20.189,109.267803 16.1594643,109.643735 12.1415357,110.070194 C11.3216071,110.156876 2.24667857,110.525392 6.30175,113.87448 C8.13196429,115.386553 15.6608214,113.29598 18.1475357,113.078116 C22.3298214,112.711454 26.5111786,112.473194 30.7055357,112.295657 C40.4239643,111.883105 50.1721071,111.518761 59.9002857,111.687491 C77.6666429,111.995746 95.3187857,112.133418 113.09025,111.73709 C115.615036,111.681001 135.395929,112.209439 136.06775,109.582548 C136.609107,107.465553 129.53525,108.436673 128.245464,108.475147 C123.513929,108.616527 118.781929,108.583616 114.048536,108.559511 C93.9974286,108.456605 73.8297857,107.659314 53.794,107.998162" id="Fill-25" fill="#69A1AC"></path>
            <path d="M132.718718,66.346626 C133.031646,75.1219333 134.526182,83.8870427 135.003932,92.6887719 C135.222146,96.7123135 135.479361,100.732147 135.676218,104.757079 C135.739825,106.055459 135.216575,109.183902 136.751968,109.930668 C138.857968,110.955095 139.141646,108.890944 139.535825,107.494756 C140.674718,103.461944 139.904468,98.2234594 139.800932,94.081251 C139.701111,90.0697615 139.694146,86.0513188 139.398396,82.0472458 C139.095218,77.9564906 138.271575,73.9431469 137.889468,69.8667615 C137.727896,68.14285 138.292932,65.2739906 136.462718,64.2041365 C134.880896,63.2793708 132.650468,64.4447146 132.718718,66.346626" id="Fill-27" fill="#69A1AC"></path>
            <path d="M35.8446214,80.9441094 C35.8822286,80.972849 35.9193714,81.0020521 35.9565143,81.0312552 C35.9193714,81.0020521 35.8817643,80.9733125 35.8446214,80.9441094 M27.4689071,78.3441042 C30.5921571,79.2364219 33.1573357,78.903599 36.1408357,81.1772708 C38.6140857,83.0624948 41.1509429,85.8205677 41.9713357,88.8688177 C43.86655,95.9114063 37.4413,99.7708542 31.4176571,99.846875 C25.2477643,99.9242865 16.1152643,98.4933333 16.4314429,90.584849 C16.6738,84.5087448 21.1105143,78.5800469 27.4689071,78.3441042 M27.6889786,74.3641354 C19.5899786,74.7674167 13.0570143,83.8625677 13.1271214,91.5184219 C13.2116214,100.797135 23.7253714,103.18762 31.1938714,103.252052 C39.6229786,103.324365 48.0284071,97.5041354 45.7696571,88.0251719 C43.9598714,80.4305052 35.4773714,73.9594635 27.6889786,74.3641354" id="face" fill="#69A1AC"></path>
            <path d="M19.54225,86.8223276 C19.54225,89.4098172 23.6302857,89.4098172 23.6302857,86.8223276 C23.6302857,84.2645047 19.54225,84.1546453 19.54225,86.8223276" id="Fill-31" fill="#69A1AC"></path>
            <path d="M28.11705,85.6870214 C28.11705,88.2949068 32.2375857,88.2949068 32.2375857,85.6870214 C32.2375857,83.1088026 28.11705,82.9980161 28.11705,85.6870214" id="Fill-33" fill="#69A1AC"></path>
            <path d="M23.3898321,91.5886021 C20.7290107,94.2451594 30.076475,98.9023625 32.2809036,95.2065448 C34.0916179,92.171274 30.1493679,93.1776229 28.7518679,93.0135292 C27.2331893,92.8346021 24.629475,90.3523365 23.3898321,91.5886021" id="Fill-35" fill="#69A1AC"></path>
            <path d="M98.1244179,85.7404677 C97.8681321,85.8480094 97.8681321,85.8480094 98.1244179,85.7404677 M63.0220964,81.415624 C60.3278464,81.9208844 51.4859893,84.903775 51.3666679,88.1003583 C51.1484536,93.9103896 59.8078464,87.9594417 61.6882036,87.1950615 C66.796275,85.1193219 69.4803107,89.353775 74.6115964,89.5772021 C79.068275,89.771426 83.1660607,85.9574052 87.3641321,86.4084312 C91.762775,86.8807802 93.878525,91.5602333 98.9564179,89.07565 C101.642775,87.7615094 101.574989,85.7353687 98.5594536,85.5443896 C96.7366679,85.4289677 95.4844893,86.1822229 93.5841679,85.3979104 C90.612275,84.1723062 89.4153464,82.1762958 85.8589179,82.4933583 C83.1753464,82.7325458 80.7499179,84.2450823 78.1304179,84.8305354 C72.1323107,86.1706344 68.8052393,80.3323271 63.0220964,81.415624" id="Fill-37" fill="#69A1AC"></path>
            <path d="M118.817586,88.2630151 C118.632336,88.3408901 118.632336,88.3408901 118.817586,88.2630151 M119.4973,85.8437911 C119.527014,85.8567703 119.730371,86.1386036 119.4973,85.8437911 M116.408871,83.9970411 C116.2928,84.0865047 116.2928,84.0865047 116.408871,83.9970411 M116.476193,83.9743276 C117.075121,84.3326453 121.890229,87.6251818 118.392764,88.400687 C116.617336,88.7942339 115.148336,85.2217182 116.476193,83.9743276 M114.881836,80.3267182 C107.168657,83.8436089 115.468693,96.4287651 121.52205,91.315437 C124.069121,89.1636766 124.404336,84.8147286 121.926443,82.5730411 C120.441657,81.2296974 116.8973,79.4061245 114.881836,80.3267182" id="point" fill="#69A1AC"></path>
            <path d="M42.4768036,129.920856 C32.8521607,129.923637 23.1430179,129.721533 13.531375,130.292153 C11.9138036,130.388106 5.75180357,130.080314 4.91841071,131.771314 C3.39369643,134.864064 9.73398214,133.328814 10.655125,133.236106 C29.7929821,131.320288 49.7841964,132.42259 68.9851964,132.968642 C84.6887321,133.415033 100.308232,133.692231 115.993196,134.501574 C120.116054,134.71434 124.235196,134.949356 128.355268,135.197814 C129.697982,135.278934 133.077518,136.168934 133.360732,134.024127 C133.622589,132.039241 129.406875,132.487486 128.353875,132.431861 C119.979089,131.991033 111.609875,131.529345 103.237411,131.057923 C83.0850893,129.921783 62.6611607,129.917147 42.4768036,129.920856" id="Fill-41" fill="#89C5CC"></path>
            <path d="M4.60938214,133.360057 C2.81166786,135.14701 3.65434643,141.970807 3.60420357,144.226401 C3.51645357,148.17114 3.330275,152.112635 3.24670357,156.056447 C3.15988214,160.17826 3.28059643,164.319078 3.52434643,168.434864 C3.62648929,170.162947 5.04488214,178.515041 7.27809643,173.735463 C8.27584643,171.599463 7.25395357,165.650369 7.269275,163.230218 C7.29666786,158.825645 7.53391786,154.439614 7.75306071,150.041067 C7.94156071,146.259958 7.948525,142.47514 8.11381071,138.693104 C8.166275,137.487432 8.30881071,129.649406 4.60938214,133.360057" id="Fill-43" fill="#89C5CC"></path>
            <path d="M134.979836,168.595342 C125.613336,169.555337 116.096407,169.10153 106.694157,169.810748 C98.5909786,170.421696 90.4952286,170.671545 82.3711571,170.843519 C63.9747643,171.231967 45.5472643,171.610681 27.2042643,173.143613 C23.0238357,173.49266 18.8485143,173.863493 14.6569429,174.050764 C12.5606929,174.144399 3.76433571,173.190431 3.10922857,175.400134 C1.99355,179.163629 11.4004429,177.674269 13.4293714,177.615399 C17.8911571,177.486535 22.33205,177.16391 26.7813,176.825061 C45.4845857,175.400134 64.2593714,174.974139 83.0025857,174.381733 C93.1964429,174.060035 103.319264,173.314196 113.490371,172.635571 C118.559907,172.297649 123.643371,172.286524 128.712443,171.958801 C130.038907,171.873045 134.733764,172.042238 135.687871,170.974702 C136.343443,170.241842 136.509193,168.452571 134.979836,168.595342" id="Fill-45" fill="#89C5CC"></path>
            <path d="M131.804864,134.000393 C132.12615,142.982904 132.633614,151.957534 132.936793,160.940044 C133.028257,163.641102 132.212043,168.482331 133.716329,170.864471 C136.134793,174.694716 138.022579,170.641044 138.465507,168.254268 C139.863471,160.721253 138.360579,152.399753 137.970114,144.820383 C137.821543,141.92881 138.719471,135.492997 137.321971,132.905044 C135.990864,130.43993 131.685543,130.687461 131.804864,134.000393" id="Fill-47" fill="#89C5CC"></path>
            <path d="M116.079461,146.793494 C119.667925,147.765541 120.192104,155.567411 116.143068,156.14452 C110.116175,157.003463 112.751925,148.401984 116.079461,146.793494 M115.074282,143.69101 C113.979496,143.656708 111.452854,143.354942 110.778246,144.245869 C110.213675,144.991708 110.784282,146.564505 110.718354,147.274651 C110.481104,149.813005 108.417354,151.278723 109.339889,154.27552 C109.966211,156.309541 111.643211,158.220723 113.686996,158.927161 C124.472354,162.654963 124.340961,141.815984 115.074282,143.69101" id="hola-:)" fill="#89C5CC"></path>
            <path d="M17.7018679,145.090767 C17.6749393,145.125069 17.6480107,145.159371 17.6215464,145.193673 C17.6480107,145.159371 17.6749393,145.125069 17.7018679,145.090767 M26.1727607,140.583751 C26.1305107,140.223116 26.0882607,139.862017 26.0460107,139.500918 C31.8936893,142.261308 36.5467607,147.395959 34.6051179,154.287897 C33.1235821,159.54585 27.7708321,161.410678 22.7839393,160.112761 C17.2635821,158.675319 14.6255107,154.125194 16.1140107,148.537662 C16.8006893,145.959907 18.909475,142.49586 21.6352964,141.667048 C22.9041893,141.281381 25.7103321,142.264553 26.1727607,140.583751 M22.7532964,138.400933 C21.2740821,138.500595 19.8343321,139.117105 18.6271893,139.959824 C19.7572607,139.004001 21.2634036,138.434772 22.7532964,138.400933 M22.7955464,135.005027 C19.1416179,135.116741 16.7472964,137.328761 14.5800107,139.985319 C13.8998321,140.81923 11.600225,143.02986 11.8848321,144.153485 C12.1100107,145.041631 12.6991893,146.340475 13.9397607,145.35035 C7.44208214,158.300314 24.2278679,169.345584 34.4751179,160.34036 C44.038475,151.93635 34.5503321,134.611017 22.7955464,135.005027" id="Fill-51" fill="#89C5CC"></path>
            <path d="M19.4755786,147.034536 C19.4755786,148.758911 22.15265,148.758911 22.15265,147.034536 C22.15265,145.310161 19.4755786,145.310161 19.4755786,147.034536" id="Fill-53" fill="#89C5CC"></path>
            <path d="M24.0441036,147.328792 C24.0441036,149.081443 26.7643536,149.081443 26.7643536,147.328792 C26.7643536,145.576141 24.0441036,145.576141 24.0441036,147.328792" id="Fill-55" fill="#89C5CC"></path>
            <path d="M26.1172786,153.483606 C24.8446714,153.586976 20.1864929,153.154491 19.3688857,154.269309 C18.0024929,156.131819 20.1832429,156.196715 21.25435,156.397892 C22.2191357,156.579137 26.4130286,156.476694 27.0040643,155.620069 C27.5263857,154.863106 27.4042786,153.37421 26.1172786,153.483606" id="Fill-57" fill="#89C5CC"></path>
            <path d="M82.2410179,148.653084 C82.0223393,148.743475 82.0223393,148.743475 82.2410179,148.653084 M64.6399464,147.365829 C61.7725179,147.576741 59.3438393,149.226022 56.6022321,149.884251 C53.6758393,150.58698 52.4092679,149.294626 49.7484464,148.448662 C46.980375,147.56886 45.0113393,147.916517 42.7864821,149.80684 C41.5259464,150.878084 38.7601964,153.343662 39.5480893,155.246501 C41.3523036,159.601939 45.4361607,152.515777 47.3569107,152.186199 C50.3534107,151.672131 53.0193393,154.292069 56.4745536,153.542522 C59.6056964,152.863897 62.3839821,150.713991 65.6544107,150.690814 C68.3890536,150.671345 70.9663036,152.167657 73.666125,152.529683 C77.7875893,153.082689 80.4939107,151.619287 84.3038393,150.532746 C87.6076964,149.590829 89.9244821,150.833121 93.0319464,151.877944 C94.4521964,152.355392 99.1911607,154.091355 98.3187679,150.943444 C98.0722321,150.054371 91.827125,148.464423 90.8590893,148.158485 C87.4447321,147.079824 85.2825536,147.500256 82.0302321,148.74023 C79.317875,149.774855 77.036375,150.278725 74.1280893,149.709496 C70.9240536,149.082324 68.0101964,147.109954 64.6399464,147.365829" id="Fill-59" fill="#89C5CC"></path>
        </g>
        <g id="Big-Cards" opacity="0.5" transform="translate(287.000000, 64.000000)">
            <path d="M4.57464028,64.0118864 C5.03760139,54.0554227 5.67405694,44.1128704 6.00944861,34.1503784 C6.17552083,29.2136492 6.30587361,24.2764563 6.4315875,19.3387996 C6.45942083,18.2393271 6.48818194,17.1403182 6.51276806,16.0408457 C6.5944125,12.3056067 6.15139861,12.0000173 9.91029028,11.6684598 C26.6794097,10.1882758 43.5148653,9.69766336 60.3043958,8.3584492 C80.5526819,6.74332354 100.906735,5.6280846 121.212543,5.12819788 C130.23611,4.90561381 139.297715,4.44467929 148.322674,4.72522796 C150.322499,4.78736602 154.247463,4.26707575 155.034682,5.82145451 C155.374713,6.49291646 154.661251,8.80361735 154.570793,9.57848814 C154.287821,11.9990899 154.023868,14.4280386 153.861043,16.860697 C152.900793,31.2080952 153.473232,45.9171926 156.251463,60.0471076 C149.734288,56.3721519 141.50026,53.2109943 133.904079,53.8384032 C126.159918,54.4778687 120.366874,58.9522722 114.16839,63.0705412 C110.661854,65.3997908 109.480793,66.0123607 105.982607,63.7559147 C102.968257,61.8110864 100.116268,59.5875642 97.2721653,57.4053129 C92.8833125,54.0373377 88.7412486,50.3855678 84.4850681,46.854828 C76.6597264,40.3627926 65.8784847,31.1223076 55.0703375,33.8429342 C47.3484431,35.786835 40.2180069,40.0307713 33.5157403,44.1842828 C23.5583653,50.3549625 14.5445403,57.9116917 4.57464028,64.0118864 M138.778624,0.303688142 C100.305535,0.303688142 62.1205208,4.03336248 23.7559819,6.05099434 C19.7493736,6.26152177 15.7562181,6.57174832 11.7635264,6.95709699 C9.10265972,7.21399611 2.59569028,6.1353908 0.851931944,8.40899434 C-0.311501389,9.92581204 0.688179167,10.153497 0.851931944,11.5947288 C1.0583625,13.4111076 0.935895833,15.5632173 0.882548611,17.4857873 C0.754515278,22.1183182 0.6199875,26.7503855 0.514684722,31.3833802 C0.117595833,48.8933271 -0.130584722,66.400028 0.5782375,83.9053377 C0.7327125,87.7231182 2.12391528,93.0090262 1.36267361,96.7187607 C0.8120375,99.4046085 -1.03006528,101.03921 3.21776528,101.535387 C7.39786806,102.024145 12.5089958,100.781384 16.6928097,100.383515 C20.9007458,99.9828634 25.1082181,99.5483607 29.3212569,99.2010368 C47.6383736,97.6916386 66.1331597,97.9197873 84.4985208,97.4180457 C103.02949,96.9121306 121.566954,96.8796704 140.103954,96.8694687 C147.860176,96.8652952 156.722774,97.301189 164.290657,95.1667005 C166.953379,94.4154793 167.383868,94.0454333 166.727465,91.4036386 C166.602679,90.9023607 165.79876,90.7173377 165.56264,89.811235 C165.242093,88.578212 165.406774,87.0794793 165.331624,85.7959112 C165.08669,81.6039112 165.001335,77.4044917 164.803718,73.2097094 C164.473893,66.2010935 163.265926,59.3992952 162.372476,52.4611642 C161.341251,44.4486014 161.394135,36.3131536 161.37326,28.2481908 C161.361199,23.7747147 161.476243,19.3160775 161.835293,14.8551218 C162.065846,11.993989 163.474676,7.72222973 162.760288,5.05400319 C162.404485,3.72545451 161.82184,2.67188991 160.438988,2.10012708 C159.563165,1.73750053 158.82651,2.02129522 157.960429,1.92947929 C156.933379,1.82050584 156.292285,1.67628991 155.061588,1.39759611 C149.78949,0.202597876 144.151385,0.303688142 138.778624,0.303688142" id="Fill-67" fill="#69A1AC"></path>
            <path d="M117.487237,19.3524329 C117.484454,22.1407621 117.049326,26.2553214 118.334762,28.880886 C119.965331,32.2113002 122.005051,31.1702559 122.545481,28.0406312 C122.854895,26.2474382 122.847473,20.940663 122.271323,19.3524329 C121.45627,17.1043338 117.487237,15.5731409 117.487237,19.3524329" id="Fill-69" fill="#89C5CC"></path>
            <path d="M122.16551,20.4290906 C119.547785,20.5213703 111.924235,19.893034 110.153107,21.9978446 C107.115099,25.60788 112.403896,26.2473455 114.674632,26.045165 C117.302563,25.8114517 125.422938,26.3818234 127.182932,24.2746942 C130.126771,20.7495189 124.223785,20.3539685 122.16551,20.4290906" id="Fill-71" fill="#89C5CC"></path>
            <path d="M20.5829356,113.579319 C32.0910911,115.578402 28.5107967,133.124519 17.6214689,129.060504 C13.8273217,127.644313 8.23653278,123.552476 10.3337744,118.731212 C11.9003272,115.12906 17.0058883,113.236168 20.5829356,113.579319 M15.8183328,108.12369 C8.33394944,109.383609 3.217255,117.482887 5.78348833,124.547612 C8.25879944,131.363322 17.6483744,136.354306 24.5728439,133.904954 C31.1832606,131.56643 34.4810467,122.771113 32.2525244,116.337042 C29.9238022,109.61454 22.3378272,107.026073 15.8183328,108.12369" id="Fill-73" fill="#89C5CC"></path>
            <path d="M85.8163828,115.631636 C82.951405,115.869523 80.4751661,117.875562 77.5920967,118.230769 C74.8964383,118.56279 72.6623494,117.640458 70.13833,116.903148 C67.0873328,116.012348 64.289155,115.620507 61.1713578,116.412072 C58.7888244,117.017222 56.4387633,118.638376 53.9639161,118.834065 C49.0940106,119.218486 43.4341022,113.662231 39.6320689,119.946521 C37.8094494,122.95929 40.4559356,124.899944 43.1822106,123.494882 C46.0244578,122.030465 44.62908,121.506001 48.1546356,122.371297 C51.096155,123.092376 53.4735856,123.484217 56.4202078,122.473314 C59.0894244,121.557937 61.4325272,119.882528 64.3332244,119.694259 C67.1736161,119.510164 69.6447522,120.803934 72.3598939,121.362249 C75.6989661,122.04855 78.6534744,121.529187 81.8171967,120.482578 C84.8264439,119.486978 86.0269883,118.942575 89.063605,119.830592 C90.9864244,120.393081 95.1869383,122.179782 97.0582661,120.739941 C100.294355,118.250709 95.9620967,117.886691 94.2559133,117.532875 C91.5092272,116.963895 88.66698,115.398387 85.8163828,115.631636" id="Fill-75" fill="#89C5CC"></path>
            <path d="M151.383737,113.959474 C151.406932,113.977095 151.429662,113.994716 151.451929,114.012337 C151.429662,113.994716 151.406468,113.977095 151.383737,113.959474 M148.571179,113.371017 C152.754065,113.640436 157.277446,121.260231 151.734901,121.530578 C147.833596,121.721166 143.469329,115.048744 148.571179,113.371017 M147.984359,107.135881 C134.757496,110.829385 140.803823,129.476829 153.562159,127.322865 C159.356596,126.344422 161.320701,119.63073 159.40484,114.661077 C158.582365,112.526589 156.978237,110.726904 155.060984,109.498518 C153.646587,108.592415 149.600548,106.685612 147.984359,107.135881" id="Fill-77" fill="#89C5CC"></path>
            <path d="M5.75544555,226.316652 C5.36492995,224.581214 5.57626328,221.928799 5.55451629,221.315547 C5.45246073,218.440966 5.41674129,215.564995 5.30587184,212.691342 C5.04238296,205.843172 4.86749684,198.955586 4.33959129,192.122719 C3.83534407,185.591267 2.56150518,179.257823 2.52485796,172.677681 C2.50027184,168.227391 1.26354407,156.951189 5.16113851,153.928219 C11.8592302,150.01955 9.21042462,163.810025 9.10048296,166.196775 C8.77019407,173.382531 9.21831073,180.251568 9.94151351,187.39188 C10.6039468,193.936315 9.84224129,200.451073 9.58803018,206.995972 C9.45303851,210.470602 9.37928018,213.940131 9.11764684,217.408733 C9.03636621,218.490402 9.16154234,223.364549 8.59419461,225.960721 C10.05464,225.898104 11.4438598,225.963403 12.2188832,225.939963 C17.6449916,225.775807 23.0715638,225.632055 28.4967443,225.428019 C49.3671055,224.643411 70.2490638,224.998154 91.1152499,224.007191 C110.851403,223.069092 130.659922,222.870158 150.410919,222.627634 C152.138905,222.778342 152.911744,224.591938 151.802586,225.985871 C150.71755,227.349662 145.687139,227.050565 144.119194,227.177159 C138.556239,227.624182 133.003953,227.825435 127.424297,227.878763 C115.673992,227.990519 103.968219,228.494115 92.2373971,229.163258 C71.3944055,230.351301 50.5207971,230.252993 29.6666721,231.101131 C24.6047166,231.307021 19.5422971,231.460975 14.4780221,231.593598 C11.8074138,231.663619 4.8138249,233.272253 3.49081379,230.081418 C2.5563107,227.826728 3.85536061,226.788942 5.75544555,226.316652 Z M121.205867,145.158129 C127.520322,145.099701 133.799986,145.210065 140.105164,145.571764 C142.901486,145.73221 145.696417,145.887092 148.494594,146.005339 C150.111247,146.07397 153.804267,145.543941 155.221911,146.293771 C160.788114,149.238373 149.44835,149.56112 148.069672,149.537934 C142.284978,149.440554 136.511417,148.990285 130.727186,148.848387 C109.452314,148.325778 88.0187916,149.620476 66.7629388,150.492263 C56.5378999,150.911927 46.3184277,150.971747 36.0970999,151.545828 C30.510486,151.859764 24.9266555,152.218681 19.3391138,152.513141 C16.7631388,152.64901 14.186236,152.780706 11.6065499,152.845626 C10.0177305,152.88597 6.78210546,153.543984 5.31343323,152.94347 C4.06278879,152.431991 3.05151101,151.716939 3.73899434,150.201513 C4.47936101,148.570621 7.70153323,149.264805 9.06536657,149.238373 C13.9890832,149.142847 18.9021305,148.866472 23.8170332,148.56552 C34.9768082,147.882465 46.1129249,147.083481 57.2954305,146.892893 C78.6050943,146.529339 99.886461,145.355672 121.205867,145.158129 Z M150.518727,152.420259 C150.522438,149.498379 154.026191,148.91085 155.580219,150.897876 C157.066519,152.798652 156.10998,158.553377 156.146163,160.827445 C156.265847,168.321108 156.974205,175.771646 157.647308,183.230995 C158.315308,190.629133 158.78801,198.030517 159.303391,205.440248 C159.542294,208.864797 162.173935,222.53285 158.348708,224.528223 C153.466741,227.074492 154.388024,214.119172 154.251177,211.757462 C153.812338,204.155289 153.260774,196.542914 152.572827,188.959753 C151.460885,176.700471 150.509449,164.729158 150.518727,152.420259 Z" id="Image-Border" fill="#69A1AC"></path>
            <path d="M86.042865,187.610014 C92.7367407,189.989025 99.3929406,192.474207 106.019801,195.034608 C109.565768,196.404428 113.092715,197.818764 116.630796,199.20806 C118.402851,199.903635 125.771726,201.650456 126.195721,203.419999 C126.793674,205.918506 118.938643,202.849628 117.688926,202.449904 C114.158732,201.321681 110.672607,200.058516 107.186482,198.802307 C99.3861902,195.992183 91.6192985,193.093026 83.7883902,190.368226 C83.0558692,190.113317 82.3230308,189.859286 81.5898836,189.606118 C73.2777573,193.339576 64.9822037,197.10901 56.713668,200.938247 C52.2802819,202.991585 47.8705541,205.092686 43.4728875,207.222074 C40.2126764,208.80103 34.3120097,213.305575 30.7205819,213.227207 C29.3618514,213.197065 28.4461347,212.905851 28.3041847,211.258729 C28.123268,209.152527 31.5161514,208.287231 32.886943,207.601858 C37.5870652,205.251277 42.3164125,202.960053 47.0592125,200.697578 C56.4789402,196.204626 65.9868069,191.891132 75.5285375,187.663426 C75.5834463,187.639096 75.6383566,187.614758 75.6932684,187.590412 C70.401444,185.799492 65.094802,184.051204 59.7765735,182.339897 C56.7371735,181.361918 35.4270458,176.102906 36.2040596,173.279798 C37.0766346,170.115394 55.9508819,177.576598 58.8538985,178.501713 C66.0008563,180.779404 73.1279655,183.121396 80.2178854,185.569879 C97.231965,177.926179 114.426531,169.781612 132.173546,164.219759 C133.291054,163.870116 133.997557,165.022453 133.74381,165.989302 C133.404243,167.283536 129.423612,168.331072 128.319093,168.824467 C123.948332,170.776251 119.555304,172.679808 115.184543,174.632984 C105.66276,178.887585 96.1228847,183.102308 86.602493,187.359692 C86.415943,187.443117 86.2294003,187.526557 86.042865,187.610014 Z" id="Image-X" fill="#89C5CC"></path>
            <path d="M23.1075581,241.133393 C27.4592997,241.896207 30.5288525,246.070585 30.0515108,250.442508 C29.4062414,256.349332 23.5190275,259.056511 18.0803942,258.285814 C11.9092803,257.411244 10.6113192,252.19443 13.6010831,247.175623 C14.2630525,246.064557 15.0242942,244.735081 16.2276219,244.14987 C17.0547358,243.747828 18.1086914,244.103499 18.7748358,243.779361 C21.1105164,242.642791 19.7063247,240.831513 23.1075581,241.133393 M21.1262886,237.274805 C15.8161525,237.953223 6.00443861,244.097934 6.50126361,250.245892 C6.93221639,250.958624 7.58026917,251.250302 8.44542194,251.120925 C8.23713583,252.45272 8.30486361,253.770139 8.64906917,255.073647 C9.15331639,256.76575 10.1594914,258.152727 11.5080164,259.254518 C14.2848553,261.523948 18.0808581,262.080872 21.5386858,261.683003 C27.9955553,260.940593 33.0844164,256.527863 33.4471775,249.812316 C33.8011247,243.257216 28.0790553,236.396525 21.1262886,237.274805" id="Fill-117" fill="#89C5CC"></path>
            <path d="M46.8456339,245.274708 C44.4631006,246.537409 40.6940033,248.477137 39.29677,250.87548 C37.8206756,253.408301 39.3491894,256.179473 42.4591006,254.981229 C44.9279172,254.030145 46.4981811,251.007639 49.1316783,250.038935 C51.4557617,249.184305 52.3923533,249.619735 54.848645,250.471119 C57.3796228,251.348007 59.5919089,252.195682 62.3279256,251.980517 C65.7667339,251.71017 68.7449006,249.716188 72.1108783,249.262673 C74.9447756,248.88057 77.2818478,249.983289 79.9960617,250.421965 C83.1449394,250.930662 85.2036783,249.73891 88.1498367,249.118457 C90.1538367,248.696011 93.6858867,250.414082 95.1476006,249.77137 C98.4342533,248.326429 94.9574061,246.559668 93.1380339,245.975848 C90.07312,244.992768 88.1869478,245.860383 85.27187,246.675597 C82.1067561,247.560832 80.7396756,246.895399 77.7141922,246.082503 C71.5931783,244.437699 66.864295,248.414535 61.0624367,247.6916 C55.6906033,247.021993 52.4763172,242.293473 46.8456339,245.274708" id="Fill-119" fill="#89C5CC"></path>
            <path d="M146.935321,242.336228 C152.827174,247.860022 146.208407,255.719095 139.711643,251.304511 C137.425599,249.750596 137.388952,247.254872 139.168429,245.022075 C140.795752,242.979867 144.371407,242.183665 146.935321,242.336228 Z M144.751332,237.87249 C139.246827,238.943212 134.054518,241.469077 133.556302,247.821998 C133.069682,254.0205 139.427743,256.899254 144.76896,256.492575 C156.760488,255.579516 155.893479,235.718525 144.751332,237.87249 Z" id="Fill-121" fill="#89C5CC"></path>
        </g>
        <path d="M562.13908,96.005709 C557.73613,96.0907884 546.863428,97.6922816 545.246911,102.900774 C544.019905,106.854461 547.664551,105.986379 549.618092,104.547764 C552.260874,102.602314 554.578143,101.438047 557.852615,100.846131 C570.326181,98.5899367 582.311245,106.680662 594.665103,107.703889 C599.344762,108.091523 604.992213,108.344031 609.460081,106.828527 C612.642009,105.749339 613.057304,103.396236 609.42601,103.03772 C606.340769,102.733345 602.926791,103.692876 599.763739,103.665578 C586.67506,103.553656 575.040371,95.7595705 562.13908,96.005709" id="Fill-79" fill="#C1DEE2" opacity="0.5"></path>
        <g id="Cards" opacity="0.5" transform="translate(44.000000, 343.000000)">
            <path d="M55.5090174,0.361698176 C47.0847828,0.456332559 38.6647208,0.76714156 30.2571769,1.29922801 C22.261804,1.8058003 13.5867431,1.42123214 5.7216514,2.9711021 C3.48832512,3.41087365 0.471456933,5.44644066 3.44103443,7.68519325 C5.52831591,9.2591857 13.164836,7.4486073 15.6573338,7.29552227 C24.8363651,6.73142713 34.0200327,6.05553352 43.2120457,5.7308077 C51.9139973,5.42324596 60.6154853,5.31469475 69.3216096,5.22794657 C70.650849,5.21495754 72.8572845,4.78863892 74.1809604,5.17459876 C76.0827881,5.72941602 75.631672,5.88018158 75.7740077,8.29428612 C76.032252,12.6683429 75.9608523,17.0581722 75.8741527,21.436404 C75.7902349,25.6731482 75.6335265,29.9094285 75.6488265,34.1480283 C75.65949,37.1721535 74.6928126,43.1814368 76.2102876,45.8075409 C78.3944686,49.5878133 80.6602493,45.4818873 80.8234485,42.9699011 C81.135938,38.1653506 80.9959205,33.3018856 80.9973114,28.4913045 C80.9982387,23.97576 81.0306931,19.4602155 80.8716665,14.9469904 C80.7562216,11.6867432 81.222174,5.99569119 79.4659274,3.03187222 C77.6772264,0.0133137587 73.3705277,0.664157085 70.2280146,0.520349935 C65.3260094,0.294897436 60.4151953,0.310669833 55.5090174,0.361698176" id="Fill-173" fill="#89C5CC"></path>
            <path d="M1.90960914,5.81040304 C1.91888183,14.294561 0.937368078,22.7221239 0.662432956,31.19654 C0.536324435,35.092786 0.280398318,39.3712807 1.26608477,43.1960869 C2.26104392,47.0580048 5.4211751,47.8948696 5.785128,43.5834385 C6.52230649,34.8529528 6.34148912,25.8000608 6.91546835,16.9995271 C7.11807652,13.8923649 8.43665239,8.19806562 7.2057034,5.28852225 C6.12172648,2.72550773 1.9049728,2.23424395 1.90960914,5.81040304" id="Fill-171" fill="#89C5CC"></path>
            <path d="M80.9059291,43.207554 C66.2759497,45.1443116 50.9815824,44.4382649 36.2472853,44.7425794 C29.1782536,44.888706 22.1106128,44.8979839 15.0406539,44.971743 C12.5731923,44.9972572 6.30717512,44.0587996 4.17260294,45.4458427 C0.774627382,47.6539783 4.46144709,49.3578611 6.71100057,49.4065699 C20.6631466,49.7122761 34.7706102,49.0707107 48.7199745,48.6128473 C54.9873825,48.4073422 61.2751905,48.3066772 67.5259077,47.7741269 C71.3740721,47.4461538 75.579235,47.1283864 79.3161272,46.0943666 C80.1121872,45.873553 81.8457157,45.9194785 82.0242149,44.8335026 C82.1340963,44.161784 81.9347335,43.0656024 80.9059291,43.207554" id="Fill-175" fill="#89C5CC"></path>
            <path d="M20.0702048,55.5401768 C16.0041322,55.5638354 3.75120576,53.6753228 2.06728609,57.6402251 C-0.177631044,62.9281532 8.57995667,61.6937312 10.9352188,61.6334249 C16.284631,61.4961123 21.6303341,61.4812677 26.9811372,61.4835872 C32.2313317,61.4859066 37.4810625,61.4520424 42.7303297,61.3272549 C44.2510501,61.2906073 47.7908977,61.921967 48.6657756,60.0905134 C49.3306272,58.6988313 48.8053295,57.6007941 47.5790169,56.8641304 C44.6284484,55.0906635 36.963183,56.1191166 33.5086441,55.959537 C29.0359643,55.7535681 24.5484482,55.5401768 20.0702048,55.5401768" id="Fill-177" fill="#89C5CC"></path>
            <path d="M69.5366895,56.5191788 C67.2129546,56.6574192 62.5126303,55.699478 60.4309125,56.7627232 C58.0649868,57.971631 58.8986012,59.8643187 60.9413738,60.6960807 C62.355922,61.2717732 68.1587685,60.9697781 69.5366895,60.3026985 C70.9730285,59.6068575 72.5971393,56.3308378 69.5366895,56.5191788" id="Fill-179" fill="#89C5CC"></path>
            <path d="M95.0127899,6.64286975 C92.5309557,7.32386619 93.2838977,21.4137196 93.2199162,23.6473694 C93.0446624,29.7670594 92.3566292,37.4639892 94.3901291,43.3577629 C95.6869141,47.1148407 98.1775574,46.605485 97.7533321,42.6498606 C97.3805701,39.1780777 96.7412185,35.7461896 96.4644288,32.2516759 C95.8385225,24.3446021 94.9868264,15.9105447 95.5779601,7.99697643 C95.8297135,8.45669542 98.1840483,12.7217371 98.7380913,12.4035058 C98.5707193,12.5027792 96.0225853,6.37659458 95.0127899,6.64286975" id="Fill-181" fill="#89C5CC"></path>
            <path d="M122.930017,1.45347278 C117.907467,1.52769583 112.884917,1.61676348 107.863758,1.75593169 C103.871404,1.86726626 97.5979682,1.2113201 93.9366484,2.89061649 C89.5770954,4.88999977 91.6453678,9.34523805 95.7401857,9.43940854 C99.3625603,9.52290946 103.225561,8.70599207 106.880854,8.58074068 C116.753945,8.24256193 126.644655,8.17065836 136.522383,8.08622964 C145.455688,8.00922324 154.76871,8.96206158 163.623661,7.62048004 C164.937137,19.2832399 161.384771,30.9951725 162.593002,42.7919977 C162.78031,44.6229875 162.696392,47.2101245 165.028009,47.6271652 C167.970696,48.1536849 168.091704,45.2390387 168.20344,43.1519795 C168.521957,37.1927968 168.349485,31.2289751 168.785765,25.2619062 C169.190054,19.7322893 169.986114,14.0806683 169.313381,8.54223748 C168.486257,1.72670636 165.220417,2.27317353 159.447243,1.98973428 C147.254126,1.39177487 135.13658,1.27440968 122.930017,1.45347278" id="Fill-183" fill="#89C5CC"></path>
            <path d="M106.097683,42.8664527 C103.538421,42.930934 99.2878224,42.1423141 97.647948,44.5963136 C95.9417739,47.1495863 97.9660011,49.3767416 100.446908,49.9009418 C103.383568,50.5211681 107.212723,49.6708504 110.260655,49.6615725 C113.434695,49.6522946 116.609662,49.6875506 119.783703,49.7000757 C133.391832,49.7534235 147.058379,49.9593925 160.656772,49.396689 C162.555818,49.3182909 167.945567,49.9552174 169.25997,48.1335056 C170.426474,46.5177626 169.610478,45.0685577 168.074457,44.2456097 C165.554141,42.8952142 160.377665,43.4087448 157.574532,43.3015853 C154.112575,43.1698394 150.646445,43.1266973 147.182633,43.0728856 C133.510986,42.8618138 119.767939,42.528274 106.097683,42.8664527" id="Fill-185" fill="#89C5CC"></path>
            <path d="M117.609072,54.6703755 C112.516514,54.7571237 107.083184,54.5335268 102.041161,55.3059103 C97.60789,55.9850512 97.0621925,60.2705043 101.83438,60.7719737 C106.219897,61.2330844 111.536854,60.3716332 115.943698,60.0886578 C117.508927,59.9879928 119.329156,60.1308722 120.079316,58.4005474 C120.862394,56.5927524 119.365319,54.8591804 117.609072,54.6703755" id="Fill-187" fill="#89C5CC"></path>
            <path d="M156.108381,55.1202136 C153.390093,55.1879421 145.45082,54.019393 144.104426,57.1237719 C141.863218,62.2924792 152.611188,60.3288158 154.67297,60.2527371 C157.27164,60.157175 167.39973,61.6745723 167.402048,57.5375654 C167.404367,53.4808121 158.59717,55.0585157 156.108381,55.1202136" id="Fill-189" fill="#89C5CC"></path>
            <path d="M1.47007879,80.8038458 C1.47656967,90.2065139 0.891463218,99.6973219 1.74918662,109.075868 C2.10386683,112.954949 2.04313074,120.385604 4.28990241,123.674149 C5.8848043,126.008464 8.0968034,125.844709 8.96797219,123.041861 C9.55029683,121.168193 8.61885559,117.420857 8.51500151,115.416371 C8.41485651,113.492603 8.29802067,111.569762 8.20900289,109.645529 C7.9804312,104.688358 7.99851293,99.7386085 8.06666717,94.7786535 C8.12508509,90.5242813 9.14925319,84.8953912 8.18350301,80.8038458 C7.28312526,76.9906369 1.47007879,76.0990325 1.47007879,80.8038458" id="Fill-191" fill="#69A1AC"></path>
            <path d="M95.9667638,72.5321049 C79.653792,72.9412595 63.3041931,72.575711 47.005594,73.3833505 C38.9675667,73.7813716 30.9610665,74.6558118 22.9633753,75.5274687 C19.0340749,75.9561068 15.1070926,76.3977339 11.1847467,76.8811115 C10.0010884,77.0267742 0.165551042,77.4080951 3.86488888,81.1484727 C5.48019067,82.7818436 10.6205038,81.0756413 12.6544674,80.8348803 C16.5925768,80.3700585 20.5385681,79.9646151 24.4822412,79.5475744 C31.9866255,78.7538517 39.5002825,78.0018795 47.0366575,77.5848387 C64.7859683,76.6013834 82.6085332,76.89642 100.375462,76.2409377 C105.181495,76.0637302 109.973155,75.9366232 114.781042,76.125892 C116.043519,76.1755287 125.32084,76.646845 121.292786,73.2205237 C119.388176,71.5996779 112.206945,72.4360789 109.826647,72.38737 C105.206995,72.2918078 100.584561,72.4161314 95.9667638,72.5321049" id="Fill-193" fill="#69A1AC"></path>
            <path d="M121.373758,122.137684 C121.371236,122.141487 121.368694,122.145276 121.366133,122.149051 C120.477346,123.459088 117.192961,123.094467 115.754767,123.192349 C111.377596,123.489705 107.081561,123.991638 102.743335,124.642017 C94.0993377,125.937673 85.5304491,126.734179 76.7927977,126.950354 C59.5117575,127.3776 42.1593177,126.978188 24.9042411,128.162045 C21.0825038,128.424609 17.3187208,128.874586 13.5595742,129.594086 C10.8751318,130.108545 5.70190058,131.868559 5.38802018,127.433732 C5.00923098,122.089672 18.4175341,122.09895 22.2513258,121.742216 C38.7126606,120.210902 55.4447577,120.533772 71.9566286,120.763863 C79.941338,120.874734 87.9112111,121.118742 95.8894296,120.630726 C103.859886,120.143194 112.100619,120.271197 120.012688,119.414042 C118.993653,115.462962 119.142769,110.522232 118.856851,106.485205 C118.122455,96.1204206 118.319036,85.7199164 117.846129,75.3444625 C117.637957,70.7732507 123.864565,70.0806569 125.71122,73.7806757 C127.576421,77.5182699 126.364481,84.9340799 126.485026,89.0780453 C126.764134,98.6723017 128.543098,109.41284 126.663989,118.901793 C126.010351,122.201951 123.226534,123.936411 121.373758,122.137684 Z" id="Wireframy-Stuff" fill="#69A1AC"></path>
            <path d="M131.407848,78.6927568 C129.204195,78.9924324 127.365885,80.8786255 128.349717,83.270927 C129.589011,86.282991 133.280003,85.1060918 135.718256,84.9154314 C143.468366,84.3081941 151.560175,85.5208131 159.216632,84.6060141 C161.307622,84.3559752 164.341181,83.2171153 162.463926,80.4073092 C161.052623,78.2956635 155.910919,78.6663149 153.725347,78.4640571 C146.250172,77.7723911 138.873287,77.9570209 131.407848,78.6927568" id="Fill-199" fill="#C1DEE2"></path>
            <path d="M144.488316,91.8339934 C141.482575,92.0362512 134.48587,91.8771355 133.219221,95.2969623 C130.947413,101.431961 139.846409,99.2702147 142.555888,98.9213664 C145.703501,98.515923 153.123504,99.601435 154.799542,96.5490123 C157.796474,91.0908351 147.124076,91.6521469 144.488316,91.8339934" id="Fill-201" fill="#C1DEE2"></path>
            <path d="M136.759115,105.297775 C135.33344,106.72425 135.331121,109.271492 136.759115,110.697966 C138.50748,112.444527 142.316699,112.081762 144.614007,112.209333 C147.818183,112.388396 157.02086,114.083001 158.612053,110.31015 C160.758679,105.219377 152.425317,105.326073 149.684311,105.037067 C146.516298,104.703527 139.384676,102.670743 136.759115,105.297775" id="Fill-203" fill="#C1DEE2"></path>
            <path d="M24.437176,18.158668 C24.437176,23.6316898 32.985201,23.6316898 32.985201,18.158668 C32.985201,12.7153354 24.437176,12.6322984 24.437176,18.158668" id="Fill-205" fill="#89C5CC"></path>
            <path d="M40.6512082,18.220737 C40.6512082,24.4777397 50.3875278,24.4652146 50.3875278,18.220737 C50.3875278,11.9855373 40.6512082,11.9219838 40.6512082,18.220737" id="Fill-207" fill="#89C5CC"></path>
            <path d="M30.8424688,26.540027 C26.1096902,27.8468165 30.4697069,31.8576443 32.6673333,32.773835 C36.1598903,34.2304623 40.9265142,35.303913 44.4199984,33.1203638 C45.809974,32.2514903 46.9384598,31.0968581 45.9198553,29.4106033 C44.8344875,27.6153334 43.3485396,28.413695 41.6961471,28.5793052 C39.6028384,28.7899131 37.9110369,28.7574405 35.8895915,28.0861858 C34.3809256,27.5851803 32.4879069,26.0872664 30.8424688,26.540027" id="Fill-209" fill="#89C5CC"></path>
            <path d="M116.689964,18.5051968 C116.689964,22.2070712 122.438101,22.2070712 122.438101,18.5051968 C122.438101,14.8033224 116.689964,14.8033224 116.689964,18.5051968" id="Fill-211" fill="#89C5CC"></path>
            <path d="M129.40212,19.0624263 C129.40212,23.1753108 135.787755,23.1757747 135.787755,19.0624263 C135.787755,14.9490779 129.40212,14.9495418 129.40212,19.0624263" id="Fill-213" fill="#89C5CC"></path>
            <path d="M128.929167,27.9883042 C125.574773,28.4206534 115.873226,29.4041088 115.33031,33.5387963 C114.492986,39.9178031 125.123193,34.7551264 127.549391,34.2541209 C130.639514,33.6162666 133.399065,33.7828045 136.484087,33.9066642 C138.177743,33.9743928 140.430542,34.249018 140.25297,31.6688394 C139.961808,27.4320952 131.86119,27.61255 128.929167,27.9883042" id="Fill-215" fill="#89C5CC"></path>
            <path d="M44.5916822,86.8145208 C42.1603841,87.4630446 38.979853,91.6663884 40.6526454,94.2386809 C43.3955058,98.4577971 44.6051276,91.9799808 45.753086,91.3565072 C47.8417584,90.2218224 49.5372689,94.3676434 51.7200591,92.1929082 C55.1643981,88.761484 46.7600997,86.2337254 44.5916822,86.8145208" id="Fill-217" fill="#69A1AC"></path>
            <path d="M72.4503527,83.6958076 C69.5670112,83.7222495 63.4799569,87.804517 63.048777,90.8184365 C62.7928509,92.6095314 63.9802183,94.3301144 65.9107914,94.3542369 C68.5395977,94.3862455 69.3750666,90.9682743 71.6538291,90.2534136 C74.1120179,89.4824217 73.7471378,91.2577442 75.8701191,92.17811 C77.4237575,92.852148 79.3668488,92.5701004 79.906519,90.6597848 C80.9246599,87.0567198 75.4129757,83.6392125 72.4503527,83.6958076" id="eye" fill="#69A1AC"></path>
            <path d="M50.3796461,100.953779 C45.767876,103.656426 53.3561781,109.44907 55.9868389,110.173673 C59.9583301,111.266607 67.9513849,109.226401 68.8925624,104.374997 C69.2671789,102.44427 68.0594116,100.69539 65.9285485,101.040991 C64.1741565,101.325822 63.0489161,103.526535 61.423878,104.314691 C59.2304243,105.3784 57.2803785,105.306033 55.4165688,103.704671 C53.8981665,102.4002 53.084952,99.3760753 50.3796461,100.953779" id="Fill-221" fill="#69A1AC"></path>
            <path d="M53.722171,140.88536 C49.6018532,141.763975 45.4133812,141.174366 41.2731272,142.000561 C37.0512735,142.843456 34.5281758,144.438324 30.6058299,142.831395 C30.4213035,142.753461 30.2372407,142.675527 30.0531779,142.597593 C27.0173007,141.290339 23.8353787,140.902988 20.6576294,142.987264 C18.7771288,144.220294 13.0684,148.485799 13.7564333,151.088709 C15.2474811,156.731516 21.6711339,147.883201 23.3091538,147.020822 C26.4326579,145.376318 28.5741845,147.477294 31.7899518,148.07015 C35.6418253,148.780372 38.7412204,146.744805 42.3696222,145.934382 C46.6132667,144.986183 51.3873088,144.65589 55.7046711,144.14839 C57.4103816,143.947988 63.8711251,145.296992 64.454377,143.174213 C65.4562907,139.527542 55.3416455,140.541614 53.722171,140.88536" id="Fill-223" fill="#C1DEE2"></path>
            <path d="M83.449334,152.249836 C83.7187055,152.453949 83.5026519,152.290194 83.449334,152.249836 M94.9891909,140.664546 C98.5165204,140.306884 109.802306,137.787011 112.11955,141.431827 C113.628679,143.806036 111.233545,152.568531 108.948755,153.701824 C107.1225,154.606881 102.868655,153.606262 100.864828,153.535286 C97.1362812,153.404004 93.3998526,153.345553 89.6754786,153.113142 C88.4264478,153.035208 84.4072024,153.264836 83.4280068,152.159376 C82.2717029,150.853978 82.3231663,143.895104 82.051013,142.169418 C85.2941347,143.219211 91.5981699,141.009219 94.9891909,140.664546 M102.521393,137.09117 C98.0037409,137.286934 93.4870159,137.626504 89.0032089,138.23235 C86.5037565,138.570065 83.9713861,139.468163 81.6629511,139.893554 C80.9188181,140.030867 79.7110508,139.650474 78.7986186,140.091173 C76.1322579,141.378943 78.4671201,150.088553 79.1101808,152.415446 C80.0977218,155.989749 82.5832651,156.568689 86.0656221,156.905476 C90.6528196,157.349887 95.3341348,157.210255 99.9357049,157.153659 C104.371294,157.099384 110.352176,158.082375 112.840965,153.631776 C114.449776,150.754241 116.175422,144.052828 114.800283,140.845929 C112.991182,136.626349 106.236495,136.935302 102.521393,137.09117" id="Fill-225" fill="#C1DEE2"></path>
            <path d="M153.110847,154.643622 C152.869293,154.953967 152.869293,154.953967 153.110847,154.643622 M154.100706,153.450486 C154.026061,153.563676 153.679262,153.929689 154.100706,153.450486 M143.327236,153.122513 C145.318545,152.747687 147.310782,152.377035 149.304409,152.013342 C147.41649,154.656147 145.428427,153.563676 142.203387,153.333585 C142.578003,153.263073 142.95262,153.193025 143.327236,153.122513 M133.826443,152.187303 C134.33134,152.018445 134.835775,151.849588 135.340672,151.68073 C135.325372,152.064835 135.407899,152.424816 135.588253,152.759748 C134.724039,152.666505 133.860752,152.566304 132.998392,152.460072 C133.274254,152.369149 133.55058,152.278226 133.826443,152.187303 M129.423772,148.936333 C129.39549,148.242812 130.438204,148.718767 131.035828,148.672378 C129.883697,149.68645 129.346345,149.77459 129.423772,148.936333 M145.169255,141.071938 C145.320864,140.878494 145.521617,140.888236 145.771516,141.101163 C145.498899,141.19255 144.448768,141.637889 145.169255,141.071938 M155.380336,139.870916 C155.407227,139.870916 155.973788,140.635877 155.380336,139.870916 M155.09381,139.620413 C155.242173,139.733604 155.242173,139.733604 155.09381,139.620413 M153.81928,139.471503 C155.907025,139.823599 155.748462,142.273887 153.81928,139.471503 M129.290709,139.304502 C128.866483,139.656597 129.011601,139.315171 129.290709,139.304502 M137.274954,134.088013 C133.73047,134.294446 127.224291,134.086621 124.263986,135.975134 C120.400985,138.440267 122.433558,146.925817 122.779429,150.645783 C123.290354,156.144319 125.877433,157.709961 131.055764,158.287045 C137.235546,158.975928 143.585017,159.104427 149.796789,158.941136 C155.391,158.794082 158.577095,156.869849 159.601726,150.979787 C159.915607,149.177558 160.71213,146.389555 160.687094,144.663405 C160.66994,143.466095 160.073242,142.920092 159.847453,141.901844 C158.562722,136.105024 156.414241,135.417533 150.472768,135.164711 C146.099769,134.97869 141.56589,133.863488 137.274954,134.088013" id="quare" fill="#89C5CC"></path>
        </g>
        <g id="Profile" opacity="0.5" transform="translate(297.000000, 339.000000)">
            <path d="M72.0319505,4.91297787 C81.0436267,5.1050034 91.2682616,10.0925651 89.8430235,20.6586077 C88.7992394,28.3989991 82.0976076,34.6825013 74.3359695,35.2242545 C65.9940394,35.8063609 57.1742489,29.4041183 56.0410108,20.9104672 C54.7659441,11.3569651 63.2195759,4.72234383 72.0319505,4.91297787 M67.6125537,0.611884255 C63.9593092,1.15734809 60.468287,3.07574809 57.2511886,4.79423745 C56.0233981,5.4505566 49.7977727,9.45155234 54.6806616,10.4455396 C42.9158425,29.4194247 70.6034679,47.0431013 86.1703124,34.7117226 C93.1606997,29.1740587 96.8408267,18.6752715 92.3222425,10.4571353 C87.6488521,1.95745447 76.5658298,-0.732758298 67.6125537,0.611884255" id="face" fill="#89C5CC"></path>
            <path d="M65.4593086,16.7619272 C65.4593086,20.3055868 70.9595689,20.3055868 70.9595689,16.7619272 C70.9595689,13.2182677 65.4593086,13.2182677 65.4593086,16.7619272" id="Fill-231" fill="#89C5CC"></path>
            <path d="M75.6574781,17.3294694 C75.6574781,21.1713715 81.620767,21.1713715 81.620767,17.3294694 C81.620767,13.4875672 75.6574781,13.4875672 75.6574781,17.3294694" id="Fill-233" fill="#89C5CC"></path>
            <path d="M68.7752698,24.9274187 C67.9725016,27.8421251 77.1232254,29.3370485 77.4277397,25.9636145 C77.5728127,24.351806 69.3333143,22.8939889 68.7752698,24.9274187" id="Fill-235" fill="#89C5CC"></path>
            <path d="M95.5994095,23.1259966 C106.128559,21.8625243 116.984933,22.446486 127.565067,22.7493668 C130.212997,22.8258987 132.860463,22.9001115 135.508857,22.9441753 C137.19226,22.9724689 140.828356,23.7804604 142.297625,22.9924136 C148.314679,19.7655498 136.51139,18.2052264 134.840038,18.0568009 C124.315987,17.1908306 108.074762,16.88192 97.5196571,17.290554 C94.3980381,17.4116136 93.7231937,23.350954 95.5994095,23.1259966" id="Fill-237" fill="#89C5CC"></path>
            <path d="M142.979978,75.468817 C143.070359,64.4366255 143.465718,53.3297574 144.313909,42.3304979 C144.65921,37.8471191 145.073572,33.3697702 145.41702,28.8863915 C145.578778,26.7745745 146.329172,23.8167319 145.08794,21.9637319 C143.808702,20.0546085 141.002721,19.6575702 139.311902,21.3496213 C137.287832,23.9697957 137.876004,28.367366 137.624328,31.5367149 C137.237312,36.4101745 136.769648,41.2799234 136.537439,46.1635872 C136.088315,55.6164383 135.983102,65.2334851 136.742766,74.6728851 C137.101509,79.1270426 137.879248,83.4731277 138.913763,87.8173574 C139.385134,89.7946638 143.132467,98.6032553 142.344994,99.8180255 C141.123693,101.701638 132.098575,100.98966 130.141248,101.042072 C125.117458,101.177047 120.091813,101.264711 115.067096,101.360723 C110.764963,101.442821 106.462829,101.501728 102.160232,101.539762 C100.451801,101.555068 90.413953,101.250796 92.6405689,103.78377 C67.7413117,105.518957 42.3660483,102.62234 17.618353,101.628817 C16.3683149,101.57826 14.3229244,101.22343 12.4351213,101.121387 C12.2089371,100.209498 12.0230768,99.3945489 11.9771911,98.8282128 C11.6518197,94.8508723 11.5670006,90.8600809 11.2142832,86.8836681 C10.5691022,79.6084979 9.31813714,72.4066128 8.57376889,65.143966 C7.8312546,57.8887404 7.90587683,50.6117149 7.47343873,43.3388638 C7.39928,42.0925532 7.22408,31.8845872 4.64799111,29.4044894 C5.8692927,29.8673915 7.83867048,29.9276894 8.97283556,29.8363149 C18.1532229,29.0955787 27.2664038,27.5004681 36.3679975,26.1312426 C38.9718959,25.7397702 44.8809562,26.0171404 47.0408292,24.715634 C48.9100927,23.5885277 49.649826,19.6380894 46.3979657,19.9576681 C37.3223276,20.9298553 28.2958197,22.4386936 19.2915594,23.9243404 C16.8832546,24.3213787 14.4809752,24.7462468 12.0791594,25.1803915 C10.4750133,25.4702851 6.24101333,25.4480213 4.99700063,26.4151064 C3.48601651,27.5890596 3.32564825,28.3877745 3.83780698,28.9188596 C3.12588317,28.7231234 2.27259429,29.0306426 1.24781333,30.0561702 C-0.689583492,32.5780128 1.13194032,38.7886936 1.36275937,41.7456085 C1.64039111,45.2925149 1.77665778,48.8454511 1.93841651,52.3988511 C2.25034667,59.2751277 2.97014984,66.0563191 4.0765054,72.8495702 C5.31634667,80.4600894 6.37079111,88.1016851 7.61387683,95.7098851 C7.93739429,97.6909021 8.35917206,99.6227532 8.89774984,101.536515 C5.54901968,103.249438 7.8256927,105.973047 10.4815022,106.456357 C10.5005054,106.459604 10.5204356,106.462387 10.5394387,106.465634 C11.3672356,108.484685 12.5250387,110.355311 13.4293117,107.649791 C13.4983721,107.44246 13.5308165,107.186889 13.5391594,106.899779 C20.3983784,107.67623 27.9380038,107.193847 34.6910832,107.469826 C49.3188927,108.067702 64.0370832,108.964749 78.6797244,108.510196 C84.4766197,108.33023 90.2911276,107.815379 96.0393562,107.041711 C99.4070895,106.588549 102.787801,106.048187 106.101769,105.296783 C106.339077,105.243443 106.700137,105.186855 107.116817,105.118209 C107.18495,105.116353 107.25401,105.114498 107.318436,105.11357 C112.392747,105.037038 117.462886,104.901136 122.533026,104.690094 C126.78881,104.513374 131.063597,104.422464 135.30594,104.021251 C137.940893,103.771711 143.50975,103.818094 145.127337,101.168234 C146.598461,98.7586383 144.139172,92.5521319 143.789699,89.8456851 C143.175572,85.0802979 142.940582,80.270383 142.979978,75.468817" id="Hola-:)" fill="#C1DEE2"></path>
            <path d="M91.5556267,43.6137757 C87.5009981,43.9611843 83.7518108,45.8652055 79.6596394,45.8888609 C76.2251632,45.9083417 72.8435251,44.8818864 69.3900457,45.0335587 C65.3391251,45.2102779 63.1101917,47.8299885 59.5616965,48.7066268 C56.7367124,49.4042268 54.9569029,47.2413885 52.4721219,46.2849715 C49.3347441,45.0766949 47.0172838,45.700546 44.3281029,47.5275715 C42.3522362,48.8703587 37.7441981,51.883397 37.779887,54.5991204 C37.8855632,62.8246779 47.4826298,51.4617757 49.4172457,51.3240183 C51.9877727,51.1412694 54.8595695,54.0712821 57.5946362,54.2382609 C61.2108013,54.4595077 63.5291886,52.1282991 66.8589156,51.2790268 C70.2261854,50.420014 73.8659886,51.4724438 77.2416013,51.79898 C81.0932203,52.1714353 84.4637346,51.3128864 88.1897473,50.3935757 C91.800814,49.5025587 94.8779378,49.5498694 98.546941,50.2980268 C101.023379,50.8031374 107.192458,53.73918 108.275639,49.9640694 C109.750935,44.82298 94.3903441,43.3725843 91.5556267,43.6137757" id="Fill-241" fill="#89C5CC"></path>
            <path d="M92.7899524,59.3024472 C84.4818571,60.1085834 76.1232413,60.8159238 67.7771397,61.0422728 C64.1623651,61.1406047 50.265946,59.5914132 51.4983714,64.1847196 C52.5546698,68.1230983 71.465146,65.6434643 75.3167651,65.3433664 C79.5688413,65.0131196 83.8144286,64.5511451 88.0456476,64.0158855 C89.5450444,63.8261791 93.1663079,64.0223791 94.2244603,62.7649366 C95.233019,61.5650089 94.7356921,59.1076387 92.7899524,59.3024472" id="Fill-243" fill="#89C5CC"></path>
            <path d="M35.4753581,80.2209851 C35.2862533,80.3007638 35.2862533,80.3007638 35.4753581,80.2209851 M37.2278216,80.1973298 C39.2991676,80.1319298 38.8551422,79.0396106 40.9213898,79.6087298 C41.8743295,79.8712574 41.9721263,79.4816404 42.7109327,80.3926021 C44.152393,82.169534 42.7948248,86.039266 41.3737581,87.4711085 C36.1126597,92.7731468 29.7989708,80.4329553 37.2278216,80.1973298 M37.2278216,74.9954787 C22.8248057,75.4792532 28.8511295,97.7282404 41.3867359,93.1864191 C46.5639422,91.3106915 49.81812,82.8606404 46.7729771,78.1119511 C45.2916565,75.8020787 43.4029263,75.3911255 40.9213898,75.2311043 C40.3452692,75.1939979 39.6203676,76.0312106 39.2606978,75.9931766 C38.4060184,75.9027298 38.485739,74.9481681 37.2278216,74.9954787" id="have-a-nice-day-:)" fill="#89C5CC"></path>
            <path d="M71.6707511,80.9833357 C71.4139765,80.9040209 76.2185352,82.3010762 75.6929352,81.7542209 C76.814586,82.9207528 75.3063829,85.6796123 74.0373416,86.1610677 C70.9643892,87.3280634 69.2397352,82.5492251 71.6707511,80.9833357 M73.8028146,74.9503017 C69.2930368,75.5894591 65.8126749,77.467506 65.1962305,82.4824336 C64.6275257,87.1114549 67.7551702,91.7989187 72.6885797,91.8893655 C83.4415956,92.0860294 83.7692844,73.55974 73.8028146,74.9503017" id="espero" fill="#89C5CC"></path>
            <path d="M122.89251,81.1857974 C123.522396,89.4057889 114.998777,81.882006 122.89251,81.1857974 M119.234631,72.3915847 C118.489336,73.6661889 119.124783,75.0182528 120.249679,75.7589889 C110.195609,77.8837932 112.472745,93.013457 122.703869,90.7782613 C127.906568,89.6414145 128.863215,84.1705421 128.087793,79.6533038 C127.718853,77.5053081 122.365983,67.0380613 119.234631,72.3915847" id="hola" fill="#89C5CC"></path>
        </g>
        <path d="M440.020974,419.286109 C437.023785,419.819032 429.938505,423.129243 430.000403,426.684286 C430.096276,432.233632 436.118112,426.171804 437.457539,425.356969 C444.65312,420.977582 453.973261,426.652434 461.465768,427.85995 C464.9009,428.413316 471.620839,429.436377 474.655261,427.134014 C480.051132,423.039868 467.571842,424.064831 465.982494,423.900342 C457.343702,423.008016 448.749588,417.726796 440.020974,419.286109" id="Fill-251" fill="#C1DEE2" opacity="0.5"></path>
        <g id="List" opacity="0.5" transform="translate(579.000000, 371.000000)">
            <path d="M2.5861249,9.26801463 C2.58333306,14.9462341 2.29623918,20.742161 3.34271265,26.3522585 C3.65958612,28.0506732 3.90945551,31.3038439 5.70134939,32.1852585 C7.50115347,33.0703805 9.24605143,32.0758927 9.69321061,30.231039 C10.2148188,28.0845024 9.07063102,24.8721122 8.9547698,22.6185268 C8.7956351,19.5400634 8.78493306,16.4578927 8.78353714,13.375722 C8.78260653,11.1499415 9.51499837,7.56913659 6.88741469,6.42403902 C4.93359429,5.57228293 2.5861249,7.15577073 2.5861249,9.26801463" id="Fill-253" fill="#C1DEE2"></path>
            <path d="M92.3534008,0.287085366 C73.540609,2.1755 54.457009,2.5680122 35.5762824,3.55276829 C26.8485355,4.00784146 16.3009763,3.42718293 8.07855184,6.80547561 C6.55234776,7.43293902 1.0836049,10.9247683 5.52309061,12.3465244 C6.90691102,12.7900122 8.31260082,11.2992073 9.44887837,10.7996463 C11.3412784,9.9687439 13.5319396,9.71154878 15.5499722,9.38715854 C32.7062743,6.63215854 50.6512702,7.11179268 67.9839233,5.82442683 C72.4252702,5.49447561 76.8684784,5.15479268 81.3005192,4.71871951 C84.4669273,4.40730488 91.1222008,2.1249878 94.0443233,3.29232927 C99.0375233,5.28686585 98.9207314,18.2467195 99.0193763,22.7038415 C99.07056,25.0088659 96.8333682,33.2831341 101.280764,32.4443537 C104.840356,31.7728659 103.551458,23.1769878 103.274136,20.825622 C102.546397,14.6622073 101.304495,-0.619817073 92.3534008,0.287085366" id="Fill-255" fill="#C1DEE2"></path>
            <path d="M99.2911616,32.1454976 C82.9500759,33.6210098 66.2325576,32.1733024 49.8244678,32.7534976 C41.2237494,33.0584244 32.6318718,33.5426927 24.0302229,33.8267659 C20.3101004,33.9500341 16.5862555,33.9551317 12.8642718,33.9815463 C11.0840106,33.9935951 2.98256571,35.0728878 7.99437796,38.6022537 C10.2134229,40.1648878 17.2851453,38.9062537 19.8313004,38.8756683 C23.6556514,38.8307171 27.4781412,38.6717659 31.2997004,38.5220829 C40.1521494,38.1759122 48.9990147,37.696278 57.8561167,37.4566927 C66.3284106,37.2273024 74.8048922,37.1781805 83.2767208,36.9487902 C87.4923943,36.8343268 91.7653004,36.7050341 95.9432841,36.0896195 C96.8859943,35.9505951 99.9481739,35.8403024 100.60286,34.7888146 C101.221717,33.7947902 100.787121,32.0013756 99.2911616,32.1454976" id="Fill-257" fill="#89C5CC"></path>
            <path d="M18.9786269,19.8767805 C18.8906841,20.0848537 18.8906841,20.0848537 18.9786269,19.8767805 M26.0550024,17.7260732 C26.3132473,17.835439 26.3132473,17.835439 26.0550024,17.7260732 M25.7237045,17.6662927 C29.5373535,21.5534146 23.6726351,26.193122 20.10048,22.3996098 C16.3087004,18.3734634 23.2687494,17.6792683 25.7237045,17.6662927 M21.6792637,11.785561 C8.54367184,14.1230244 13.1944065,31.629439 25.4626678,29.0991951 C30.8485861,27.9888537 33.9289127,22.5627317 32.0751331,17.3507073 C31.3506514,15.3144634 29.7723331,13.0794146 27.5737616,12.4375854 C26.4775004,12.1178293 25.5078024,12.6210976 24.4636555,12.5033902 C23.4679004,12.3912439 22.9151167,11.5626585 21.6792637,11.785561" id="Fill-259" fill="#C1DEE2"></path>
            <path d="M71.9503322,16.7130024 C64.0294261,16.7380268 56.1066588,17.0744659 48.1871486,17.2246122 C45.7577853,17.2704902 39.5143078,16.1833195 39.5045363,20.012978 C39.4938343,24.1049293 46.4487649,22.5937341 48.7631976,22.5385878 C56.6189608,22.3509049 64.4947322,22.0065878 72.31932,21.2586366 C74.2954751,21.0695634 81.1378016,21.3958073 81.130822,18.7080024 C81.1233771,15.8603195 73.5463322,16.7130024 71.9503322,16.7130024" id="Fill-261" fill="#C1DEE2"></path>
            <path d="M90.8688416,43.4213488 C71.2785233,43.946861 51.7179845,44.1299098 32.1434865,45.132739 C24.8218947,45.5076415 17.5100743,45.7866171 10.1777804,45.7866171 C8.76557633,45.7866171 5.92209061,45.2397878 4.59317633,46.1290805 C0.986123265,48.5411537 5.09338041,50.6116902 7.44410694,50.7419098 C23.5246212,51.6344463 39.8377886,49.4133 55.9089967,48.9118854 C65.3174865,48.6185439 74.7283029,48.5318854 84.131209,48.053178 C86.6964416,47.9224951 89.2621396,47.7709585 91.8231845,47.5721537 C93.2958784,47.4581537 97.1909559,47.7709585 98.381209,46.9094707 C103.578678,43.1474707 92.6211845,43.3740805 90.8688416,43.4213488" id="Fill-263" fill="#89C5CC"></path>
            <path d="M0.98570449,53.0000829 C0.801443265,58.0791073 0.782365714,63.0696195 1.44682286,68.120839 C1.7083249,70.1084244 1.82837388,72.3638634 4.15816163,72.8689854 C6.27390857,73.3273024 7.34690449,71.7271317 7.78522286,69.9527171 C8.85496163,65.6197902 7.91364735,59.3836195 7.90108408,54.8824732 C7.89550041,52.6571561 7.89317388,50.1663024 5.14321469,49.6630341 C3.04514939,49.2788634 1.06573714,50.7951561 0.98570449,53.0000829" id="Fill-265" fill="#89C5CC"></path>
            <path d="M111.633593,65.2447951 C79.9220498,66.9158683 48.2519192,68.3746976 16.5175763,69.7162829 C14.0426131,69.8210146 -5.18337061,69.6115512 1.53797633,76.3162341 C3.61417224,78.3867707 8.96286612,76.984478 11.6476824,76.8528683 C15.6823518,76.6545268 19.7188824,76.5029902 23.7535518,76.2976976 C39.750311,75.483478 55.7884824,75.2638195 71.7731437,74.3499659 C80.5697559,73.847161 89.34636,73.0602829 98.0969069,72.0356732 C102.25907,71.5486244 107.425829,71.5991366 111.324164,69.9679171 C113.329633,69.1286732 115.493772,65.0399659 111.633593,65.2447951" id="Fill-267" fill="#89C5CC"></path>
            <path d="M93.3998743,39.4795902 C90.9881927,41.8814683 92.2282335,46.6198829 92.4101682,49.5885171 C92.6600376,53.6739805 92.9638824,57.761761 93.473858,61.8245171 C93.8056212,64.4636634 93.6302008,68.5713707 95.0382171,70.8509073 C96.6867967,73.520639 100.317115,73.2254439 101.807956,70.646078 C103.126633,68.3651512 102.459384,63.5655659 102.424952,61.037639 C102.377956,57.5421024 102.160193,54.0410049 101.952666,50.5524195 C101.779107,47.6366146 102.439842,42.9640049 100.835931,40.4685171 C99.2064294,37.9327122 95.6598661,37.2320293 93.3998743,39.4795902" id="Fill-269" fill="#89C5CC"></path>
            <path d="M20.9167665,58.1188683 C20.6338604,58.3366732 20.6338604,58.3366732 20.9167665,58.1188683 M26.5492971,57.4130878 C31.8049298,58.4701366 23.3065788,64.6062098 20.6208318,60.3946976 C20.201591,59.7366488 19.9833624,58.9279902 20.6566604,58.3561366 C21.2713298,57.8338683 21.6575339,58.7583805 22.2382359,58.5099902 C23.2381788,58.0817951 25.4823502,57.3732341 26.5492971,57.4130878 M25.8243502,52.3753073 C22.2363747,52.6593805 17.3027339,52.8808927 15.5266604,56.4779171 C13.1405706,61.3090146 17.2213053,66.040478 21.9418359,66.7754537 C26.4846196,67.4830878 33.2673869,64.9667463 33.630791,59.6685268 C33.9239339,55.3967707 29.8608808,52.0476732 25.8243502,52.3753073" id="Fill-271" fill="#89C5CC"></path>
            <path d="M55.7809445,54.9302049 C52.0664057,54.9899854 44.7652873,53.8916927 41.5290833,55.7022537 C38.3268465,57.4938146 39.754871,60.683961 42.6760629,61.4472049 C44.6070833,61.9514 47.7627894,61.1376439 49.7733771,61.0556195 C52.4177118,60.9481073 55.0643731,60.9249366 57.710569,60.8883268 C62.1607567,60.8285463 66.6090833,60.8790585 71.0597363,60.8790585 C75.6053118,60.8790585 80.2285935,61.0032537 84.7662588,60.6691317 C90.507671,60.2464976 90.3531894,55.9474 84.7383404,55.409839 C75.1995649,54.4969122 65.3504302,54.7795951 55.7809445,54.9302049" id="Fill-273" fill="#89C5CC"></path>
            <path d="M46.2926082,103.079634 C46.2926082,105.122366 48.1049755,103.079634 48.0919469,103.079634 C48.1049755,103.079634 46.2926082,101.036902 46.2926082,103.079634" id="Fill-275" fill="#89C5CC"></path>
            <path d="M5.2970449,86.6369878 C5.41383673,92.5742561 5.49061224,98.5170854 5.74420408,104.44972 C5.82470204,106.325622 5.28727347,109.988915 7.56122449,110.945402 C10.0920245,112.009866 10.8788571,109.356354 11.1706041,107.558305 C12.0937714,101.862012 11.188751,95.3579878 11.0998776,89.5940366 C11.070098,87.6588171 11.4888735,84.9645244 9.29076735,83.9996951 C7.49794286,83.2123537 5.26075102,84.6739634 5.2970449,86.6369878" id="Fill-277" fill="#89C5CC"></path>
            <path d="M102.935439,86.7302268 C103.085268,87.0838122 103.085268,87.0838122 102.935439,86.7302268 M103.147153,86.6695195 C103.268598,86.7204951 103.760427,86.9267146 103.147153,86.6695195 M55.1833984,81.870861 C46.0685167,82.0135927 36.9480514,82.1220317 27.8392188,82.5122268 C23.9515861,82.6790561 20.0192841,82.8134463 16.1451453,83.1800073 C13.4012351,83.4395195 6.58450041,83.5474951 4.80470449,85.7899585 C1.13204327,90.4185439 8.92033714,89.1562024 10.5977657,88.7803732 C13.6506392,88.0959098 16.7667943,87.8767146 19.8857412,87.7122024 C26.6531535,87.3553732 33.4233576,87.1644463 40.1991453,87.0282024 C58.5736188,86.6583976 76.9615861,86.7144707 95.339782,86.6315195 C97.1191127,86.6236415 100.334843,85.9081293 101.978304,86.6278122 C103.624558,87.3493488 103.531496,89.1228366 103.702729,91.1822512 C103.930264,93.9219585 102.123015,99.1432512 103.499856,101.447812 C105.636076,105.022593 108.741994,101.987227 109.217072,99.3809829 C109.872688,95.7797878 108.833194,91.4556659 107.815104,88.013422 C106.37917,83.1568366 104.385333,82.9635927 99.6876024,82.5840561 C94.1993167,82.1405683 88.7305739,81.8717878 83.2241412,81.8208122 C73.8793984,81.7350805 64.5276759,81.7258122 55.1833984,81.870861" id="Fill-279" fill="#89C5CC"></path>
            <path d="M91.2337347,106.414041 C71.4642735,108.709798 51.1322571,107.35709 31.2571714,107.438188 C26.4240367,107.458115 21.5867143,107.496578 16.7582327,107.731066 C14.2078898,107.854334 8.16263265,107.151334 6.41540816,109.118529 C2.7325102,113.26609 9.3668449,113.869456 11.7887633,113.697529 C16.6856449,113.349505 21.5941592,113.190554 26.5036041,113.152554 C43.7962408,113.01909 61.1865918,113.825895 78.4652694,112.972749 C85.7040367,112.615456 92.7813429,111.377212 99.886102,109.993456 C101.460233,109.686676 112.235327,107.638383 106.090959,105.183212 C102.45971,103.732261 95.0483143,105.9687 91.2337347,106.414041" id="Fill-281" fill="#89C5CC"></path>
            <path d="M33.512138,98.8220122 C33.3744073,98.9990366 33.3744073,98.9990366 33.512138,98.8220122 M33.3795257,98.7914268 C33.3325298,98.9184024 33.1873543,99.2321341 33.3795257,98.7914268 M32.1325053,97.1829146 C32.1613543,97.2199878 32.2790767,97.3705976 32.1325053,97.1829146 M32.0845788,97.1708659 C32.5605869,97.7390122 32.8811829,98.3729634 33.0459012,99.0722561 C28.9498114,100.181671 27.3714931,96.8682561 32.0845788,97.1708659 M31.8254033,97.015622 C31.8267992,97.0165488 32.4028482,97.2589146 31.8254033,97.015622 M25.0966114,92.0788659 C22.4457624,95.3802317 20.2574278,99.2275 23.5624971,102.998305 C26.5176563,106.369646 32.463338,106.804793 36.2137053,104.553988 C40.077142,102.234598 39.7435176,97.352061 37.0484645,94.1651585 C35.313338,92.1131585 33.9067176,92.1701585 31.3889461,91.8351098 C29.6747584,91.6071098 26.5511584,90.2743293 25.0966114,92.0788659" id="Fill-284" fill="#89C5CC"></path>
            <path d="M52.5001641,98.1888951 C52.5001641,102.584846 71.4813967,100.692724 74.8581233,100.68809 C77.6867192,100.68392 94.7904416,102.244237 93.5629641,97.7203829 C92.5541804,94.0033341 75.7068416,95.8509683 72.1188661,95.8454073 C69.0176008,95.8412366 52.5001641,93.7118463 52.5001641,98.1888951" id="Fill-286" fill="#89C5CC"></path>
        </g>
        <g id="Checkmark!" opacity="0.5" transform="translate(358.000000, 501.000000)" fill="#89C5CC">
            <path d="M25.6996729,9.37565421 C35.2057477,10.756028 45.0940654,15.2265888 45.0108879,26.2915421 C44.9412617,35.5948131 37.1384579,45.496215 27.1192991,44.9401402 C18.1024766,44.4406075 9.61228972,34.5803271 8.48331776,26.1303271 C7.89827103,21.7522897 8.99266355,17.0387383 11.5678972,13.4373364 C14.9421963,8.71864486 20.2964019,8.7261215 25.6996729,9.37565421 M21.209486,3.36163551 C14.3342523,3.39901869 9.3038785,5.88640187 5.04873832,11.1359346 C3.52257009,13.0181776 1.74780374,15.0443458 0.586121495,17.1770561 C-0.498925234,19.1686449 -0.308738318,24.2335981 3.41462617,21.8592991 C2.49780374,31.6649065 8.22864486,41.1821963 16.4669626,46.2064953 C25.4221028,51.6686449 35.5440654,50.6036916 42.9968692,42.9480841 C49.8192991,35.9401402 52.2202336,24.1032243 47.2291121,15.4364019 C42.2407944,6.77378505 30.6828505,3.26864486 21.209486,3.36163551" id="Fill-292"></path>
            <path d="M41.826215,0.733551402 C37.4243458,3.95971963 33.4051869,8.20785047 30.0668692,12.516729 C26.803785,16.7284112 24.6467757,21.9872897 20.7271495,25.6597196 C18.7477103,23.5036449 16.4285514,17.6807477 12.4799533,19.991028 C9.20331776,21.9078505 11.3131308,25.2045794 12.9089252,27.3690654 C17.0299533,32.9583178 21.6061215,35.2078505 26.8911682,29.6854206 C31.6911682,24.6704673 34.4168692,17.9802804 38.9047196,12.6765421 C40.8734112,10.3494393 43.9145327,8.03962617 45.4822897,5.47046729 C46.9033178,3.14149533 45.1458411,-1.70616822 41.826215,0.733551402" id="Fill-294"></path>
        </g>
        <g id="Whiteboard-Stuff" opacity="0.5" transform="translate(477.000000, 137.000000)">
            <path d="M43.82529,44.0225482 C43.9736873,43.999931 44.118307,43.9839791 44.2572443,43.9751792 C47.9274658,43.742355 51.6458881,43.8386322 55.3235251,43.7534639 C62.8535274,43.5789614 70.6806142,43.990454 78.1670502,43.1086842 C79.6886233,42.911501 80.2206872,44.8634292 79.5379954,45.8752658 C78.771879,47.011152 76.320121,46.9532931 75.1850822,47.1213153 C71.862,47.6133475 68.4948881,47.7850728 65.1421438,47.9336545 C61.6206963,48.0896421 58.096468,48.2062856 54.5727032,48.3044144 C51.5207511,48.3886569 44.7480594,49.6652559 41.9245982,48.3877312 C39.7243803,47.3922556 39.7757004,46.2868884 40.6737441,45.4305033 C40.1292677,44.2337836 40.2189839,42.2740235 40.1021402,41.3334802 C39.6136425,37.3921312 39.3193388,33.5012351 39.3123868,29.5260965 C39.2984826,21.7396757 39.3142406,13.6528515 41.4679872,6.11591832 C40.6054689,5.73821535 40.0849918,5.18138119 40.0873091,4.37876238 C40.0988959,-0.387886139 57.5851676,0.750314356 61.131179,0.655888614 C65.4891904,0.542022277 69.8481288,0.527210396 74.2070671,0.550816832 C77.0875352,0.566091584 80.9834667,-0.0555445545 83.8518845,0.610990099 C89.4367018,1.90749257 89.083074,11.4819851 89.1975511,16.1116238 C89.4028685,24.4159975 89.2837566,33.1462129 88.6089438,41.431146 C88.3762817,44.2916906 86.2953,47.9173614 83.921405,43.9741609 C82.5977338,41.7755223 83.1877315,36.6395025 83.1858776,34.210354 C83.179389,25.5745644 84.5327224,16.6777153 83.2382498,8.08636139 C82.813711,5.2697896 82.9077954,5.0795495 80.0421584,5.13879703 C77.7693,5.1860099 75.4964416,5.26145792 73.2235831,5.30913366 C68.594905,5.40633663 63.9643731,5.46975 59.3375489,5.63916089 C57.5805329,5.70396287 51.2662132,6.80698515 46.3418411,6.80281931 C46.3441584,6.84216337 46.3483297,6.88150743 46.3492566,6.92177723 C46.4169233,10.2512104 44.7845808,14.2920767 44.5625785,17.7950866 C44.0286607,26.2202698 44.6659324,34.8426361 43.8771059,43.2252351 C43.8532125,43.4794489 43.840075,43.750041 43.82529,44.0225482 Z" id="Wireframy-Stuff" fill="#89C5CC"></path>
            <path d="M110.119938,46.4583453 C109.547256,45.8739845 109.031814,45.0158482 108.700846,43.9451851 C107.512971,40.101502 107.400811,35.9537124 107.312752,31.9679277 C107.12465,23.449212 107.21812,14.9155287 107.166981,6.39381652 C106.39427,5.35599955 106.853113,4.16905277 107.817332,3.34091238 C110.422499,1.10478119 117.928401,1.67226139 121.234798,1.49729604 C125.993711,1.24549406 130.755869,1.18763515 135.520807,1.17004604 C140.566145,1.14458812 145.618435,1.23531089 150.661455,1.39037277 C152.532022,1.44776881 165.54117,1.77501881 159.726471,4.92902376 C159.393591,5.10960058 159.018887,5.26047784 158.610076,5.38571889 C158.851782,6.81883022 158.881108,8.29848443 158.842216,9.01127079 C158.595187,13.5464837 158.489052,18.0900282 158.287442,22.6275554 C158.063123,27.6922931 157.849,32.7565678 157.674735,37.8236198 C157.582041,40.5022559 158.498785,46.730652 156.378872,48.6645282 C154.950268,49.9681971 153.974086,49.7069565 153.316278,48.8215091 C148.243139,50.294693 136.536783,49.3453575 134.404585,49.3463839 C130.584199,49.3477725 109.836024,51.8037676 109.801727,47.3838097 C109.799066,47.0409431 109.910483,46.7335998 110.119938,46.4583453 Z M113.490912,44.8951141 C119.279269,43.6591418 130.071004,44.4848831 132.341679,44.4765151 C136.570845,44.4598517 140.801403,44.5186364 145.027325,44.6875844 C146.344513,44.7402038 149.56618,44.4866256 152.110757,44.7686518 C152.08801,44.5383356 152.072679,44.3278221 152.0635,44.1459787 C151.832691,39.584845 152.083892,34.9760356 152.231276,30.414902 C152.379123,25.8176644 152.60576,21.2241297 152.782805,16.6278178 C152.873955,14.2637229 152.276867,9.32879043 152.923741,5.92641279 C149.851707,5.86802366 146.630108,5.49675197 144.558015,5.49650396 C139.693894,5.49604109 134.833017,5.44095941 129.96936,5.53723663 C124.716387,5.64138267 119.406871,5.70294455 114.190976,6.39586287 C113.905074,6.433897 113.561539,6.50724149 113.181455,6.59617078 C113.975646,9.91765431 113.011677,15.259181 113.008339,18.3363683 C112.998606,26.9587347 113.316083,35.534351 113.50935,44.1113559 C113.515686,44.3923619 113.509126,44.6534157 113.490912,44.8951141 Z" id="Wireframy-Stuff" fill="#89C5CC"></path>
            <path d="M61.2840779,48.1234317 C58.1565801,49.9503847 59.8431486,57.2586594 60.9267422,59.7863995 C62.7078587,63.9425208 66.3220002,67.1946545 70.2216395,69.3520975 C78.1038792,73.712345 89.4658541,72.5542411 95.4270094,80.113855 C95.4886509,80.1920802 97.54924,82.231954 98.0182719,79.5903475 C98.4034158,77.4222584 94.5566121,74.1113401 93.0660916,73.0245183 C88.827192,69.9343896 83.3906852,68.9378277 78.4876326,67.394152 C73.2587605,65.7477188 67.5205345,62.7126718 65.3283199,57.3220728 C64.5520071,55.4127287 66.0318678,45.3364837 61.2840779,48.1234317" id="Fill-135" fill="#C1DEE2"></path>
            <path d="M132.779566,51.636995 C129.913465,52.4271163 131.809059,56.3707797 131.804424,58.3453886 C131.798862,60.8087896 131.011426,63.3869827 129.493097,65.352797 C125.64305,70.3383837 118.104241,71.0854579 112.452221,72.5148045 C108.348191,73.5534876 98.5291089,75.7803614 98.144892,81.330651 C97.7157185,87.5289604 106.384467,79.9860099 107.11675,79.6768119 C115.219139,76.7047153 125.701447,76.130755 131.955052,69.5885322 C134.536582,66.8881411 136.062326,63.2837624 136.304721,59.5636658 C136.441445,57.4691733 136.464618,50.63025 132.779566,51.636995" id="Fill-137" fill="#C1DEE2"></path>
            <path d="M94.3935632,85.60087 C106.322362,82.4584369 117.4336,90.8165037 118.839769,102.840048 C120.323801,115.528739 110.760554,125.743845 98.1485998,126.30392 C87.0545107,126.796415 73.6319468,118.85308 73.5610358,106.615689 C73.4942961,95.1475903 84.4692733,88.2105384 94.3935632,85.60087 Z M100.13457,94.1542686 C98.0943737,95.3433849 97.7203532,92.2583478 96.2761797,91.851021 C94.8259811,91.4427686 92.4956523,92.9679295 91.2878486,93.8571052 C89.2369925,95.3674542 83.5557733,104.158306 80.8022961,99.3842512 C72.4463897,113.813338 93.2784537,124.611662 105.124292,119.15117 C118.134367,113.154209 115.601965,91.2293849 100.207335,91.1150557 C100.852486,91.9921968 101.434604,93.3919196 100.13457,94.1542686 Z" id="Fill-139" fill="#89C5CC"></path>
            <path d="M89.2889475,102.776589 C89.2889475,105.408938 93.4458128,105.408938 93.4458128,102.776589 C93.4458128,100.174326 89.2889475,100.062774 89.2889475,102.776589" id="Fill-141" fill="#89C5CC"></path>
            <path d="M96.6026482,102.282566 C96.6026482,105.506927 101.697114,105.506927 101.697114,102.282566 C101.697114,99.0947715 96.6026482,98.9586874 96.6026482,102.282566" id="Fill-143" fill="#89C5CC"></path>
            <path d="M91.3689096,109.796078 C87.2027749,112.246519 99.1167429,117.115462 99.5871653,112.140058 C99.7901653,109.993261 97.7110374,110.572313 96.3252612,110.414474 C94.9992726,110.263115 92.626768,109.063816 91.3689096,109.796078" id="Fill-145" fill="#89C5CC"></path>
            <path d="M89.5618852,127.181292 C89.7431021,133.440238 89.6559696,139.69548 90.8429171,145.867406 C91.0686272,147.039396 91.2252801,151.291332 92.1517573,152.161993 C94.4306409,154.304161 94.468182,150.198493 94.5567048,148.625193 C94.8727916,142.989735 94.2814034,137.178849 94.1507048,131.531819 C94.1224331,130.316319 94.444545,127.798762 93.8707687,126.622144 C92.960513,124.754458 89.4733623,124.199938 89.5618852,127.181292" id="Fill-147" fill="#C1DEE2"></path>
            <path d="M85.1061742,122.106464 C75.9730281,132.357211 63.3962975,131.602268 50.7259459,132.499776 C44.0315806,132.974219 37.2625966,133.9481 31.8756811,138.278261 C29.3701605,140.292677 27.2099253,142.815788 25.7583363,145.691145 C25.1238454,146.948303 22.1140692,154.201496 26.6342952,152.480541 C28.237439,151.870476 29.8155555,147.073741 30.8523386,145.655041 C32.8271856,142.952798 35.3540258,140.722221 38.3851217,139.272046 C44.2322632,136.474914 51.2139801,136.52259 57.5537906,136.167568 C64.1809527,135.796808 71.2942952,135.450117 77.3861491,132.568281 C80.2517861,131.212531 82.9403774,129.521662 85.2466057,127.342927 C86.0706559,126.563914 87.8378683,125.241028 87.9694938,124.05006 C88.1201217,122.688756 86.811745,120.196657 85.1061742,122.106464" id="Fill-149" fill="#C1DEE2"></path>
            <path d="M38.9999614,153.569492 C30.4206623,153.856009 21.8524865,154.203162 13.2852377,154.745648 C11.5296121,154.856737 5.67598196,154.502177 7.16696598,158.099613 C8.36179247,160.983301 15.5006258,159.075808 17.8620071,158.936021 C26.7893724,158.406034 35.7533518,158.221811 44.6617148,157.418729 C46.6629797,157.238672 55.7085299,157.310417 51.9734226,153.763898 C50.1964774,152.075806 41.4549637,153.485712 38.9999614,153.569492" id="Fill-151" fill="#89C5CC"></path>
            <path d="M1.71956758,157.707329 C-0.984781735,161.258941 0.257782192,169.891027 0.462172603,174.160552 C0.660074429,178.298159 -0.143583105,185.863327 5.25723653,186.504867 C3.54239635,186.279911 6.55912466,186.609013 7.04993973,186.635396 C8.1465105,186.694181 9.24817945,186.713159 10.3461406,186.725193 C12.8827137,186.752966 15.4206772,186.719176 17.9567868,186.66826 C23.7019648,186.553468 29.461974,186.386372 35.1997365,186.068842 C37.6116361,185.935072 50.6958667,186.046624 51.2140265,183.541102 C51.8758621,180.339421 39.3306475,182.150636 37.0851338,182.252931 C31.6157205,182.503807 26.1379648,182.556575 20.6639169,182.62832 C17.9507616,182.663961 15.2348256,182.690807 12.5216703,182.637577 C11.4014626,182.615822 6.96466119,183.075916 6.28382329,182.328379 C5.70309498,181.691931 6.15636895,175.842164 6.14385525,174.947433 C6.1039968,172.030419 6.1072411,169.106461 6.21105845,166.190834 C6.28104247,164.227797 7.3423895,160.492889 6.47755388,158.64881 C5.63635525,156.856109 3.18459726,156.244193 1.71956758,157.707329" id="Fill-153" fill="#89C5CC"></path>
            <path d="M45.894963,157.873223 C46.051616,164.370547 46.1002804,170.999326 47.6348306,177.353624 C48.1455749,179.468482 48.8611731,183.829193 50.985721,184.923883 C53.2154767,186.073193 55.1407324,184.432777 55.2862621,182.223492 C55.4697963,179.445802 53.9825201,175.799302 53.6775566,172.949403 C53.3211479,169.624136 53.1139767,166.295628 52.992084,162.954161 C52.8998534,160.441232 53.6636525,156.67346 51.2679744,155.052948 C49.1160817,153.597218 45.824979,155.063131 45.894963,157.873223" id="Fill-155" fill="#89C5CC"></path>
            <path d="M62.9680509,156.286777 C60.2998523,158.944584 61.4923614,167.359584 61.82606,170.774649 C62.0703089,173.276005 64.8080281,185.580513 68.9102039,179.164191 C70.7246902,176.325864 68.4193888,168.820869 68.4356103,165.511339 C68.4462701,163.403424 69.1924573,160.738211 68.8323409,158.713149 C68.3563568,156.036827 65.3882929,153.869664 62.9680509,156.286777" id="Fill-157" fill="#89C5CC"></path>
            <path d="M125.731505,178.249193 C126.319527,178.885457 126.579839,179.791531 126.198055,180.678289 C125.280847,182.807497 121.905393,182.347866 120.071905,182.500613 C113.953169,183.010698 107.806163,183.350908 101.665644,183.404601 C95.7327607,183.456905 89.7980233,183.304621 83.8656032,183.362943 C78.9231557,183.411544 73.7749274,184.413198 68.8783635,184.212311 C66.8339959,184.128069 64.6510507,183.458757 65.1692105,180.816688 C65.6285096,178.472707 67.98711,178.454193 69.9100484,178.258398 C75.7025005,177.6687 81.4981968,177.459945 87.320311,177.480774 C99.5512927,177.523358 111.772542,177.459945 124.00306,177.396069 C124.505741,177.437486 124.979314,177.629644 125.369313,177.922453 C124.72962,177.146054 125.037105,175.995982 124.917672,174.873559 C124.596024,171.84777 124.388853,168.873822 123.815076,165.848495 C123.356241,163.428604 123.010492,159.318307 120.768686,157.795923 C118.320636,156.133752 112.885983,156.683643 109.964266,156.608195 C102.102882,156.405458 94.196542,156.96368 86.3708457,157.675114 C82.8021242,157.999586 79.1893731,158.24676 75.6609735,158.887374 C73.6963228,159.24471 67.931679,162.128861 66.3623685,160.354213 C62.583695,156.080522 79.1884461,154.325777 81.4427658,154.092953 C89.4570945,153.266265 97.4811562,152.646017 105.539515,152.56918 C110.981583,152.526596 120.294556,152.062799 124.295695,156.527656 C126.698789,159.208606 127.541841,163.625324 128.479442,166.970495 C129.199674,169.539893 131.153202,174.172772 129.765108,176.826413 C129.137106,178.027101 128.125814,179.050973 126.591263,178.625594 C126.232724,178.526252 125.951673,178.399168 125.731505,178.249193 Z" id="Wireframy-Stuff" fill="#89C5CC"></path>
            <path d="M166.707076,144.363167 C167.055606,144.811226 167.055606,144.811226 166.707076,144.363167 M112.472706,117.886929 C107.605341,120.747937 116.614277,129.143033 118.908918,130.441387 C124.073368,133.363031 131.169562,133.803684 136.93606,134.625281 C144.233864,135.665815 152.176355,136.04861 159.189587,138.440266 C162.178508,139.459508 164.077345,141.049471 166.034117,143.493432 C167.02548,144.731612 169.412816,150.068981 171.586955,148.805343 C175.964432,146.260939 164.169113,135.582961 161.569971,134.435041 C155.661651,131.824909 148.677617,131.094036 142.360517,130.08081 C136.486494,129.137942 130.485944,128.437154 124.756987,126.775447 C121.606779,125.861739 119.367754,124.387956 117.551877,121.567219 C116.420083,119.809234 115.491752,116.120612 112.472706,117.886929" id="Line" fill="#C1DEE2"></path>
            <path d="M138.586107,179.696019 C137.130387,176.905287 136.461124,171.5437 136.331278,170.484799 C135.771405,165.922739 135.72923,161.414373 135.806166,156.824078 C135.851283,154.304331 138.735712,153.102488 140.604717,154.51615 C143.104227,153.469539 147.333372,153.312257 149.606041,153.082782 C153.340685,152.705542 157.106845,152.565292 160.852612,152.341263 C169.596443,151.818681 178.331004,150.875812 187.091057,150.681406 C189.712445,150.626787 193.223233,150.39026 195.319509,152.325062 C197.706381,154.528329 198.181902,159.993914 198.897036,162.938701 C199.673813,166.136678 200.60168,169.390664 200.926573,172.671495 C201.002717,173.439991 201.208146,174.75994 201.115704,175.947464 C202.207104,176.096125 202.859207,177.154164 202.748706,178.309916 C202.544316,180.455324 199.572081,180.747859 197.83314,181.087143 C192.050421,182.216549 185.868654,181.959656 180.006218,182.125364 C167.741403,182.470666 154.625193,184.451755 142.406261,183.272359 C140.31499,183.070418 138.068295,182.331624 138.586107,179.696019 Z M143.001363,177.171515 C143.487195,177.167691 143.967067,177.176672 144.414478,177.168938 C150.583268,177.061089 156.747423,176.874089 162.912042,176.637099 C169.199017,176.395943 175.485992,176.126552 181.777601,176.054344 C186.77882,175.997478 191.928963,176.429034 196.965748,176.234608 C195.883097,173.399762 196.046902,168.937194 195.469673,166.00152 C194.896361,163.08682 194.678529,159.630097 193.506413,156.892676 C192.187376,153.813193 191.040287,154.525552 187.605509,154.758839 C184.073402,154.998607 180.545929,155.335577 177.017529,155.625797 C169.261354,156.263634 161.498689,156.667258 153.736952,157.207891 C149.711124,157.488139 145.859075,158.637471 141.921735,159.08818 C141.862459,160.493473 141.664343,161.911571 141.686677,162.93722 C141.75249,165.962083 142.050501,168.965655 142.313289,171.978022 C142.420104,173.203113 142.925941,175.317617 143.001363,177.171515 Z" id="Wireframy-Stuff" fill="#89C5CC"></path>
        </g>
    </g>
</svg>